<svg width="16" height="16" viewBox="0 0 16 16" fill="none" xmlns="http://www.w3.org/2000/svg">
<circle cx="8" cy="8" r="7.5" stroke="#3733FF"/>
<path d="M7.32048 12V5.45455H8.32616V12H7.32048ZM7.83184 4.36364C7.63582 4.36364 7.46679 4.29688 7.32474 4.16335C7.18554 4.02983 7.11593 3.86932 7.11593 3.68182C7.11593 3.49432 7.18554 3.33381 7.32474 3.20028C7.46679 3.06676 7.63582 3 7.83184 3C8.02787 3 8.19548 3.06676 8.33468 3.20028C8.47673 3.33381 8.54775 3.49432 8.54775 3.68182C8.54775 3.86932 8.47673 4.02983 8.33468 4.16335C8.19548 4.29688 8.02787 4.36364 7.83184 4.36364Z" fill="#3733FF"/>
</svg>
