<svg width="392" height="374" viewBox="0 0 392 374" fill="none" xmlns="http://www.w3.org/2000/svg">
<rect x="0.4" y="0.4" width="391.2" height="373.2" rx="18.8" stroke="#CCCCCC" stroke-width="0.8"/>
<path d="M0.4 19.2C0.4 8.81704 8.81705 0.4 19.2 0.4H372.8C383.183 0.4 391.6 8.81705 391.6 19.2V127.6H0.4V19.2Z" fill="#F6F6F6" stroke="#CCCCCC" stroke-width="0.8"/>
<path d="M100.393 84.6624H96.7757V83.0452H100.393V84.6624ZM100.455 87.7014H96.7757V86.1233H100.455V87.7014ZM97.1976 88.8967H90.4398V81.9749H97.1976V88.8967ZM92.4164 87.3499H95.2367V83.553H92.4164V87.3499ZM101.83 91.178H99.8461V80.8342H101.83V91.178ZM102.135 94.7952H92.3617V93.1858H102.135V94.7952ZM94.3773 94.0139H92.3617V90.2014H94.3773V94.0139ZM114.134 85.6311H111.368V83.9983H114.134V85.6311ZM115.603 88.592H113.626V80.803H115.603V88.592ZM108.103 90.4983H113.626V89.1545H115.603V94.8811H106.126V89.1545H108.103V90.4983ZM113.626 93.2795V92.0295H108.103V93.2795H113.626ZM108.587 82.842C108.587 83.7535 108.439 84.6103 108.142 85.4124C107.845 86.2092 107.394 86.9097 106.79 87.5139C106.191 88.1129 105.454 88.5556 104.579 88.842L103.548 87.2795C104.298 87.0243 104.928 86.6676 105.439 86.2092C105.954 85.7457 106.337 85.2275 106.587 84.6545C106.837 84.0764 106.962 83.4722 106.962 82.842V81.9124H108.587V82.842ZM108.993 82.8577C108.993 83.4306 109.113 83.9879 109.353 84.5295C109.592 85.0712 109.954 85.5634 110.439 86.0061C110.928 86.4436 111.538 86.7821 112.267 87.0217L111.282 88.5608C110.423 88.2691 109.699 87.8394 109.111 87.2717C108.527 86.704 108.092 86.0426 107.806 85.2874C107.519 84.5321 107.376 83.7222 107.376 82.8577V81.9124H108.993V82.8577ZM111.829 83.0842H104.111V81.467H111.829V83.0842ZM133.351 83.8811H121.679V82.2874H133.351V83.8811ZM134.069 91.6311H121.069V90.0139H134.069V91.6311ZM128.522 95.053H126.561V91.3967H128.522V95.053ZM127.546 84.4436C128.572 84.4436 129.449 84.5374 130.179 84.7249C130.908 84.9071 131.468 85.1832 131.858 85.553C132.254 85.9176 132.452 86.3629 132.452 86.8889C132.452 87.3993 132.254 87.8368 131.858 88.2014C131.468 88.5608 130.908 88.8342 130.179 89.0217C129.449 89.2092 128.572 89.3056 127.546 89.3108C126.525 89.3056 125.647 89.2092 124.913 89.0217C124.179 88.8342 123.616 88.5608 123.226 88.2014C122.835 87.8368 122.64 87.3993 122.64 86.8889C122.64 86.3629 122.835 85.9176 123.226 85.553C123.616 85.1832 124.179 84.9071 124.913 84.7249C125.647 84.5374 126.525 84.4436 127.546 84.4436ZM127.546 85.9202C126.905 85.9202 126.374 85.954 125.952 86.0217C125.535 86.0894 125.223 86.1962 125.015 86.342C124.811 86.4827 124.71 86.665 124.71 86.8889C124.71 87.0972 124.811 87.2717 125.015 87.4124C125.223 87.553 125.535 87.6597 125.952 87.7327C126.374 87.8056 126.905 87.842 127.546 87.842C128.181 87.842 128.707 87.8056 129.124 87.7327C129.541 87.6597 129.853 87.553 130.061 87.4124C130.275 87.2717 130.382 87.0972 130.382 86.8889C130.382 86.665 130.275 86.4827 130.061 86.342C129.853 86.1962 129.541 86.0894 129.124 86.0217C128.707 85.954 128.181 85.9202 127.546 85.9202ZM128.522 83.3577H126.561V80.7874H128.522V83.3577ZM149.004 85.717H146.239V84.0999H149.004V85.717ZM150.481 89.0452H148.497V80.803H150.481V89.0452ZM150.481 94.8811H140.926V89.6233H150.481V94.8811ZM142.919 93.2795H148.536V91.1936H142.919V93.2795ZM143.458 83.0452C143.458 83.967 143.309 84.829 143.012 85.6311C142.715 86.428 142.265 87.1285 141.661 87.7327C141.062 88.3316 140.325 88.7743 139.45 89.0608L138.419 87.4827C139.169 87.2379 139.799 86.8863 140.309 86.428C140.825 85.9644 141.208 85.4436 141.458 84.8655C141.708 84.2821 141.833 83.6754 141.833 83.0452V82.1233H143.458V83.0452ZM143.864 83.0608C143.864 83.6389 143.981 84.1988 144.215 84.7405C144.455 85.2769 144.82 85.7665 145.309 86.2092C145.799 86.6467 146.408 86.9879 147.137 87.2327L146.153 88.7952C145.294 88.5139 144.57 88.0868 143.981 87.5139C143.398 86.941 142.963 86.2743 142.676 85.5139C142.39 84.7483 142.247 83.9306 142.247 83.0608V82.1233H143.864V83.0608ZM146.7 83.1389H138.981V81.5452H146.7V83.1389ZM159.472 81.928C159.472 82.8342 159.235 83.678 158.761 84.4592C158.287 85.2353 157.602 85.8863 156.707 86.4124C155.816 86.9384 154.769 87.29 153.566 87.467L152.785 85.8655C153.816 85.7405 154.707 85.4749 155.457 85.0686C156.207 84.6571 156.772 84.178 157.152 83.6311C157.532 83.079 157.722 82.5113 157.722 81.928V81.2327H159.472V81.928ZM159.816 81.928C159.816 82.5113 160.009 83.079 160.394 83.6311C160.785 84.1832 161.355 84.6624 162.105 85.0686C162.86 85.4749 163.753 85.7405 164.785 85.8655L164.011 87.467C162.803 87.29 161.751 86.9384 160.855 86.4124C159.959 85.8863 159.272 85.2353 158.792 84.4592C158.313 83.6832 158.074 82.8394 158.074 81.928V81.2327H159.816V81.928ZM159.714 95.0374H157.738V89.8108H159.714V95.0374ZM165.253 90.178H152.285V88.5452H165.253V90.178ZM177.612 86.2561H167.666V84.7014H177.612V86.2561ZM179.049 89.342H166.049V87.7795H179.049V89.342ZM169.659 85.4827H167.666V81.3186H169.659V85.4827ZM177.698 94.7249H167.541V93.1155H177.698V94.7249ZM169.541 93.5764H167.541V90.5061H169.541V93.5764ZM187.414 81.8108C188.122 81.8108 188.755 82.0191 189.312 82.4358C189.87 82.8525 190.305 83.4436 190.617 84.2092C190.935 84.9749 191.094 85.8655 191.094 86.8811C191.094 87.9019 190.935 88.7952 190.617 89.5608C190.305 90.3264 189.87 90.9176 189.312 91.3342C188.755 91.7457 188.122 91.9514 187.414 91.9514C186.701 91.9514 186.062 91.7457 185.5 91.3342C184.943 90.9228 184.505 90.3342 184.188 89.5686C183.87 88.7978 183.711 87.9019 183.711 86.8811C183.711 85.8655 183.87 84.9749 184.188 84.2092C184.505 83.4436 184.943 82.8525 185.5 82.4358C186.062 82.0191 186.701 81.8108 187.414 81.8108ZM187.414 83.6155C187.06 83.6103 186.745 83.7353 186.469 83.9905C186.198 84.2457 185.99 84.6181 185.844 85.1077C185.703 85.5972 185.633 86.1884 185.633 86.8811C185.633 87.5738 185.703 88.165 185.844 88.6545C185.99 89.1441 186.198 89.5165 186.469 89.7717C186.745 90.0217 187.06 90.1467 187.414 90.1467C187.773 90.1467 188.089 90.0217 188.359 89.7717C188.63 89.5165 188.839 89.1441 188.984 88.6545C189.13 88.165 189.203 87.5738 189.203 86.8811C189.203 86.1832 189.128 85.5894 188.977 85.0999C188.831 84.6103 188.625 84.2405 188.359 83.9905C188.094 83.7353 187.779 83.6103 187.414 83.6155ZM195.492 95.0764H193.516V80.803H195.492V95.0764ZM194.367 87.553H190.5V85.9514H194.367V87.553ZM209.6 90.6077H199.085V89.0999H209.6V90.6077ZM204.319 91.0374C205.194 91.0374 205.944 91.1155 206.569 91.2717C207.194 91.428 207.673 91.6571 208.007 91.9592C208.345 92.2561 208.514 92.6181 208.514 93.0452C208.514 93.4722 208.345 93.8368 208.007 94.1389C207.673 94.441 207.194 94.6676 206.569 94.8186C205.944 94.9749 205.194 95.0556 204.319 95.0608C203.444 95.0556 202.692 94.9749 202.061 94.8186C201.436 94.6676 200.957 94.441 200.624 94.1389C200.296 93.8368 200.132 93.4722 200.132 93.0452C200.132 92.6181 200.296 92.2561 200.624 91.9592C200.957 91.6571 201.439 91.428 202.069 91.2717C202.699 91.1155 203.449 91.0374 204.319 91.0374ZM204.319 92.4202C203.85 92.4202 203.465 92.4436 203.163 92.4905C202.866 92.5321 202.642 92.5972 202.491 92.6858C202.34 92.7743 202.264 92.8941 202.264 93.0452C202.264 93.1962 202.34 93.3212 202.491 93.4202C202.647 93.5139 202.876 93.5816 203.179 93.6233C203.481 93.6702 203.861 93.6936 204.319 93.6936C204.778 93.6936 205.153 93.6702 205.444 93.6233C205.741 93.5816 205.965 93.5139 206.116 93.4202C206.272 93.3212 206.35 93.1962 206.35 93.0452C206.35 92.8941 206.272 92.7743 206.116 92.6858C205.965 92.5972 205.746 92.5321 205.46 92.4905C205.173 92.4436 204.793 92.4202 204.319 92.4202ZM205.35 90.0842H203.35V87.9905H205.35V90.0842ZM198.194 85.967C198.856 85.967 199.423 85.9488 199.897 85.9124C200.371 85.8759 200.861 85.803 201.366 85.6936L201.514 87.2561C200.962 87.3603 200.447 87.428 199.968 87.4592C199.494 87.4905 198.903 87.5035 198.194 87.4983H197.514V85.967H198.194ZM201.233 82.9358H199.452V87.0842H197.514V81.4045H201.233V82.9358ZM202.647 85.967C203.58 85.967 204.293 85.9488 204.788 85.9124C205.288 85.8707 205.772 85.7952 206.241 85.6858L206.389 87.2561C205.921 87.3551 205.434 87.4228 204.929 87.4592C204.429 87.4905 203.668 87.5035 202.647 87.4983H201.889V85.967H202.647ZM205.889 82.9358H203.866V87.0842H201.889V81.4045H205.889V82.9358ZM209.382 88.3967H207.429V80.803H209.382V88.3967ZM208.514 85.0764H205.491V83.5686H208.514V85.0764ZM223.373 95.0374H221.498V80.803H223.373V95.0374ZM218.857 87.8811H215.748V86.2952H218.857V87.8811ZM220.349 94.4124H218.474V81.1389H220.349V94.4124ZM217.271 82.5061C217.271 83.9176 217.105 85.1988 216.771 86.3499C216.443 87.4957 215.891 88.5504 215.115 89.5139C214.339 90.4775 213.302 91.3316 212.006 92.0764L210.881 90.678C211.964 90.0374 212.831 89.3368 213.482 88.5764C214.133 87.8108 214.605 86.967 214.896 86.0452C215.193 85.1233 215.341 84.079 215.341 82.9124V82.5061H217.271ZM215.982 84.1077H211.662V82.5061H215.982V84.1077ZM236.941 86.1858H234.019V84.5686H236.941V86.1858ZM236.894 89.7249H233.949V88.1155H236.894V89.7249ZM240.808 95.0374H238.933V80.803H240.808V95.0374ZM237.839 94.4124H235.956V81.1389H237.839V94.4124ZM234.675 82.5061C234.675 83.9071 234.509 85.1806 234.175 86.3264C233.842 87.4722 233.29 88.5269 232.519 89.4905C231.753 90.4488 230.727 91.3108 229.441 92.0764L228.269 90.678C229.352 90.0374 230.219 89.3368 230.871 88.5764C231.527 87.8108 232.003 86.967 232.3 86.0452C232.602 85.1233 232.753 84.079 232.753 82.9124V82.5061H234.675ZM233.417 84.1077H229.097V82.5061H233.417V84.1077ZM247.166 83.2405C247.166 84.1988 247.015 85.0868 246.713 85.9045C246.416 86.7222 245.966 87.4358 245.362 88.0452C244.763 88.6493 244.023 89.1051 243.143 89.4124L242.033 87.842C242.815 87.5972 243.463 87.2379 243.979 86.7639C244.5 86.29 244.882 85.7509 245.127 85.1467C245.377 84.5426 245.502 83.9071 245.502 83.2405V81.6936H247.166V83.2405ZM247.51 83.2561C247.51 83.8863 247.63 84.4827 247.869 85.0452C248.109 85.6077 248.479 86.1103 248.979 86.553C249.484 86.9957 250.106 87.3394 250.846 87.5842L249.799 89.1467C248.945 88.8499 248.226 88.4124 247.643 87.8342C247.065 87.2561 246.63 86.5764 246.338 85.7952C246.052 85.0139 245.908 84.1676 245.908 83.2561V81.6936H247.51V83.2561ZM253.549 91.2405H251.557V80.8264H253.549V91.2405ZM255.471 86.6155H252.971V84.9436H255.471V86.6155ZM254.08 94.7952H244.323V93.1858H254.08V94.7952ZM246.354 94.0374H244.323V90.2092H246.354V94.0374ZM264.517 88.1936H257.048V86.592H264.517V88.1936ZM261.751 90.9124H259.759V87.8811H261.751V90.9124ZM264.446 83.6545H259.025V87.1233H257.048V82.0842H264.446V83.6545ZM267.993 95.0764H266.017V80.803H267.993V95.0764ZM256.11 90.6155C257.803 90.6259 259.407 90.6103 260.923 90.5686C262.444 90.5269 263.873 90.4332 265.212 90.2874L265.353 91.7405C264.389 91.8863 263.397 91.9957 262.376 92.0686C261.355 92.1415 260.384 92.1884 259.462 92.2092C258.545 92.2301 257.506 92.2405 256.345 92.2405L256.11 90.6155ZM283.055 87.8342H280.531V86.2014H283.055V87.8342ZM281.047 95.0139H279.047V80.803H281.047V95.0139ZM272.273 91.0061H270.281V82.1702H272.273V91.0061ZM271.516 89.8967C272.609 89.8967 273.7 89.8472 274.789 89.7483C275.883 89.6493 276.982 89.4905 278.086 89.2717L278.305 90.928C277.195 91.1519 276.081 91.3108 274.961 91.4045C273.846 91.4931 272.698 91.5374 271.516 91.5374H270.281V89.8967H271.516ZM288.491 92.0452H286.514V88.053H288.491V92.0452ZM293.725 92.0452H291.718V88.053H293.725V92.0452ZM296.616 93.3733H283.616V91.7405H296.616V93.3733ZM290.093 81.5061C291.119 81.5061 292.035 81.665 292.843 81.9827C293.655 82.3004 294.29 82.7483 294.749 83.3264C295.212 83.9045 295.444 84.5686 295.444 85.3186C295.444 86.0738 295.215 86.7405 294.757 87.3186C294.298 87.8915 293.663 88.3368 292.85 88.6545C292.043 88.967 291.124 89.1259 290.093 89.1311C289.067 89.1259 288.147 88.967 287.335 88.6545C286.527 88.3368 285.895 87.8915 285.436 87.3186C284.978 86.7405 284.749 86.0738 284.749 85.3186C284.749 84.5686 284.978 83.9045 285.436 83.3264C285.895 82.7483 286.53 82.3004 287.343 81.9827C288.155 81.665 289.072 81.5061 290.093 81.5061ZM290.093 83.0842C289.415 83.079 288.824 83.165 288.319 83.342C287.814 83.5191 287.421 83.7769 287.139 84.1155C286.858 84.4488 286.718 84.8499 286.718 85.3186C286.718 85.7821 286.858 86.1858 287.139 86.5295C287.421 86.8681 287.814 87.1311 288.319 87.3186C288.83 87.5009 289.421 87.592 290.093 87.592C290.759 87.592 291.348 87.5009 291.858 87.3186C292.369 87.1311 292.764 86.8681 293.046 86.5295C293.332 86.1858 293.475 85.7821 293.475 85.3186C293.475 84.8499 293.335 84.4488 293.053 84.1155C292.772 83.7821 292.376 83.5269 291.866 83.3499C291.361 83.1676 290.77 83.079 290.093 83.0842ZM299.873 90.0374C299.878 89.4071 299.935 88.8993 300.045 88.5139C300.154 88.1233 300.31 87.8108 300.513 87.5764C300.716 87.342 300.992 87.1181 301.341 86.9045C301.732 86.665 302.029 86.415 302.232 86.1545C302.435 85.8889 302.537 85.592 302.537 85.2639C302.537 85.0087 302.477 84.7847 302.357 84.592C302.242 84.3941 302.078 84.2431 301.865 84.1389C301.657 84.0347 301.425 83.9827 301.17 83.9827C300.925 83.9827 300.693 84.0374 300.474 84.1467C300.261 84.2509 300.086 84.4097 299.951 84.6233C299.815 84.8368 299.742 85.092 299.732 85.3889H297.513C297.529 84.6806 297.701 84.0816 298.029 83.592C298.357 83.1025 298.792 82.7379 299.334 82.4983C299.88 82.2535 300.495 82.1311 301.177 82.1311C301.912 82.1311 302.56 82.2535 303.123 82.4983C303.685 82.7379 304.123 83.0894 304.435 83.553C304.753 84.0113 304.912 84.5556 304.912 85.1858C304.912 85.8056 304.763 86.3316 304.466 86.7639C304.175 87.1962 303.755 87.579 303.209 87.9124C302.907 88.0894 302.664 88.2717 302.482 88.4592C302.305 88.6467 302.17 88.8655 302.076 89.1155C301.982 89.3655 301.935 89.6728 301.935 90.0374V90.217H299.873V90.0374ZM300.951 93.7405C300.716 93.7405 300.498 93.6806 300.295 93.5608C300.091 93.4358 299.933 93.2743 299.818 93.0764C299.703 92.8733 299.646 92.6545 299.646 92.4202C299.646 92.191 299.703 91.9775 299.818 91.7795C299.933 91.5764 300.091 91.4176 300.295 91.303C300.498 91.1884 300.716 91.1311 300.951 91.1311C301.18 91.1311 301.394 91.1884 301.591 91.303C301.795 91.4176 301.956 91.5764 302.076 91.7795C302.201 91.9775 302.263 92.191 302.263 92.4202C302.263 92.6545 302.201 92.8733 302.076 93.0764C301.956 93.2743 301.795 93.4358 301.591 93.5608C301.394 93.6806 301.18 93.7405 300.951 93.7405Z" fill="#1A1A1A"/>
<path d="M192.221 50.3936L193.637 52.2404L194.312 53.0748L196.571 56.0279H194.462L192.953 54.0592L192.428 53.3373L190.187 50.3936H192.221ZM197.003 48.0123C197.003 49.4248 196.74 50.6592 196.215 51.7154C195.69 52.7717 194.965 53.5811 194.04 54.1436C193.121 54.7061 192.071 54.9873 190.89 54.9873C189.709 54.9873 188.656 54.7061 187.731 54.1436C186.812 53.5811 186.09 52.7717 185.565 51.7154C185.04 50.6592 184.778 49.4248 184.778 48.0123C184.778 46.5873 185.04 45.3498 185.565 44.2998C186.09 43.2498 186.812 42.4436 187.731 41.8811C188.656 41.3186 189.709 41.0373 190.89 41.0373C192.071 41.0373 193.121 41.3186 194.04 41.8811C194.965 42.4436 195.69 43.2498 196.215 44.2998C196.74 45.3498 197.003 46.5873 197.003 48.0123ZM194.968 48.0123C194.968 46.9373 194.793 46.0186 194.443 45.2561C194.093 44.4873 193.612 43.9061 193 43.5123C192.387 43.1186 191.684 42.9217 190.89 42.9217C190.103 42.9217 189.4 43.1186 188.781 43.5123C188.168 43.9061 187.687 44.4873 187.337 45.2561C186.987 46.0186 186.812 46.9373 186.812 48.0123C186.812 49.0873 186.987 50.0092 187.337 50.7779C187.687 51.5404 188.168 52.1186 188.781 52.5123C189.4 52.9061 190.103 53.1029 190.89 53.1029C191.684 53.1029 192.387 52.9061 193 52.5123C193.612 52.1186 194.093 51.5404 194.443 50.7779C194.793 50.0092 194.968 49.0873 194.968 48.0123ZM199.14 53.2998L203.856 48.5467C204.425 47.9592 204.862 47.4842 205.168 47.1217C205.475 46.7592 205.703 46.4029 205.853 46.0529C206.009 45.6967 206.087 45.3279 206.087 44.9467C206.087 44.5154 205.978 44.1342 205.759 43.8029C205.54 43.4717 205.24 43.2154 204.859 43.0342C204.478 42.8529 204.05 42.7623 203.575 42.7623C203.081 42.7623 202.646 42.8623 202.271 43.0623C201.903 43.2561 201.615 43.5373 201.409 43.9061C201.209 44.2686 201.109 44.6873 201.109 45.1623H199.15C199.15 44.3498 199.34 43.6311 199.721 43.0061C200.103 42.3811 200.631 41.8967 201.306 41.5529C201.987 41.2092 202.759 41.0373 203.621 41.0373C204.478 41.0373 205.24 41.2061 205.909 41.5436C206.578 41.8748 207.1 42.3342 207.475 42.9217C207.856 43.5029 208.046 44.1561 208.046 44.8811C208.046 45.3998 207.95 45.8998 207.756 46.3811C207.562 46.8623 207.234 47.3936 206.771 47.9748C206.309 48.5561 205.646 49.2717 204.784 50.1217L202.018 52.9248V53.0279H208.271V54.7998H199.15L199.14 53.2998Z" fill="#3733FF"/>
<path d="M44.585 182.002H41.1397V181.1H44.585V182.002ZM44.6124 184.6H41.1397V183.711H44.6124V184.6ZM41.4132 185.693H35.835V180.02H41.4132V185.693ZM36.9014 184.832H40.3604V180.908H36.9014V184.832ZM45.337 187.84H44.2569V178.967H45.337V187.84ZM45.6104 190.848H37.4757V189.945H45.6104V190.848ZM38.5557 190.342H37.4757V187.047H38.5557V190.342ZM56.6153 182.809H53.8536V181.906H56.6153V182.809ZM57.3809 185.557H56.3145V178.953H57.3809V185.557ZM50.6407 187.662H56.3145V186.145H57.3809V190.943H49.5606V186.145H50.6407V187.662ZM56.3145 190.068V188.523H50.6407V190.068H56.3145ZM51.3516 180.936C51.3516 181.656 51.2058 182.337 50.9141 182.979C50.6225 183.622 50.2191 184.185 49.7042 184.668C49.1892 185.151 48.599 185.516 47.9337 185.762L47.3731 184.914C47.9656 184.695 48.4965 184.383 48.9659 183.978C49.4353 183.572 49.8022 183.105 50.0665 182.576C50.3308 182.048 50.463 181.501 50.463 180.936V179.91H51.3516V180.936ZM51.543 180.936C51.543 181.446 51.6706 181.947 51.9258 182.439C52.1811 182.932 52.5342 183.371 52.9854 183.759C53.4366 184.146 53.9538 184.44 54.5372 184.641L53.9766 185.475C53.3204 185.229 52.7439 184.878 52.2471 184.422C51.7504 183.966 51.363 183.438 51.085 182.836C50.807 182.234 50.668 181.601 50.668 180.936V179.91H51.543V180.936ZM54.2637 180.58H47.7149V179.691H54.2637V180.58ZM72.8692 185.27H71.8165V178.953H72.8692V185.27ZM72.8829 188.756H66.0606V190.506H65.0079V187.949H71.8165V186.705H64.9805V185.857H72.8829V188.756ZM73.3204 190.971H65.0079V190.109H73.3204V190.971ZM67.0176 180.676C67.0176 181.378 66.8718 182.036 66.5801 182.651C66.2885 183.267 65.8783 183.802 65.3497 184.258C64.821 184.714 64.2149 185.055 63.5313 185.283L63.0254 184.436C63.6361 184.235 64.1762 183.943 64.6456 183.561C65.115 183.178 65.4818 182.738 65.7461 182.241C66.0105 181.744 66.1426 181.223 66.1426 180.676V180.02H67.0176V180.676ZM67.2227 180.676C67.2227 181.195 67.3549 181.69 67.6192 182.159C67.8835 182.629 68.2527 183.039 68.7266 183.39C69.2006 183.741 69.7429 184.007 70.3536 184.189L69.8204 185.023C69.1459 184.805 68.5466 184.483 68.0225 184.06C67.4984 183.636 67.0905 183.132 66.7989 182.549C66.5072 181.965 66.3614 181.341 66.3614 180.676V180.02H67.2227V180.676ZM70.0254 180.539H63.2989V179.65H70.0254V180.539ZM86.0206 186.062H74.8916V185.174H86.0206V186.062ZM81.0713 188.551H80.0049V185.721H81.0713V188.551ZM84.5713 183.779H76.3409V179.555H84.5713V183.779ZM77.3936 182.918H83.5049V180.402H77.3936V182.918ZM84.7764 190.848H76.3135V189.945H84.7764V190.848ZM77.3936 190.26H76.3135V187.348H77.3936V190.26ZM94.7412 186.213H93.6748V184.668H94.7412V186.213ZM99.9229 187.115H98.8428V178.967H99.9229V187.115ZM101.741 183.547H99.4717V182.645H101.741V183.547ZM90.3799 185.871C91.3552 185.871 92.2438 185.864 93.0459 185.851C93.848 185.837 94.6957 185.8 95.5889 185.741C96.4821 185.682 97.3161 185.598 98.0909 185.488L98.1866 186.268C97.029 186.468 95.835 186.598 94.6045 186.657C93.3741 186.716 92.0069 186.746 90.503 186.746L90.3799 185.871ZM99.9229 191.107H98.8428V188.578H91.8701V187.717H99.9229V191.107ZM97.7217 180.895H90.6807V180.074H97.7217V180.895ZM94.1944 181.359C94.7686 181.359 95.2699 181.432 95.6983 181.578C96.1267 181.724 96.4593 181.931 96.6963 182.2C96.9333 182.469 97.0518 182.786 97.0518 183.15C97.0518 183.515 96.9333 183.834 96.6963 184.107C96.4593 184.381 96.1267 184.593 95.6983 184.743C95.2699 184.894 94.7686 184.969 94.1944 184.969C93.6293 184.969 93.1325 184.894 92.7041 184.743C92.2757 184.593 91.9431 184.381 91.7061 184.107C91.4691 183.834 91.3506 183.515 91.3506 183.15C91.3506 182.786 91.4691 182.469 91.7061 182.2C91.9431 181.931 92.2757 181.724 92.7041 181.578C93.1325 181.432 93.6293 181.359 94.1944 181.359ZM94.1944 182.125C93.8298 182.116 93.5108 182.152 93.2373 182.234C92.9639 182.316 92.752 182.435 92.6016 182.59C92.4512 182.745 92.376 182.932 92.376 183.15C92.376 183.36 92.4512 183.545 92.6016 183.704C92.752 183.864 92.9639 183.987 93.2373 184.073C93.5108 184.16 93.8298 184.203 94.1944 184.203C94.5681 184.203 94.8916 184.16 95.1651 184.073C95.4385 183.987 95.6504 183.864 95.8008 183.704C95.9512 183.545 96.0264 183.36 96.0264 183.15C96.0264 182.932 95.9512 182.745 95.8008 182.59C95.6504 182.435 95.4385 182.316 95.1651 182.234C94.8916 182.152 94.5681 182.116 94.1944 182.125ZM94.7412 180.498H93.6748V178.857H94.7412V180.498ZM112.527 187.854H111.461V178.967H112.527V187.854ZM112.91 190.848H104.68V189.945H112.91V190.848ZM105.746 190.246H104.68V186.951H105.746V190.246ZM105.965 179.814C106.566 179.814 107.111 179.94 107.599 180.19C108.086 180.441 108.467 180.794 108.74 181.25C109.014 181.706 109.15 182.221 109.15 182.795C109.15 183.378 109.014 183.896 108.74 184.347C108.467 184.798 108.086 185.151 107.599 185.406C107.111 185.661 106.566 185.789 105.965 185.789C105.363 185.789 104.821 185.661 104.338 185.406C103.855 185.151 103.474 184.798 103.196 184.347C102.918 183.896 102.779 183.378 102.779 182.795C102.779 182.221 102.918 181.706 103.196 181.25C103.474 180.794 103.855 180.441 104.338 180.19C104.821 179.94 105.363 179.814 105.965 179.814ZM105.965 180.758C105.564 180.758 105.199 180.844 104.871 181.018C104.543 181.191 104.288 181.432 104.105 181.742C103.923 182.052 103.832 182.403 103.832 182.795C103.832 183.187 103.923 183.54 104.105 183.854C104.288 184.169 104.543 184.413 104.871 184.586C105.199 184.759 105.564 184.846 105.965 184.846C106.366 184.846 106.728 184.759 107.052 184.586C107.375 184.413 107.631 184.169 107.817 183.854C108.004 183.54 108.098 183.187 108.098 182.795C108.098 182.403 108.004 182.052 107.817 181.742C107.631 181.432 107.375 181.191 107.052 181.018C106.728 180.844 106.366 180.758 105.965 180.758ZM128.48 191.107H127.441V178.953H128.48V191.107ZM125.432 184.545H123.381V183.574H125.432V184.545ZM126.102 190.465H125.076V179.254H126.102V190.465ZM123.736 181.4H118.145V180.512H123.736V181.4ZM117.885 187.184C118.942 187.184 120.02 187.163 121.118 187.122C122.216 187.081 123.18 187.006 124.01 186.896L124.078 187.689C123.23 187.844 122.271 187.951 121.2 188.011C120.129 188.07 119.07 188.1 118.021 188.1L117.885 187.184ZM120.154 187.457H119.17V181.072H120.154V187.457ZM122.711 187.457H121.713V181.072H122.711V187.457ZM140.101 191.135H139.021V178.953H140.101V191.135ZM133.634 179.896C134.235 179.896 134.771 180.072 135.24 180.423C135.71 180.774 136.076 181.268 136.341 181.906C136.605 182.544 136.737 183.287 136.737 184.135C136.737 184.982 136.605 185.725 136.341 186.363C136.076 187.001 135.71 187.493 135.24 187.84C134.771 188.186 134.235 188.359 133.634 188.359C133.032 188.359 132.497 188.186 132.027 187.84C131.558 187.493 131.191 187.001 130.927 186.363C130.662 185.725 130.53 184.982 130.53 184.135C130.53 183.287 130.662 182.544 130.927 181.906C131.191 181.268 131.558 180.774 132.027 180.423C132.497 180.072 133.032 179.896 133.634 179.896ZM133.634 180.854C133.233 180.854 132.875 180.99 132.561 181.264C132.246 181.537 132.002 181.92 131.829 182.412C131.656 182.904 131.569 183.479 131.569 184.135C131.569 184.782 131.656 185.354 131.829 185.851C132.002 186.347 132.246 186.73 132.561 186.999C132.875 187.268 133.233 187.402 133.634 187.402C134.035 187.402 134.393 187.268 134.707 186.999C135.021 186.73 135.265 186.347 135.438 185.851C135.612 185.354 135.698 184.782 135.698 184.135C135.698 183.479 135.612 182.904 135.438 182.412C135.265 181.92 135.024 181.537 134.714 181.264C134.404 180.99 134.044 180.854 133.634 180.854ZM146.293 182.686C146.293 183.515 146.133 184.338 145.814 185.153C145.495 185.969 145.069 186.696 144.536 187.334C144.003 187.972 143.417 188.451 142.779 188.77L142.137 187.922C142.711 187.639 143.249 187.218 143.75 186.657C144.251 186.097 144.652 185.465 144.953 184.764C145.254 184.062 145.404 183.369 145.404 182.686V180.676H146.293V182.686ZM146.484 182.686C146.484 183.351 146.632 184.016 146.929 184.682C147.225 185.347 147.626 185.937 148.132 186.452C148.638 186.967 149.187 187.357 149.779 187.621L149.178 188.469C148.521 188.168 147.922 187.721 147.38 187.129C146.838 186.536 146.409 185.853 146.095 185.078C145.78 184.303 145.623 183.506 145.623 182.686V180.676H146.484V182.686ZM149.383 181.1H142.533V180.211H149.383V181.1ZM152.158 191.107H151.078V178.953H152.158V191.107ZM161.509 184.586H159.171V183.697H161.509V184.586ZM164.612 191.107H163.573V178.953H164.612V191.107ZM162.165 190.492H161.14V179.213H162.165V190.492ZM156.956 179.979C157.485 179.979 157.945 180.149 158.337 180.491C158.729 180.833 159.034 181.323 159.253 181.961C159.472 182.599 159.581 183.346 159.581 184.203C159.581 185.051 159.472 185.794 159.253 186.432C159.034 187.07 158.729 187.562 158.337 187.908C157.945 188.255 157.485 188.428 156.956 188.428C156.437 188.428 155.979 188.255 155.582 187.908C155.186 187.562 154.88 187.07 154.666 186.432C154.452 185.794 154.345 185.051 154.345 184.203C154.345 183.346 154.452 182.599 154.666 181.961C154.88 181.323 155.186 180.833 155.582 180.491C155.979 180.149 156.437 179.979 156.956 179.979ZM156.956 180.99C156.628 180.99 156.343 181.12 156.102 181.38C155.86 181.64 155.675 182.011 155.548 182.494C155.42 182.977 155.356 183.547 155.356 184.203C155.356 184.85 155.42 185.415 155.548 185.898C155.675 186.382 155.862 186.753 156.108 187.013C156.354 187.272 156.637 187.402 156.956 187.402C157.284 187.402 157.569 187.272 157.811 187.013C158.052 186.753 158.239 186.382 158.371 185.898C158.503 185.415 158.569 184.85 158.569 184.203C158.569 183.547 158.503 182.977 158.371 182.494C158.239 182.011 158.052 181.64 157.811 181.38C157.569 181.12 157.284 180.99 156.956 180.99ZM175.795 183.984H172.377V183.109H175.795V183.984ZM170.326 182.221C170.326 183.096 170.178 183.955 169.882 184.798C169.586 185.641 169.18 186.388 168.665 187.04C168.15 187.692 167.574 188.191 166.936 188.537L166.238 187.676C166.831 187.384 167.371 186.951 167.858 186.377C168.346 185.803 168.731 185.149 169.014 184.415C169.296 183.681 169.437 182.95 169.437 182.221V180.006H170.326V182.221ZM170.531 182.221C170.531 182.941 170.672 183.652 170.955 184.354C171.238 185.055 171.62 185.677 172.103 186.22C172.587 186.762 173.12 187.17 173.703 187.443L173.061 188.318C172.413 187.981 171.832 187.5 171.317 186.876C170.802 186.252 170.397 185.534 170.101 184.723C169.804 183.911 169.656 183.077 169.656 182.221V180.006H170.531V182.221ZM176.328 191.135H175.262V178.953H176.328V191.135ZM191.228 182.084H188.07V181.195H191.228V182.084ZM191.857 185.242H190.777V178.953H191.857V185.242ZM191.857 188.756H185.062V190.615H184.01V187.936H190.791V186.719H183.982V185.857H191.857V188.756ZM192.309 190.943H184.01V190.082H192.309V190.943ZM185.732 180.498C185.732 181.236 185.593 181.922 185.315 182.556C185.037 183.189 184.643 183.738 184.133 184.203C183.622 184.668 183.03 185.023 182.355 185.27L181.768 184.408C182.378 184.208 182.916 183.911 183.381 183.52C183.846 183.128 184.21 182.672 184.475 182.152C184.739 181.633 184.871 181.081 184.871 180.498V179.35H185.732V180.498ZM185.924 180.498C185.924 181.018 186.051 181.519 186.307 182.002C186.562 182.485 186.92 182.911 187.38 183.28C187.84 183.649 188.362 183.934 188.945 184.135L188.371 184.969C187.724 184.732 187.147 184.392 186.642 183.95C186.136 183.508 185.741 182.991 185.459 182.398C185.176 181.806 185.035 181.173 185.035 180.498V179.35H185.924V180.498ZM203.163 183.014H200.388V182.125H203.163V183.014ZM203.915 186.199H202.835V178.953H203.915V186.199ZM199.882 186.582C200.729 186.582 201.459 186.671 202.069 186.849C202.68 187.026 203.147 187.284 203.471 187.621C203.794 187.958 203.956 188.364 203.956 188.838C203.956 189.312 203.794 189.717 203.471 190.055C203.147 190.392 202.68 190.649 202.069 190.827C201.459 191.005 200.729 191.098 199.882 191.107C199.043 191.098 198.319 191.005 197.708 190.827C197.097 190.649 196.628 190.392 196.3 190.055C195.972 189.717 195.808 189.312 195.808 188.838C195.808 188.364 195.972 187.958 196.3 187.621C196.628 187.284 197.097 187.026 197.708 186.849C198.319 186.671 199.043 186.582 199.882 186.582ZM199.882 187.416C199.271 187.416 198.738 187.473 198.282 187.587C197.826 187.701 197.478 187.865 197.236 188.079C196.995 188.293 196.874 188.546 196.874 188.838C196.874 189.12 196.995 189.369 197.236 189.583C197.478 189.797 197.826 189.961 198.282 190.075C198.738 190.189 199.271 190.246 199.882 190.246C200.502 190.246 201.037 190.189 201.488 190.075C201.939 189.961 202.286 189.797 202.527 189.583C202.769 189.369 202.89 189.12 202.89 188.838C202.89 188.546 202.769 188.293 202.527 188.079C202.286 187.865 201.939 187.701 201.488 187.587C201.037 187.473 200.502 187.416 199.882 187.416ZM197.872 181.195C197.872 181.924 197.726 182.615 197.435 183.267C197.143 183.918 196.74 184.488 196.225 184.976C195.71 185.463 195.119 185.835 194.454 186.09L193.894 185.229C194.495 185.01 195.031 184.693 195.5 184.278C195.969 183.864 196.334 183.387 196.594 182.85C196.853 182.312 196.983 181.76 196.983 181.195V180.184H197.872V181.195ZM198.063 181.182C198.063 181.701 198.189 182.207 198.439 182.699C198.69 183.191 199.043 183.627 199.499 184.005C199.955 184.383 200.474 184.677 201.058 184.887L200.497 185.748C199.841 185.511 199.264 185.162 198.768 184.702C198.271 184.242 197.883 183.706 197.605 183.096C197.327 182.485 197.188 181.847 197.188 181.182V180.184H198.063V181.182ZM200.784 180.744H194.235V179.842H200.784V180.744ZM215.303 191.107H214.236V178.953H215.303V191.107ZM217.34 184.859H215.057V183.971H217.34V184.859ZM213.06 181.797H205.828V180.908H213.06V181.797ZM209.506 182.809C210.08 182.809 210.593 182.927 211.044 183.164C211.495 183.401 211.848 183.731 212.103 184.155C212.359 184.579 212.486 185.06 212.486 185.598C212.486 186.135 212.359 186.616 212.103 187.04C211.848 187.464 211.495 187.794 211.044 188.031C210.593 188.268 210.08 188.387 209.506 188.387C208.932 188.387 208.419 188.268 207.968 188.031C207.517 187.794 207.163 187.464 206.908 187.04C206.653 186.616 206.525 186.135 206.525 185.598C206.525 185.06 206.653 184.579 206.908 184.155C207.163 183.731 207.517 183.401 207.968 183.164C208.419 182.927 208.932 182.809 209.506 182.809ZM209.506 183.711C209.132 183.711 208.797 183.791 208.501 183.95C208.205 184.11 207.972 184.333 207.804 184.62C207.635 184.907 207.551 185.233 207.551 185.598C207.551 185.962 207.635 186.286 207.804 186.568C207.972 186.851 208.205 187.072 208.501 187.231C208.797 187.391 209.132 187.471 209.506 187.471C209.879 187.471 210.214 187.391 210.511 187.231C210.807 187.072 211.039 186.851 211.208 186.568C211.377 186.286 211.461 185.962 211.461 185.598C211.461 185.233 211.377 184.907 211.208 184.62C211.039 184.333 210.807 184.11 210.511 183.95C210.214 183.791 209.879 183.711 209.506 183.711ZM210.025 181.318H208.959V179.104H210.025V181.318ZM227.989 187.881H226.923V178.967H227.989V187.881ZM228.372 190.848H220.142V189.945H228.372V190.848ZM221.208 190.383H220.142V187.061H221.208V190.383ZM222.069 180.867C222.069 181.651 221.926 182.392 221.639 183.089C221.352 183.786 220.95 184.397 220.435 184.921C219.921 185.445 219.33 185.844 218.665 186.117L218.077 185.283C218.688 185.046 219.228 184.702 219.697 184.251C220.167 183.8 220.529 183.28 220.784 182.692C221.039 182.104 221.167 181.496 221.167 180.867V179.65H222.069V180.867ZM222.261 180.867C222.261 181.469 222.388 182.048 222.643 182.604C222.899 183.16 223.261 183.649 223.73 184.073C224.2 184.497 224.731 184.818 225.323 185.037L224.763 185.898C224.088 185.634 223.496 185.256 222.985 184.764C222.475 184.271 222.076 183.69 221.789 183.021C221.502 182.351 221.358 181.633 221.358 180.867V179.65H222.261V180.867ZM226.814 210.072H225.747V200.967H226.814V210.072ZM228.646 205.875H226.472V204.973H228.646V205.875ZM224.585 203.332H217.339V202.457H224.585V203.332ZM220.962 204.002C221.536 204.002 222.044 204.095 222.486 204.282C222.928 204.469 223.273 204.733 223.519 205.075C223.765 205.417 223.888 205.816 223.888 206.271C223.888 206.718 223.765 207.11 223.519 207.447C223.273 207.785 222.928 208.047 222.486 208.233C222.044 208.42 221.536 208.514 220.962 208.514C220.388 208.514 219.877 208.42 219.431 208.233C218.984 208.047 218.64 207.785 218.398 207.447C218.157 207.11 218.036 206.718 218.036 206.271C218.036 205.816 218.157 205.417 218.398 205.075C218.64 204.733 218.984 204.469 219.431 204.282C219.877 204.095 220.388 204.002 220.962 204.002ZM220.962 204.85C220.588 204.85 220.256 204.907 219.964 205.021C219.672 205.134 219.449 205.301 219.294 205.52C219.139 205.738 219.062 205.989 219.062 206.271C219.062 206.554 219.139 206.8 219.294 207.01C219.449 207.219 219.672 207.381 219.964 207.495C220.256 207.609 220.588 207.666 220.962 207.666C221.336 207.666 221.668 207.609 221.96 207.495C222.252 207.381 222.477 207.219 222.637 207.01C222.796 206.8 222.876 206.554 222.876 206.271C222.876 205.989 222.796 205.738 222.637 205.52C222.477 205.301 222.252 205.134 221.96 205.021C221.668 204.907 221.336 204.85 220.962 204.85ZM221.495 202.908H220.429V200.967H221.495V202.908ZM227.374 212.848H219.212V211.945H227.374V212.848ZM220.265 212.314H219.212V209.348H220.265V212.314ZM240.196 205.191C240.06 204.763 239.859 204.394 239.595 204.084C239.33 203.774 239.014 203.535 238.645 203.366C238.275 203.198 237.858 203.113 237.394 203.113C236.801 203.113 236.268 203.266 235.794 203.571C235.32 203.877 234.944 204.326 234.666 204.918C234.388 205.51 234.249 206.221 234.249 207.051C234.249 207.88 234.388 208.591 234.666 209.184C234.944 209.776 235.327 210.225 235.814 210.53C236.302 210.836 236.856 210.988 237.476 210.988C238.041 210.988 238.537 210.868 238.966 210.626C239.394 210.384 239.727 210.04 239.964 209.594C240.201 209.147 240.319 208.632 240.319 208.049L240.689 208.117H237.735V207.037H241.522V208.104C241.522 208.906 241.349 209.612 241.003 210.223C240.657 210.833 240.178 211.305 239.567 211.638C238.957 211.97 238.259 212.137 237.476 212.137C236.601 212.137 235.83 211.929 235.165 211.515C234.5 211.1 233.982 210.51 233.613 209.744C233.244 208.979 233.06 208.081 233.06 207.051C233.06 206.021 233.244 205.123 233.613 204.357C233.982 203.592 234.495 203.002 235.151 202.587C235.808 202.172 236.555 201.965 237.394 201.965C238.086 201.965 238.72 202.099 239.294 202.368C239.868 202.637 240.344 203.015 240.723 203.503C241.101 203.991 241.349 204.553 241.468 205.191H240.196ZM251.693 207.051C251.693 208.072 251.507 208.967 251.133 209.737C250.759 210.507 250.242 211.1 249.581 211.515C248.92 211.929 248.166 212.137 247.318 212.137C246.471 212.137 245.716 211.929 245.056 211.515C244.395 211.1 243.878 210.507 243.504 209.737C243.13 208.967 242.943 208.072 242.943 207.051C242.943 206.021 243.13 205.123 243.504 204.357C243.878 203.592 244.395 203.002 245.056 202.587C245.716 202.172 246.471 201.965 247.318 201.965C248.166 201.965 248.92 202.172 249.581 202.587C250.242 203.002 250.759 203.592 251.133 204.357C251.507 205.123 251.693 206.021 251.693 207.051ZM250.504 207.051C250.504 206.221 250.365 205.51 250.087 204.918C249.809 204.326 249.431 203.877 248.952 203.571C248.474 203.266 247.929 203.113 247.318 203.113C246.717 203.113 246.174 203.266 245.691 203.571C245.208 203.877 244.828 204.326 244.55 204.918C244.272 205.51 244.133 206.221 244.133 207.051C244.133 207.88 244.272 208.591 244.55 209.184C244.828 209.776 245.208 210.225 245.691 210.53C246.174 210.836 246.717 210.988 247.318 210.988C247.929 210.988 248.474 210.836 248.952 210.53C249.431 210.225 249.809 209.776 250.087 209.184C250.365 208.591 250.504 207.88 250.504 207.051ZM252.499 202.102H259.964V203.195H256.86V212H255.616V203.195H252.499V202.102ZM267.906 205.219C267.815 204.772 267.635 204.392 267.366 204.077C267.097 203.763 266.769 203.523 266.382 203.359C265.994 203.195 265.582 203.113 265.145 203.113C264.543 203.113 264.001 203.266 263.518 203.571C263.035 203.877 262.654 204.326 262.376 204.918C262.098 205.51 261.959 206.221 261.959 207.051C261.959 207.88 262.098 208.591 262.376 209.184C262.654 209.776 263.035 210.225 263.518 210.53C264.001 210.836 264.543 210.988 265.145 210.988C265.582 210.988 265.992 210.906 266.375 210.742C266.758 210.578 267.086 210.339 267.359 210.024C267.633 209.71 267.815 209.334 267.906 208.896H269.137C269.018 209.553 268.772 210.127 268.398 210.619C268.025 211.111 267.558 211.487 266.997 211.747C266.437 212.007 265.819 212.137 265.145 212.137C264.297 212.137 263.543 211.929 262.882 211.515C262.221 211.1 261.704 210.507 261.33 209.737C260.956 208.967 260.77 208.072 260.77 207.051C260.77 206.021 260.956 205.123 261.33 204.357C261.704 203.592 262.221 203.002 262.882 202.587C263.543 202.172 264.297 201.965 265.145 201.965C265.81 201.965 266.425 202.095 266.99 202.354C267.555 202.614 268.025 202.988 268.398 203.476C268.772 203.963 269.018 204.544 269.137 205.219H267.906ZM270.817 202.102H272.048V206.504H277.284V202.102H278.528V212H277.284V207.584H272.048V212H270.817V202.102ZM279.812 212L283.436 202.102H284.734L288.357 212H287.059L284.119 203.701H284.037L281.098 212H279.812ZM286.621 208.131V209.211H281.549V208.131H286.621ZM293.032 201.842C293.67 201.842 294.235 201.963 294.728 202.204C295.22 202.446 295.605 202.783 295.883 203.216C296.161 203.649 296.3 204.143 296.3 204.699C296.3 205.255 296.161 205.75 295.883 206.183C295.605 206.616 295.22 206.953 294.728 207.194C294.235 207.436 293.67 207.557 293.032 207.557C292.403 207.557 291.838 207.436 291.337 207.194C290.836 206.953 290.446 206.616 290.168 206.183C289.89 205.75 289.751 205.255 289.751 204.699C289.751 204.143 289.89 203.649 290.168 203.216C290.446 202.783 290.836 202.446 291.337 202.204C291.838 201.963 292.403 201.842 293.032 201.842ZM293.032 202.785C292.604 202.785 292.221 202.865 291.884 203.024C291.547 203.184 291.282 203.41 291.091 203.701C290.899 203.993 290.804 204.326 290.804 204.699C290.804 205.073 290.899 205.403 291.091 205.69C291.282 205.978 291.547 206.203 291.884 206.367C292.221 206.531 292.604 206.613 293.032 206.613C293.461 206.613 293.843 206.531 294.181 206.367C294.518 206.203 294.78 205.978 294.967 205.69C295.154 205.403 295.247 205.073 295.247 204.699C295.247 204.326 295.154 203.993 294.967 203.701C294.78 203.41 294.518 203.184 294.181 203.024C293.843 202.865 293.461 202.785 293.032 202.785ZM299.021 213.135H297.954V200.953H299.021V213.135ZM289.122 209.539C290.134 209.539 291.052 209.53 291.877 209.512C292.702 209.493 293.579 209.455 294.509 209.396C295.438 209.336 296.318 209.247 297.147 209.129L297.229 209.922C296.373 210.077 295.484 210.193 294.563 210.271C293.643 210.348 292.779 210.398 291.973 210.421C291.166 210.444 290.266 210.455 289.272 210.455L289.122 209.539ZM314.96 213.107H313.907V200.953H314.96V213.107ZM314.222 206.818H311.843V205.902H314.222V206.818ZM312.157 212.479H311.145V201.227H312.157V212.479ZM306.265 209.443H305.198V202.443H306.265V209.443ZM305.95 209.006C306.688 209.006 307.402 208.976 308.09 208.917C308.778 208.858 309.496 208.755 310.243 208.609L310.38 209.566C309.578 209.703 308.819 209.803 308.103 209.867C307.388 209.931 306.67 209.963 305.95 209.963H305.198V209.006H305.95ZM327.756 209.047H316.627V208.172H327.756V209.047ZM322.684 213.107H321.631V208.555H322.684V213.107ZM319.115 203.141H325.24V201.459H326.32V206.695H318.049V201.459H319.115V203.141ZM325.24 205.82V204.016H319.115V205.82H325.24ZM58.5143 226.029H55.8756V225.141H58.5143V226.029ZM58.5143 228.203H55.8756V227.314H58.5143V228.203ZM55.7525 224.771H49.2994V223.883H55.7525V224.771ZM48.9576 228.818C50.3157 228.818 51.5986 228.798 52.8063 228.757C54.0139 228.716 55.1282 228.632 56.149 228.504L56.2037 229.324C55.1555 229.488 54.0436 229.595 52.8678 229.646C51.692 229.696 50.4342 229.721 49.0943 229.721L48.9576 228.818ZM51.569 229.105H50.5299V224.566H51.569V229.105ZM54.5084 229.105H53.4693V224.566H54.5084V229.105ZM59.0065 230.459H57.9264V222.953H59.0065V230.459ZM54.9733 230.719C55.8209 230.719 56.5501 230.803 57.1608 230.972C57.7714 231.14 58.2386 231.389 58.5621 231.717C58.8857 232.045 59.0475 232.437 59.0475 232.893C59.0475 233.348 58.8857 233.74 58.5621 234.068C58.2386 234.396 57.7714 234.647 57.1608 234.82C56.5501 234.993 55.8209 235.08 54.9733 235.08C54.1256 235.08 53.3964 234.993 52.7858 234.82C52.1751 234.647 51.708 234.396 51.3844 234.068C51.0608 233.74 50.899 233.348 50.899 232.893C50.899 232.437 51.0631 232.045 51.3912 231.717C51.7193 231.389 52.1887 231.14 52.7994 230.972C53.4101 230.803 54.1347 230.719 54.9733 230.719ZM54.9733 231.553C54.3535 231.553 53.818 231.605 53.3668 231.71C52.9156 231.815 52.5693 231.97 52.3277 232.175C52.0862 232.38 51.9654 232.619 51.9654 232.893C51.9654 233.166 52.0862 233.405 52.3277 233.61C52.5693 233.815 52.9156 233.97 53.3668 234.075C53.818 234.18 54.3535 234.232 54.9733 234.232C55.593 234.232 56.1308 234.18 56.5865 234.075C57.0423 233.97 57.3886 233.815 57.6256 233.61C57.8626 233.405 57.9811 233.166 57.9811 232.893C57.9811 232.61 57.8603 232.368 57.6188 232.168C57.3772 231.967 57.0309 231.815 56.5797 231.71C56.1285 231.605 55.593 231.553 54.9733 231.553ZM70.3941 235.107H69.3277V222.953H70.3941V235.107ZM72.3629 228.805H70.1207V227.902H72.3629V228.805ZM67.2496 224.266C67.2496 225.451 67.0559 226.567 66.6686 227.615C66.2812 228.663 65.6728 229.63 64.8434 230.514C64.0139 231.398 62.9566 232.159 61.6715 232.797L61.0699 231.949C62.2001 231.384 63.1458 230.723 63.9068 229.967C64.6679 229.21 65.2398 228.369 65.6227 227.444C66.0055 226.519 66.1969 225.519 66.1969 224.443V224.266H67.2496ZM66.7438 225.168H61.6305V224.266H66.7438V225.168ZM80.6598 226.221C80.6598 227.123 80.5048 228 80.1949 228.853C79.885 229.705 79.4635 230.454 78.9303 231.102C78.3971 231.749 77.7978 232.241 77.1324 232.578L76.4488 231.676C77.0504 231.393 77.6041 230.969 78.1099 230.404C78.6158 229.839 79.0191 229.188 79.3199 228.449C79.6207 227.711 79.7711 226.968 79.7711 226.221V224.006H80.6598V226.221ZM80.8375 226.221C80.8375 226.941 80.9856 227.654 81.2818 228.36C81.578 229.067 81.9791 229.696 82.4849 230.247C82.9908 230.799 83.54 231.211 84.1324 231.484L83.4762 232.332C82.829 232.013 82.2343 231.541 81.692 230.917C81.1497 230.293 80.7213 229.57 80.4068 228.75C80.0924 227.93 79.9351 227.087 79.9351 226.221V224.006H80.8375V226.221ZM86.5387 235.135H85.4586V222.953H86.5387V235.135ZM94.4537 224.744C94.4537 225.583 94.2167 226.367 93.7428 227.096C93.2688 227.825 92.6558 228.44 91.9039 228.941C91.1519 229.443 90.3612 229.789 89.5318 229.98L89.0396 229.078C89.7597 228.932 90.4661 228.647 91.1588 228.224C91.8515 227.8 92.4166 227.28 92.8541 226.665C93.2916 226.05 93.5103 225.41 93.5103 224.744V223.814H94.4537V224.744ZM94.6314 224.744C94.6314 225.4 94.8547 226.038 95.3013 226.658C95.748 227.278 96.3199 227.802 97.0172 228.23C97.7144 228.659 98.4185 228.941 99.1295 229.078L98.6373 229.98C97.817 229.789 97.0308 229.445 96.2789 228.948C95.5269 228.451 94.9117 227.836 94.4332 227.103C93.9547 226.369 93.7154 225.583 93.7154 224.744V223.814H94.6314V224.744ZM99.7037 233.453H88.5748V232.564H99.7037V233.453ZM108.015 226.904H105.91V226.016H108.015V226.904ZM101.972 228.654C102.984 228.654 103.809 228.632 104.447 228.586C105.085 228.54 105.732 228.458 106.388 228.34L106.498 229.201C105.814 229.329 105.142 229.415 104.481 229.461C103.82 229.507 102.984 229.529 101.972 229.529H101.207V228.654H101.972ZM105.841 224.648H102.232V229.16H101.207V223.746H105.841V224.648ZM105.336 227H101.904V226.152H105.336V227ZM110.955 230.281H109.929V222.953H110.955V230.281ZM108.589 230.172H107.55V223.172H108.589V230.172ZM110.955 234.943H102.929V230.842H110.955V234.943ZM103.982 234.068H109.902V231.717H103.982V234.068ZM118.227 223.172C119.129 223.172 119.902 223.252 120.544 223.411C121.187 223.571 121.677 223.808 122.014 224.122C122.351 224.437 122.52 224.817 122.52 225.264C122.52 225.719 122.351 226.104 122.014 226.419C121.677 226.733 121.187 226.973 120.544 227.137C119.902 227.301 119.129 227.387 118.227 227.396C117.325 227.387 116.552 227.301 115.91 227.137C115.267 226.973 114.775 226.733 114.433 226.419C114.091 226.104 113.92 225.719 113.92 225.264C113.92 224.817 114.091 224.437 114.433 224.122C114.775 223.808 115.267 223.571 115.91 223.411C116.552 223.252 117.325 223.172 118.227 223.172ZM118.227 223.979C117.562 223.979 116.99 224.029 116.511 224.129C116.033 224.229 115.668 224.377 115.418 224.573C115.167 224.769 115.042 224.999 115.042 225.264C115.042 225.546 115.165 225.785 115.411 225.981C115.657 226.177 116.019 226.326 116.498 226.426C116.976 226.526 117.553 226.576 118.227 226.576C118.902 226.576 119.478 226.526 119.957 226.426C120.435 226.326 120.8 226.175 121.05 225.975C121.301 225.774 121.426 225.537 121.426 225.264C121.426 224.999 121.299 224.771 121.044 224.58C120.788 224.389 120.421 224.241 119.943 224.136C119.464 224.031 118.892 223.979 118.227 223.979ZM123.764 229.092H112.69V228.217H123.764V229.092ZM122.342 232.865H115.124V234.342H114.057V232.072H121.29V230.965H114.03V230.145H122.342V232.865ZM122.711 234.971H114.057V234.123H122.711V234.971ZM139.294 230.281H128.206V229.406H139.294V230.281ZM134.276 229.775H133.21V227.807H134.276V229.775ZM137.981 228.203H129.682V227.342H137.981V228.203ZM137.913 224.184H130.762V227.793H129.682V223.309H137.913V224.184ZM137.585 226.139H130.434V225.318H137.585V226.139ZM133.756 231.197C134.65 231.188 135.406 231.259 136.026 231.409C136.646 231.56 137.12 231.781 137.448 232.072C137.776 232.364 137.94 232.719 137.94 233.139C137.94 233.558 137.776 233.911 137.448 234.198C137.12 234.485 136.646 234.704 136.026 234.854C135.406 235.005 134.65 235.08 133.756 235.08C132.863 235.08 132.102 235.005 131.473 234.854C130.844 234.704 130.368 234.485 130.044 234.198C129.721 233.911 129.559 233.558 129.559 233.139C129.559 232.71 129.723 232.353 130.051 232.065C130.379 231.778 130.856 231.56 131.48 231.409C132.104 231.259 132.863 231.188 133.756 231.197ZM133.756 232.004C133.091 232.004 132.526 232.047 132.061 232.134C131.596 232.22 131.243 232.348 131.002 232.517C130.76 232.685 130.639 232.893 130.639 233.139C130.639 233.385 130.758 233.59 130.995 233.754C131.232 233.918 131.585 234.041 132.054 234.123C132.524 234.205 133.091 234.246 133.756 234.246C134.422 234.246 134.985 234.205 135.445 234.123C135.905 234.041 136.256 233.918 136.498 233.754C136.739 233.59 136.86 233.385 136.86 233.139C136.86 232.893 136.739 232.685 136.498 232.517C136.256 232.348 135.903 232.22 135.438 232.134C134.973 232.047 134.413 232.004 133.756 232.004ZM146.347 225.934H140.25V225.059H146.347V225.934ZM143.298 226.754C143.809 226.754 144.262 226.87 144.659 227.103C145.055 227.335 145.367 227.661 145.595 228.08C145.823 228.499 145.937 228.978 145.937 229.516C145.937 230.053 145.823 230.532 145.595 230.951C145.367 231.37 145.055 231.701 144.659 231.942C144.262 232.184 143.809 232.305 143.298 232.305C142.797 232.305 142.348 232.184 141.952 231.942C141.555 231.701 141.245 231.368 141.022 230.944C140.799 230.521 140.687 230.044 140.687 229.516C140.687 228.987 140.799 228.511 141.022 228.087C141.245 227.663 141.555 227.335 141.952 227.103C142.348 226.87 142.797 226.754 143.298 226.754ZM143.298 227.656C142.988 227.656 142.706 227.738 142.451 227.902C142.196 228.066 141.997 228.287 141.856 228.565C141.715 228.843 141.644 229.16 141.644 229.516C141.644 229.871 141.717 230.19 141.863 230.473C142.009 230.755 142.207 230.974 142.458 231.129C142.708 231.284 142.988 231.361 143.298 231.361C143.617 231.361 143.904 231.284 144.16 231.129C144.415 230.974 144.615 230.755 144.761 230.473C144.907 230.19 144.98 229.871 144.98 229.516C144.98 229.16 144.907 228.843 144.761 228.565C144.615 228.287 144.415 228.066 144.16 227.902C143.904 227.738 143.617 227.656 143.298 227.656ZM150.627 235.107H149.601V222.953H150.627V235.107ZM149.943 228.969H147.619V228.08H149.943V228.969ZM147.988 234.506H146.976V223.254H147.988V234.506ZM143.845 225.592H142.779V223.322H143.845V225.592ZM166.88 230.145H155.806V229.256H166.88V230.145ZM161.863 229.652H160.81V227.738H161.863V229.652ZM161.863 224.621H160.81V222.926H161.863V224.621ZM161.699 224.908C161.699 225.546 161.478 226.107 161.036 226.59C160.594 227.073 160.003 227.46 159.265 227.752C158.527 228.044 157.702 228.24 156.791 228.34L156.449 227.506C157.242 227.433 157.966 227.278 158.623 227.041C159.279 226.804 159.798 226.503 160.181 226.139C160.564 225.774 160.755 225.364 160.755 224.908V224.703H161.699V224.908ZM161.931 224.908C161.931 225.364 162.123 225.774 162.505 226.139C162.888 226.503 163.405 226.804 164.057 227.041C164.709 227.278 165.431 227.433 166.224 227.506L165.896 228.34C164.994 228.24 164.171 228.044 163.428 227.752C162.685 227.46 162.093 227.073 161.651 226.59C161.209 226.107 160.988 225.546 160.988 224.908V224.703H161.931V224.908ZM165.759 225.018H156.955V224.143H165.759V225.018ZM161.343 231.061C162.227 231.061 162.979 231.138 163.599 231.293C164.219 231.448 164.695 231.676 165.028 231.977C165.361 232.277 165.527 232.642 165.527 233.07C165.527 233.499 165.363 233.863 165.035 234.164C164.707 234.465 164.23 234.693 163.606 234.848C162.982 235.003 162.227 235.08 161.343 235.08C160.468 235.08 159.716 235.003 159.087 234.848C158.459 234.693 157.978 234.465 157.645 234.164C157.312 233.863 157.146 233.499 157.146 233.07C157.146 232.642 157.312 232.277 157.645 231.977C157.978 231.676 158.459 231.448 159.087 231.293C159.716 231.138 160.468 231.061 161.343 231.061ZM161.343 231.867C160.696 231.867 160.138 231.913 159.668 232.004C159.199 232.095 158.844 232.232 158.602 232.414C158.361 232.596 158.24 232.815 158.24 233.07C158.24 233.326 158.361 233.54 158.602 233.713C158.844 233.886 159.197 234.018 159.662 234.109C160.126 234.201 160.687 234.246 161.343 234.246C161.99 234.246 162.546 234.201 163.011 234.109C163.476 234.018 163.832 233.886 164.078 233.713C164.324 233.54 164.447 233.326 164.447 233.07C164.447 232.815 164.324 232.596 164.078 232.414C163.832 232.232 163.476 232.095 163.011 232.004C162.546 231.913 161.99 231.867 161.343 231.867ZM177.161 226.904H174.399V226.002H177.161V226.904ZM177.94 230.076H176.86V222.953H177.94V230.076ZM177.94 234.943H169.997V230.678H177.94V234.943ZM171.063 234.068H176.887V231.539H171.063V234.068ZM171.897 225.113C171.897 225.842 171.751 226.528 171.459 227.171C171.168 227.813 170.765 228.376 170.25 228.859C169.735 229.342 169.144 229.707 168.479 229.953L167.918 229.105C168.511 228.887 169.042 228.575 169.511 228.169C169.981 227.763 170.348 227.294 170.612 226.761C170.876 226.228 171.008 225.678 171.008 225.113V224.115H171.897V225.113ZM172.088 225.113C172.088 225.633 172.214 226.139 172.464 226.631C172.715 227.123 173.068 227.561 173.524 227.943C173.98 228.326 174.499 228.622 175.083 228.832L174.522 229.68C173.866 229.443 173.289 229.094 172.792 228.634C172.296 228.174 171.908 227.638 171.63 227.027C171.352 226.417 171.213 225.779 171.213 225.113V224.115H172.088V225.113ZM174.809 224.635H168.26V223.746H174.809V224.635ZM186.033 225.182H180.482V224.307H186.033V225.182ZM183.476 231.895H182.423V227.779H183.476V231.895ZM186.662 224.936C186.653 225.51 186.643 225.986 186.634 226.364C186.625 226.743 186.596 227.23 186.545 227.827C186.495 228.424 186.416 229.069 186.306 229.762L185.226 229.666C185.381 228.7 185.479 227.854 185.52 227.13C185.561 226.405 185.582 225.674 185.582 224.936V224.307H186.662V224.936ZM189.3 235.107H188.234V222.953H189.3V235.107ZM191.269 228.969H189.013V228.039H191.269V228.969ZM179.798 231.539C181.275 231.53 182.644 231.5 183.907 231.45C185.169 231.4 186.356 231.311 187.468 231.184L187.523 231.99C186.375 232.163 185.158 232.282 183.873 232.346C182.587 232.41 181.275 232.437 179.935 232.428L179.798 231.539ZM205.472 229.27H204.419V222.953H205.472V229.27ZM205.486 232.756H198.664V234.506H197.611V231.949H204.419V230.705H197.583V229.857H205.486V232.756ZM205.923 234.971H197.611V234.109H205.923V234.971ZM199.621 224.676C199.621 225.378 199.475 226.036 199.183 226.651C198.891 227.267 198.481 227.802 197.953 228.258C197.424 228.714 196.818 229.055 196.134 229.283L195.628 228.436C196.239 228.235 196.779 227.943 197.249 227.561C197.718 227.178 198.085 226.738 198.349 226.241C198.613 225.744 198.746 225.223 198.746 224.676V224.02H199.621V224.676ZM199.826 224.676C199.826 225.195 199.958 225.69 200.222 226.159C200.486 226.629 200.856 227.039 201.33 227.39C201.804 227.741 202.346 228.007 202.957 228.189L202.423 229.023C201.749 228.805 201.15 228.483 200.625 228.06C200.101 227.636 199.694 227.132 199.402 226.549C199.11 225.965 198.964 225.341 198.964 224.676V224.02H199.826V224.676ZM202.628 224.539H195.902V223.65H202.628V224.539ZM218.624 230.062H207.495V229.174H218.624V230.062ZM213.674 232.551H212.608V229.721H213.674V232.551ZM217.174 227.779H208.944V223.555H217.174V227.779ZM209.997 226.918H216.108V224.402H209.997V226.918ZM217.379 234.848H208.916V233.945H217.379V234.848ZM209.997 234.26H208.916V231.348H209.997V234.26ZM232.321 225.537H228.821V224.703H232.321V225.537ZM232.321 227.752H228.821V226.904H232.321V227.752ZM233.1 229.311H232.034V222.953H233.1V229.311ZM233.1 232.756H226.319V234.67H225.252V231.936H232.034V230.76H225.225V229.898H233.1V232.756ZM233.565 234.943H225.252V234.082H233.565V234.943ZM224.719 225.277H228.11V223.527H229.163V228.818H223.653V223.527H224.719V225.277ZM228.11 227.943V226.125H224.719V227.943H228.11ZM247.864 226.904H245.102V226.002H247.864V226.904ZM248.643 230.076H247.563V222.953H248.643V230.076ZM248.643 234.943H240.7V230.678H248.643V234.943ZM241.766 234.068H247.59V231.539H241.766V234.068ZM242.6 225.113C242.6 225.842 242.454 226.528 242.163 227.171C241.871 227.813 241.468 228.376 240.953 228.859C240.438 229.342 239.847 229.707 239.182 229.953L238.622 229.105C239.214 228.887 239.745 228.575 240.214 228.169C240.684 227.763 241.051 227.294 241.315 226.761C241.579 226.228 241.711 225.678 241.711 225.113V224.115H242.6V225.113ZM242.791 225.113C242.791 225.633 242.917 226.139 243.167 226.631C243.418 227.123 243.771 227.561 244.227 227.943C244.683 228.326 245.202 228.622 245.786 228.832L245.225 229.68C244.569 229.443 243.992 229.094 243.496 228.634C242.999 228.174 242.611 227.638 242.333 227.027C242.055 226.417 241.916 225.779 241.916 225.113V224.115H242.791V225.113ZM245.512 224.635H238.963V223.746H245.512V224.635ZM256.558 224.088C256.558 224.826 256.328 225.503 255.868 226.118C255.407 226.733 254.799 227.242 254.042 227.643C253.286 228.044 252.484 228.317 251.636 228.463L251.199 227.588C251.937 227.488 252.646 227.267 253.325 226.925C254.004 226.583 254.555 226.164 254.979 225.667C255.403 225.17 255.615 224.644 255.615 224.088V223.391H256.558V224.088ZM256.722 224.088C256.722 224.635 256.936 225.159 257.365 225.66C257.793 226.161 258.349 226.583 259.033 226.925C259.716 227.267 260.423 227.488 261.152 227.588L260.714 228.463C259.867 228.317 259.067 228.041 258.315 227.636C257.563 227.23 256.955 226.72 256.49 226.104C256.025 225.489 255.792 224.817 255.792 224.088V223.391H256.722V224.088ZM256.667 235.107H255.615V230.473H256.667V235.107ZM261.699 230.705H250.624V229.803H261.699V230.705ZM272.088 235.107H271.022V222.953H272.088V235.107ZM274.057 228.805H271.815V227.902H274.057V228.805ZM268.944 224.266C268.944 225.451 268.75 226.567 268.363 227.615C267.975 228.663 267.367 229.63 266.538 230.514C265.708 231.398 264.651 232.159 263.366 232.797L262.764 231.949C263.894 231.384 264.84 230.723 265.601 229.967C266.362 229.21 266.934 228.369 267.317 227.444C267.7 226.519 267.891 225.519 267.891 224.443V224.266H268.944ZM268.438 225.168H263.325V224.266H268.438V225.168ZM282.135 225.209C282.135 225.984 281.996 226.706 281.718 227.376C281.44 228.046 281.046 228.627 280.536 229.119C280.025 229.611 279.433 229.99 278.758 230.254L278.17 229.393C278.781 229.174 279.319 228.855 279.784 228.436C280.248 228.016 280.608 227.529 280.864 226.973C281.119 226.417 281.247 225.829 281.247 225.209V223.705H282.135V225.209ZM282.299 225.25C282.299 225.797 282.427 226.326 282.682 226.836C282.937 227.346 283.297 227.798 283.762 228.189C284.227 228.581 284.756 228.882 285.348 229.092L284.801 229.953C284.136 229.707 283.55 229.352 283.044 228.887C282.538 228.422 282.144 227.875 281.862 227.246C281.579 226.617 281.438 225.952 281.438 225.25V223.705H282.299V225.25ZM287.713 231.936H286.647V222.953H287.713V231.936ZM289.545 227.602H287.372V226.686H289.545V227.602ZM288.274 234.848H280.125V233.945H288.274V234.848ZM281.219 234.383H280.125V231.074H281.219V234.383ZM296.326 230.842H295.273V228.996H296.326V230.842ZM301.343 229.201H290.283V228.367H301.343V229.201ZM296.326 224.361H295.273V222.885H296.326V224.361ZM296.162 224.648C296.162 225.259 295.938 225.79 295.492 226.241C295.045 226.692 294.448 227.046 293.701 227.301C292.953 227.556 292.115 227.725 291.185 227.807L290.871 226.986C291.673 226.932 292.404 226.804 293.065 226.604C293.726 226.403 294.25 226.134 294.637 225.797C295.024 225.46 295.218 225.077 295.218 224.648V224.471H296.162V224.648ZM296.394 224.648C296.394 225.077 296.588 225.46 296.975 225.797C297.362 226.134 297.886 226.403 298.547 226.604C299.208 226.804 299.94 226.932 300.742 226.986L300.413 227.807C299.493 227.725 298.659 227.556 297.912 227.301C297.164 227.046 296.567 226.692 296.121 226.241C295.674 225.79 295.451 225.259 295.451 224.648V224.471H296.394V224.648ZM300.222 224.867H291.417V224.02H300.222V224.867ZM299.921 232.961H292.703V234.451H291.636V232.195H298.869V231.143H291.609V230.336H299.921V232.961ZM300.29 234.971H291.636V234.15H300.29V234.971ZM306.934 229.092H305.854V227.082H306.934V229.092ZM312.362 229.953H311.282V222.967H312.362V229.953ZM302.368 228.764C303.881 228.764 305.289 228.739 306.592 228.688C307.896 228.638 309.121 228.536 310.27 228.381L310.338 229.16C309.518 229.297 308.654 229.402 307.747 229.475C306.841 229.548 305.975 229.595 305.15 229.618C304.325 229.641 303.452 229.652 302.532 229.652L302.368 228.764ZM309.354 227.41H303.475V226.549H309.354V227.41ZM309.245 224.457H304.555V226.877H303.475V223.568H309.245V224.457ZM305.416 231.799H311.309V230.5H312.362V234.943H304.35V230.5H305.416V231.799ZM311.309 234.068V232.633H305.416V234.068H311.309ZM324.406 235.107H323.339V222.953H324.406V235.107ZM316.23 231.676H315.177V224.156H316.23V231.676ZM316.161 231.047C317.155 231.047 318.137 231.001 319.108 230.91C320.078 230.819 321.056 230.669 322.04 230.459L322.191 231.375C321.161 231.585 320.156 231.737 319.176 231.833C318.196 231.929 317.191 231.977 316.161 231.977H315.177V231.047H316.161ZM335.848 235.135H334.782V222.953H335.848V235.135ZM337.885 228.668H335.602V227.766H337.885V228.668ZM327.932 231.184C329.108 231.184 330.126 231.152 330.988 231.088C331.849 231.024 332.722 230.91 333.606 230.746L333.743 231.676C332.849 231.84 331.97 231.949 331.104 232.004C330.238 232.059 329.181 232.086 327.932 232.086H326.975V231.184H327.932ZM332.649 225.031H328.041V231.594H326.975V224.143H332.649V225.031ZM339.785 234.082C339.63 234.082 339.484 234.041 339.347 233.959C339.21 233.877 339.103 233.768 339.026 233.631C338.948 233.494 338.91 233.348 338.91 233.193C338.91 233.038 338.948 232.893 339.026 232.756C339.103 232.619 339.21 232.512 339.347 232.435C339.484 232.357 339.63 232.318 339.785 232.318C339.939 232.318 340.085 232.357 340.222 232.435C340.359 232.512 340.466 232.619 340.543 232.756C340.621 232.893 340.66 233.038 340.66 233.193C340.66 233.348 340.621 233.494 340.543 233.631C340.466 233.768 340.359 233.877 340.222 233.959C340.085 234.041 339.939 234.082 339.785 234.082Z" fill="#666666"/>
<path d="M243.676 185.222H242.165V178.857H243.676V185.222ZM243.689 188.934H237.004V190.403H235.52V187.833H242.172V186.91H235.493V185.748H243.689V188.934ZM244.059 191.107H235.52V189.925H244.059V191.107ZM237.79 180.56C237.79 181.289 237.651 181.972 237.373 182.61C237.095 183.244 236.685 183.798 236.143 184.271C235.6 184.745 234.953 185.094 234.201 185.317L233.504 184.121C234.151 183.925 234.702 183.645 235.158 183.28C235.618 182.911 235.965 182.492 236.197 182.022C236.434 181.553 236.553 181.065 236.553 180.56V179.992H237.79V180.56ZM238.091 180.56C238.091 181.038 238.207 181.498 238.439 181.94C238.672 182.382 239.016 182.772 239.472 183.109C239.927 183.447 240.479 183.704 241.126 183.882L240.394 185.064C239.656 184.846 239.02 184.515 238.487 184.073C237.959 183.631 237.558 183.107 237.284 182.501C237.015 181.895 236.881 181.248 236.881 180.56V179.992H238.091V180.56ZM240.695 180.696H233.893V179.473H240.695V180.696ZM256.787 186.261H245.494V185.037H256.787V186.261ZM252.016 188.517H250.512V185.796H252.016V188.517ZM255.338 183.889H246.923V179.425H255.338V183.889ZM248.406 182.699H253.834V180.607H248.406V182.699ZM255.536 190.984H246.854V189.74H255.536V190.984ZM248.379 190.157H246.854V187.396H248.379V190.157ZM270.131 181.646H266.897V180.505H270.131V181.646ZM270.131 183.896H266.897V182.733H270.131V183.896ZM271.279 185.249H269.768V178.857H271.279V185.249ZM271.279 188.92H264.676V190.636H263.151V187.799H269.768V186.938H263.131V185.755H271.279V188.92ZM271.683 191.06H263.151V189.863H271.683V191.06ZM263.021 180.963H265.783V179.404H267.28V184.853H261.497V179.404H263.021V180.963ZM265.783 183.643V182.118H263.021V183.643H265.783ZM282.743 187.218H281.246V185.037H282.743V187.218ZM287.631 185.748H276.379V184.524H287.631V185.748ZM281.991 186.78C282.884 186.78 283.65 186.867 284.288 187.04C284.931 187.209 285.42 187.459 285.758 187.792C286.1 188.125 286.27 188.526 286.27 188.995C286.27 189.46 286.1 189.856 285.758 190.185C285.42 190.513 284.931 190.763 284.288 190.937C283.65 191.11 282.884 191.196 281.991 191.196C281.093 191.196 280.323 191.11 279.681 190.937C279.038 190.763 278.544 190.513 278.197 190.185C277.855 189.856 277.684 189.46 277.684 188.995C277.684 188.526 277.855 188.125 278.197 187.792C278.539 187.459 279.031 187.209 279.674 187.04C280.321 186.867 281.093 186.78 281.991 186.78ZM281.991 187.936C281.39 187.936 280.884 187.977 280.474 188.059C280.068 188.141 279.76 188.259 279.551 188.414C279.341 188.569 279.236 188.763 279.236 188.995C279.236 189.214 279.341 189.403 279.551 189.562C279.76 189.717 280.07 189.838 280.48 189.925C280.891 190.007 281.394 190.048 281.991 190.048C282.579 190.048 283.08 190.007 283.495 189.925C283.91 189.838 284.222 189.717 284.432 189.562C284.641 189.403 284.746 189.214 284.746 188.995C284.746 188.763 284.641 188.569 284.432 188.414C284.222 188.259 283.912 188.141 283.502 188.059C283.092 187.977 282.588 187.936 281.991 187.936ZM282.312 180.307C282.312 180.936 282.112 181.51 281.711 182.029C281.314 182.544 280.747 182.97 280.009 183.308C279.275 183.645 278.416 183.864 277.432 183.964L276.919 182.768C277.735 182.686 278.448 182.524 279.059 182.282C279.674 182.041 280.145 181.747 280.474 181.4C280.802 181.049 280.966 180.685 280.966 180.307V179.965H282.312V180.307ZM283.023 180.307C283.023 180.685 283.185 181.049 283.509 181.4C283.837 181.747 284.311 182.041 284.931 182.282C285.55 182.524 286.275 182.686 287.104 182.768L286.564 183.964C285.594 183.864 284.737 183.645 283.994 183.308C283.251 182.97 282.677 182.544 282.271 182.029C281.866 181.51 281.663 180.936 281.663 180.307V179.965H283.023V180.307ZM286.619 180.614H277.397V179.404H286.619V180.614ZM292.587 188.715H291.09V185.174H292.587V188.715ZM297.16 188.715H295.629V185.174H297.16V188.715ZM299.771 189.72H288.478V188.469H299.771V189.72ZM294.104 179.521C294.989 179.521 295.777 179.657 296.47 179.931C297.167 180.2 297.714 180.582 298.11 181.079C298.507 181.576 298.705 182.146 298.705 182.788C298.705 183.435 298.507 184.005 298.11 184.497C297.718 184.989 297.174 185.37 296.477 185.639C295.784 185.908 294.993 186.044 294.104 186.049C293.216 186.044 292.423 185.908 291.726 185.639C291.033 185.37 290.488 184.989 290.092 184.497C289.7 184.005 289.504 183.435 289.504 182.788C289.504 182.146 289.7 181.576 290.092 181.079C290.488 180.582 291.035 180.2 291.732 179.931C292.43 179.657 293.22 179.521 294.104 179.521ZM294.104 180.737C293.489 180.733 292.947 180.812 292.477 180.977C292.013 181.141 291.648 181.378 291.384 181.688C291.124 181.997 290.994 182.364 290.994 182.788C290.994 183.207 291.124 183.574 291.384 183.889C291.648 184.199 292.013 184.44 292.477 184.613C292.947 184.782 293.489 184.866 294.104 184.866C294.711 184.866 295.248 184.782 295.718 184.613C296.187 184.44 296.552 184.199 296.811 183.889C297.076 183.574 297.208 183.207 297.208 182.788C297.208 182.364 297.076 182 296.811 181.694C296.552 181.384 296.187 181.147 295.718 180.983C295.253 180.815 294.715 180.733 294.104 180.737ZM310.606 185.687H301.938V184.477H310.606V185.687ZM311.871 189.754H300.578V188.503H311.871V189.754ZM306.942 188.934H305.445V185.023H306.942V188.934ZM310.504 180.997H303.463V185.03H301.938V179.78H310.504V180.997ZM317.142 188.024H315.624V185.105H317.142V188.024ZM316.362 179.616C316.996 179.616 317.565 179.744 318.071 179.999C318.582 180.25 318.983 180.603 319.274 181.059C319.571 181.51 319.719 182.025 319.719 182.604C319.719 183.182 319.571 183.697 319.274 184.148C318.983 184.595 318.582 184.946 318.071 185.201C317.565 185.456 316.996 185.584 316.362 185.584C315.72 185.584 315.143 185.456 314.633 185.201C314.122 184.946 313.724 184.595 313.436 184.148C313.149 183.697 313.006 183.182 313.006 182.604C313.006 182.025 313.149 181.51 313.436 181.059C313.724 180.603 314.122 180.25 314.633 179.999C315.143 179.744 315.72 179.616 316.362 179.616ZM316.362 180.915C316.002 180.915 315.681 180.983 315.398 181.12C315.116 181.257 314.893 181.455 314.728 181.715C314.569 181.97 314.489 182.266 314.489 182.604C314.489 182.941 314.569 183.237 314.728 183.492C314.893 183.747 315.116 183.946 315.398 184.087C315.685 184.224 316.007 184.292 316.362 184.292C316.718 184.292 317.034 184.224 317.312 184.087C317.595 183.946 317.816 183.747 317.976 183.492C318.14 183.237 318.222 182.941 318.222 182.604C318.222 182.266 318.14 181.97 317.976 181.715C317.816 181.46 317.597 181.264 317.319 181.127C317.041 180.986 316.722 180.915 316.362 180.915ZM322.392 191.203H320.874V178.857H322.392V191.203ZM324.183 185.078H321.94V183.786H324.183V185.078ZM312.527 187.423C313.644 187.418 314.567 187.409 315.296 187.396C316.03 187.382 316.834 187.352 317.709 187.307C318.584 187.257 319.404 187.179 320.17 187.074L320.272 188.202C319.475 188.348 318.641 188.457 317.77 188.53C316.9 188.599 316.071 188.64 315.282 188.653C314.494 188.662 313.646 188.667 312.739 188.667L312.527 187.423ZM337.854 186.309H336.337V178.857H337.854V186.309ZM339.584 183.26H337.424V181.988H339.584V183.26ZM337.854 191.06H329.877V186.903H337.854V191.06ZM331.381 189.836H336.351V188.1H331.381V189.836ZM335.448 181.264H328.113V180.047H335.448V181.264ZM331.784 181.708C332.381 181.708 332.905 181.801 333.356 181.988C333.812 182.171 334.168 182.43 334.423 182.768C334.678 183.105 334.806 183.49 334.806 183.923C334.806 184.365 334.678 184.755 334.423 185.092C334.168 185.429 333.812 185.691 333.356 185.878C332.905 186.06 332.381 186.151 331.784 186.151C331.187 186.151 330.658 186.06 330.198 185.878C329.742 185.691 329.387 185.429 329.132 185.092C328.881 184.755 328.756 184.365 328.756 183.923C328.756 183.49 328.881 183.105 329.132 182.768C329.387 182.43 329.742 182.171 330.198 181.988C330.658 181.801 331.187 181.708 331.784 181.708ZM331.784 182.863C331.474 182.863 331.201 182.907 330.964 182.993C330.727 183.075 330.545 183.196 330.417 183.355C330.289 183.515 330.226 183.704 330.226 183.923C330.226 184.151 330.289 184.347 330.417 184.511C330.545 184.675 330.727 184.8 330.964 184.887C331.201 184.969 331.474 185.012 331.784 185.017C332.103 185.012 332.379 184.969 332.611 184.887C332.848 184.8 333.033 184.675 333.165 184.511C333.297 184.347 333.363 184.151 333.363 183.923C333.363 183.704 333.295 183.515 333.158 183.355C333.026 183.196 332.841 183.075 332.604 182.993C332.372 182.907 332.099 182.863 331.784 182.863ZM332.55 180.689H331.025V178.782H332.55V180.689ZM343.255 180.307C343.255 181.391 343.2 182.392 343.091 183.308C342.981 184.224 342.783 185.121 342.496 186.001C342.209 186.876 341.801 187.699 341.272 188.469L340.09 187.826C340.596 187.115 340.983 186.377 341.252 185.611C341.521 184.846 341.705 184.053 341.806 183.232C341.91 182.412 341.963 181.48 341.963 180.437V180.307H343.255ZM342.756 181.537H340.445V180.307H342.756V181.537ZM346.01 180.307C346.01 181.51 345.966 182.592 345.88 183.554C345.793 184.511 345.606 185.475 345.319 186.445C345.032 187.416 344.606 188.318 344.041 189.152L342.872 188.496C343.41 187.721 343.811 186.906 344.075 186.049C344.344 185.188 344.517 184.328 344.595 183.472C344.677 182.61 344.718 181.599 344.718 180.437V180.307H346.01ZM345.559 181.537H343.624V180.307H345.559V181.537ZM350.952 191.203H349.489V178.857H350.952V191.203ZM347.377 184.798H345.415V183.567H347.377V184.798ZM348.553 190.636H347.117V179.158H348.553V190.636ZM67.9532 204.118H64.6924V202.881H67.9532V204.118ZM67.9942 206.757H64.6924V205.54H67.9942V206.757ZM65.0274 207.823H59.2305V201.89H65.0274V207.823ZM60.7413 206.634H63.5372V203.106H60.7413V206.634ZM69.0401 209.867H67.5225V200.871H69.0401V209.867ZM69.3067 212.984H60.8916V211.74H69.3067V212.984ZM62.4366 212.355H60.8916V209.033H62.4366V212.355ZM80.0186 204.952H77.4825V203.701H80.0186V204.952ZM81.1329 207.598H79.6221V200.857H81.1329V207.598ZM74.5088 209.409H79.6221V208.124H81.1329V213.06H72.9981V208.124H74.5088V209.409ZM79.6221 211.836V210.592H74.5088V211.836H79.6221ZM75.0284 202.703C75.0284 203.473 74.8916 204.2 74.6182 204.884C74.3493 205.563 73.9528 206.16 73.4288 206.675C72.9092 207.185 72.2826 207.566 71.5489 207.816L70.7627 206.62C71.4008 206.397 71.9476 206.085 72.4034 205.684C72.8591 205.278 73.2032 204.82 73.4356 204.31C73.668 203.795 73.7842 203.259 73.7842 202.703V201.814H75.0284V202.703ZM75.3291 202.717C75.3291 203.218 75.4408 203.71 75.6641 204.193C75.8874 204.672 76.2178 205.105 76.6553 205.492C77.0928 205.875 77.6192 206.171 78.2344 206.381L77.4756 207.55C76.7556 207.299 76.1426 206.932 75.6368 206.449C75.1309 205.966 74.7458 205.403 74.4815 204.761C74.2217 204.118 74.0918 203.437 74.0918 202.717V201.814H75.3291V202.717ZM77.8926 202.724H71.2071V201.486H77.8926V202.724ZM95.9737 207.461H94.4561V200.857H95.9737V207.461ZM97.7032 204.863H95.543V203.605H97.7032V204.863ZM87.75 205.889C89.1537 205.889 90.2452 205.864 91.0245 205.813C91.8083 205.763 92.5762 205.659 93.3282 205.499L93.4991 206.723C92.7198 206.882 91.92 206.992 91.0997 207.051C90.2793 207.105 89.1628 207.133 87.75 207.133H86.7383V205.889H87.75ZM92.2344 202.854H88.2559V206.723H86.7383V201.63H92.2344V202.854ZM89.4727 209.361H94.4561V208.076H95.9737V213.039H87.962V208.076H89.4727V209.361ZM94.4561 211.815V210.558H89.4727V211.815H94.4561ZM107.697 204.241H104.375V202.997H107.697V204.241ZM107.745 206.873H104.375V205.649H107.745V206.873ZM108.675 209.99H107.157V200.871H108.675V209.99ZM108.941 212.984H100.526V211.74H108.941V212.984ZM102.071 212.417H100.526V209.088H102.071V212.417ZM100.41 203.674H103.172V201.685H104.669V207.987H98.8858V201.685H100.41V203.674ZM103.172 206.777V204.843H100.41V206.777H103.172ZM123.44 204.152H120.891V202.942H123.44V204.152ZM123.44 206.442H120.891V205.219H123.44V206.442ZM120.665 202.949H114.096V201.719H120.665V202.949ZM113.768 206.634C115.148 206.629 116.431 206.609 117.616 206.572C118.806 206.531 119.909 206.449 120.925 206.326L120.986 207.454C119.947 207.623 118.84 207.737 117.664 207.796C116.488 207.851 115.246 207.878 113.939 207.878L113.768 206.634ZM116.646 207.058H115.176V202.724H116.646V207.058ZM119.564 207.058H118.108V202.724H119.564V207.058ZM124.11 208.432H122.593V200.857H124.11V208.432ZM119.934 208.65C120.809 208.65 121.563 208.739 122.196 208.917C122.83 209.095 123.313 209.354 123.646 209.696C123.983 210.038 124.151 210.448 124.151 210.927C124.151 211.396 123.983 211.802 123.646 212.144C123.308 212.485 122.823 212.745 122.189 212.923C121.561 213.105 120.809 213.196 119.934 213.196C119.063 213.196 118.311 213.105 117.678 212.923C117.044 212.745 116.559 212.485 116.222 212.144C115.889 211.802 115.723 211.396 115.723 210.927C115.723 210.448 115.891 210.038 116.229 209.696C116.57 209.354 117.056 209.095 117.685 208.917C118.314 208.739 119.063 208.65 119.934 208.65ZM119.934 209.812C119.355 209.812 118.865 209.854 118.464 209.936C118.063 210.018 117.758 210.143 117.548 210.312C117.338 210.48 117.233 210.685 117.233 210.927C117.233 211.164 117.338 211.367 117.548 211.535C117.758 211.699 118.063 211.825 118.464 211.911C118.865 211.993 119.355 212.034 119.934 212.034C120.512 212.034 121.005 211.993 121.41 211.911C121.816 211.825 122.121 211.699 122.326 211.535C122.531 211.367 122.634 211.164 122.634 210.927C122.634 210.681 122.529 210.476 122.319 210.312C122.114 210.143 121.809 210.018 121.403 209.936C121.002 209.854 120.512 209.812 119.934 209.812ZM135.54 213.196H134.023V200.857H135.54V213.196ZM137.372 206.948H135.15V205.69H137.372V206.948ZM132.279 202.149C132.279 203.407 132.09 204.578 131.712 205.663C131.338 206.743 130.734 207.737 129.9 208.644C129.066 209.546 127.986 210.327 126.66 210.988L125.806 209.812C126.922 209.247 127.847 208.603 128.581 207.878C129.319 207.153 129.871 206.34 130.235 205.438C130.6 204.531 130.782 203.523 130.782 202.416V202.149H132.279ZM131.555 203.4H126.448V202.149H131.555V203.4ZM150.976 213.196H149.458V200.857H150.976V213.196ZM152.808 206.948H150.586V205.69H152.808V206.948ZM147.715 202.149C147.715 203.407 147.526 204.578 147.148 205.663C146.774 206.743 146.17 207.737 145.336 208.644C144.502 209.546 143.422 210.327 142.096 210.988L141.241 209.812C142.358 209.247 143.283 208.603 144.017 207.878C144.755 207.153 145.306 206.34 145.671 205.438C146.036 204.531 146.218 203.523 146.218 202.416V202.149H147.715ZM146.99 203.4H141.884V202.149H146.99V203.4ZM159.767 209.218H158.27V207.037H159.767V209.218ZM164.654 207.748H153.402V206.524H164.654V207.748ZM159.015 208.78C159.908 208.78 160.674 208.867 161.312 209.04C161.954 209.209 162.444 209.459 162.781 209.792C163.123 210.125 163.294 210.526 163.294 210.995C163.294 211.46 163.123 211.856 162.781 212.185C162.444 212.513 161.954 212.763 161.312 212.937C160.674 213.11 159.908 213.196 159.015 213.196C158.117 213.196 157.347 213.11 156.704 212.937C156.062 212.763 155.567 212.513 155.221 212.185C154.879 211.856 154.708 211.46 154.708 210.995C154.708 210.526 154.879 210.125 155.221 209.792C155.563 209.459 156.055 209.209 156.697 209.04C157.344 208.867 158.117 208.78 159.015 208.78ZM159.015 209.936C158.413 209.936 157.907 209.977 157.497 210.059C157.092 210.141 156.784 210.259 156.574 210.414C156.365 210.569 156.26 210.763 156.26 210.995C156.26 211.214 156.365 211.403 156.574 211.562C156.784 211.717 157.094 211.838 157.504 211.925C157.914 212.007 158.418 212.048 159.015 212.048C159.603 212.048 160.104 212.007 160.519 211.925C160.933 211.838 161.245 211.717 161.455 211.562C161.665 211.403 161.77 211.214 161.77 210.995C161.77 210.763 161.665 210.569 161.455 210.414C161.245 210.259 160.936 210.141 160.525 210.059C160.115 209.977 159.612 209.936 159.015 209.936ZM159.336 202.307C159.336 202.936 159.135 203.51 158.734 204.029C158.338 204.544 157.771 204.97 157.032 205.308C156.299 205.645 155.439 205.864 154.455 205.964L153.942 204.768C154.758 204.686 155.471 204.524 156.082 204.282C156.697 204.041 157.169 203.747 157.497 203.4C157.825 203.049 157.989 202.685 157.989 202.307V201.965H159.336V202.307ZM160.047 202.307C160.047 202.685 160.209 203.049 160.532 203.4C160.86 203.747 161.334 204.041 161.954 204.282C162.574 204.524 163.299 204.686 164.128 204.768L163.588 205.964C162.617 205.864 161.76 205.645 161.018 205.308C160.275 204.97 159.701 204.544 159.295 204.029C158.889 203.51 158.687 202.936 158.687 202.307V201.965H160.047V202.307ZM163.643 202.614H154.421V201.404H163.643V202.614ZM175.77 213.203H174.238V200.857H175.77V213.203ZM169.939 204.781C169.939 205.661 169.797 206.506 169.515 207.317C169.237 208.129 168.833 208.846 168.305 209.471C167.776 210.095 167.154 210.564 166.439 210.879L165.625 209.703C166.263 209.421 166.814 209.02 167.279 208.5C167.749 207.976 168.106 207.393 168.353 206.75C168.599 206.103 168.722 205.447 168.722 204.781V203.947H169.939V204.781ZM170.232 204.781C170.232 205.419 170.358 206.05 170.608 206.675C170.859 207.295 171.224 207.853 171.702 208.35C172.181 208.846 172.741 209.231 173.384 209.505L172.557 210.674C171.841 210.368 171.217 209.915 170.684 209.313C170.155 208.712 169.747 208.019 169.46 207.235C169.173 206.447 169.029 205.629 169.029 204.781V203.947H170.232V204.781ZM172.905 204.139H166.008V202.922H172.905V204.139ZM170.226 203.571H168.708V201.124H170.226V203.571ZM188.881 207.604H177.588V206.463H188.881V207.604ZM187.514 211.159H180.425V212.376H178.9V210.182H186.003V209.423H178.894V208.343H187.514V211.159ZM187.883 213.08H178.9V212.027H187.883V213.08ZM187.486 203.92H180.527V205.062H179.017V202.936H185.955V202.184H178.982V201.131H187.486V203.92ZM187.698 205.766H179.017V204.727H187.698V205.766ZM202.149 203.209H194.199V201.985H202.149V203.209ZM204.289 211.617H193.037V210.38H204.289V211.617ZM198.69 211.016H197.193V206.073H198.69V211.016ZM203.113 203.182C203.113 203.906 203.104 204.521 203.086 205.027C203.068 205.529 203.024 206.121 202.956 206.805C202.888 207.484 202.781 208.222 202.635 209.02L201.097 208.855C201.247 208.108 201.359 207.404 201.432 206.743C201.505 206.078 201.548 205.488 201.562 204.973C201.575 204.458 201.582 203.861 201.582 203.182V201.985H203.113V203.182ZM215.473 213.237H213.962V200.857H215.473V213.237ZM214.263 204.788H211.761V203.551H214.263V204.788ZM206.531 209.177C207.548 209.177 208.459 209.152 209.266 209.102C210.077 209.051 210.92 208.965 211.795 208.842L211.925 210.086C211.045 210.218 210.2 210.309 209.389 210.359C208.578 210.405 207.625 210.428 206.531 210.428H205.581V209.177H206.531ZM211.057 206.552H207.092V209.471H205.581V205.355H209.56V203.147H205.54V201.924H211.057V206.552ZM214.208 208.158H211.699V206.907H214.208V208.158Z" fill="#1A1A1A"/>
</svg>
