<svg width="392" height="374" viewBox="0 0 392 374" fill="none" xmlns="http://www.w3.org/2000/svg">
<rect x="0.4" y="0.4" width="391.2" height="373.2" rx="18.8" stroke="#CCCCCC" stroke-width="0.8"/>
<path d="M0.4 19.2C0.4 8.81704 8.81705 0.4 19.2 0.4H372.8C383.183 0.4 391.6 8.81705 391.6 19.2V127.6H0.4V19.2Z" fill="#F6F6F6" stroke="#CCCCCC" stroke-width="0.8"/>
<path d="M94.932 85.9358C94.833 85.5764 94.6716 85.2691 94.4476 85.0139C94.2237 84.7535 93.9502 84.5556 93.6273 84.4202C93.3096 84.2795 92.9424 84.2092 92.5257 84.2092C91.9424 84.2092 91.4294 84.3551 90.9867 84.6467C90.5492 84.9384 90.2054 85.3655 89.9554 85.928C89.7106 86.4853 89.5882 87.1545 89.5882 87.9358C89.5882 88.7222 89.708 89.3967 89.9476 89.9592C90.1924 90.5165 90.5362 90.9436 90.9789 91.2405C91.4268 91.5321 91.9502 91.678 92.5492 91.678C93.0909 91.678 93.557 91.579 93.9476 91.3811C94.3435 91.1832 94.6429 90.9045 94.8461 90.5452C95.0544 90.1806 95.1586 89.7561 95.1586 89.2717L95.6429 89.342H92.7054V87.553H97.4242V88.9749C97.4242 89.9488 97.2159 90.7978 96.7992 91.5217C96.3825 92.2405 95.8044 92.7926 95.0648 93.178C94.3304 93.5634 93.4893 93.7561 92.5414 93.7561C91.4893 93.7561 90.5596 93.5217 89.7523 93.053C88.9502 92.579 88.3252 91.9045 87.8773 91.0295C87.4346 90.1545 87.2132 89.1285 87.2132 87.9514C87.2132 86.7587 87.4424 85.7249 87.9007 84.8499C88.3643 83.9696 88.9945 83.2978 89.7914 82.8342C90.5882 82.3655 91.4867 82.1311 92.4867 82.1311C93.3304 82.1311 94.1013 82.2926 94.7992 82.6155C95.4971 82.9384 96.0648 83.3863 96.5023 83.9592C96.945 84.5321 97.2185 85.191 97.3226 85.9358H94.932ZM109.446 87.9436C109.446 89.1415 109.217 90.1806 108.759 91.0608C108.306 91.9358 107.678 92.6051 106.876 93.0686C106.079 93.5269 105.176 93.7561 104.165 93.7561C103.155 93.7561 102.249 93.5269 101.446 93.0686C100.65 92.6051 100.022 91.9332 99.5637 91.053C99.1106 90.1728 98.884 89.1363 98.884 87.9436C98.884 86.7353 99.1106 85.6936 99.5637 84.8186C100.022 83.9436 100.65 83.2769 101.446 82.8186C102.249 82.3603 103.155 82.1311 104.165 82.1311C105.176 82.1311 106.079 82.3603 106.876 82.8186C107.678 83.2769 108.306 83.9436 108.759 84.8186C109.217 85.6936 109.446 86.7353 109.446 87.9436ZM107.071 87.9436C107.071 87.1467 106.952 86.4696 106.712 85.9124C106.478 85.3551 106.142 84.9332 105.704 84.6467C105.272 84.3551 104.759 84.2092 104.165 84.2092C103.577 84.2092 103.064 84.3551 102.626 84.6467C102.194 84.9332 101.858 85.3551 101.618 85.9124C101.379 86.4696 101.259 87.1467 101.259 87.9436C101.259 88.7405 101.379 89.4176 101.618 89.9749C101.858 90.5321 102.194 90.9566 102.626 91.2483C103.064 91.5347 103.577 91.678 104.165 91.678C104.759 91.678 105.272 91.5347 105.704 91.2483C106.142 90.9566 106.478 90.5321 106.712 89.9749C106.952 89.4176 107.071 88.7405 107.071 87.9436ZM110.148 82.2874H119.414V84.2249H115.945V93.5999H113.625V84.2249H110.148V82.2874ZM127.89 86.2327C127.832 85.816 127.692 85.4566 127.468 85.1545C127.249 84.8472 126.962 84.6129 126.608 84.4514C126.254 84.29 125.861 84.2092 125.429 84.2092C124.84 84.2092 124.324 84.3577 123.882 84.6545C123.444 84.9462 123.103 85.3733 122.858 85.9358C122.614 86.4931 122.491 87.1624 122.491 87.9436C122.491 88.7457 122.614 89.4254 122.858 89.9827C123.103 90.5347 123.444 90.9566 123.882 91.2483C124.324 91.5347 124.832 91.678 125.405 91.678C125.837 91.678 126.225 91.5999 126.569 91.4436C126.918 91.2874 127.207 91.066 127.436 90.7795C127.666 90.4879 127.817 90.1415 127.89 89.7405L130.272 89.7639C130.184 90.4722 129.929 91.1311 129.507 91.7405C129.09 92.3499 128.528 92.8394 127.819 93.2092C127.111 93.5738 126.296 93.7561 125.374 93.7561C124.364 93.7561 123.46 93.5269 122.663 93.0686C121.866 92.6051 121.241 91.9358 120.788 91.0608C120.34 90.1806 120.116 89.1415 120.116 87.9436C120.116 86.7353 120.343 85.6936 120.796 84.8186C121.254 83.9436 121.879 83.2769 122.671 82.8186C123.468 82.3603 124.369 82.1311 125.374 82.1311C126.244 82.1311 127.03 82.2926 127.733 82.6155C128.436 82.9384 129.007 83.4097 129.444 84.0295C129.887 84.6441 130.163 85.3785 130.272 86.2327H127.89ZM131.865 82.2874H134.209V86.9749H139.115V82.2874H141.459V93.5999H139.115V88.9045H134.209V93.5999H131.865V82.2874ZM142.7 93.5999L146.606 82.2874H149.622L153.536 93.5999H151.012L148.161 84.842H148.067L145.208 93.5999H142.7ZM151.122 89.1545V90.9905H145.083V89.1545H151.122ZM162.83 95.0452H160.846V89.0061H162.83V95.0452ZM167.799 95.0452H165.791V89.0061H167.799V95.0452ZM159.174 86.6155L158.955 84.8967L167.955 84.6467V86.1545L159.174 86.6155ZM168.385 83.1545H159.393V81.5842H168.385V83.1545ZM170.862 89.8577H157.893V88.2483H170.862V89.8577ZM169.409 82.8577C169.409 83.5712 169.401 84.191 169.385 84.717C169.369 85.2379 169.317 85.8368 169.229 86.5139C169.145 87.191 169.015 87.9202 168.838 88.7014L166.932 88.4905C167.104 87.7509 167.231 87.0556 167.315 86.4045C167.403 85.7535 167.458 85.1832 167.479 84.6936C167.5 84.204 167.51 83.592 167.51 82.8577V81.5842H169.409V82.8577ZM173.071 90.0608C174.118 90.0608 175.019 90.0374 175.775 89.9905C176.535 89.9436 177.327 89.8472 178.15 89.7014L178.321 91.3186C177.478 91.4749 176.67 91.5764 175.9 91.6233C175.129 91.6702 174.186 91.6962 173.071 91.7014H172.064V90.0608H173.071ZM177.095 87.6311H173.985V90.717H172.064V86.053H175.181V83.8186H172.048V82.2327H177.095V87.6311ZM183.954 95.0374H182.079V80.803H183.954V95.0374ZM179.962 87.2795H177.696V85.6702H179.962V87.2795ZM181.017 94.3499H179.15V81.0764H181.017V94.3499ZM197.352 95.0764H195.328V80.803H197.352V95.0764ZM189.625 81.8108C190.339 81.8108 190.979 82.0191 191.547 82.4358C192.12 82.8525 192.565 83.4436 192.883 84.2092C193.206 84.9749 193.367 85.8655 193.367 86.8811C193.367 87.9019 193.206 88.7952 192.883 89.5608C192.565 90.3264 192.12 90.9176 191.547 91.3342C190.979 91.7457 190.339 91.9514 189.625 91.9514C188.901 91.9514 188.253 91.7457 187.68 91.3342C187.112 90.9176 186.667 90.3264 186.344 89.5608C186.021 88.7952 185.859 87.9019 185.859 86.8811C185.859 85.8655 186.021 84.9749 186.344 84.2092C186.667 83.4436 187.112 82.8525 187.68 82.4358C188.253 82.0191 188.901 81.8108 189.625 81.8108ZM189.625 83.6155C189.26 83.6103 188.938 83.7353 188.656 83.9905C188.38 84.2405 188.167 84.6129 188.016 85.1077C187.87 85.5972 187.797 86.1884 187.797 86.8811C187.797 87.5738 187.87 88.165 188.016 88.6545C188.167 89.1441 188.38 89.5165 188.656 89.7717C188.938 90.0217 189.26 90.1467 189.625 90.1467C189.984 90.1467 190.302 90.0217 190.578 89.7717C190.854 89.5165 191.068 89.1441 191.219 88.6545C191.37 88.165 191.445 87.5738 191.445 86.8811C191.445 86.1884 191.37 85.5972 191.219 85.1077C191.068 84.6129 190.854 84.2405 190.578 83.9905C190.307 83.7353 189.99 83.6103 189.625 83.6155ZM209.686 84.2795H206.788V82.678H209.686V84.2795ZM209.686 87.0374H206.788V85.4358H209.686V87.0374ZM204.147 83.2717C204.147 84.2717 204.004 85.1988 203.718 86.053C203.431 86.9071 202.994 87.6545 202.405 88.2952C201.822 88.9306 201.1 89.415 200.241 89.7483L199.155 88.1858C199.916 87.915 200.548 87.5295 201.054 87.0295C201.559 86.5243 201.931 85.9514 202.171 85.3108C202.416 84.6702 202.538 83.9905 202.538 83.2717V81.6311H204.147V83.2717ZM204.546 83.2717C204.546 83.954 204.66 84.6051 204.889 85.2249C205.124 85.8446 205.483 86.3993 205.968 86.8889C206.452 87.3733 207.054 87.7509 207.772 88.0217L206.663 89.5686C205.85 89.2457 205.168 88.7717 204.616 88.1467C204.064 87.5165 203.65 86.7874 203.374 85.9592C203.098 85.1259 202.96 84.2301 202.96 83.2717V81.6311H204.546V83.2717ZM211.21 91.3733H209.225V80.8342H211.21V91.3733ZM211.514 94.7952H201.741V93.1858H211.514V94.7952ZM203.757 94.178H201.741V90.3655H203.757V94.178ZM224.912 95.0764H222.888V80.803H224.912V95.0764ZM217.185 81.8108C217.899 81.8108 218.539 82.0191 219.107 82.4358C219.68 82.8525 220.125 83.4436 220.443 84.2092C220.766 84.9749 220.927 85.8655 220.927 86.8811C220.927 87.9019 220.766 88.7952 220.443 89.5608C220.125 90.3264 219.68 90.9176 219.107 91.3342C218.539 91.7457 217.899 91.9514 217.185 91.9514C216.461 91.9514 215.813 91.7457 215.24 91.3342C214.672 90.9176 214.227 90.3264 213.904 89.5608C213.581 88.7952 213.42 87.9019 213.42 86.8811C213.42 85.8655 213.581 84.9749 213.904 84.2092C214.227 83.4436 214.672 82.8525 215.24 82.4358C215.813 82.0191 216.461 81.8108 217.185 81.8108ZM217.185 83.6155C216.821 83.6103 216.498 83.7353 216.216 83.9905C215.94 84.2405 215.727 84.6129 215.576 85.1077C215.43 85.5972 215.357 86.1884 215.357 86.8811C215.357 87.5738 215.43 88.165 215.576 88.6545C215.727 89.1441 215.94 89.5165 216.216 89.7717C216.498 90.0217 216.821 90.1467 217.185 90.1467C217.545 90.1467 217.862 90.0217 218.138 89.7717C218.414 89.5165 218.628 89.1441 218.779 88.6545C218.93 88.165 219.006 87.5738 219.006 86.8811C219.006 86.1884 218.93 85.5972 218.779 85.1077C218.628 84.6129 218.414 84.2405 218.138 83.9905C217.868 83.7353 217.55 83.6103 217.185 83.6155ZM243.433 90.3655H230.433V88.7717H243.433V90.3655ZM237.878 95.0217H235.902V89.7952H237.878V95.0217ZM241.886 87.2405H231.956V81.5061H241.886V87.2405ZM233.917 85.678H239.894V83.092H233.917V85.678ZM256.205 90.3733H254.221V80.803H256.205V90.3733ZM254.651 86.0842H251.213V84.4749H254.651V86.0842ZM248.19 81.7249C248.893 81.7249 249.531 81.8733 250.104 82.1702C250.677 82.467 251.127 82.8811 251.455 83.4124C251.789 83.9384 251.955 84.54 251.955 85.217C251.955 85.8889 251.789 86.4931 251.455 87.0295C251.127 87.566 250.677 87.9853 250.104 88.2874C249.531 88.5894 248.893 88.7405 248.19 88.7405C247.476 88.7405 246.83 88.5894 246.252 88.2874C245.679 87.9853 245.226 87.566 244.893 87.0295C244.565 86.4931 244.401 85.8889 244.401 85.217C244.401 84.54 244.565 83.9384 244.893 83.4124C245.226 82.8811 245.679 82.467 246.252 82.1702C246.83 81.8733 247.476 81.7249 248.19 81.7249ZM248.19 83.3967C247.82 83.3967 247.492 83.4722 247.205 83.6233C246.919 83.7691 246.695 83.9801 246.533 84.2561C246.372 84.5321 246.291 84.8525 246.291 85.217C246.291 85.5868 246.372 85.9097 246.533 86.1858C246.695 86.4618 246.919 86.6754 247.205 86.8264C247.492 86.9722 247.82 87.0452 248.19 87.0452C248.539 87.0452 248.854 86.9722 249.135 86.8264C249.421 86.6754 249.645 86.4618 249.807 86.1858C249.968 85.9097 250.049 85.5868 250.049 85.217C250.049 84.8525 249.968 84.5321 249.807 84.2561C249.645 83.9801 249.421 83.7691 249.135 83.6233C248.854 83.4722 248.539 83.3967 248.19 83.3967ZM252.104 89.8967C252.104 90.6988 251.882 91.454 251.44 92.1624C251.002 92.8655 250.367 93.4644 249.533 93.9592C248.7 94.4592 247.711 94.7926 246.565 94.9592L245.862 93.3967C246.809 93.2561 247.625 93.0009 248.307 92.6311C248.989 92.2613 249.51 91.8342 249.869 91.3499C250.229 90.8655 250.408 90.3811 250.408 89.8967V89.4827H252.104V89.8967ZM252.448 89.8967C252.448 90.4124 252.617 90.915 252.955 91.4045C253.299 91.8889 253.817 92.3108 254.51 92.6702C255.203 93.0243 256.039 93.2665 257.018 93.3967L256.237 94.9592C255.096 94.7874 254.112 94.4592 253.283 93.9749C252.461 93.4957 251.833 92.9045 251.401 92.2014C250.968 91.4931 250.752 90.7249 250.752 89.8967V89.4827H252.448V89.8967ZM269.9 91.053H267.907V80.8342H269.9V91.053ZM270.29 94.7952H260.376V93.1858H270.29V94.7952ZM262.392 93.842H260.376V90.0295H262.392V93.842ZM262.11 81.7327C262.834 81.7327 263.493 81.8863 264.087 82.1936C264.686 82.4957 265.155 82.9228 265.493 83.4749C265.832 84.0217 266.001 84.6337 266.001 85.3108C266.001 86.0087 265.832 86.6311 265.493 87.178C265.155 87.7249 264.686 88.1545 264.087 88.467C263.493 88.7743 262.834 88.928 262.11 88.928C261.386 88.928 260.728 88.7743 260.134 88.467C259.545 88.1545 259.079 87.7249 258.735 87.178C258.392 86.6311 258.22 86.0087 258.22 85.3108C258.22 84.6337 258.392 84.0217 258.735 83.4749C259.079 82.9228 259.545 82.4957 260.134 82.1936C260.728 81.8863 261.386 81.7327 262.11 81.7327ZM262.11 83.467C261.741 83.4618 261.407 83.5347 261.11 83.6858C260.819 83.8316 260.587 84.0452 260.415 84.3264C260.248 84.6077 260.165 84.9358 260.165 85.3108C260.165 85.6962 260.248 86.0321 260.415 86.3186C260.587 86.5999 260.819 86.816 261.11 86.967C261.407 87.1129 261.741 87.1858 262.11 87.1858C262.475 87.1858 262.801 87.1129 263.087 86.967C263.379 86.816 263.608 86.5999 263.775 86.3186C263.941 86.0321 264.025 85.6962 264.025 85.3108C264.025 84.9358 263.941 84.6077 263.775 84.3264C263.608 84.0452 263.379 83.8316 263.087 83.6858C262.801 83.5347 262.475 83.4618 262.11 83.467ZM283 95.0139H281V80.803H283V95.0139ZM285.008 87.9124H282.484V86.2717H285.008V87.9124ZM279.203 82.2717C279.203 83.7561 278.992 85.1259 278.57 86.3811C278.148 87.6311 277.461 88.7821 276.508 89.8342C275.555 90.8811 274.305 91.7874 272.758 92.553L271.633 91.0295C272.909 90.3837 273.958 89.6545 274.781 88.842C275.609 88.0295 276.227 87.1129 276.633 86.092C277.044 85.0712 277.25 83.9176 277.25 82.6311V82.2717H279.203ZM278.25 83.9045H272.43V82.2717H278.25V83.9045ZM290.444 92.0452H288.468V88.053H290.444V92.0452ZM295.678 92.0452H293.671V88.053H295.678V92.0452ZM298.569 93.3733H285.569V91.7405H298.569V93.3733ZM292.046 81.5061C293.072 81.5061 293.988 81.665 294.796 81.9827C295.608 82.3004 296.244 82.7483 296.702 83.3264C297.165 83.9045 297.397 84.5686 297.397 85.3186C297.397 86.0738 297.168 86.7405 296.71 87.3186C296.251 87.8915 295.616 88.3368 294.803 88.6545C293.996 88.967 293.077 89.1259 292.046 89.1311C291.02 89.1259 290.1 88.967 289.288 88.6545C288.481 88.3368 287.848 87.8915 287.389 87.3186C286.931 86.7405 286.702 86.0738 286.702 85.3186C286.702 84.5686 286.931 83.9045 287.389 83.3264C287.848 82.7483 288.483 82.3004 289.296 81.9827C290.108 81.665 291.025 81.5061 292.046 81.5061ZM292.046 83.0842C291.369 83.079 290.777 83.165 290.272 83.342C289.767 83.5191 289.374 83.7769 289.093 84.1155C288.811 84.4488 288.671 84.8499 288.671 85.3186C288.671 85.7821 288.811 86.1858 289.093 86.5295C289.374 86.8681 289.767 87.1311 290.272 87.3186C290.783 87.5009 291.374 87.592 292.046 87.592C292.712 87.592 293.301 87.5009 293.811 87.3186C294.322 87.1311 294.718 86.8681 294.999 86.5295C295.285 86.1858 295.428 85.7821 295.428 85.3186C295.428 84.8499 295.288 84.4488 295.007 84.1155C294.725 83.7821 294.33 83.5269 293.819 83.3499C293.314 83.1676 292.723 83.079 292.046 83.0842ZM301.826 90.0374C301.831 89.4071 301.888 88.8993 301.998 88.5139C302.107 88.1233 302.263 87.8108 302.466 87.5764C302.67 87.342 302.946 87.1181 303.295 86.9045C303.685 86.665 303.982 86.415 304.185 86.1545C304.388 85.8889 304.49 85.592 304.49 85.2639C304.49 85.0087 304.43 84.7847 304.31 84.592C304.196 84.3941 304.032 84.2431 303.818 84.1389C303.61 84.0347 303.378 83.9827 303.123 83.9827C302.878 83.9827 302.646 84.0374 302.427 84.1467C302.214 84.2509 302.039 84.4097 301.904 84.6233C301.769 84.8368 301.696 85.092 301.685 85.3889H299.466C299.482 84.6806 299.654 84.0816 299.982 83.592C300.31 83.1025 300.745 82.7379 301.287 82.4983C301.834 82.2535 302.448 82.1311 303.13 82.1311C303.865 82.1311 304.513 82.2535 305.076 82.4983C305.638 82.7379 306.076 83.0894 306.388 83.553C306.706 84.0113 306.865 84.5556 306.865 85.1858C306.865 85.8056 306.716 86.3316 306.42 86.7639C306.128 87.1962 305.709 87.579 305.162 87.9124C304.86 88.0894 304.617 88.2717 304.435 88.4592C304.258 88.6467 304.123 88.8655 304.029 89.1155C303.935 89.3655 303.888 89.6728 303.888 90.0374V90.217H301.826V90.0374ZM302.904 93.7405C302.67 93.7405 302.451 93.6806 302.248 93.5608C302.045 93.4358 301.886 93.2743 301.771 93.0764C301.657 92.8733 301.599 92.6545 301.599 92.4202C301.599 92.191 301.657 91.9775 301.771 91.7795C301.886 91.5764 302.045 91.4176 302.248 91.303C302.451 91.1884 302.67 91.1311 302.904 91.1311C303.133 91.1311 303.347 91.1884 303.545 91.303C303.748 91.4176 303.909 91.5764 304.029 91.7795C304.154 91.9775 304.216 92.191 304.216 92.4202C304.216 92.6545 304.154 92.8733 304.029 93.0764C303.909 93.2743 303.748 93.4358 303.545 93.5608C303.347 93.6806 303.133 93.7405 302.904 93.7405Z" fill="#1A1A1A"/>
<path d="M192.431 50.3936L193.846 52.2404L194.521 53.0748L196.781 56.0279H194.671L193.162 54.0592L192.637 53.3373L190.396 50.3936H192.431ZM197.212 48.0123C197.212 49.4248 196.95 50.6592 196.425 51.7154C195.9 52.7717 195.175 53.5811 194.25 54.1436C193.331 54.7061 192.281 54.9873 191.1 54.9873C189.918 54.9873 188.865 54.7061 187.94 54.1436C187.021 53.5811 186.3 52.7717 185.775 51.7154C185.25 50.6592 184.987 49.4248 184.987 48.0123C184.987 46.5873 185.25 45.3498 185.775 44.2998C186.3 43.2498 187.021 42.4436 187.94 41.8811C188.865 41.3186 189.918 41.0373 191.1 41.0373C192.281 41.0373 193.331 41.3186 194.25 41.8811C195.175 42.4436 195.9 43.2498 196.425 44.2998C196.95 45.3498 197.212 46.5873 197.212 48.0123ZM195.178 48.0123C195.178 46.9373 195.003 46.0186 194.653 45.2561C194.303 44.4873 193.821 43.9061 193.209 43.5123C192.596 43.1186 191.893 42.9217 191.1 42.9217C190.312 42.9217 189.609 43.1186 188.99 43.5123C188.378 43.9061 187.896 44.4873 187.546 45.2561C187.196 46.0186 187.021 46.9373 187.021 48.0123C187.021 49.0873 187.196 50.0092 187.546 50.7779C187.896 51.5404 188.378 52.1186 188.99 52.5123C189.609 52.9061 190.312 53.1029 191.1 53.1029C191.893 53.1029 192.596 52.9061 193.209 52.5123C193.821 52.1186 194.303 51.5404 194.653 50.7779C195.003 50.0092 195.178 49.0873 195.178 48.0123ZM204.168 54.9873C203.25 54.9873 202.425 54.8311 201.693 54.5186C200.962 54.2061 200.387 53.7686 199.968 53.2061C199.55 52.6373 199.325 51.9842 199.293 51.2467H201.375C201.406 51.6279 201.546 51.9686 201.796 52.2686C202.046 52.5686 202.378 52.7998 202.79 52.9623C203.203 53.1248 203.659 53.2061 204.159 53.2061C204.696 53.2061 205.184 53.1123 205.621 52.9248C206.059 52.7311 206.396 52.4717 206.634 52.1467C206.871 51.8154 206.99 51.4342 206.99 51.0029C206.99 50.5467 206.871 50.1436 206.634 49.7936C206.396 49.4436 206.046 49.1717 205.584 48.9779C205.128 48.7842 204.578 48.6873 203.934 48.6873H202.771V47.0092H203.934C204.446 47.0092 204.903 46.9186 205.303 46.7373C205.703 46.5561 206.012 46.3029 206.231 45.9779C206.45 45.6529 206.556 45.2779 206.55 44.8529C206.556 44.4404 206.462 44.0748 206.268 43.7561C206.075 43.4373 205.8 43.1936 205.443 43.0248C205.087 42.8498 204.675 42.7623 204.206 42.7623C203.743 42.7623 203.315 42.8436 202.921 43.0061C202.528 43.1686 202.206 43.3998 201.956 43.6998C201.712 43.9998 201.581 44.3529 201.562 44.7592H199.575C199.606 44.0342 199.828 43.3904 200.24 42.8279C200.659 42.2592 201.215 41.8186 201.909 41.5061C202.609 41.1936 203.378 41.0373 204.215 41.0373C205.084 41.0373 205.846 41.2029 206.503 41.5342C207.165 41.8592 207.675 42.3029 208.031 42.8654C208.387 43.4279 208.559 44.0498 208.546 44.7311C208.559 45.2311 208.465 45.6904 208.265 46.1092C208.071 46.5217 207.79 46.8686 207.421 47.1498C207.059 47.4248 206.634 47.6217 206.146 47.7404V47.8436C206.759 47.9248 207.284 48.1154 207.721 48.4154C208.165 48.7092 208.503 49.0811 208.734 49.5311C208.965 49.9811 209.075 50.4936 209.062 51.0686C209.075 51.8061 208.868 52.4748 208.443 53.0748C208.018 53.6686 207.431 54.1373 206.681 54.4811C205.931 54.8186 205.093 54.9873 204.168 54.9873Z" fill="#3733FF"/>
<path d="M61.8155 183.191C61.6788 182.763 61.4783 182.394 61.214 182.084C60.9497 181.774 60.6329 181.535 60.2638 181.366C59.8946 181.198 59.4776 181.113 59.0128 181.113C58.4204 181.113 57.8872 181.266 57.4132 181.571C56.9392 181.877 56.5633 182.326 56.2853 182.918C56.0073 183.51 55.8683 184.221 55.8683 185.051C55.8683 185.88 56.0073 186.591 56.2853 187.184C56.5633 187.776 56.9461 188.225 57.4337 188.53C57.9213 188.836 58.475 188.988 59.0948 188.988C59.6599 188.988 60.1567 188.868 60.5851 188.626C61.0135 188.384 61.3461 188.04 61.5831 187.594C61.8201 187.147 61.9386 186.632 61.9386 186.049L62.3077 186.117H59.3546V185.037H63.1417V186.104C63.1417 186.906 62.9685 187.612 62.6222 188.223C62.2758 188.833 61.7973 189.305 61.1866 189.638C60.576 189.97 59.8787 190.137 59.0948 190.137C58.2198 190.137 57.4497 189.929 56.7843 189.515C56.1189 189.1 55.6017 188.51 55.2325 187.744C54.8634 186.979 54.6788 186.081 54.6788 185.051C54.6788 184.021 54.8634 183.123 55.2325 182.357C55.6017 181.592 56.1144 181.002 56.7706 180.587C57.4269 180.172 58.1743 179.965 59.0128 179.965C59.7055 179.965 60.339 180.099 60.9132 180.368C61.4874 180.637 61.9636 181.015 62.3419 181.503C62.7202 181.991 62.9685 182.553 63.087 183.191H61.8155ZM73.3126 185.051C73.3126 186.072 73.1258 186.967 72.7521 187.737C72.3784 188.507 71.8611 189.1 71.2003 189.515C70.5395 189.929 69.7853 190.137 68.9376 190.137C68.0899 190.137 67.3357 189.929 66.6749 189.515C66.0141 189.1 65.4968 188.507 65.1231 187.737C64.7494 186.967 64.5626 186.072 64.5626 185.051C64.5626 184.021 64.7494 183.123 65.1231 182.357C65.4968 181.592 66.0141 181.002 66.6749 180.587C67.3357 180.172 68.0899 179.965 68.9376 179.965C69.7853 179.965 70.5395 180.172 71.2003 180.587C71.8611 181.002 72.3784 181.592 72.7521 182.357C73.1258 183.123 73.3126 184.021 73.3126 185.051ZM72.1231 185.051C72.1231 184.221 71.9841 183.51 71.7062 182.918C71.4282 182.326 71.0499 181.877 70.5714 181.571C70.0929 181.266 69.5483 181.113 68.9376 181.113C68.336 181.113 67.7937 181.266 67.3106 181.571C66.8276 181.877 66.447 182.326 66.169 182.918C65.891 183.51 65.7521 184.221 65.7521 185.051C65.7521 185.88 65.891 186.591 66.169 187.184C66.447 187.776 66.8276 188.225 67.3106 188.53C67.7937 188.836 68.336 188.988 68.9376 188.988C69.5483 188.988 70.0929 188.836 70.5714 188.53C71.0499 188.225 71.4282 187.776 71.7062 187.184C71.9841 186.591 72.1231 185.88 72.1231 185.051ZM74.1183 180.102H81.5831V181.195H78.4796V190H77.2354V181.195H74.1183V180.102ZM89.5255 183.219C89.4343 182.772 89.2543 182.392 88.9854 182.077C88.7166 181.763 88.3884 181.523 88.0011 181.359C87.6137 181.195 87.2013 181.113 86.7638 181.113C86.1622 181.113 85.6199 181.266 85.1368 181.571C84.6537 181.877 84.2732 182.326 83.9952 182.918C83.7172 183.51 83.5782 184.221 83.5782 185.051C83.5782 185.88 83.7172 186.591 83.9952 187.184C84.2732 187.776 84.6537 188.225 85.1368 188.53C85.6199 188.836 86.1622 188.988 86.7638 188.988C87.2013 188.988 87.6114 188.906 87.9942 188.742C88.377 188.578 88.7052 188.339 88.9786 188.024C89.252 187.71 89.4343 187.334 89.5255 186.896H90.7559C90.6375 187.553 90.3914 188.127 90.0177 188.619C89.644 189.111 89.1768 189.487 88.6163 189.747C88.0557 190.007 87.4382 190.137 86.7638 190.137C85.9161 190.137 85.1619 189.929 84.5011 189.515C83.8403 189.1 83.323 188.507 82.9493 187.737C82.5756 186.967 82.3888 186.072 82.3888 185.051C82.3888 184.021 82.5756 183.123 82.9493 182.357C83.323 181.592 83.8403 181.002 84.5011 180.587C85.1619 180.172 85.9161 179.965 86.7638 179.965C87.4291 179.965 88.0444 180.095 88.6095 180.354C89.1746 180.614 89.644 180.988 90.0177 181.476C90.3914 181.963 90.6375 182.544 90.7559 183.219H89.5255ZM92.4366 180.102H93.6671V184.504H98.9034V180.102H100.148V190H98.9034V185.584H93.6671V190H92.4366V180.102ZM101.432 190L105.055 180.102H106.354L109.977 190H108.678L105.738 181.701H105.656L102.717 190H101.432ZM108.24 186.131V187.211H103.168V186.131H108.24ZM123.688 183.984H120.27V183.109H123.688V183.984ZM118.219 182.221C118.219 183.096 118.071 183.955 117.774 184.798C117.478 185.641 117.073 186.388 116.558 187.04C116.043 187.692 115.466 188.191 114.828 188.537L114.131 187.676C114.723 187.384 115.263 186.951 115.751 186.377C116.239 185.803 116.624 185.149 116.906 184.415C117.189 183.681 117.33 182.95 117.33 182.221V180.006H118.219V182.221ZM118.424 182.221C118.424 182.941 118.565 183.652 118.848 184.354C119.13 185.055 119.513 185.677 119.996 186.22C120.479 186.762 121.012 187.17 121.596 187.443L120.953 188.318C120.306 187.981 119.725 187.5 119.21 186.876C118.695 186.252 118.289 185.534 117.993 184.723C117.697 183.911 117.549 183.077 117.549 182.221V180.006H118.424V182.221ZM124.221 191.135H123.154V178.953H124.221V191.135ZM136.224 191.135H135.144V178.953H136.224V191.135ZM127.98 183.205H131.603V179.992H132.655V188.195H126.913V179.992H127.98V183.205ZM131.603 187.293V184.066H127.98V187.293H131.603ZM144.139 180.744C144.139 181.583 143.902 182.367 143.428 183.096C142.954 183.825 142.341 184.44 141.589 184.941C140.837 185.443 140.046 185.789 139.217 185.98L138.725 185.078C139.445 184.932 140.151 184.647 140.844 184.224C141.536 183.8 142.102 183.28 142.539 182.665C142.977 182.05 143.195 181.41 143.195 180.744V179.814H144.139V180.744ZM144.316 180.744C144.316 181.4 144.54 182.038 144.986 182.658C145.433 183.278 146.005 183.802 146.702 184.23C147.399 184.659 148.104 184.941 148.814 185.078L148.322 185.98C147.502 185.789 146.716 185.445 145.964 184.948C145.212 184.451 144.597 183.836 144.118 183.103C143.64 182.369 143.4 181.583 143.4 180.744V179.814H144.316V180.744ZM149.389 189.453H138.26V188.564H149.389V189.453ZM164.166 191.107H163.113V178.953H164.166V191.107ZM163.428 184.818H161.049V183.902H163.428V184.818ZM161.363 190.479H160.352V179.227H161.363V190.479ZM155.471 187.443H154.404V180.443H155.471V187.443ZM155.156 187.006C155.895 187.006 156.608 186.976 157.296 186.917C157.984 186.858 158.702 186.755 159.449 186.609L159.586 187.566C158.784 187.703 158.025 187.803 157.31 187.867C156.594 187.931 155.876 187.963 155.156 187.963H154.404V187.006H155.156ZM170.358 187.812H169.278V185.023H170.358V187.812ZM169.825 179.746C170.463 179.746 171.028 179.867 171.521 180.108C172.013 180.35 172.398 180.687 172.676 181.12C172.954 181.553 173.093 182.048 173.093 182.604C173.093 183.16 172.954 183.652 172.676 184.08C172.398 184.508 172.013 184.843 171.521 185.085C171.028 185.326 170.463 185.447 169.825 185.447C169.196 185.447 168.631 185.326 168.13 185.085C167.629 184.843 167.239 184.508 166.961 184.08C166.683 183.652 166.544 183.16 166.544 182.604C166.544 182.048 166.683 181.553 166.961 181.12C167.239 180.687 167.629 180.35 168.13 180.108C168.631 179.867 169.196 179.746 169.825 179.746ZM169.825 180.689C169.397 180.689 169.014 180.769 168.677 180.929C168.34 181.088 168.075 181.314 167.884 181.605C167.692 181.897 167.597 182.23 167.597 182.604C167.597 182.977 167.692 183.31 167.884 183.602C168.075 183.893 168.34 184.119 168.677 184.278C169.014 184.438 169.397 184.518 169.825 184.518C170.254 184.518 170.636 184.438 170.974 184.278C171.311 184.119 171.573 183.893 171.76 183.602C171.947 183.31 172.04 182.977 172.04 182.604C172.04 182.23 171.947 181.897 171.76 181.605C171.573 181.314 171.311 181.088 170.974 180.929C170.636 180.769 170.254 180.689 169.825 180.689ZM175.813 191.135H174.747V178.953H175.813V191.135ZM165.915 187.566C166.927 187.566 167.845 187.557 168.67 187.539C169.495 187.521 170.372 187.482 171.302 187.423C172.231 187.364 173.111 187.27 173.94 187.143L174.022 187.936C173.166 188.09 172.277 188.207 171.356 188.284C170.436 188.362 169.572 188.412 168.766 188.435C167.959 188.457 167.059 188.469 166.065 188.469L165.915 187.566ZM185.219 184.586H182.881V183.697H185.219V184.586ZM188.322 191.107H187.283V178.953H188.322V191.107ZM185.875 190.492H184.85V179.213H185.875V190.492ZM180.666 179.979C181.195 179.979 181.655 180.149 182.047 180.491C182.439 180.833 182.744 181.323 182.963 181.961C183.182 182.599 183.291 183.346 183.291 184.203C183.291 185.051 183.182 185.794 182.963 186.432C182.744 187.07 182.439 187.562 182.047 187.908C181.655 188.255 181.195 188.428 180.666 188.428C180.146 188.428 179.688 188.255 179.292 187.908C178.896 187.562 178.59 187.07 178.376 186.432C178.162 185.794 178.055 185.051 178.055 184.203C178.055 183.346 178.162 182.599 178.376 181.961C178.59 181.323 178.896 180.833 179.292 180.491C179.688 180.149 180.146 179.979 180.666 179.979ZM180.666 180.99C180.338 180.99 180.053 181.12 179.812 181.38C179.57 181.64 179.385 182.011 179.258 182.494C179.13 182.977 179.066 183.547 179.066 184.203C179.066 184.85 179.13 185.415 179.258 185.898C179.385 186.382 179.572 186.753 179.818 187.013C180.064 187.272 180.347 187.402 180.666 187.402C180.994 187.402 181.279 187.272 181.521 187.013C181.762 186.753 181.949 186.382 182.081 185.898C182.213 185.415 182.279 184.85 182.279 184.203C182.279 183.547 182.213 182.977 182.081 182.494C181.949 182.011 181.762 181.64 181.521 181.38C181.279 181.12 180.994 180.99 180.666 180.99ZM199.505 183.984H196.087V183.109H199.505V183.984ZM194.036 182.221C194.036 183.096 193.888 183.955 193.592 184.798C193.296 185.641 192.89 186.388 192.375 187.04C191.86 187.692 191.284 188.191 190.646 188.537L189.948 187.676C190.541 187.384 191.081 186.951 191.568 186.377C192.056 185.803 192.441 185.149 192.724 184.415C193.006 183.681 193.147 182.95 193.147 182.221V180.006H194.036V182.221ZM194.241 182.221C194.241 182.941 194.382 183.652 194.665 184.354C194.948 185.055 195.33 185.677 195.813 186.22C196.297 186.762 196.83 187.17 197.413 187.443L196.771 188.318C196.123 187.981 195.542 187.5 195.027 186.876C194.512 186.252 194.107 185.534 193.811 184.723C193.514 183.911 193.366 183.077 193.366 182.221V180.006H194.241V182.221ZM200.038 191.135H198.972V178.953H200.038V191.135ZM211.548 187.607H210.495V185.693H211.548V187.607ZM216.565 185.953H205.491V185.078H216.565V185.953ZM215.198 191.066H214.118V188.223H206.722V187.348H215.198V191.066ZM211.548 180.594H210.495V178.898H211.548V180.594ZM211.384 180.922C211.384 181.569 211.165 182.136 210.728 182.624C210.29 183.112 209.702 183.504 208.964 183.8C208.226 184.096 207.405 184.294 206.503 184.395L206.147 183.574C206.94 183.492 207.663 183.333 208.314 183.096C208.966 182.859 209.483 182.553 209.866 182.18C210.249 181.806 210.44 181.387 210.44 180.922V180.703H211.384V180.922ZM211.616 180.922C211.616 181.387 211.805 181.806 212.184 182.18C212.562 182.553 213.079 182.859 213.735 183.096C214.392 183.333 215.116 183.492 215.909 183.574L215.554 184.395C214.651 184.294 213.831 184.096 213.093 183.8C212.354 183.504 211.767 183.112 211.329 182.624C210.892 182.136 210.673 181.569 210.673 180.922V180.703H211.616V180.922ZM215.444 181.018H206.64V180.156H215.444V181.018ZM221.582 181.209C221.582 181.929 221.436 182.613 221.145 183.26C220.853 183.907 220.45 184.47 219.935 184.948C219.42 185.427 218.829 185.789 218.164 186.035L217.603 185.188C218.196 184.969 218.727 184.657 219.196 184.251C219.666 183.845 220.033 183.376 220.297 182.843C220.561 182.31 220.693 181.765 220.693 181.209V180.197H221.582V181.209ZM221.773 181.195C221.773 181.715 221.899 182.221 222.149 182.713C222.4 183.205 222.753 183.64 223.209 184.019C223.665 184.397 224.184 184.691 224.768 184.9L224.207 185.748C223.551 185.511 222.974 185.165 222.478 184.709C221.981 184.253 221.593 183.72 221.315 183.109C221.037 182.499 220.898 181.861 220.898 181.195V180.197H221.773V181.195ZM226.859 183.041H224.111V182.139H226.859V183.041ZM224.494 180.676H217.945V179.801H224.494V180.676ZM227.625 191.107H226.545V187.771H219.449V186.883H227.625V191.107ZM227.625 186.24H226.545V178.953H227.625V186.24ZM236.675 183.82H230.769V182.945H236.675V183.82ZM234.214 185.898H233.147V183.479H234.214V185.898ZM236.579 180.635H231.849V183.342H230.769V179.746H236.579V180.635ZM239.628 188.059H238.548V178.967H239.628V188.059ZM240.024 190.848H231.739V189.945H240.024V190.848ZM232.806 190.342H231.739V187.43H232.806V190.342ZM229.661 185.625C231.147 185.616 232.548 185.586 233.865 185.536C235.182 185.486 236.406 185.397 237.536 185.27L237.618 186.062C236.424 186.227 235.164 186.34 233.838 186.404C232.512 186.468 231.174 186.5 229.825 186.5L229.661 185.625ZM255.54 191.107H254.501V178.953H255.54V191.107ZM252.491 184.504H249.374V183.602H252.491V184.504ZM253.052 190.479H252.026V179.254H253.052V190.479ZM246.38 187.279C247.382 187.279 248.207 187.254 248.854 187.204C249.502 187.154 250.158 187.056 250.823 186.91L250.933 187.826C250.267 187.963 249.606 188.054 248.95 188.1C248.294 188.145 247.437 188.173 246.38 188.182H245.614V187.279H246.38ZM250.194 181.346H246.653V187.621H245.614V180.457H250.194V181.346ZM267.215 191.135H266.135V178.953H267.215V191.135ZM260.748 179.896C261.35 179.896 261.885 180.072 262.354 180.423C262.824 180.774 263.191 181.268 263.455 181.906C263.719 182.544 263.852 183.287 263.852 184.135C263.852 184.982 263.719 185.725 263.455 186.363C263.191 187.001 262.824 187.493 262.354 187.84C261.885 188.186 261.35 188.359 260.748 188.359C260.146 188.359 259.611 188.186 259.142 187.84C258.672 187.493 258.305 187.001 258.041 186.363C257.777 185.725 257.644 184.982 257.644 184.135C257.644 183.287 257.777 182.544 258.041 181.906C258.305 181.268 258.672 180.774 259.142 180.423C259.611 180.072 260.146 179.896 260.748 179.896ZM260.748 180.854C260.347 180.854 259.989 180.99 259.675 181.264C259.36 181.537 259.116 181.92 258.943 182.412C258.77 182.904 258.684 183.479 258.684 184.135C258.684 184.782 258.77 185.354 258.943 185.851C259.116 186.347 259.36 186.73 259.675 186.999C259.989 187.268 260.347 187.402 260.748 187.402C261.149 187.402 261.507 187.268 261.821 186.999C262.136 186.73 262.379 186.347 262.553 185.851C262.726 185.354 262.812 184.782 262.812 184.135C262.812 183.479 262.726 182.904 262.553 182.412C262.379 181.92 262.138 181.537 261.828 181.264C261.518 180.99 261.158 180.854 260.748 180.854ZM279.327 191.135H278.261V178.953H279.327V191.135ZM278.438 184.436H275.69V183.547H278.438V184.436ZM270.741 187.307C271.963 187.307 272.977 187.282 273.783 187.231C274.59 187.181 275.403 187.083 276.224 186.938L276.347 187.826C275.49 187.963 274.644 188.059 273.81 188.113C272.977 188.168 271.953 188.195 270.741 188.195H269.811V187.307H270.741ZM275.485 180.963H270.892V187.607H269.811V180.074H275.485V180.963ZM274.952 184.367H270.604V183.492H274.952V184.367ZM294.829 191.107H293.749V178.953H294.829V191.107ZM291.233 180.279C291.233 181.482 291.035 182.608 290.639 183.656C290.242 184.704 289.62 185.668 288.772 186.548C287.925 187.427 286.84 188.186 285.518 188.824L284.931 187.949C286.106 187.393 287.082 186.739 287.856 185.987C288.631 185.235 289.21 184.395 289.593 183.465C289.976 182.535 290.167 181.528 290.167 180.443V180.279H291.233ZM290.604 181.154H285.491V180.279H290.604V181.154ZM306.34 187.895H305.273V178.967H306.34V187.895ZM308.172 183.547H305.998V182.645H308.172V183.547ZM306.9 190.848H298.738V189.945H306.9V190.848ZM299.791 190.15H298.738V187.02H299.791V190.15ZM298.41 181.893H301.951V179.842H303.017V185.844H297.357V179.842H298.41V181.893ZM301.951 184.969V182.74H298.41V184.969H301.951ZM314.433 179.746C315.28 179.746 316.041 179.885 316.716 180.163C317.39 180.441 317.919 180.833 318.302 181.339C318.684 181.845 318.876 182.426 318.876 183.082C318.876 183.738 318.684 184.322 318.302 184.832C317.919 185.342 317.39 185.734 316.716 186.008C316.041 186.281 315.28 186.418 314.433 186.418C313.594 186.418 312.837 186.281 312.163 186.008C311.489 185.734 310.958 185.342 310.57 184.832C310.183 184.322 309.989 183.738 309.989 183.082C309.989 182.426 310.183 181.845 310.57 181.339C310.958 180.833 311.489 180.441 312.163 180.163C312.837 179.885 313.594 179.746 314.433 179.746ZM314.433 180.621C313.785 180.612 313.202 180.712 312.683 180.922C312.163 181.132 311.755 181.425 311.459 181.804C311.163 182.182 311.015 182.608 311.015 183.082C311.015 183.565 311.163 183.993 311.459 184.367C311.755 184.741 312.163 185.03 312.683 185.235C313.202 185.44 313.785 185.543 314.433 185.543C315.08 185.543 315.661 185.44 316.176 185.235C316.691 185.03 317.096 184.741 317.392 184.367C317.689 183.993 317.837 183.565 317.837 183.082C317.837 182.608 317.689 182.182 317.392 181.804C317.096 181.425 316.691 181.132 316.176 180.922C315.661 180.712 315.08 180.612 314.433 180.621ZM320.024 189.494H308.895V188.592H320.024V189.494ZM332.082 189.604H320.953V188.701H332.082V189.604ZM327.01 189.098H325.957V186.09H327.01V189.098ZM330.674 183.533H323.414V185.994H322.348V182.658H329.621V180.744H322.32V179.855H330.674V183.533ZM330.961 186.404H322.348V185.516H330.961V186.404ZM241.418 201.172C242.32 201.172 243.093 201.252 243.735 201.411C244.378 201.571 244.868 201.808 245.205 202.122C245.542 202.437 245.711 202.817 245.711 203.264C245.711 203.719 245.542 204.104 245.205 204.419C244.868 204.733 244.378 204.973 243.735 205.137C243.093 205.301 242.32 205.387 241.418 205.396C240.516 205.387 239.743 205.301 239.101 205.137C238.458 204.973 237.966 204.733 237.624 204.419C237.282 204.104 237.111 203.719 237.111 203.264C237.111 202.817 237.282 202.437 237.624 202.122C237.966 201.808 238.458 201.571 239.101 201.411C239.743 201.252 240.516 201.172 241.418 201.172ZM241.418 201.979C240.753 201.979 240.181 202.029 239.702 202.129C239.224 202.229 238.859 202.377 238.608 202.573C238.358 202.769 238.232 202.999 238.232 203.264C238.232 203.546 238.355 203.785 238.602 203.981C238.848 204.177 239.21 204.326 239.688 204.426C240.167 204.526 240.744 204.576 241.418 204.576C242.092 204.576 242.669 204.526 243.147 204.426C243.626 204.326 243.991 204.175 244.241 203.975C244.492 203.774 244.617 203.537 244.617 203.264C244.617 202.999 244.49 202.771 244.234 202.58C243.979 202.389 243.612 202.241 243.134 202.136C242.655 202.031 242.083 201.979 241.418 201.979ZM246.955 207.092H235.881V206.217H246.955V207.092ZM245.533 210.865H238.314V212.342H237.248V210.072H244.48V208.965H237.221V208.145H245.533V210.865ZM245.902 212.971H237.248V212.123H245.902V212.971ZM262.484 208.281H251.396V207.406H262.484V208.281ZM257.467 207.775H256.4V205.807H257.467V207.775ZM261.172 206.203H252.873V205.342H261.172V206.203ZM261.104 202.184H253.953V205.793H252.873V201.309H261.104V202.184ZM260.775 204.139H253.625V203.318H260.775V204.139ZM256.947 209.197C257.84 209.188 258.597 209.259 259.217 209.409C259.837 209.56 260.311 209.781 260.639 210.072C260.967 210.364 261.131 210.719 261.131 211.139C261.131 211.558 260.967 211.911 260.639 212.198C260.311 212.485 259.837 212.704 259.217 212.854C258.597 213.005 257.84 213.08 256.947 213.08C256.054 213.08 255.293 213.005 254.664 212.854C254.035 212.704 253.559 212.485 253.235 212.198C252.912 211.911 252.75 211.558 252.75 211.139C252.75 210.71 252.914 210.353 253.242 210.065C253.57 209.778 254.047 209.56 254.671 209.409C255.295 209.259 256.054 209.188 256.947 209.197ZM256.947 210.004C256.282 210.004 255.717 210.047 255.252 210.134C254.787 210.22 254.434 210.348 254.192 210.517C253.951 210.685 253.83 210.893 253.83 211.139C253.83 211.385 253.949 211.59 254.186 211.754C254.423 211.918 254.776 212.041 255.245 212.123C255.715 212.205 256.282 212.246 256.947 212.246C257.613 212.246 258.175 212.205 258.636 212.123C259.096 212.041 259.447 211.918 259.688 211.754C259.93 211.59 260.051 211.385 260.051 211.139C260.051 210.893 259.93 210.685 259.688 210.517C259.447 210.348 259.094 210.22 258.629 210.134C258.164 210.047 257.604 210.004 256.947 210.004ZM269.538 203.934H263.44V203.059H269.538V203.934ZM266.489 204.754C267 204.754 267.453 204.87 267.85 205.103C268.246 205.335 268.558 205.661 268.786 206.08C269.014 206.499 269.128 206.978 269.128 207.516C269.128 208.053 269.014 208.532 268.786 208.951C268.558 209.37 268.246 209.701 267.85 209.942C267.453 210.184 267 210.305 266.489 210.305C265.988 210.305 265.539 210.184 265.143 209.942C264.746 209.701 264.436 209.368 264.213 208.944C263.99 208.521 263.878 208.044 263.878 207.516C263.878 206.987 263.99 206.511 264.213 206.087C264.436 205.663 264.746 205.335 265.143 205.103C265.539 204.87 265.988 204.754 266.489 204.754ZM266.489 205.656C266.179 205.656 265.897 205.738 265.642 205.902C265.386 206.066 265.188 206.287 265.047 206.565C264.906 206.843 264.835 207.16 264.835 207.516C264.835 207.871 264.908 208.19 265.054 208.473C265.2 208.755 265.398 208.974 265.648 209.129C265.899 209.284 266.179 209.361 266.489 209.361C266.808 209.361 267.095 209.284 267.351 209.129C267.606 208.974 267.806 208.755 267.952 208.473C268.098 208.19 268.171 207.871 268.171 207.516C268.171 207.16 268.098 206.843 267.952 206.565C267.806 206.287 267.606 206.066 267.351 205.902C267.095 205.738 266.808 205.656 266.489 205.656ZM273.817 213.107H272.792V200.953H273.817V213.107ZM273.134 206.969H270.81V206.08H273.134V206.969ZM271.179 212.506H270.167V201.254H271.179V212.506ZM267.036 203.592H265.97V201.322H267.036V203.592ZM90.1344 226.002H86.6891V225.1H90.1344V226.002ZM90.1617 228.6H86.6891V227.711H90.1617V228.6ZM86.9625 229.693H81.3844V224.02H86.9625V229.693ZM82.4508 228.832H85.9098V224.908H82.4508V228.832ZM90.8863 231.84H89.8062V222.967H90.8863V231.84ZM91.1598 234.848H83.025V233.945H91.1598V234.848ZM84.1051 234.342H83.025V231.047H84.1051V234.342ZM102.165 226.809H99.4029V225.906H102.165V226.809ZM102.93 229.557H101.864V222.953H102.93V229.557ZM96.19 231.662H101.864V230.145H102.93V234.943H95.1099V230.145H96.19V231.662ZM101.864 234.068V232.523H96.19V234.068H101.864ZM96.901 224.936C96.901 225.656 96.7551 226.337 96.4635 226.979C96.1718 227.622 95.7685 228.185 95.2535 228.668C94.7385 229.151 94.1484 229.516 93.483 229.762L92.9224 228.914C93.5149 228.695 94.0458 228.383 94.5152 227.978C94.9846 227.572 95.3515 227.105 95.6158 226.576C95.8801 226.048 96.0123 225.501 96.0123 224.936V223.91H96.901V224.936ZM97.0924 224.936C97.0924 225.446 97.22 225.947 97.4752 226.439C97.7304 226.932 98.0836 227.371 98.5348 227.759C98.9859 228.146 99.5032 228.44 100.087 228.641L99.526 229.475C98.8697 229.229 98.2932 228.878 97.7965 228.422C97.2997 227.966 96.9124 227.438 96.6344 226.836C96.3564 226.234 96.2174 225.601 96.2174 224.936V223.91H97.0924V224.936ZM99.8131 224.58H93.2642V223.691H99.8131V224.58ZM118.419 229.27H117.366V222.953H118.419V229.27ZM118.432 232.756H111.61V234.506H110.557V231.949H117.366V230.705H110.53V229.857H118.432V232.756ZM118.87 234.971H110.557V234.109H118.87V234.971ZM112.567 224.676C112.567 225.378 112.421 226.036 112.129 226.651C111.838 227.267 111.428 227.802 110.899 228.258C110.37 228.714 109.764 229.055 109.081 229.283L108.575 228.436C109.185 228.235 109.725 227.943 110.195 227.561C110.664 227.178 111.031 226.738 111.295 226.241C111.56 225.744 111.692 225.223 111.692 224.676V224.02H112.567V224.676ZM112.772 224.676C112.772 225.195 112.904 225.69 113.169 226.159C113.433 226.629 113.802 227.039 114.276 227.39C114.75 227.741 115.292 228.007 115.903 228.189L115.37 229.023C114.695 228.805 114.096 228.483 113.572 228.06C113.048 227.636 112.64 227.132 112.348 226.549C112.057 225.965 111.911 225.341 111.911 224.676V224.02H112.772V224.676ZM115.575 224.539H108.848V223.65H115.575V224.539ZM131.57 230.062H120.441V229.174H131.57V230.062ZM126.621 232.551H125.554V229.721H126.621V232.551ZM130.121 227.779H121.89V223.555H130.121V227.779ZM122.943 226.918H129.054V224.402H122.943V226.918ZM130.326 234.848H121.863V233.945H130.326V234.848ZM122.943 234.26H121.863V231.348H122.943V234.26ZM145.048 224.635H137.378V223.746H145.048V224.635ZM147.058 229.857H135.984V228.969H147.058V229.857ZM142.041 235.135H140.96V229.557H142.041V235.135ZM145.595 224.812C145.595 225.387 145.588 225.883 145.575 226.303C145.561 226.722 145.52 227.205 145.452 227.752C145.383 228.299 145.276 228.891 145.13 229.529L144.064 229.393C144.21 228.782 144.317 228.21 144.385 227.677C144.454 227.144 144.495 226.672 144.508 226.262C144.522 225.852 144.529 225.368 144.529 224.812V223.746H145.595V224.812ZM152.034 224.908C152.034 225.683 151.892 226.403 151.61 227.068C151.327 227.734 150.929 228.312 150.414 228.805C149.899 229.297 149.299 229.675 148.616 229.939L148.028 229.064C148.648 228.846 149.195 228.529 149.668 228.114C150.142 227.7 150.509 227.216 150.769 226.665C151.029 226.114 151.159 225.528 151.159 224.908V223.65H152.034V224.908ZM152.225 224.867C152.225 225.432 152.35 225.975 152.601 226.494C152.852 227.014 153.205 227.467 153.661 227.854C154.116 228.242 154.641 228.536 155.233 228.736L154.631 229.57C153.975 229.324 153.401 228.971 152.909 228.511C152.417 228.05 152.031 227.508 151.753 226.884C151.475 226.259 151.336 225.587 151.336 224.867V223.65H152.225V224.867ZM158.118 230.158H157.038V222.953H158.118V230.158ZM154.085 230.514C154.932 230.514 155.661 230.603 156.272 230.78C156.883 230.958 157.35 231.22 157.673 231.566C157.997 231.913 158.159 232.327 158.159 232.811C158.159 233.285 157.997 233.692 157.673 234.034C157.35 234.376 156.883 234.636 156.272 234.813C155.661 234.991 154.932 235.08 154.085 235.08C153.246 235.08 152.521 234.991 151.911 234.813C151.3 234.636 150.831 234.376 150.502 234.034C150.174 233.692 150.01 233.285 150.01 232.811C150.01 232.327 150.174 231.913 150.502 231.566C150.831 231.22 151.3 230.958 151.911 230.78C152.521 230.603 153.246 230.514 154.085 230.514ZM154.085 231.361C153.474 231.361 152.941 231.418 152.485 231.532C152.029 231.646 151.681 231.812 151.439 232.031C151.197 232.25 151.077 232.51 151.077 232.811C151.077 233.093 151.197 233.341 151.439 233.556C151.681 233.77 152.029 233.934 152.485 234.048C152.941 234.162 153.474 234.219 154.085 234.219C154.704 234.219 155.24 234.162 155.691 234.048C156.142 233.934 156.488 233.77 156.73 233.556C156.972 233.341 157.092 233.093 157.092 232.811C157.092 232.51 156.972 232.25 156.73 232.031C156.488 231.812 156.142 231.646 155.691 231.532C155.24 231.418 154.704 231.361 154.085 231.361ZM157.27 226.453H154.331V225.564H157.27V226.453ZM167.414 228.586H165.076V227.697H167.414V228.586ZM170.517 235.107H169.478V222.953H170.517V235.107ZM168.07 234.492H167.044V223.213H168.07V234.492ZM162.861 223.979C163.39 223.979 163.85 224.149 164.242 224.491C164.634 224.833 164.939 225.323 165.158 225.961C165.376 226.599 165.486 227.346 165.486 228.203C165.486 229.051 165.376 229.794 165.158 230.432C164.939 231.07 164.634 231.562 164.242 231.908C163.85 232.255 163.39 232.428 162.861 232.428C162.341 232.428 161.883 232.255 161.487 231.908C161.09 231.562 160.785 231.07 160.571 230.432C160.357 229.794 160.25 229.051 160.25 228.203C160.25 227.346 160.357 226.599 160.571 225.961C160.785 225.323 161.09 224.833 161.487 224.491C161.883 224.149 162.341 223.979 162.861 223.979ZM162.861 224.99C162.533 224.99 162.248 225.12 162.006 225.38C161.765 225.64 161.58 226.011 161.453 226.494C161.325 226.977 161.261 227.547 161.261 228.203C161.261 228.85 161.325 229.415 161.453 229.898C161.58 230.382 161.767 230.753 162.013 231.013C162.259 231.272 162.542 231.402 162.861 231.402C163.189 231.402 163.474 231.272 163.715 231.013C163.957 230.753 164.144 230.382 164.276 229.898C164.408 229.415 164.474 228.85 164.474 228.203C164.474 227.547 164.408 226.977 164.276 226.494C164.144 226.011 163.957 225.64 163.715 225.38C163.474 225.12 163.189 224.99 162.861 224.99ZM185.445 229.529H177.05V228.654H185.445V229.529ZM186.757 233.576H175.628V232.674H186.757V233.576ZM181.685 233.043H180.632V229.037H181.685V233.043ZM185.322 224.826H178.13V229.064H177.05V223.951H185.322V224.826ZM193.743 231.266H192.69V229.146H193.743V231.266ZM193.223 223.186C194.098 223.186 194.859 223.277 195.506 223.459C196.153 223.641 196.65 223.903 196.997 224.245C197.343 224.587 197.516 224.999 197.516 225.482C197.516 225.947 197.343 226.351 196.997 226.692C196.65 227.034 196.153 227.294 195.506 227.472C194.859 227.649 194.098 227.738 193.223 227.738C192.348 227.738 191.587 227.649 190.94 227.472C190.293 227.294 189.794 227.034 189.443 226.692C189.092 226.351 188.917 225.947 188.917 225.482C188.917 224.999 189.092 224.587 189.443 224.245C189.794 223.903 190.293 223.641 190.94 223.459C191.587 223.277 192.348 223.186 193.223 223.186ZM193.223 224.033C192.567 224.033 192 224.09 191.521 224.204C191.042 224.318 190.673 224.484 190.414 224.703C190.154 224.922 190.024 225.182 190.024 225.482C190.024 225.774 190.154 226.025 190.414 226.234C190.673 226.444 191.042 226.606 191.521 226.72C192 226.834 192.567 226.891 193.223 226.891C193.87 226.891 194.435 226.834 194.918 226.72C195.402 226.606 195.773 226.444 196.033 226.234C196.292 226.025 196.422 225.774 196.422 225.482C196.422 225.182 196.292 224.922 196.033 224.703C195.773 224.484 195.402 224.318 194.918 224.204C194.435 224.09 193.87 224.033 193.223 224.033ZM197.407 234.943H189.04V230.951H197.407V234.943ZM190.106 234.068H196.354V231.812H190.106V234.068ZM198.76 229.557H187.686V228.668H198.76V229.557ZM205.281 223.172C206.183 223.172 206.956 223.252 207.598 223.411C208.241 223.571 208.731 223.808 209.068 224.122C209.405 224.437 209.574 224.817 209.574 225.264C209.574 225.719 209.405 226.104 209.068 226.419C208.731 226.733 208.241 226.973 207.598 227.137C206.956 227.301 206.183 227.387 205.281 227.396C204.378 227.387 203.606 227.301 202.963 227.137C202.321 226.973 201.829 226.733 201.487 226.419C201.145 226.104 200.974 225.719 200.974 225.264C200.974 224.817 201.145 224.437 201.487 224.122C201.829 223.808 202.321 223.571 202.963 223.411C203.606 223.252 204.378 223.172 205.281 223.172ZM205.281 223.979C204.615 223.979 204.043 224.029 203.565 224.129C203.086 224.229 202.722 224.377 202.471 224.573C202.221 224.769 202.095 224.999 202.095 225.264C202.095 225.546 202.218 225.785 202.464 225.981C202.71 226.177 203.073 226.326 203.551 226.426C204.03 226.526 204.606 226.576 205.281 226.576C205.955 226.576 206.532 226.526 207.01 226.426C207.489 226.326 207.853 226.175 208.104 225.975C208.355 225.774 208.48 225.537 208.48 225.264C208.48 224.999 208.352 224.771 208.097 224.58C207.842 224.389 207.475 224.241 206.997 224.136C206.518 224.031 205.946 223.979 205.281 223.979ZM210.818 229.092H199.744V228.217H210.818V229.092ZM209.396 232.865H202.177V234.342H201.111V232.072H208.343V230.965H201.083V230.145H209.396V232.865ZM209.765 234.971H201.111V234.123H209.765V234.971ZM224.775 230.062H223.708V222.953H224.775V230.062ZM226.607 226.795H224.474V225.893H226.607V226.795ZM216.845 225.51H220.386V223.65H221.453V229.297H215.792V223.65H216.845V225.51ZM220.386 228.436V226.371H216.845V228.436H220.386ZM224.871 231.607H218.212V234.684H217.146V230.746H224.871V231.607ZM225.103 234.943H217.146V234.068H225.103V234.943ZM232.868 223.172C233.77 223.172 234.542 223.252 235.185 223.411C235.828 223.571 236.318 223.808 236.655 224.122C236.992 224.437 237.161 224.817 237.161 225.264C237.161 225.719 236.992 226.104 236.655 226.419C236.318 226.733 235.828 226.973 235.185 227.137C234.542 227.301 233.77 227.387 232.868 227.396C231.965 227.387 231.193 227.301 230.55 227.137C229.908 226.973 229.415 226.733 229.074 226.419C228.732 226.104 228.561 225.719 228.561 225.264C228.561 224.817 228.732 224.437 229.074 224.122C229.415 223.808 229.908 223.571 230.55 223.411C231.193 223.252 231.965 223.172 232.868 223.172ZM232.868 223.979C232.202 223.979 231.63 224.029 231.152 224.129C230.673 224.229 230.309 224.377 230.058 224.573C229.807 224.769 229.682 224.999 229.682 225.264C229.682 225.546 229.805 225.785 230.051 225.981C230.297 226.177 230.66 226.326 231.138 226.426C231.617 226.526 232.193 226.576 232.868 226.576C233.542 226.576 234.119 226.526 234.597 226.426C235.076 226.326 235.44 226.175 235.691 225.975C235.942 225.774 236.067 225.537 236.067 225.264C236.067 224.999 235.939 224.771 235.684 224.58C235.429 224.389 235.062 224.241 234.583 224.136C234.105 224.031 233.533 223.979 232.868 223.979ZM238.405 229.092H227.331V228.217H238.405V229.092ZM236.983 232.865H229.764V234.342H228.698V232.072H235.93V230.965H228.67V230.145H236.983V232.865ZM237.352 234.971H228.698V234.123H237.352V234.971ZM248.793 224.088C248.793 224.826 248.563 225.503 248.103 226.118C247.643 226.733 247.034 227.242 246.278 227.643C245.521 228.044 244.719 228.317 243.872 228.463L243.434 227.588C244.172 227.488 244.881 227.267 245.56 226.925C246.239 226.583 246.79 226.164 247.214 225.667C247.638 225.17 247.85 224.644 247.85 224.088V223.391H248.793V224.088ZM248.957 224.088C248.957 224.635 249.172 225.159 249.6 225.66C250.028 226.161 250.584 226.583 251.268 226.925C251.952 227.267 252.658 227.488 253.387 227.588L252.95 228.463C252.102 228.317 251.302 228.041 250.55 227.636C249.798 227.23 249.19 226.72 248.725 226.104C248.26 225.489 248.028 224.817 248.028 224.088V223.391H248.957V224.088ZM248.903 235.107H247.85V230.473H248.903V235.107ZM253.934 230.705H242.86V229.803H253.934V230.705ZM262.313 231.115C262.313 231.644 262.201 232.161 261.978 232.667C261.755 233.173 261.436 233.624 261.021 234.021C260.606 234.417 260.112 234.725 259.538 234.943L258.991 234.15C259.492 233.959 259.927 233.701 260.296 233.378C260.665 233.054 260.953 232.694 261.158 232.298C261.363 231.901 261.465 231.507 261.465 231.115V230.445H262.313V231.115ZM262.504 231.115C262.504 231.525 262.589 231.933 262.757 232.339C262.926 232.744 263.177 233.111 263.509 233.439C263.842 233.768 264.245 234.027 264.719 234.219L264.268 235.039C263.703 234.82 263.229 234.506 262.846 234.096C262.463 233.686 262.178 233.223 261.992 232.708C261.805 232.193 261.711 231.662 261.711 231.115V230.445H262.504V231.115ZM266.811 231.115C266.811 231.607 266.715 232.111 266.524 232.626C266.332 233.141 266.045 233.613 265.663 234.041C265.28 234.469 264.815 234.802 264.268 235.039L263.803 234.219C264.268 234.009 264.667 233.729 264.999 233.378C265.332 233.027 265.583 232.651 265.751 232.25C265.92 231.849 266.004 231.471 266.004 231.115V230.445H266.811V231.115ZM267.057 231.115C267.057 231.535 267.157 231.942 267.358 232.339C267.558 232.735 267.845 233.093 268.219 233.412C268.593 233.731 269.03 233.977 269.532 234.15L268.998 234.943C268.415 234.734 267.914 234.435 267.495 234.048C267.075 233.66 266.756 233.214 266.538 232.708C266.319 232.202 266.209 231.671 266.209 231.115V230.445H267.057V231.115ZM268.424 229.912H267.358V222.967H268.424V229.912ZM261.862 223.678C262.472 223.678 263.019 223.796 263.502 224.033C263.985 224.27 264.364 224.605 264.637 225.038C264.911 225.471 265.047 225.965 265.047 226.521C265.047 227.068 264.911 227.556 264.637 227.984C264.364 228.413 263.985 228.745 263.502 228.982C263.019 229.219 262.472 229.338 261.862 229.338C261.251 229.338 260.704 229.219 260.221 228.982C259.738 228.745 259.36 228.413 259.086 227.984C258.813 227.556 258.676 227.068 258.676 226.521C258.676 225.965 258.813 225.471 259.086 225.038C259.36 224.605 259.738 224.27 260.221 224.033C260.704 223.796 261.251 223.678 261.862 223.678ZM261.862 224.594C261.452 224.585 261.085 224.662 260.761 224.826C260.438 224.99 260.185 225.22 260.002 225.517C259.82 225.813 259.729 226.148 259.729 226.521C259.729 226.886 259.82 227.214 260.002 227.506C260.185 227.798 260.438 228.025 260.761 228.189C261.085 228.354 261.452 228.44 261.862 228.449C262.272 228.44 262.639 228.354 262.962 228.189C263.286 228.025 263.539 227.798 263.721 227.506C263.903 227.214 263.995 226.886 263.995 226.521C263.995 226.148 263.903 225.813 263.721 225.517C263.539 225.22 263.286 224.99 262.962 224.826C262.639 224.662 262.272 224.585 261.862 224.594ZM272.921 231.676H278.992V230.254H280.072V234.943H271.855V230.254H272.921V231.676ZM278.992 234.082V232.523H272.921V234.082H278.992ZM281.521 229.393H270.447V228.504H281.521V229.393ZM276.367 223.664C276.367 224.329 276.136 224.942 275.676 225.503C275.216 226.063 274.612 226.528 273.865 226.897C273.117 227.267 272.324 227.515 271.486 227.643L271.076 226.781C271.805 226.681 272.507 226.48 273.181 226.18C273.856 225.879 274.4 225.507 274.815 225.065C275.23 224.623 275.437 224.156 275.437 223.664V223.09H276.367V223.664ZM276.544 223.664C276.544 224.147 276.754 224.61 277.173 225.052C277.593 225.494 278.139 225.87 278.814 226.18C279.488 226.49 280.181 226.69 280.892 226.781L280.496 227.643C279.657 227.515 278.864 227.264 278.117 226.891C277.369 226.517 276.765 226.05 276.305 225.489C275.845 224.929 275.615 224.32 275.615 223.664V223.09H276.544V223.664ZM292.526 235.107H291.459V222.953H292.526V235.107ZM284.35 231.676H283.297V224.156H284.35V231.676ZM284.282 231.047C285.275 231.047 286.257 231.001 287.228 230.91C288.199 230.819 289.176 230.669 290.161 230.459L290.311 231.375C289.281 231.585 288.276 231.737 287.296 231.833C286.316 231.929 285.312 231.977 284.282 231.977H283.297V231.047H284.282ZM303.968 235.135H302.902V222.953H303.968V235.135ZM306.005 228.668H303.722V227.766H306.005V228.668ZM296.052 231.184C297.228 231.184 298.247 231.152 299.108 231.088C299.969 231.024 300.842 230.91 301.726 230.746L301.863 231.676C300.97 231.84 300.09 231.949 299.224 232.004C298.358 232.059 297.301 232.086 296.052 232.086H295.095V231.184H296.052ZM300.769 225.031H296.162V231.594H295.095V224.143H300.769V225.031ZM307.905 234.082C307.75 234.082 307.604 234.041 307.467 233.959C307.33 233.877 307.223 233.768 307.146 233.631C307.068 233.494 307.03 233.348 307.03 233.193C307.03 233.038 307.068 232.893 307.146 232.756C307.223 232.619 307.33 232.512 307.467 232.435C307.604 232.357 307.75 232.318 307.905 232.318C308.06 232.318 308.205 232.357 308.342 232.435C308.479 232.512 308.586 232.619 308.663 232.756C308.741 232.893 308.78 233.038 308.78 233.193C308.78 233.348 308.741 233.494 308.663 233.631C308.586 233.768 308.479 233.877 308.342 233.959C308.205 234.041 308.06 234.082 307.905 234.082ZM49.9762 275.211C51.1884 275.211 52.1979 275.184 53.0045 275.129C53.8111 275.074 54.6246 274.969 55.4449 274.814L55.5816 275.703C54.7249 275.867 53.8841 275.979 53.0592 276.038C52.2343 276.097 51.2066 276.127 49.9762 276.127H49.0465V275.211H49.9762ZM54.6246 269.018H50.1266V275.539H49.0465V268.115H54.6246V269.018ZM58.5211 279.135H57.441V266.953H58.5211V279.135ZM57.8922 272.271H53.9V271.383H57.8922V272.271ZM66.5455 274.664H65.4791V272.777H66.5455V274.664ZM63.0318 268.32H69.0475V267.158H70.1139V271.15H61.9654V267.158H63.0318V268.32ZM69.0475 270.316V269.141H63.0318V270.316H69.0475ZM71.5631 273.051H60.4889V272.162H71.5631V273.051ZM70.1412 276.934H62.9225V278.451H61.8561V276.141H69.0885V275.061H61.8287V274.24H70.1412V276.934ZM70.5104 278.971H61.8561V278.123H70.5104V278.971ZM75.8141 267.896C76.4065 267.896 76.9306 268.072 77.3863 268.423C77.8421 268.774 78.1998 269.268 78.4596 269.906C78.7193 270.544 78.8492 271.287 78.8492 272.135C78.8492 272.982 78.7193 273.725 78.4596 274.363C78.1998 275.001 77.8421 275.493 77.3863 275.84C76.9306 276.186 76.4065 276.359 75.8141 276.359C75.2216 276.359 74.6952 276.186 74.235 275.84C73.7747 275.493 73.4146 275.001 73.1549 274.363C72.8951 273.725 72.7652 272.982 72.7652 272.135C72.7652 271.287 72.8951 270.544 73.1549 269.906C73.4146 269.268 73.7747 268.774 74.235 268.423C74.6952 268.072 75.2216 267.896 75.8141 267.896ZM75.8141 268.854C75.4221 268.854 75.0712 268.99 74.7613 269.264C74.4514 269.537 74.2122 269.92 74.0435 270.412C73.8749 270.904 73.7906 271.479 73.7906 272.135C73.7906 272.782 73.8749 273.354 74.0435 273.851C74.2122 274.347 74.4514 274.73 74.7613 274.999C75.0712 275.268 75.4221 275.402 75.8141 275.402C76.206 275.402 76.5569 275.268 76.8668 274.999C77.1767 274.73 77.4159 274.347 77.5846 273.851C77.7532 273.354 77.8375 272.782 77.8375 272.135C77.8375 271.479 77.7532 270.904 77.5846 270.412C77.4159 269.92 77.179 269.537 76.8736 269.264C76.5683 268.99 76.2151 268.854 75.8141 268.854ZM82.6227 279.135H81.5562V266.953H82.6227V279.135ZM82.0348 272.49H78.4937V271.602H82.0348V272.49ZM95.4312 271.191C95.2945 270.763 95.094 270.394 94.8297 270.084C94.5653 269.774 94.2486 269.535 93.8795 269.366C93.5103 269.198 93.0933 269.113 92.6285 269.113C92.036 269.113 91.5028 269.266 91.0289 269.571C90.5549 269.877 90.1789 270.326 89.901 270.918C89.623 271.51 89.484 272.221 89.484 273.051C89.484 273.88 89.623 274.591 89.901 275.184C90.1789 275.776 90.5618 276.225 91.0494 276.53C91.537 276.836 92.0907 276.988 92.7105 276.988C93.2756 276.988 93.7724 276.868 94.2008 276.626C94.6291 276.384 94.9618 276.04 95.1988 275.594C95.4358 275.147 95.5543 274.632 95.5543 274.049L95.9234 274.117H92.9703V273.037H96.7574V274.104C96.7574 274.906 96.5842 275.612 96.2379 276.223C95.8915 276.833 95.413 277.305 94.8023 277.638C94.1916 277.97 93.4944 278.137 92.7105 278.137C91.8355 278.137 91.0653 277.929 90.4 277.515C89.7346 277.1 89.2174 276.51 88.8482 275.744C88.4791 274.979 88.2945 274.081 88.2945 273.051C88.2945 272.021 88.4791 271.123 88.8482 270.357C89.2174 269.592 89.7301 269.002 90.3863 268.587C91.0426 268.172 91.79 267.965 92.6285 267.965C93.3212 267.965 93.9547 268.099 94.5289 268.368C95.1031 268.637 95.5793 269.015 95.9576 269.503C96.3359 269.991 96.5842 270.553 96.7027 271.191H95.4312ZM106.928 273.051C106.928 274.072 106.741 274.967 106.368 275.737C105.994 276.507 105.477 277.1 104.816 277.515C104.155 277.929 103.401 278.137 102.553 278.137C101.706 278.137 100.951 277.929 100.291 277.515C99.6298 277.1 99.1125 276.507 98.7388 275.737C98.3651 274.967 98.1783 274.072 98.1783 273.051C98.1783 272.021 98.3651 271.123 98.7388 270.357C99.1125 269.592 99.6298 269.002 100.291 268.587C100.951 268.172 101.706 267.965 102.553 267.965C103.401 267.965 104.155 268.172 104.816 268.587C105.477 269.002 105.994 269.592 106.368 270.357C106.741 271.123 106.928 272.021 106.928 273.051ZM105.739 273.051C105.739 272.221 105.6 271.51 105.322 270.918C105.044 270.326 104.666 269.877 104.187 269.571C103.709 269.266 103.164 269.113 102.553 269.113C101.952 269.113 101.409 269.266 100.926 269.571C100.443 269.877 100.063 270.326 99.7847 270.918C99.5067 271.51 99.3677 272.221 99.3677 273.051C99.3677 273.88 99.5067 274.591 99.7847 275.184C100.063 275.776 100.443 276.225 100.926 276.53C101.409 276.836 101.952 276.988 102.553 276.988C103.164 276.988 103.709 276.836 104.187 276.53C104.666 276.225 105.044 275.776 105.322 275.184C105.6 274.591 105.739 273.88 105.739 273.051ZM107.734 268.102H115.199V269.195H112.095V278H110.851V269.195H107.734V268.102ZM123.141 271.219C123.05 270.772 122.87 270.392 122.601 270.077C122.332 269.763 122.004 269.523 121.617 269.359C121.229 269.195 120.817 269.113 120.379 269.113C119.778 269.113 119.236 269.266 118.752 269.571C118.269 269.877 117.889 270.326 117.611 270.918C117.333 271.51 117.194 272.221 117.194 273.051C117.194 273.88 117.333 274.591 117.611 275.184C117.889 275.776 118.269 276.225 118.752 276.53C119.236 276.836 119.778 276.988 120.379 276.988C120.817 276.988 121.227 276.906 121.61 276.742C121.993 276.578 122.321 276.339 122.594 276.024C122.868 275.71 123.05 275.334 123.141 274.896H124.372C124.253 275.553 124.007 276.127 123.633 276.619C123.26 277.111 122.793 277.487 122.232 277.747C121.671 278.007 121.054 278.137 120.379 278.137C119.532 278.137 118.778 277.929 118.117 277.515C117.456 277.1 116.939 276.507 116.565 275.737C116.191 274.967 116.004 274.072 116.004 273.051C116.004 272.021 116.191 271.123 116.565 270.357C116.939 269.592 117.456 269.002 118.117 268.587C118.778 268.172 119.532 267.965 120.379 267.965C121.045 267.965 121.66 268.095 122.225 268.354C122.79 268.614 123.26 268.988 123.633 269.476C124.007 269.963 124.253 270.544 124.372 271.219H123.141ZM126.052 268.102H127.283V272.504H132.519V268.102H133.763V278H132.519V273.584H127.283V278H126.052V268.102ZM135.047 278L138.67 268.102H139.969L143.592 278H142.293L139.354 269.701H139.272L136.333 278H135.047ZM141.856 274.131V275.211H136.784V274.131H141.856ZM151.725 279.107H150.659V273.926H151.725V279.107ZM155.909 279.107H154.842V273.926H155.909V279.107ZM148.963 271.52L148.827 270.576L156.661 270.303V271.123L148.963 271.52ZM156.825 268.58H149.168V267.705H156.825V268.58ZM158.834 274.322H147.76V273.434H158.834V274.322ZM157.413 268.799C157.413 269.41 157.406 269.936 157.392 270.378C157.378 270.82 157.335 271.326 157.262 271.896C157.189 272.465 157.075 273.083 156.92 273.748L155.868 273.625C156.032 272.996 156.153 272.404 156.23 271.848C156.307 271.292 156.355 270.802 156.374 270.378C156.392 269.954 156.401 269.428 156.401 268.799V267.705H157.413V268.799ZM161.035 275.211C161.91 275.211 162.696 275.188 163.393 275.143C164.09 275.097 164.831 275.006 165.615 274.869L165.697 275.758C164.913 275.895 164.179 275.986 163.496 276.031C162.812 276.077 161.992 276.104 161.035 276.113H160.228V275.211H161.035ZM164.562 272.504H161.267V275.594H160.228V271.615H163.537V269.195H160.201V268.307H164.562V272.504ZM170.209 279.107H169.183V266.953H170.209V279.107ZM167.173 272.217H165.15V271.342H167.173V272.217ZM167.72 278.465H166.709V267.254H167.72V278.465ZM181.897 279.135H180.817V266.953H181.897V279.135ZM175.43 267.896C176.032 267.896 176.567 268.072 177.037 268.423C177.506 268.774 177.873 269.268 178.137 269.906C178.402 270.544 178.534 271.287 178.534 272.135C178.534 272.982 178.402 273.725 178.137 274.363C177.873 275.001 177.506 275.493 177.037 275.84C176.567 276.186 176.032 276.359 175.43 276.359C174.829 276.359 174.293 276.186 173.824 275.84C173.354 275.493 172.987 275.001 172.723 274.363C172.459 273.725 172.327 272.982 172.327 272.135C172.327 271.287 172.459 270.544 172.723 269.906C172.987 269.268 173.354 268.774 173.824 268.423C174.293 268.072 174.829 267.896 175.43 267.896ZM175.43 268.854C175.029 268.854 174.671 268.99 174.357 269.264C174.042 269.537 173.799 269.92 173.625 270.412C173.452 270.904 173.366 271.479 173.366 272.135C173.366 272.782 173.452 273.354 173.625 273.851C173.799 274.347 174.042 274.73 174.357 274.999C174.671 275.268 175.029 275.402 175.43 275.402C175.831 275.402 176.189 275.268 176.503 274.999C176.818 274.73 177.062 274.347 177.235 273.851C177.408 273.354 177.495 272.782 177.495 272.135C177.495 271.479 177.408 270.904 177.235 270.412C177.062 269.92 176.82 269.537 176.51 269.264C176.2 268.99 175.84 268.854 175.43 268.854ZM193.216 269.66H190.427V268.771H193.216V269.66ZM193.216 272.148H190.427V271.273H193.216V272.148ZM187.898 269.209C187.898 269.984 187.759 270.717 187.481 271.41C187.203 272.103 186.811 272.709 186.305 273.229C185.799 273.748 185.214 274.145 184.548 274.418L183.96 273.557C184.562 273.32 185.095 272.98 185.56 272.538C186.025 272.096 186.387 271.586 186.647 271.007C186.907 270.428 187.037 269.829 187.037 269.209V267.65H187.898V269.209ZM188.089 269.209C188.089 269.792 188.215 270.36 188.465 270.911C188.716 271.463 189.067 271.95 189.518 272.374C189.969 272.798 190.486 273.128 191.07 273.365L190.468 274.199C189.83 273.935 189.267 273.552 188.78 273.051C188.292 272.549 187.912 271.968 187.638 271.308C187.365 270.647 187.228 269.947 187.228 269.209V267.65H188.089V269.209ZM194.009 276.045H192.929V266.967H194.009V276.045ZM194.283 278.848H186.148V277.945H194.283V278.848ZM187.228 278.41H186.148V275.102H187.228V278.41ZM203.305 272.586H200.967V271.697H203.305V272.586ZM206.409 279.107H205.37V266.953H206.409V279.107ZM203.961 278.492H202.936V267.213H203.961V278.492ZM198.752 267.979C199.281 267.979 199.741 268.149 200.133 268.491C200.525 268.833 200.831 269.323 201.049 269.961C201.268 270.599 201.377 271.346 201.377 272.203C201.377 273.051 201.268 273.794 201.049 274.432C200.831 275.07 200.525 275.562 200.133 275.908C199.741 276.255 199.281 276.428 198.752 276.428C198.233 276.428 197.775 276.255 197.378 275.908C196.982 275.562 196.677 275.07 196.462 274.432C196.248 273.794 196.141 273.051 196.141 272.203C196.141 271.346 196.248 270.599 196.462 269.961C196.677 269.323 196.982 268.833 197.378 268.491C197.775 268.149 198.233 267.979 198.752 267.979ZM198.752 268.99C198.424 268.99 198.139 269.12 197.898 269.38C197.656 269.64 197.472 270.011 197.344 270.494C197.217 270.977 197.153 271.547 197.153 272.203C197.153 272.85 197.217 273.415 197.344 273.898C197.472 274.382 197.659 274.753 197.905 275.013C198.151 275.272 198.433 275.402 198.752 275.402C199.081 275.402 199.365 275.272 199.607 275.013C199.848 274.753 200.035 274.382 200.167 273.898C200.3 273.415 200.366 272.85 200.366 272.203C200.366 271.547 200.3 270.977 200.167 270.494C200.035 270.011 199.848 269.64 199.607 269.38C199.365 269.12 199.081 268.99 198.752 268.99ZM217.591 271.984H214.173V271.109H217.591V271.984ZM212.123 270.221C212.123 271.096 211.974 271.955 211.678 272.798C211.382 273.641 210.976 274.388 210.461 275.04C209.946 275.692 209.37 276.191 208.732 276.537L208.035 275.676C208.627 275.384 209.167 274.951 209.655 274.377C210.142 273.803 210.527 273.149 210.81 272.415C211.093 271.681 211.234 270.95 211.234 270.221V268.006H212.123V270.221ZM212.328 270.221C212.328 270.941 212.469 271.652 212.751 272.354C213.034 273.055 213.417 273.677 213.9 274.22C214.383 274.762 214.916 275.17 215.499 275.443L214.857 276.318C214.21 275.981 213.629 275.5 213.114 274.876C212.599 274.252 212.193 273.534 211.897 272.723C211.601 271.911 211.453 271.077 211.453 270.221V268.006H212.328V270.221ZM218.124 279.135H217.058V266.953H218.124V279.135ZM233.968 279.107H232.943V266.953H233.968V279.107ZM230.824 272.217H228.445V271.342H230.824V272.217ZM231.507 278.479H230.496V267.254H231.507V278.479ZM226.955 270.426C226.955 271.301 226.838 272.146 226.606 272.962C226.374 273.778 226.045 274.509 225.622 275.156C225.198 275.803 224.694 276.309 224.111 276.674L223.427 275.867C223.983 275.539 224.464 275.09 224.87 274.521C225.275 273.951 225.583 273.311 225.792 272.6C226.002 271.889 226.107 271.164 226.107 270.426V268.84H226.955V270.426ZM227.146 270.426C227.146 271.128 227.249 271.816 227.454 272.49C227.659 273.165 227.959 273.771 228.356 274.309C228.752 274.846 229.224 275.275 229.771 275.594L229.115 276.387C228.531 276.031 228.032 275.548 227.618 274.938C227.203 274.327 226.886 273.632 226.667 272.853C226.449 272.073 226.339 271.264 226.339 270.426V268.84H227.146V270.426ZM229.374 269.277H223.769V268.389H229.374V269.277ZM241.131 274.637C242.006 274.637 242.763 274.723 243.401 274.896C244.039 275.07 244.531 275.325 244.877 275.662C245.224 275.999 245.397 276.4 245.397 276.865C245.397 277.321 245.224 277.715 244.877 278.048C244.531 278.381 244.037 278.636 243.394 278.813C242.751 278.991 241.997 279.08 241.131 279.08C240.265 279.08 239.513 278.991 238.875 278.813C238.237 278.636 237.745 278.381 237.399 278.048C237.053 277.715 236.879 277.321 236.879 276.865C236.879 276.4 237.053 275.999 237.399 275.662C237.745 275.325 238.237 275.07 238.875 274.896C239.513 274.723 240.265 274.637 241.131 274.637ZM241.131 275.457C240.493 275.457 239.933 275.514 239.45 275.628C238.967 275.742 238.595 275.906 238.335 276.12C238.076 276.334 237.946 276.583 237.946 276.865C237.946 277.139 238.076 277.38 238.335 277.59C238.595 277.799 238.967 277.959 239.45 278.068C239.933 278.178 240.493 278.232 241.131 278.232C241.778 278.232 242.341 278.178 242.82 278.068C243.298 277.959 243.67 277.799 243.934 277.59C244.198 277.38 244.331 277.139 244.331 276.865C244.331 276.583 244.198 276.334 243.934 276.12C243.67 275.906 243.298 275.742 242.82 275.628C242.341 275.514 241.778 275.457 241.131 275.457ZM244.85 268.457H236.961V267.582H244.85V268.457ZM246.709 273.502H235.649V272.627H246.709V273.502ZM241.282 272.9H240.229V270.275H241.282V272.9ZM245.301 268.607C245.301 269.264 245.283 269.824 245.247 270.289C245.21 270.754 245.114 271.269 244.959 271.834L243.907 271.711C244.053 271.146 244.144 270.642 244.18 270.2C244.217 269.758 244.235 269.227 244.235 268.607V267.582H245.301V268.607ZM257.195 274.062H256.128V266.953H257.195V274.062ZM259.027 270.795H256.894V269.893H259.027V270.795ZM249.265 269.51H252.806V267.65H253.873V273.297H248.212V267.65H249.265V269.51ZM252.806 272.436V270.371H249.265V272.436H252.806ZM257.29 275.607H250.632V278.684H249.566V274.746H257.29V275.607ZM257.523 278.943H249.566V278.068H257.523V278.943ZM270.825 274.24H259.75V273.365H270.825V274.24ZM269.594 278.848H261.186V277.945H269.594V278.848ZM262.266 278.219H261.186V275.307H262.266V278.219ZM265.288 267.391C266.153 267.382 266.91 267.473 267.557 267.664C268.204 267.855 268.703 268.133 269.054 268.498C269.405 268.863 269.581 269.296 269.581 269.797C269.581 270.298 269.405 270.729 269.054 271.089C268.703 271.449 268.204 271.727 267.557 271.923C266.91 272.119 266.153 272.217 265.288 272.217C264.413 272.217 263.651 272.119 263.004 271.923C262.357 271.727 261.858 271.449 261.507 271.089C261.156 270.729 260.981 270.298 260.981 269.797C260.981 269.296 261.156 268.863 261.507 268.498C261.858 268.133 262.357 267.855 263.004 267.664C263.651 267.473 264.413 267.382 265.288 267.391ZM265.288 268.252C264.64 268.252 264.075 268.313 263.592 268.437C263.109 268.56 262.738 268.737 262.478 268.97C262.218 269.202 262.088 269.478 262.088 269.797C262.088 270.107 262.218 270.378 262.478 270.61C262.738 270.843 263.109 271.023 263.592 271.15C264.075 271.278 264.64 271.342 265.288 271.342C265.935 271.342 266.5 271.278 266.983 271.15C267.466 271.023 267.837 270.843 268.097 270.61C268.357 270.378 268.487 270.107 268.487 269.797C268.487 269.478 268.357 269.202 268.097 268.97C267.837 268.737 267.466 268.56 266.983 268.437C266.5 268.313 265.935 268.252 265.288 268.252ZM285.301 273.27H284.248V266.953H285.301V273.27ZM285.315 276.756H278.493V278.506H277.44V275.949H284.248V274.705H277.413V273.857H285.315V276.756ZM285.752 278.971H277.44V278.109H285.752V278.971ZM279.45 268.676C279.45 269.378 279.304 270.036 279.012 270.651C278.72 271.267 278.31 271.802 277.782 272.258C277.253 272.714 276.647 273.055 275.963 273.283L275.457 272.436C276.068 272.235 276.608 271.943 277.078 271.561C277.547 271.178 277.914 270.738 278.178 270.241C278.442 269.744 278.575 269.223 278.575 268.676V268.02H279.45V268.676ZM279.655 268.676C279.655 269.195 279.787 269.69 280.051 270.159C280.316 270.629 280.685 271.039 281.159 271.39C281.633 271.741 282.175 272.007 282.786 272.189L282.252 273.023C281.578 272.805 280.979 272.483 280.455 272.06C279.93 271.636 279.523 271.132 279.231 270.549C278.939 269.965 278.793 269.341 278.793 268.676V268.02H279.655V268.676ZM282.457 268.539H275.731V267.65H282.457V268.539ZM298.453 274.062H287.324V273.174H298.453V274.062ZM293.503 276.551H292.437V273.721H293.503V276.551ZM297.003 271.779H288.773V267.555H297.003V271.779ZM289.826 270.918H295.937V268.402H289.826V270.918ZM297.208 278.848H288.746V277.945H297.208V278.848ZM289.826 278.26H288.746V275.348H289.826V278.26ZM310.469 274.24H299.395V273.365H310.469V274.24ZM309.239 278.848H300.83V277.945H309.239V278.848ZM301.911 278.219H300.83V275.307H301.911V278.219ZM304.932 267.391C305.798 267.382 306.554 267.473 307.202 267.664C307.849 267.855 308.348 268.133 308.699 268.498C309.05 268.863 309.225 269.296 309.225 269.797C309.225 270.298 309.05 270.729 308.699 271.089C308.348 271.449 307.849 271.727 307.202 271.923C306.554 272.119 305.798 272.217 304.932 272.217C304.057 272.217 303.296 272.119 302.649 271.923C302.002 271.727 301.503 271.449 301.152 271.089C300.801 270.729 300.625 270.298 300.625 269.797C300.625 269.296 300.801 268.863 301.152 268.498C301.503 268.133 302.002 267.855 302.649 267.664C303.296 267.473 304.057 267.382 304.932 267.391ZM304.932 268.252C304.285 268.252 303.72 268.313 303.237 268.437C302.754 268.56 302.382 268.737 302.122 268.97C301.863 269.202 301.733 269.478 301.733 269.797C301.733 270.107 301.863 270.378 302.122 270.61C302.382 270.843 302.754 271.023 303.237 271.15C303.72 271.278 304.285 271.342 304.932 271.342C305.579 271.342 306.144 271.278 306.627 271.15C307.11 271.023 307.482 270.843 307.742 270.61C308.001 270.378 308.131 270.107 308.131 269.797C308.131 269.478 308.001 269.202 307.742 268.97C307.482 268.737 307.11 268.56 306.627 268.437C306.144 268.313 305.579 268.252 304.932 268.252ZM324.33 279.107H323.264V266.953H324.33V279.107ZM326.368 272.668H324.084V271.738H326.368V272.668ZM316.496 271.205H320.051V267.992H321.118V276.195H315.43V267.992H316.496V271.205ZM320.051 275.293V272.066H316.496V275.293H320.051ZM338.111 277.604H326.982V276.701H338.111V277.604ZM333.038 277.098H331.986V274.09H333.038V277.098ZM336.703 271.533H329.443V273.994H328.376V270.658H335.65V268.744H328.349V267.855H336.703V271.533ZM336.99 274.404H328.376V273.516H336.99V274.404ZM83.7491 296.637C84.6241 296.637 85.3806 296.723 86.0186 296.896C86.6567 297.07 87.1488 297.325 87.4952 297.662C87.8416 297.999 88.0147 298.4 88.0147 298.865C88.0147 299.321 87.8416 299.715 87.4952 300.048C87.1488 300.381 86.6544 300.636 86.0118 300.813C85.3692 300.991 84.615 301.08 83.7491 301.08C82.8832 301.08 82.1313 300.991 81.4932 300.813C80.8552 300.636 80.363 300.381 80.0167 300.048C79.6703 299.715 79.4972 299.321 79.4972 298.865C79.4972 298.4 79.6703 297.999 80.0167 297.662C80.363 297.325 80.8552 297.07 81.4932 296.896C82.1313 296.723 82.8832 296.637 83.7491 296.637ZM83.7491 297.457C83.1111 297.457 82.5505 297.514 82.0675 297.628C81.5844 297.742 81.213 297.906 80.9532 298.12C80.6934 298.334 80.5636 298.583 80.5636 298.865C80.5636 299.139 80.6934 299.38 80.9532 299.59C81.213 299.799 81.5844 299.959 82.0675 300.068C82.5505 300.178 83.1111 300.232 83.7491 300.232C84.3962 300.232 84.9591 300.178 85.4376 300.068C85.9161 299.959 86.2875 299.799 86.5518 299.59C86.8162 299.38 86.9483 299.139 86.9483 298.865C86.9483 298.583 86.8162 298.334 86.5518 298.12C86.2875 297.906 85.9161 297.742 85.4376 297.628C84.9591 297.514 84.3962 297.457 83.7491 297.457ZM87.4679 290.457H79.5792V289.582H87.4679V290.457ZM89.3272 295.502H78.2667V294.627H89.3272V295.502ZM83.8995 294.9H82.8468V292.275H83.8995V294.9ZM87.919 290.607C87.919 291.264 87.9008 291.824 87.8643 292.289C87.8279 292.754 87.7322 293.269 87.5772 293.834L86.5245 293.711C86.6703 293.146 86.7615 292.642 86.7979 292.2C86.8344 291.758 86.8526 291.227 86.8526 290.607V289.582H87.919V290.607ZM101.385 296.281H90.297V295.406H101.385V296.281ZM96.3673 295.775H95.3009V293.807H96.3673V295.775ZM100.072 294.203H91.7735V293.342H100.072V294.203ZM100.004 290.184H92.8536V293.793H91.7735V289.309H100.004V290.184ZM99.6759 292.139H92.5255V291.318H99.6759V292.139ZM95.8477 297.197C96.741 297.188 97.4975 297.259 98.1173 297.409C98.7371 297.56 99.211 297.781 99.5391 298.072C99.8673 298.364 100.031 298.719 100.031 299.139C100.031 299.558 99.8673 299.911 99.5391 300.198C99.211 300.485 98.7371 300.704 98.1173 300.854C97.4975 301.005 96.741 301.08 95.8477 301.08C94.9545 301.08 94.1934 301.005 93.5645 300.854C92.9356 300.704 92.4594 300.485 92.1358 300.198C91.8123 299.911 91.6505 299.558 91.6505 299.139C91.6505 298.71 91.8145 298.353 92.1427 298.065C92.4708 297.778 92.947 297.56 93.5714 297.409C94.1957 297.259 94.9545 297.188 95.8477 297.197ZM95.8477 298.004C95.1824 298.004 94.6173 298.047 94.1524 298.134C93.6876 298.22 93.3344 298.348 93.0928 298.517C92.8513 298.685 92.7305 298.893 92.7305 299.139C92.7305 299.385 92.849 299.59 93.086 299.754C93.323 299.918 93.6762 300.041 94.1456 300.123C94.615 300.205 95.1824 300.246 95.8477 300.246C96.5131 300.246 97.0759 300.205 97.5362 300.123C97.9965 300.041 98.3474 299.918 98.5889 299.754C98.8305 299.59 98.9512 299.385 98.9512 299.139C98.9512 298.893 98.8305 298.685 98.5889 298.517C98.3474 298.348 97.9942 298.22 97.5294 298.134C97.0645 298.047 96.504 298.004 95.8477 298.004ZM111.692 292.002H108.247V291.1H111.692V292.002ZM111.72 294.6H108.247V293.711H111.72V294.6ZM108.521 295.693H102.942V290.02H108.521V295.693ZM104.009 294.832H107.468V290.908H104.009V294.832ZM112.444 297.84H111.364V288.967H112.444V297.84ZM112.718 300.848H104.583V299.945H112.718V300.848ZM105.663 300.342H104.583V297.047H105.663V300.342ZM123.723 292.809H120.961V291.906H123.723V292.809ZM124.488 295.557H123.422V288.953H124.488V295.557ZM117.748 297.662H123.422V296.145H124.488V300.943H116.668V296.145H117.748V297.662ZM123.422 300.068V298.523H117.748V300.068H123.422ZM118.459 290.936C118.459 291.656 118.313 292.337 118.022 292.979C117.73 293.622 117.327 294.185 116.812 294.668C116.297 295.151 115.706 295.516 115.041 295.762L114.481 294.914C115.073 294.695 115.604 294.383 116.073 293.978C116.543 293.572 116.91 293.105 117.174 292.576C117.438 292.048 117.57 291.501 117.57 290.936V289.91H118.459V290.936ZM118.65 290.936C118.65 291.446 118.778 291.947 119.033 292.439C119.288 292.932 119.642 293.371 120.093 293.759C120.544 294.146 121.061 294.44 121.645 294.641L121.084 295.475C120.428 295.229 119.851 294.878 119.355 294.422C118.858 293.966 118.47 293.438 118.192 292.836C117.914 292.234 117.775 291.601 117.775 290.936V289.91H118.65V290.936ZM121.371 290.58H114.822V289.691H121.371V290.58ZM139.977 295.27H138.924V288.953H139.977V295.27ZM139.99 298.756H133.168V300.506H132.115V297.949H138.924V296.705H132.088V295.857H139.99V298.756ZM140.428 300.971H132.115V300.109H140.428V300.971ZM134.125 290.676C134.125 291.378 133.979 292.036 133.688 292.651C133.396 293.267 132.986 293.802 132.457 294.258C131.928 294.714 131.322 295.055 130.639 295.283L130.133 294.436C130.744 294.235 131.284 293.943 131.753 293.561C132.222 293.178 132.589 292.738 132.854 292.241C133.118 291.744 133.25 291.223 133.25 290.676V290.02H134.125V290.676ZM134.33 290.676C134.33 291.195 134.462 291.69 134.727 292.159C134.991 292.629 135.36 293.039 135.834 293.39C136.308 293.741 136.85 294.007 137.461 294.189L136.928 295.023C136.253 294.805 135.654 294.483 135.13 294.06C134.606 293.636 134.198 293.132 133.906 292.549C133.615 291.965 133.469 291.341 133.469 290.676V290.02H134.33V290.676ZM137.133 290.539H130.406V289.65H137.133V290.539ZM153.128 296.062H141.999V295.174H153.128V296.062ZM148.179 298.551H147.112V295.721H148.179V298.551ZM151.679 293.779H143.448V289.555H151.679V293.779ZM144.501 292.918H150.612V290.402H144.501V292.918ZM151.884 300.848H143.421V299.945H151.884V300.848ZM144.501 300.26H143.421V297.348H144.501V300.26ZM159.607 289.746C160.455 289.746 161.216 289.885 161.891 290.163C162.565 290.441 163.094 290.833 163.477 291.339C163.859 291.845 164.051 292.426 164.051 293.082C164.051 293.738 163.859 294.322 163.477 294.832C163.094 295.342 162.565 295.734 161.891 296.008C161.216 296.281 160.455 296.418 159.607 296.418C158.769 296.418 158.012 296.281 157.338 296.008C156.663 295.734 156.133 295.342 155.745 294.832C155.358 294.322 155.164 293.738 155.164 293.082C155.164 292.426 155.358 291.845 155.745 291.339C156.133 290.833 156.663 290.441 157.338 290.163C158.012 289.885 158.769 289.746 159.607 289.746ZM159.607 290.621C158.96 290.612 158.377 290.712 157.857 290.922C157.338 291.132 156.93 291.425 156.634 291.804C156.338 292.182 156.189 292.608 156.189 293.082C156.189 293.565 156.338 293.993 156.634 294.367C156.93 294.741 157.338 295.03 157.857 295.235C158.377 295.44 158.96 295.543 159.607 295.543C160.255 295.543 160.836 295.44 161.351 295.235C161.866 295.03 162.271 294.741 162.567 294.367C162.864 293.993 163.012 293.565 163.012 293.082C163.012 292.608 162.864 292.182 162.567 291.804C162.271 291.425 161.866 291.132 161.351 290.922C160.836 290.712 160.255 290.612 159.607 290.621ZM165.199 299.494H154.07V298.592H165.199V299.494ZM177.257 299.604H166.128V298.701H177.257V299.604ZM172.185 299.098H171.132V296.09H172.185V299.098ZM175.849 293.533H168.589V295.994H167.522V292.658H174.796V290.744H167.495V289.855H175.849V293.533ZM176.136 296.404H167.522V295.516H176.136V296.404ZM187.714 301.135H186.661V296.664H187.714V301.135ZM192.731 297.211H181.657V296.309H192.731V297.211ZM187.604 291.359C187.604 292.034 187.379 292.651 186.928 293.212C186.477 293.772 185.882 294.237 185.144 294.606C184.405 294.976 183.608 295.229 182.751 295.365L182.354 294.504C183.084 294.404 183.779 294.199 184.439 293.889C185.1 293.579 185.636 293.203 186.046 292.761C186.456 292.319 186.661 291.852 186.661 291.359V291.031H187.604V291.359ZM187.728 291.359C187.728 291.842 187.93 292.307 188.336 292.754C188.742 293.201 189.275 293.579 189.936 293.889C190.596 294.199 191.291 294.404 192.021 294.504L191.624 295.365C190.776 295.238 189.983 294.985 189.245 294.606C188.507 294.228 187.914 293.759 187.468 293.198C187.021 292.638 186.798 292.025 186.798 291.359V291.031H187.728V291.359ZM191.665 291.346H182.737V290.471H191.665V291.346ZM187.714 290.771H186.661V288.953H187.714V290.771ZM203.121 301.107H202.055V288.953H203.121V301.107ZM205.09 294.805H202.848V293.902H205.09V294.805ZM199.977 290.266C199.977 291.451 199.783 292.567 199.396 293.615C199.008 294.663 198.4 295.63 197.57 296.514C196.741 297.398 195.684 298.159 194.398 298.797L193.797 297.949C194.927 297.384 195.873 296.723 196.634 295.967C197.395 295.21 197.967 294.369 198.35 293.444C198.732 292.519 198.924 291.519 198.924 290.443V290.266H199.977ZM199.471 291.168H194.357V290.266H199.471V291.168ZM215.179 301.107H214.112V288.953H215.179V301.107ZM217.216 294.859H214.933V293.971H217.216V294.859ZM212.937 291.797H205.704V290.908H212.937V291.797ZM209.382 292.809C209.956 292.809 210.469 292.927 210.92 293.164C211.371 293.401 211.724 293.731 211.979 294.155C212.235 294.579 212.362 295.06 212.362 295.598C212.362 296.135 212.235 296.616 211.979 297.04C211.724 297.464 211.371 297.794 210.92 298.031C210.469 298.268 209.956 298.387 209.382 298.387C208.808 298.387 208.295 298.268 207.844 298.031C207.393 297.794 207.039 297.464 206.784 297.04C206.529 296.616 206.401 296.135 206.401 295.598C206.401 295.06 206.529 294.579 206.784 294.155C207.039 293.731 207.393 293.401 207.844 293.164C208.295 292.927 208.808 292.809 209.382 292.809ZM209.382 293.711C209.008 293.711 208.673 293.791 208.377 293.95C208.081 294.11 207.848 294.333 207.68 294.62C207.511 294.907 207.427 295.233 207.427 295.598C207.427 295.962 207.511 296.286 207.68 296.568C207.848 296.851 208.081 297.072 208.377 297.231C208.673 297.391 209.008 297.471 209.382 297.471C209.756 297.471 210.09 297.391 210.387 297.231C210.683 297.072 210.915 296.851 211.084 296.568C211.253 296.286 211.337 295.962 211.337 295.598C211.337 295.233 211.253 294.907 211.084 294.62C210.915 294.333 210.683 294.11 210.387 293.95C210.09 293.791 209.756 293.711 209.382 293.711ZM209.901 291.318H208.835V289.104H209.901V291.318ZM227.852 295.256H226.799V288.953H227.852V295.256ZM227.865 298.783H221.043V300.479H219.99V297.949H226.799V296.732H219.963V295.871H227.865V298.783ZM228.303 300.971H219.99V300.096H228.303V300.971ZM221.945 290.238C221.945 290.977 221.797 291.674 221.501 292.33C221.205 292.986 220.795 293.556 220.27 294.039C219.746 294.522 219.147 294.887 218.473 295.133L217.912 294.285C218.523 294.066 219.065 293.754 219.539 293.349C220.013 292.943 220.382 292.469 220.646 291.927C220.911 291.384 221.043 290.822 221.043 290.238V289.309H221.945V290.238ZM222.137 290.238C222.137 290.803 222.269 291.341 222.533 291.852C222.797 292.362 223.164 292.809 223.634 293.191C224.103 293.574 224.639 293.866 225.24 294.066L224.707 294.9C224.033 294.663 223.433 294.317 222.909 293.861C222.385 293.406 221.975 292.866 221.679 292.241C221.382 291.617 221.234 290.949 221.234 290.238V289.309H222.137V290.238ZM239.293 290.088C239.293 290.826 239.063 291.503 238.603 292.118C238.142 292.733 237.534 293.242 236.777 293.643C236.021 294.044 235.219 294.317 234.371 294.463L233.934 293.588C234.672 293.488 235.381 293.267 236.06 292.925C236.739 292.583 237.29 292.164 237.714 291.667C238.138 291.17 238.35 290.644 238.35 290.088V289.391H239.293V290.088ZM239.457 290.088C239.457 290.635 239.671 291.159 240.1 291.66C240.528 292.161 241.084 292.583 241.768 292.925C242.451 293.267 243.158 293.488 243.887 293.588L243.449 294.463C242.602 294.317 241.802 294.041 241.05 293.636C240.298 293.23 239.689 292.72 239.225 292.104C238.76 291.489 238.527 290.817 238.527 290.088V289.391H239.457V290.088ZM239.402 301.107H238.35V296.473H239.402V301.107ZM244.434 296.705H233.359V295.803H244.434V296.705ZM255.233 295.529H246.839V294.654H255.233V295.529ZM256.546 299.576H245.417V298.674H256.546V299.576ZM251.474 299.043H250.421V295.037H251.474V299.043ZM255.11 290.826H247.919V295.064H246.839V289.951H255.11V290.826ZM264.87 297.115C264.87 297.644 264.758 298.161 264.535 298.667C264.312 299.173 263.993 299.624 263.578 300.021C263.163 300.417 262.669 300.725 262.095 300.943L261.548 300.15C262.049 299.959 262.484 299.701 262.853 299.378C263.223 299.054 263.51 298.694 263.715 298.298C263.92 297.901 264.022 297.507 264.022 297.115V296.445H264.87V297.115ZM265.061 297.115C265.061 297.525 265.146 297.933 265.314 298.339C265.483 298.744 265.734 299.111 266.066 299.439C266.399 299.768 266.802 300.027 267.276 300.219L266.825 301.039C266.26 300.82 265.786 300.506 265.403 300.096C265.02 299.686 264.736 299.223 264.549 298.708C264.362 298.193 264.268 297.662 264.268 297.115V296.445H265.061V297.115ZM269.368 297.115C269.368 297.607 269.272 298.111 269.081 298.626C268.89 299.141 268.602 299.613 268.22 300.041C267.837 300.469 267.372 300.802 266.825 301.039L266.36 300.219C266.825 300.009 267.224 299.729 267.557 299.378C267.889 299.027 268.14 298.651 268.309 298.25C268.477 297.849 268.561 297.471 268.561 297.115V296.445H269.368V297.115ZM269.614 297.115C269.614 297.535 269.714 297.942 269.915 298.339C270.115 298.735 270.403 299.093 270.776 299.412C271.15 299.731 271.588 299.977 272.089 300.15L271.556 300.943C270.972 300.734 270.471 300.435 270.052 300.048C269.632 299.66 269.313 299.214 269.095 298.708C268.876 298.202 268.767 297.671 268.767 297.115V296.445H269.614V297.115ZM270.981 295.912H269.915V288.967H270.981V295.912ZM264.419 289.678C265.03 289.678 265.576 289.796 266.06 290.033C266.543 290.27 266.921 290.605 267.194 291.038C267.468 291.471 267.604 291.965 267.604 292.521C267.604 293.068 267.468 293.556 267.194 293.984C266.921 294.413 266.543 294.745 266.06 294.982C265.576 295.219 265.03 295.338 264.419 295.338C263.808 295.338 263.261 295.219 262.778 294.982C262.295 294.745 261.917 294.413 261.643 293.984C261.37 293.556 261.233 293.068 261.233 292.521C261.233 291.965 261.37 291.471 261.643 291.038C261.917 290.605 262.295 290.27 262.778 290.033C263.261 289.796 263.808 289.678 264.419 289.678ZM264.419 290.594C264.009 290.585 263.642 290.662 263.318 290.826C262.995 290.99 262.742 291.22 262.56 291.517C262.377 291.813 262.286 292.148 262.286 292.521C262.286 292.886 262.377 293.214 262.56 293.506C262.742 293.798 262.995 294.025 263.318 294.189C263.642 294.354 264.009 294.44 264.419 294.449C264.829 294.44 265.196 294.354 265.519 294.189C265.843 294.025 266.096 293.798 266.278 293.506C266.461 293.214 266.552 292.886 266.552 292.521C266.552 292.148 266.461 291.813 266.278 291.517C266.096 291.22 265.843 290.99 265.519 290.826C265.196 290.662 264.829 290.585 264.419 290.594ZM275.478 297.676H281.549V296.254H282.629V300.943H274.412V296.254H275.478V297.676ZM281.549 300.082V298.523H275.478V300.082H281.549ZM284.078 295.393H273.004V294.504H284.078V295.393ZM278.924 289.664C278.924 290.329 278.694 290.942 278.233 291.503C277.773 292.063 277.169 292.528 276.422 292.897C275.674 293.267 274.881 293.515 274.043 293.643L273.633 292.781C274.362 292.681 275.064 292.48 275.738 292.18C276.413 291.879 276.957 291.507 277.372 291.065C277.787 290.623 277.994 290.156 277.994 289.664V289.09H278.924V289.664ZM279.102 289.664C279.102 290.147 279.311 290.61 279.73 291.052C280.15 291.494 280.697 291.87 281.371 292.18C282.046 292.49 282.738 292.69 283.449 292.781L283.053 293.643C282.214 293.515 281.421 293.264 280.674 292.891C279.926 292.517 279.323 292.05 278.862 291.489C278.402 290.929 278.172 290.32 278.172 289.664V289.09H279.102V289.664ZM295.083 301.107H294.017V288.953H295.083V301.107ZM286.907 297.676H285.854V290.156H286.907V297.676ZM286.839 297.047C287.832 297.047 288.814 297.001 289.785 296.91C290.756 296.819 291.733 296.669 292.718 296.459L292.868 297.375C291.838 297.585 290.833 297.737 289.853 297.833C288.874 297.929 287.869 297.977 286.839 297.977H285.854V297.047H286.839ZM306.525 301.135H305.459V288.953H306.525V301.135ZM308.562 294.668H306.279V293.766H308.562V294.668ZM298.609 297.184C299.785 297.184 300.804 297.152 301.665 297.088C302.526 297.024 303.399 296.91 304.283 296.746L304.42 297.676C303.527 297.84 302.647 297.949 301.781 298.004C300.915 298.059 299.858 298.086 298.609 298.086H297.652V297.184H298.609ZM303.326 291.031H298.719V297.594H297.652V290.143H303.326V291.031ZM310.462 300.082C310.307 300.082 310.161 300.041 310.024 299.959C309.888 299.877 309.781 299.768 309.703 299.631C309.626 299.494 309.587 299.348 309.587 299.193C309.587 299.038 309.626 298.893 309.703 298.756C309.781 298.619 309.888 298.512 310.024 298.435C310.161 298.357 310.307 298.318 310.462 298.318C310.617 298.318 310.763 298.357 310.899 298.435C311.036 298.512 311.143 298.619 311.221 298.756C311.298 298.893 311.337 299.038 311.337 299.193C311.337 299.348 311.298 299.494 311.221 299.631C311.143 299.768 311.036 299.877 310.899 299.959C310.763 300.041 310.617 300.082 310.462 300.082Z" fill="#666666"/>
<path d="M116.026 203.031C116.026 203.847 115.892 204.606 115.623 205.308C115.359 206.005 114.965 206.613 114.44 207.133C113.921 207.652 113.292 208.044 112.554 208.309L111.713 207.105C112.374 206.887 112.932 206.57 113.388 206.155C113.848 205.741 114.192 205.264 114.42 204.727C114.648 204.189 114.762 203.624 114.762 203.031V201.623H116.026V203.031ZM116.286 203.052C116.286 203.599 116.398 204.123 116.621 204.624C116.844 205.121 117.179 205.565 117.626 205.957C118.077 206.344 118.617 206.643 119.246 206.853L118.453 208.049C117.733 207.798 117.118 207.427 116.607 206.935C116.102 206.442 115.716 205.864 115.452 205.198C115.192 204.533 115.063 203.817 115.063 203.052V201.623H116.286V203.052ZM121.611 209.936H120.094V200.864H121.611V209.936ZM123.341 205.793H121.16V204.508H123.341V205.793ZM122.104 212.984H113.702V211.74H122.104V212.984ZM115.247 212.383H113.702V209.047H115.247V212.383ZM133.444 204.897H130.245V203.674H133.444V204.897ZM127.395 201.404C128.005 201.4 128.554 201.521 129.042 201.767C129.534 202.013 129.922 202.359 130.204 202.806C130.491 203.248 130.635 203.747 130.635 204.303C130.635 204.863 130.491 205.367 130.204 205.813C129.922 206.26 129.534 206.609 129.042 206.859C128.554 207.105 128.005 207.229 127.395 207.229C126.77 207.229 126.21 207.105 125.713 206.859C125.216 206.609 124.829 206.26 124.551 205.813C124.273 205.367 124.134 204.863 124.134 204.303C124.134 203.747 124.273 203.248 124.551 202.806C124.829 202.359 125.216 202.013 125.713 201.767C126.214 201.521 126.775 201.4 127.395 201.404ZM127.395 202.683C127.044 202.674 126.729 202.735 126.451 202.867C126.178 202.999 125.964 203.188 125.809 203.435C125.654 203.681 125.576 203.97 125.576 204.303C125.576 204.626 125.654 204.913 125.809 205.164C125.964 205.415 126.178 205.611 126.451 205.752C126.729 205.889 127.044 205.957 127.395 205.957C127.741 205.957 128.049 205.889 128.317 205.752C128.591 205.611 128.803 205.415 128.953 205.164C129.104 204.913 129.179 204.626 129.179 204.303C129.179 203.975 129.104 203.688 128.953 203.441C128.803 203.191 128.591 202.999 128.317 202.867C128.049 202.735 127.741 202.674 127.395 202.683ZM134.313 207.495H132.795V200.857H134.313V207.495ZM127.675 209.375H132.795V208.062H134.313V213.06H126.171V208.062H127.675V209.375ZM132.795 211.829V210.558H127.675V211.829H132.795ZM137.327 213.49H135.81L138.995 201.637H140.526L137.327 213.49ZM145.51 203.011C145.51 203.772 145.371 204.492 145.093 205.171C144.815 205.845 144.409 206.436 143.876 206.941C143.347 207.443 142.714 207.819 141.976 208.069L141.189 206.9C141.832 206.682 142.383 206.372 142.844 205.971C143.309 205.565 143.657 205.107 143.89 204.597C144.127 204.086 144.245 203.558 144.245 203.011V202.129H145.51V203.011ZM145.783 203.011C145.783 203.53 145.899 204.032 146.132 204.515C146.364 204.993 146.708 205.422 147.164 205.8C147.62 206.178 148.167 206.467 148.805 206.668L148.025 207.844C147.296 207.611 146.67 207.254 146.146 206.771C145.626 206.287 145.227 205.722 144.949 205.075C144.676 204.428 144.539 203.74 144.539 203.011V202.129H145.783V203.011ZM151.382 208.315H149.857V200.857H151.382V208.315ZM151.382 213.203H149.857V210.113H142.96V208.89H151.382V213.203ZM148.388 202.854H141.586V201.637H148.388V202.854ZM164.48 209.088H153.187V207.857H164.48V209.088ZM159.544 213.203H158.047V208.63H159.544V213.203ZM163.092 206.415H154.554V201.493H163.092V206.415ZM156.044 205.219H161.574V202.71H156.044V205.219ZM177.823 203.646H174.59V202.505H177.823V203.646ZM177.823 205.896H174.59V204.733H177.823V205.896ZM178.972 207.249H177.461V200.857H178.972V207.249ZM178.972 210.92H172.368V212.636H170.844V209.799H177.461V208.938H170.823V207.755H178.972V210.92ZM179.375 213.06H170.844V211.863H179.375V213.06ZM170.714 202.963H173.476V201.404H174.973V206.853H169.189V201.404H170.714V202.963ZM173.476 205.643V204.118H170.714V205.643H173.476ZM194.339 207.222H192.828V200.857H194.339V207.222ZM194.353 210.934H187.667V212.403H186.184V209.833H192.835V208.91H186.156V207.748H194.353V210.934ZM194.722 213.107H186.184V211.925H194.722V213.107ZM188.453 202.56C188.453 203.289 188.314 203.972 188.036 204.61C187.758 205.244 187.348 205.798 186.806 206.271C186.263 206.745 185.616 207.094 184.864 207.317L184.167 206.121C184.814 205.925 185.366 205.645 185.821 205.28C186.282 204.911 186.628 204.492 186.86 204.022C187.097 203.553 187.216 203.065 187.216 202.56V201.992H188.453V202.56ZM188.754 202.56C188.754 203.038 188.87 203.498 189.103 203.94C189.335 204.382 189.679 204.772 190.135 205.109C190.591 205.447 191.142 205.704 191.789 205.882L191.058 207.064C190.319 206.846 189.684 206.515 189.15 206.073C188.622 205.631 188.221 205.107 187.947 204.501C187.678 203.895 187.544 203.248 187.544 202.56V201.992H188.754V202.56ZM191.358 202.696H184.557V201.473H191.358V202.696ZM207.45 208.261H196.157V207.037H207.45V208.261ZM202.679 210.517H201.175V207.796H202.679V210.517ZM206.001 205.889H197.586V201.425H206.001V205.889ZM199.069 204.699H204.497V202.607H199.069V204.699ZM206.199 212.984H197.518V211.74H206.199V212.984ZM199.042 212.157H197.518V209.396H199.042V212.157ZM217.964 213.23H216.467V208.726H217.964V213.23ZM222.858 209.532H211.606V208.274H222.858V209.532ZM217.8 203.346C217.8 204.043 217.588 204.686 217.164 205.273C216.745 205.857 216.155 206.344 215.394 206.736C214.637 207.128 213.762 207.39 212.769 207.522L212.215 206.326C213.053 206.226 213.794 206.021 214.437 205.711C215.079 205.401 215.578 205.039 215.934 204.624C216.289 204.209 216.467 203.783 216.467 203.346V203.031H217.8V203.346ZM217.984 203.346C217.984 203.774 218.158 204.198 218.504 204.617C218.855 205.036 219.352 205.401 219.994 205.711C220.641 206.021 221.382 206.226 222.216 206.326L221.662 207.522C220.678 207.395 219.805 207.131 219.044 206.729C218.283 206.328 217.693 205.836 217.273 205.253C216.854 204.665 216.645 204.029 216.645 203.346V203.031H217.984V203.346ZM221.806 203.523H212.646V202.32H221.806V203.523ZM217.964 202.737H216.467V200.871H217.964V202.737ZM227.876 203.79C227.876 204.542 227.739 205.244 227.466 205.896C227.192 206.547 226.796 207.115 226.276 207.598C225.761 208.076 225.135 208.434 224.396 208.671L223.658 207.488C224.287 207.288 224.825 206.998 225.271 206.62C225.723 206.242 226.062 205.809 226.29 205.321C226.518 204.829 226.632 204.319 226.632 203.79V203.236H227.876V203.79ZM228.136 203.79C228.136 204.287 228.252 204.763 228.484 205.219C228.717 205.674 229.056 206.082 229.503 206.442C229.95 206.802 230.49 207.083 231.123 207.283L230.385 208.473C229.656 208.249 229.029 207.908 228.505 207.447C227.981 206.982 227.582 206.436 227.309 205.807C227.035 205.178 226.898 204.506 226.898 203.79V203.236H228.136V203.79ZM230.727 203.592H224.041V202.389H230.727V203.592ZM228.156 202.854H226.632V200.939H228.156V202.854ZM233.297 205.772H230.31V204.542H233.297V205.772ZM234.049 210.052H232.531V200.871H234.049V210.052ZM234.363 212.984H225.941V211.74H234.363V212.984ZM227.466 212.506H225.941V209.252H227.466V212.506Z" fill="#1A1A1A"/>
</svg>
