<svg width="316" height="58" viewBox="0 0 316 58" fill="none" xmlns="http://www.w3.org/2000/svg">
<path d="M9.58504 4.00195H6.13972V3.09961H9.58504V4.00195ZM9.61238 6.59961H6.13972V5.71094H9.61238V6.59961ZM6.41316 7.69336H0.835037V2.01953H6.41316V7.69336ZM1.90144 6.83203H5.36043V2.9082H1.90144V6.83203ZM10.337 9.83984H9.25691V0.966797H10.337V9.83984ZM10.6104 12.8477H2.47566V11.9453H10.6104V12.8477ZM3.55574 12.3418H2.47566V9.04688H3.55574V12.3418ZM21.6153 4.80859H18.8536V3.90625H21.6153V4.80859ZM22.3809 7.55664H21.3145V0.953125H22.3809V7.55664ZM15.6407 9.66211H21.3145V8.14453H22.3809V12.9434H14.5606V8.14453H15.6407V9.66211ZM21.3145 12.0684V10.5234H15.6407V12.0684H21.3145ZM16.3516 2.93555C16.3516 3.6556 16.2058 4.33691 15.9141 4.97949C15.6225 5.62207 15.2191 6.1849 14.7042 6.66797C14.1892 7.15104 13.599 7.51562 12.9337 7.76172L12.3731 6.91406C12.9656 6.69531 13.4965 6.38314 13.9659 5.97754C14.4353 5.57194 14.8022 5.10482 15.0665 4.57617C15.3308 4.04753 15.463 3.50065 15.463 2.93555V1.91016H16.3516V2.93555ZM16.543 2.93555C16.543 3.44596 16.6706 3.94727 16.9258 4.43945C17.1811 4.93164 17.5342 5.37142 17.9854 5.75879C18.4366 6.14616 18.9538 6.4401 19.5372 6.64062L18.9766 7.47461C18.3204 7.22852 17.7439 6.8776 17.2471 6.42188C16.7504 5.96615 16.363 5.4375 16.085 4.83594C15.807 4.23438 15.668 3.60091 15.668 2.93555V1.91016H16.543V2.93555ZM19.2637 2.58008H12.7149V1.69141H19.2637V2.58008ZM37.8692 7.26953H36.8165V0.953125H37.8692V7.26953ZM37.8829 10.7559H31.0606V12.5059H30.0079V9.94922H36.8165V8.70508H29.9805V7.85742H37.8829V10.7559ZM38.3204 12.9707H30.0079V12.1094H38.3204V12.9707ZM32.0176 2.67578C32.0176 3.3776 31.8718 4.03613 31.5801 4.65137C31.2885 5.2666 30.8783 5.80208 30.3497 6.25781C29.821 6.71354 29.2149 7.05534 28.5313 7.2832L28.0254 6.43555C28.6361 6.23503 29.1762 5.94336 29.6456 5.56055C30.115 5.17773 30.4818 4.73796 30.7461 4.24121C31.0105 3.74447 31.1426 3.22266 31.1426 2.67578V2.01953H32.0176V2.67578ZM32.2227 2.67578C32.2227 3.19531 32.3549 3.68978 32.6192 4.15918C32.8835 4.62858 33.2527 5.03874 33.7266 5.38965C34.2006 5.74056 34.7429 6.00716 35.3536 6.18945L34.8204 7.02344C34.1459 6.80469 33.5466 6.4834 33.0225 6.05957C32.4984 5.63574 32.0905 5.13216 31.7989 4.54883C31.5072 3.96549 31.3614 3.34115 31.3614 2.67578V2.01953H32.2227V2.67578ZM35.0254 2.53906H28.2989V1.65039H35.0254V2.53906ZM51.0206 8.0625H39.8916V7.17383H51.0206V8.0625ZM46.0713 10.5508H45.0049V7.7207H46.0713V10.5508ZM49.5713 5.7793H41.3409V1.55469H49.5713V5.7793ZM42.3936 4.91797H48.5049V2.40234H42.3936V4.91797ZM49.7764 12.8477H41.3135V11.9453H49.7764V12.8477ZM42.3936 12.2598H41.3135V9.34766H42.3936V12.2598ZM59.7412 8.21289H58.6748V6.66797H59.7412V8.21289ZM64.9229 9.11523H63.8428V0.966797H64.9229V9.11523ZM66.7412 5.54688H64.4717V4.64453H66.7412V5.54688ZM55.3799 7.87109C56.3552 7.87109 57.2438 7.86426 58.0459 7.85059C58.848 7.83691 59.6957 7.80046 60.5889 7.74121C61.4821 7.68197 62.3161 7.59766 63.0909 7.48828L63.1866 8.26758C62.029 8.4681 60.835 8.59798 59.6045 8.65723C58.3741 8.71647 57.0069 8.74609 55.503 8.74609L55.3799 7.87109ZM64.9229 13.1074H63.8428V10.5781H56.8701V9.7168H64.9229V13.1074ZM62.7217 2.89453H55.6807V2.07422H62.7217V2.89453ZM59.1944 3.35938C59.7686 3.35938 60.2699 3.43229 60.6983 3.57812C61.1267 3.72396 61.4593 3.93132 61.6963 4.2002C61.9333 4.46908 62.0518 4.78581 62.0518 5.15039C62.0518 5.51497 61.9333 5.83398 61.6963 6.10742C61.4593 6.38086 61.1267 6.59277 60.6983 6.74316C60.2699 6.89355 59.7686 6.96875 59.1944 6.96875C58.6293 6.96875 58.1325 6.89355 57.7041 6.74316C57.2757 6.59277 56.9431 6.38086 56.7061 6.10742C56.4691 5.83398 56.3506 5.51497 56.3506 5.15039C56.3506 4.78581 56.4691 4.46908 56.7061 4.2002C56.9431 3.93132 57.2757 3.72396 57.7041 3.57812C58.1325 3.43229 58.6293 3.35938 59.1944 3.35938ZM59.1944 4.125C58.8298 4.11589 58.5108 4.15234 58.2373 4.23438C57.9639 4.31641 57.752 4.4349 57.6016 4.58984C57.4512 4.74479 57.376 4.93164 57.376 5.15039C57.376 5.36003 57.4512 5.5446 57.6016 5.7041C57.752 5.86361 57.9639 5.98665 58.2373 6.07324C58.5108 6.15983 58.8298 6.20312 59.1944 6.20312C59.5681 6.20312 59.8916 6.15983 60.1651 6.07324C60.4385 5.98665 60.6504 5.86361 60.8008 5.7041C60.9512 5.5446 61.0264 5.36003 61.0264 5.15039C61.0264 4.93164 60.9512 4.74479 60.8008 4.58984C60.6504 4.4349 60.4385 4.31641 60.1651 4.23438C59.8916 4.15234 59.5681 4.11589 59.1944 4.125ZM59.7412 2.49805H58.6748V0.857422H59.7412V2.49805ZM77.5274 9.85352H76.461V0.966797H77.5274V9.85352ZM77.9102 12.8477H69.6797V11.9453H77.9102V12.8477ZM70.7461 12.2461H69.6797V8.95117H70.7461V12.2461ZM70.9649 1.81445C71.5664 1.81445 72.111 1.93978 72.5987 2.19043C73.0863 2.44108 73.4668 2.79427 73.7403 3.25C74.0137 3.70573 74.1504 4.2207 74.1504 4.79492C74.1504 5.37826 74.0137 5.89551 73.7403 6.34668C73.4668 6.79785 73.0863 7.15104 72.5987 7.40625C72.111 7.66146 71.5664 7.78906 70.9649 7.78906C70.3633 7.78906 69.821 7.66146 69.3379 7.40625C68.8548 7.15104 68.4743 6.79785 68.1963 6.34668C67.9183 5.89551 67.7793 5.37826 67.7793 4.79492C67.7793 4.2207 67.9183 3.70573 68.1963 3.25C68.4743 2.79427 68.8548 2.44108 69.3379 2.19043C69.821 1.93978 70.3633 1.81445 70.9649 1.81445ZM70.9649 2.75781C70.5638 2.75781 70.1992 2.8444 69.8711 3.01758C69.543 3.19076 69.2878 3.43229 69.1055 3.74219C68.9232 4.05208 68.8321 4.40299 68.8321 4.79492C68.8321 5.18685 68.9232 5.54004 69.1055 5.85449C69.2878 6.16895 69.543 6.41276 69.8711 6.58594C70.1992 6.75911 70.5638 6.8457 70.9649 6.8457C71.3659 6.8457 71.7282 6.75911 72.0518 6.58594C72.3753 6.41276 72.6306 6.16895 72.8174 5.85449C73.0043 5.54004 73.0977 5.18685 73.0977 4.79492C73.0977 4.40299 73.0043 4.05208 72.8174 3.74219C72.6306 3.43229 72.3753 3.19076 72.0518 3.01758C71.7282 2.8444 71.3659 2.75781 70.9649 2.75781ZM93.4805 13.1074H92.4414V0.953125H93.4805V13.1074ZM90.4316 6.54492H88.3809V5.57422H90.4316V6.54492ZM91.1016 12.4648H90.0762V1.25391H91.1016V12.4648ZM88.7363 3.40039H83.1445V2.51172H88.7363V3.40039ZM82.8848 9.18359C83.9421 9.18359 85.0199 9.16309 86.1182 9.12207C87.2165 9.08105 88.1803 9.00586 89.0098 8.89648L89.0781 9.68945C88.2305 9.8444 87.2712 9.9515 86.2002 10.0107C85.1292 10.07 84.0697 10.0996 83.0215 10.0996L82.8848 9.18359ZM85.1543 9.45703H84.1699V3.07227H85.1543V9.45703ZM87.7109 9.45703H86.7129V3.07227H87.7109V9.45703ZM105.101 13.1348H104.021V0.953125H105.101V13.1348ZM98.6338 1.89648C99.2354 1.89648 99.7708 2.07194 100.24 2.42285C100.71 2.77376 101.076 3.26823 101.341 3.90625C101.605 4.54427 101.737 5.28711 101.737 6.13477C101.737 6.98242 101.605 7.72526 101.341 8.36328C101.076 9.0013 100.71 9.49349 100.24 9.83984C99.7708 10.1862 99.2354 10.3594 98.6338 10.3594C98.0322 10.3594 97.4967 10.1862 97.0273 9.83984C96.5579 9.49349 96.1911 9.0013 95.9268 8.36328C95.6624 7.72526 95.5303 6.98242 95.5303 6.13477C95.5303 5.28711 95.6624 4.54427 95.9268 3.90625C96.1911 3.26823 96.5579 2.77376 97.0273 2.42285C97.4967 2.07194 98.0322 1.89648 98.6338 1.89648ZM98.6338 2.85352C98.2327 2.85352 97.875 2.99023 97.5605 3.26367C97.2461 3.53711 97.0023 3.91992 96.8291 4.41211C96.6559 4.9043 96.5693 5.47852 96.5693 6.13477C96.5693 6.7819 96.6559 7.35384 96.8291 7.85059C97.0023 8.34733 97.2461 8.73014 97.5605 8.99902C97.875 9.2679 98.2327 9.40234 98.6338 9.40234C99.0348 9.40234 99.3926 9.2679 99.707 8.99902C100.021 8.73014 100.265 8.34733 100.438 7.85059C100.612 7.35384 100.698 6.7819 100.698 6.13477C100.698 5.47852 100.612 4.9043 100.438 4.41211C100.265 3.91992 100.024 3.53711 99.7139 3.26367C99.404 2.99023 99.0439 2.85352 98.6338 2.85352ZM111.293 4.68555C111.293 5.51497 111.133 6.33757 110.814 7.15332C110.495 7.96908 110.069 8.69596 109.536 9.33398C109.003 9.97201 108.417 10.4505 107.779 10.7695L107.137 9.92188C107.711 9.63932 108.249 9.21777 108.75 8.65723C109.251 8.09668 109.652 7.46549 109.953 6.76367C110.254 6.06185 110.404 5.36914 110.404 4.68555V2.67578H111.293V4.68555ZM111.484 4.68555C111.484 5.35091 111.632 6.01628 111.929 6.68164C112.225 7.34701 112.626 7.93717 113.132 8.45215C113.638 8.96712 114.187 9.35677 114.779 9.62109L114.178 10.4688C113.521 10.168 112.922 9.72135 112.38 9.12891C111.838 8.53646 111.409 7.85286 111.095 7.07812C110.78 6.30339 110.623 5.50586 110.623 4.68555V2.67578H111.484V4.68555ZM114.383 3.09961H107.533V2.21094H114.383V3.09961ZM117.158 13.1074H116.078V0.953125H117.158V13.1074ZM126.509 6.58594H124.171V5.69727H126.509V6.58594ZM129.612 13.1074H128.573V0.953125H129.612V13.1074ZM127.165 12.4922H126.14V1.21289H127.165V12.4922ZM121.956 1.97852C122.485 1.97852 122.945 2.14941 123.337 2.49121C123.729 2.83301 124.034 3.32292 124.253 3.96094C124.472 4.59896 124.581 5.34635 124.581 6.20312C124.581 7.05078 124.472 7.79362 124.253 8.43164C124.034 9.06966 123.729 9.56185 123.337 9.9082C122.945 10.2546 122.485 10.4277 121.956 10.4277C121.437 10.4277 120.979 10.2546 120.582 9.9082C120.186 9.56185 119.88 9.06966 119.666 8.43164C119.452 7.79362 119.345 7.05078 119.345 6.20312C119.345 5.34635 119.452 4.59896 119.666 3.96094C119.88 3.32292 120.186 2.83301 120.582 2.49121C120.979 2.14941 121.437 1.97852 121.956 1.97852ZM121.956 2.99023C121.628 2.99023 121.343 3.12012 121.102 3.37988C120.86 3.63965 120.675 4.01107 120.548 4.49414C120.42 4.97721 120.356 5.54688 120.356 6.20312C120.356 6.85026 120.42 7.41536 120.548 7.89844C120.675 8.38151 120.862 8.75293 121.108 9.0127C121.354 9.27246 121.637 9.40234 121.956 9.40234C122.284 9.40234 122.569 9.27246 122.811 9.0127C123.052 8.75293 123.239 8.38151 123.371 7.89844C123.503 7.41536 123.569 6.85026 123.569 6.20312C123.569 5.54688 123.503 4.97721 123.371 4.49414C123.239 4.01107 123.052 3.63965 122.811 3.37988C122.569 3.12012 122.284 2.99023 121.956 2.99023ZM140.795 5.98438H137.377V5.10938H140.795V5.98438ZM135.326 4.2207C135.326 5.0957 135.178 5.95475 134.882 6.79785C134.586 7.64095 134.18 8.38835 133.665 9.04004C133.15 9.69173 132.574 10.1908 131.936 10.5371L131.238 9.67578C131.831 9.38411 132.371 8.95117 132.858 8.37695C133.346 7.80273 133.731 7.14876 134.014 6.41504C134.296 5.68132 134.437 4.94987 134.437 4.2207V2.00586H135.326V4.2207ZM135.531 4.2207C135.531 4.94076 135.672 5.65169 135.955 6.35352C136.238 7.05534 136.62 7.67741 137.103 8.21973C137.587 8.76204 138.12 9.16992 138.703 9.44336L138.061 10.3184C137.413 9.98112 136.832 9.50033 136.317 8.87598C135.802 8.25163 135.397 7.53385 135.101 6.72266C134.804 5.91146 134.656 5.07747 134.656 4.2207V2.00586H135.531V4.2207ZM141.328 13.1348H140.262V0.953125H141.328V13.1348ZM156.228 4.08398H153.07V3.19531H156.228V4.08398ZM156.857 7.24219H155.777V0.953125H156.857V7.24219ZM156.857 10.7559H150.062V12.6152H149.01V9.93555H155.791V8.71875H148.982V7.85742H156.857V10.7559ZM157.309 12.9434H149.01V12.082H157.309V12.9434ZM150.732 2.49805C150.732 3.23633 150.593 3.9222 150.315 4.55566C150.037 5.18913 149.643 5.73828 149.133 6.20312C148.622 6.66797 148.03 7.02344 147.355 7.26953L146.768 6.4082C147.378 6.20768 147.916 5.91146 148.381 5.51953C148.846 5.1276 149.21 4.67188 149.475 4.15234C149.739 3.63281 149.871 3.08138 149.871 2.49805V1.34961H150.732V2.49805ZM150.924 2.49805C150.924 3.01758 151.051 3.51888 151.307 4.00195C151.562 4.48503 151.92 4.91113 152.38 5.28027C152.84 5.64941 153.362 5.93424 153.945 6.13477L153.371 6.96875C152.724 6.73177 152.147 6.39225 151.642 5.9502C151.136 5.50814 150.741 4.99089 150.459 4.39844C150.176 3.80599 150.035 3.17253 150.035 2.49805V1.34961H150.924V2.49805ZM168.163 5.01367H165.388V4.125H168.163V5.01367ZM168.915 8.19922H167.835V0.953125H168.915V8.19922ZM164.882 8.58203C165.729 8.58203 166.459 8.6709 167.069 8.84863C167.68 9.02637 168.147 9.28385 168.471 9.62109C168.794 9.95833 168.956 10.3639 168.956 10.8379C168.956 11.3118 168.794 11.7174 168.471 12.0547C168.147 12.3919 167.68 12.6494 167.069 12.8271C166.459 13.0049 165.729 13.0983 164.882 13.1074C164.043 13.0983 163.319 13.0049 162.708 12.8271C162.097 12.6494 161.628 12.3919 161.3 12.0547C160.972 11.7174 160.808 11.3118 160.808 10.8379C160.808 10.3639 160.972 9.95833 161.3 9.62109C161.628 9.28385 162.097 9.02637 162.708 8.84863C163.319 8.6709 164.043 8.58203 164.882 8.58203ZM164.882 9.41602C164.271 9.41602 163.738 9.47298 163.282 9.58691C162.826 9.70085 162.478 9.86491 162.236 10.0791C161.995 10.2933 161.874 10.5462 161.874 10.8379C161.874 11.1204 161.995 11.3688 162.236 11.583C162.478 11.7972 162.826 11.9613 163.282 12.0752C163.738 12.1891 164.271 12.2461 164.882 12.2461C165.502 12.2461 166.037 12.1891 166.488 12.0752C166.939 11.9613 167.286 11.7972 167.527 11.583C167.769 11.3688 167.89 11.1204 167.89 10.8379C167.89 10.5462 167.769 10.2933 167.527 10.0791C167.286 9.86491 166.939 9.70085 166.488 9.58691C166.037 9.47298 165.502 9.41602 164.882 9.41602ZM162.872 3.19531C162.872 3.92448 162.726 4.61491 162.435 5.2666C162.143 5.91829 161.74 6.48796 161.225 6.97559C160.71 7.46322 160.119 7.83464 159.454 8.08984L158.894 7.22852C159.495 7.00977 160.031 6.69303 160.5 6.27832C160.969 5.86361 161.334 5.38737 161.594 4.84961C161.853 4.31185 161.983 3.76042 161.983 3.19531V2.18359H162.872V3.19531ZM163.063 3.18164C163.063 3.70117 163.189 4.20703 163.439 4.69922C163.69 5.19141 164.043 5.62663 164.499 6.00488C164.955 6.38314 165.474 6.67708 166.058 6.88672L165.497 7.74805C164.841 7.51107 164.264 7.16243 163.768 6.70215C163.271 6.24186 162.883 5.70638 162.605 5.0957C162.327 4.48503 162.188 3.84701 162.188 3.18164V2.18359H163.063V3.18164ZM165.784 2.74414H159.235V1.8418H165.784V2.74414ZM180.303 13.1074H179.236V0.953125H180.303V13.1074ZM182.34 6.85938H180.057V5.9707H182.34V6.85938ZM178.06 3.79688H170.828V2.9082H178.06V3.79688ZM174.506 4.80859C175.08 4.80859 175.593 4.92708 176.044 5.16406C176.495 5.40104 176.848 5.73145 177.103 6.15527C177.359 6.5791 177.486 7.0599 177.486 7.59766C177.486 8.13542 177.359 8.61621 177.103 9.04004C176.848 9.46387 176.495 9.79427 176.044 10.0312C175.593 10.2682 175.08 10.3867 174.506 10.3867C173.932 10.3867 173.419 10.2682 172.968 10.0312C172.517 9.79427 172.163 9.46387 171.908 9.04004C171.653 8.61621 171.525 8.13542 171.525 7.59766C171.525 7.0599 171.653 6.5791 171.908 6.15527C172.163 5.73145 172.517 5.40104 172.968 5.16406C173.419 4.92708 173.932 4.80859 174.506 4.80859ZM174.506 5.71094C174.132 5.71094 173.797 5.79069 173.501 5.9502C173.205 6.1097 172.972 6.33301 172.804 6.62012C172.635 6.90723 172.551 7.23307 172.551 7.59766C172.551 7.96224 172.635 8.28581 172.804 8.56836C172.972 8.85091 173.205 9.07194 173.501 9.23145C173.797 9.39095 174.132 9.4707 174.506 9.4707C174.879 9.4707 175.214 9.39095 175.511 9.23145C175.807 9.07194 176.039 8.85091 176.208 8.56836C176.377 8.28581 176.461 7.96224 176.461 7.59766C176.461 7.23307 176.377 6.90723 176.208 6.62012C176.039 6.33301 175.807 6.1097 175.511 5.9502C175.214 5.79069 174.879 5.71094 174.506 5.71094ZM175.025 3.31836H173.959V1.10352H175.025V3.31836ZM192.989 9.88086H191.923V0.966797H192.989V9.88086ZM193.372 12.8477H185.142V11.9453H193.372V12.8477ZM186.208 12.3828H185.142V9.06055H186.208V12.3828ZM187.069 2.86719C187.069 3.65104 186.926 4.3916 186.639 5.08887C186.352 5.78613 185.95 6.39681 185.435 6.9209C184.921 7.44499 184.33 7.84375 183.665 8.11719L183.077 7.2832C183.688 7.04622 184.228 6.70215 184.697 6.25098C185.167 5.7998 185.529 5.28027 185.784 4.69238C186.039 4.10449 186.167 3.49609 186.167 2.86719V1.65039H187.069V2.86719ZM187.261 2.86719C187.261 3.46875 187.388 4.04753 187.643 4.60352C187.899 5.15951 188.261 5.64941 188.73 6.07324C189.2 6.49707 189.731 6.81836 190.323 7.03711L189.763 7.89844C189.088 7.63411 188.496 7.25586 187.985 6.76367C187.475 6.27148 187.076 5.69043 186.789 5.02051C186.502 4.35059 186.358 3.63281 186.358 2.86719V1.65039H187.261V2.86719ZM191.814 32.0723H190.747V22.9668H191.814V32.0723ZM193.646 27.875H191.472V26.9727H193.646V27.875ZM189.585 25.332H182.339V24.457H189.585V25.332ZM185.962 26.002C186.536 26.002 187.044 26.0954 187.486 26.2822C187.928 26.4691 188.273 26.7334 188.519 27.0752C188.765 27.417 188.888 27.8158 188.888 28.2715C188.888 28.7181 188.765 29.11 188.519 29.4473C188.273 29.7845 187.928 30.0465 187.486 30.2334C187.044 30.4202 186.536 30.5137 185.962 30.5137C185.388 30.5137 184.877 30.4202 184.431 30.2334C183.984 30.0465 183.64 29.7845 183.398 29.4473C183.157 29.11 183.036 28.7181 183.036 28.2715C183.036 27.8158 183.157 27.417 183.398 27.0752C183.64 26.7334 183.984 26.4691 184.431 26.2822C184.877 26.0954 185.388 26.002 185.962 26.002ZM185.962 26.8496C185.588 26.8496 185.256 26.9066 184.964 27.0205C184.672 27.1344 184.449 27.3008 184.294 27.5195C184.139 27.7383 184.062 27.9889 184.062 28.2715C184.062 28.554 184.139 28.8001 184.294 29.0098C184.449 29.2194 184.672 29.3812 184.964 29.4951C185.256 29.609 185.588 29.666 185.962 29.666C186.336 29.666 186.668 29.609 186.96 29.4951C187.252 29.3812 187.477 29.2194 187.637 29.0098C187.796 28.8001 187.876 28.554 187.876 28.2715C187.876 27.9889 187.796 27.7383 187.637 27.5195C187.477 27.3008 187.252 27.1344 186.96 27.0205C186.668 26.9066 186.336 26.8496 185.962 26.8496ZM186.495 24.9082H185.429V22.9668H186.495V24.9082ZM192.374 34.8477H184.212V33.9453H192.374V34.8477ZM185.265 34.3145H184.212V31.3477H185.265V34.3145ZM205.196 27.1914C205.06 26.763 204.859 26.3939 204.595 26.084C204.33 25.7741 204.014 25.5348 203.645 25.3662C203.275 25.1976 202.858 25.1133 202.394 25.1133C201.801 25.1133 201.268 25.266 200.794 25.5713C200.32 25.8766 199.944 26.3255 199.666 26.918C199.388 27.5104 199.249 28.2214 199.249 29.0508C199.249 29.8802 199.388 30.5911 199.666 31.1836C199.944 31.776 200.327 32.2249 200.814 32.5303C201.302 32.8356 201.856 32.9883 202.476 32.9883C203.041 32.9883 203.537 32.8675 203.966 32.626C204.394 32.3844 204.727 32.0404 204.964 31.5938C205.201 31.1471 205.319 30.6322 205.319 30.0488L205.689 30.1172H202.735V29.0371H206.522V30.1035C206.522 30.9056 206.349 31.612 206.003 32.2227C205.657 32.8333 205.178 33.305 204.567 33.6377C203.957 33.9704 203.259 34.1367 202.476 34.1367C201.601 34.1367 200.83 33.9294 200.165 33.5146C199.5 33.0999 198.982 32.5098 198.613 31.7441C198.244 30.9785 198.06 30.0807 198.06 29.0508C198.06 28.0208 198.244 27.123 198.613 26.3574C198.982 25.5918 199.495 25.0016 200.151 24.5869C200.808 24.1722 201.555 23.9648 202.394 23.9648C203.086 23.9648 203.72 24.0993 204.294 24.3682C204.868 24.637 205.344 25.0153 205.723 25.5029C206.101 25.9906 206.349 26.5534 206.468 27.1914H205.196ZM216.693 29.0508C216.693 30.0716 216.507 30.9671 216.133 31.7373C215.759 32.5075 215.242 33.0999 214.581 33.5146C213.92 33.9294 213.166 34.1367 212.318 34.1367C211.471 34.1367 210.716 33.9294 210.056 33.5146C209.395 33.0999 208.878 32.5075 208.504 31.7373C208.13 30.9671 207.943 30.0716 207.943 29.0508C207.943 28.0208 208.13 27.123 208.504 26.3574C208.878 25.5918 209.395 25.0016 210.056 24.5869C210.716 24.1722 211.471 23.9648 212.318 23.9648C213.166 23.9648 213.92 24.1722 214.581 24.5869C215.242 25.0016 215.759 25.5918 216.133 26.3574C216.507 27.123 216.693 28.0208 216.693 29.0508ZM215.504 29.0508C215.504 28.2214 215.365 27.5104 215.087 26.918C214.809 26.3255 214.431 25.8766 213.952 25.5713C213.474 25.266 212.929 25.1133 212.318 25.1133C211.717 25.1133 211.174 25.266 210.691 25.5713C210.208 25.8766 209.828 26.3255 209.55 26.918C209.272 27.5104 209.133 28.2214 209.133 29.0508C209.133 29.8802 209.272 30.5911 209.55 31.1836C209.828 31.776 210.208 32.2249 210.691 32.5303C211.174 32.8356 211.717 32.9883 212.318 32.9883C212.929 32.9883 213.474 32.8356 213.952 32.5303C214.431 32.2249 214.809 31.776 215.087 31.1836C215.365 30.5911 215.504 29.8802 215.504 29.0508ZM217.499 24.1016H224.964V25.1953H221.86V34H220.616V25.1953H217.499V24.1016ZM232.906 27.2188C232.815 26.7721 232.635 26.3916 232.366 26.0771C232.097 25.7627 231.769 25.5234 231.382 25.3594C230.994 25.1953 230.582 25.1133 230.145 25.1133C229.543 25.1133 229.001 25.266 228.518 25.5713C228.035 25.8766 227.654 26.3255 227.376 26.918C227.098 27.5104 226.959 28.2214 226.959 29.0508C226.959 29.8802 227.098 30.5911 227.376 31.1836C227.654 31.776 228.035 32.2249 228.518 32.5303C229.001 32.8356 229.543 32.9883 230.145 32.9883C230.582 32.9883 230.992 32.9062 231.375 32.7422C231.758 32.5781 232.086 32.3389 232.359 32.0244C232.633 31.71 232.815 31.334 232.906 30.8965H234.137C234.018 31.5527 233.772 32.127 233.398 32.6191C233.025 33.1113 232.558 33.4873 231.997 33.7471C231.437 34.0068 230.819 34.1367 230.145 34.1367C229.297 34.1367 228.543 33.9294 227.882 33.5146C227.221 33.0999 226.704 32.5075 226.33 31.7373C225.956 30.9671 225.77 30.0716 225.77 29.0508C225.77 28.0208 225.956 27.123 226.33 26.3574C226.704 25.5918 227.221 25.0016 227.882 24.5869C228.543 24.1722 229.297 23.9648 230.145 23.9648C230.81 23.9648 231.425 24.0947 231.99 24.3545C232.555 24.6143 233.025 24.988 233.398 25.4756C233.772 25.9632 234.018 26.5443 234.137 27.2188H232.906ZM235.817 24.1016H237.048V28.5039H242.284V24.1016H243.528V34H242.284V29.584H237.048V34H235.817V24.1016ZM244.812 34L248.436 24.1016H249.734L253.357 34H252.059L249.119 25.7012H249.037L246.098 34H244.812ZM251.621 30.1309V31.2109H246.549V30.1309H251.621ZM258.032 23.8418C258.67 23.8418 259.235 23.9626 259.728 24.2041C260.22 24.4456 260.605 24.7829 260.883 25.2158C261.161 25.6488 261.3 26.1432 261.3 26.6992C261.3 27.2552 261.161 27.7497 260.883 28.1826C260.605 28.6156 260.22 28.9528 259.728 29.1943C259.235 29.4359 258.67 29.5566 258.032 29.5566C257.403 29.5566 256.838 29.4359 256.337 29.1943C255.836 28.9528 255.446 28.6156 255.168 28.1826C254.89 27.7497 254.751 27.2552 254.751 26.6992C254.751 26.1432 254.89 25.6488 255.168 25.2158C255.446 24.7829 255.836 24.4456 256.337 24.2041C256.838 23.9626 257.403 23.8418 258.032 23.8418ZM258.032 24.7852C257.604 24.7852 257.221 24.8649 256.884 25.0244C256.547 25.1839 256.282 25.4095 256.091 25.7012C255.899 25.9928 255.804 26.3255 255.804 26.6992C255.804 27.0729 255.899 27.4033 256.091 27.6904C256.282 27.9775 256.547 28.2031 256.884 28.3672C257.221 28.5312 257.604 28.6133 258.032 28.6133C258.461 28.6133 258.843 28.5312 259.181 28.3672C259.518 28.2031 259.78 27.9775 259.967 27.6904C260.154 27.4033 260.247 27.0729 260.247 26.6992C260.247 26.3255 260.154 25.9928 259.967 25.7012C259.78 25.4095 259.518 25.1839 259.181 25.0244C258.843 24.8649 258.461 24.7852 258.032 24.7852ZM264.021 35.1348H262.954V22.9531H264.021V35.1348ZM254.122 31.5391C255.134 31.5391 256.052 31.5299 256.877 31.5117C257.702 31.4935 258.579 31.4548 259.509 31.3955C260.438 31.3363 261.318 31.2474 262.147 31.1289L262.229 31.9219C261.373 32.0768 260.484 32.193 259.563 32.2705C258.643 32.348 257.779 32.3981 256.973 32.4209C256.166 32.4437 255.266 32.4551 254.272 32.4551L254.122 31.5391ZM279.96 35.1074H278.907V22.9531H279.96V35.1074ZM279.222 28.8184H276.843V27.9023H279.222V28.8184ZM277.157 34.4785H276.145V23.2266H277.157V34.4785ZM271.265 31.4434H270.198V24.4434H271.265V31.4434ZM270.95 31.0059C271.688 31.0059 272.402 30.9762 273.09 30.917C273.778 30.8577 274.496 30.7552 275.243 30.6094L275.38 31.5664C274.578 31.7031 273.819 31.8034 273.103 31.8672C272.388 31.931 271.67 31.9629 270.95 31.9629H270.198V31.0059H270.95ZM292.756 31.0469H281.627V30.1719H292.756V31.0469ZM287.684 35.1074H286.631V30.5547H287.684V35.1074ZM284.115 25.1406H290.24V23.459H291.32V28.6953H283.049V23.459H284.115V25.1406ZM290.24 27.8203V26.0156H284.115V27.8203H290.24ZM23.5143 48.0293H20.8756V47.1406H23.5143V48.0293ZM23.5143 50.2031H20.8756V49.3145H23.5143V50.2031ZM20.7525 46.7715H14.2994V45.8828H20.7525V46.7715ZM13.9576 50.8184C15.3157 50.8184 16.5986 50.7979 17.8063 50.7568C19.0139 50.7158 20.1282 50.6315 21.149 50.5039L21.2037 51.3242C20.1555 51.4883 19.0436 51.5954 17.8678 51.6455C16.692 51.6956 15.4342 51.7207 14.0943 51.7207L13.9576 50.8184ZM16.569 51.1055H15.5299V46.5664H16.569V51.1055ZM19.5084 51.1055H18.4693V46.5664H19.5084V51.1055ZM24.0065 52.459H22.9264V44.9531H24.0065V52.459ZM19.9733 52.7188C20.8209 52.7188 21.5501 52.8031 22.1608 52.9717C22.7714 53.1403 23.2386 53.3887 23.5621 53.7168C23.8857 54.0449 24.0475 54.4368 24.0475 54.8926C24.0475 55.3483 23.8857 55.7402 23.5621 56.0684C23.2386 56.3965 22.7714 56.6471 22.1608 56.8203C21.5501 56.9935 20.8209 57.0801 19.9733 57.0801C19.1256 57.0801 18.3964 56.9935 17.7858 56.8203C17.1751 56.6471 16.708 56.3965 16.3844 56.0684C16.0608 55.7402 15.899 55.3483 15.899 54.8926C15.899 54.4368 16.0631 54.0449 16.3912 53.7168C16.7193 53.3887 17.1887 53.1403 17.7994 52.9717C18.4101 52.8031 19.1347 52.7188 19.9733 52.7188ZM19.9733 53.5527C19.3535 53.5527 18.818 53.6051 18.3668 53.71C17.9156 53.8148 17.5693 53.9697 17.3277 54.1748C17.0862 54.3799 16.9654 54.6191 16.9654 54.8926C16.9654 55.166 17.0862 55.4053 17.3277 55.6104C17.5693 55.8154 17.9156 55.9704 18.3668 56.0752C18.818 56.18 19.3535 56.2324 19.9733 56.2324C20.593 56.2324 21.1308 56.18 21.5865 56.0752C22.0423 55.9704 22.3886 55.8154 22.6256 55.6104C22.8626 55.4053 22.9811 55.166 22.9811 54.8926C22.9811 54.61 22.8603 54.3685 22.6188 54.168C22.3772 53.9674 22.0309 53.8148 21.5797 53.71C21.1285 53.6051 20.593 53.5527 19.9733 53.5527ZM35.3941 57.1074H34.3277V44.9531H35.3941V57.1074ZM37.3629 50.8047H35.1207V49.9023H37.3629V50.8047ZM32.2496 46.2656C32.2496 47.4505 32.0559 48.5671 31.6686 49.6152C31.2812 50.6634 30.6728 51.6296 29.8434 52.5137C29.0139 53.3978 27.9566 54.1589 26.6715 54.7969L26.0699 53.9492C27.2001 53.3841 28.1458 52.7233 28.9068 51.9668C29.6679 51.2103 30.2398 50.3695 30.6227 49.4443C31.0055 48.5192 31.1969 47.5189 31.1969 46.4434V46.2656H32.2496ZM31.7438 47.168H26.6305V46.2656H31.7438V47.168ZM45.6598 48.2207C45.6598 49.123 45.5048 50.0003 45.1949 50.8525C44.885 51.7048 44.4635 52.4544 43.9303 53.1016C43.3971 53.7487 42.7978 54.2409 42.1324 54.5781L41.4488 53.6758C42.0504 53.3932 42.6041 52.9694 43.1099 52.4043C43.6158 51.8392 44.0191 51.1875 44.3199 50.4492C44.6207 49.7109 44.7711 48.9681 44.7711 48.2207V46.0059H45.6598V48.2207ZM45.8375 48.2207C45.8375 48.9408 45.9856 49.654 46.2818 50.3604C46.578 51.0667 46.9791 51.6956 47.4849 52.2471C47.9908 52.7985 48.54 53.2109 49.1324 53.4844L48.4762 54.332C47.829 54.013 47.2343 53.5413 46.692 52.917C46.1497 52.2926 45.7213 51.5703 45.4068 50.75C45.0924 49.9297 44.9351 49.0866 44.9351 48.2207V46.0059H45.8375V48.2207ZM51.5387 57.1348H50.4586V44.9531H51.5387V57.1348ZM59.4537 46.7441C59.4537 47.5827 59.2167 48.3665 58.7428 49.0957C58.2688 49.8249 57.6558 50.4401 56.9039 50.9414C56.1519 51.4427 55.3612 51.7891 54.5318 51.9805L54.0396 51.0781C54.7597 50.9323 55.4661 50.6475 56.1588 50.2236C56.8515 49.7998 57.4166 49.2803 57.8541 48.665C58.2916 48.0498 58.5103 47.4095 58.5103 46.7441V45.8145H59.4537V46.7441ZM59.6314 46.7441C59.6314 47.4004 59.8547 48.0384 60.3013 48.6582C60.748 49.278 61.3199 49.8021 62.0172 50.2305C62.7144 50.6589 63.4185 50.9414 64.1295 51.0781L63.6373 51.9805C62.817 51.7891 62.0308 51.445 61.2789 50.9482C60.5269 50.4515 59.9117 49.8363 59.4332 49.1025C58.9547 48.3688 58.7154 47.5827 58.7154 46.7441V45.8145H59.6314V46.7441ZM64.7037 55.4531H53.5748V54.5645H64.7037V55.4531ZM73.0152 48.9043H70.9097V48.0156H73.0152V48.9043ZM66.9722 50.6543C67.984 50.6543 68.8088 50.6315 69.4468 50.5859C70.0849 50.5404 70.732 50.4583 71.3883 50.3398L71.4976 51.2012C70.814 51.3288 70.1418 51.4154 69.481 51.4609C68.8202 51.5065 67.984 51.5293 66.9722 51.5293H66.2066V50.6543H66.9722ZM70.8414 46.6484H67.232V51.1602H66.2066V45.7461H70.8414V46.6484ZM70.3355 49H66.9039V48.1523H70.3355V49ZM75.9547 52.2812H74.9293V44.9531H75.9547V52.2812ZM73.5894 52.1719H72.5504V45.1719H73.5894V52.1719ZM75.9547 56.9434H67.9293V52.8418H75.9547V56.9434ZM68.982 56.0684H74.9019V53.7168H68.982V56.0684ZM83.2271 45.1719C84.1295 45.1719 84.9019 45.2516 85.5445 45.4111C86.1871 45.5706 86.677 45.8076 87.0142 46.1221C87.3515 46.4365 87.5201 46.8171 87.5201 47.2637C87.5201 47.7194 87.3515 48.1045 87.0142 48.4189C86.677 48.7334 86.1871 48.9727 85.5445 49.1367C84.9019 49.3008 84.1295 49.3874 83.2271 49.3965C82.3248 49.3874 81.5523 49.3008 80.9097 49.1367C80.2672 48.9727 79.775 48.7334 79.4332 48.4189C79.0914 48.1045 78.9205 47.7194 78.9205 47.2637C78.9205 46.8171 79.0914 46.4365 79.4332 46.1221C79.775 45.8076 80.2672 45.5706 80.9097 45.4111C81.5523 45.2516 82.3248 45.1719 83.2271 45.1719ZM83.2271 45.9785C82.5617 45.9785 81.9898 46.0286 81.5113 46.1289C81.0328 46.2292 80.6682 46.3773 80.4175 46.5732C80.1669 46.7692 80.0416 46.9993 80.0416 47.2637C80.0416 47.5462 80.1646 47.7855 80.4107 47.9814C80.6568 48.1774 81.0191 48.3255 81.4976 48.4258C81.9761 48.526 82.5526 48.5762 83.2271 48.5762C83.9016 48.5762 84.4781 48.526 84.9566 48.4258C85.4351 48.3255 85.7997 48.1751 86.0504 47.9746C86.301 47.7741 86.4263 47.5371 86.4263 47.2637C86.4263 46.9993 86.2987 46.7715 86.0435 46.5801C85.7883 46.3887 85.4214 46.2406 84.9429 46.1357C84.4644 46.0309 83.8925 45.9785 83.2271 45.9785ZM88.7642 51.0918H77.69V50.2168H88.7642V51.0918ZM87.3423 54.8652H80.1236V56.3418H79.0572V54.0723H86.2896V52.9648H79.0298V52.1445H87.3423V54.8652ZM87.7115 56.9707H79.0572V56.123H87.7115V56.9707ZM104.294 52.2812H93.2056V51.4062H104.294V52.2812ZM99.2759 51.7754H98.2095V49.8066H99.2759V51.7754ZM102.981 50.2031H94.6822V49.3418H102.981V50.2031ZM102.913 46.1836H95.7623V49.793H94.6822V45.3086H102.913V46.1836ZM102.585 48.1387H95.4341V47.3184H102.585V48.1387ZM98.7564 53.1973C99.6496 53.1882 100.406 53.2588 101.026 53.4092C101.646 53.5596 102.12 53.7806 102.448 54.0723C102.776 54.3639 102.94 54.7194 102.94 55.1387C102.94 55.5579 102.776 55.9111 102.448 56.1982C102.12 56.4854 101.646 56.7041 101.026 56.8545C100.406 57.0049 99.6496 57.0801 98.7564 57.0801C97.8632 57.0801 97.1021 57.0049 96.4732 56.8545C95.8443 56.7041 95.368 56.4854 95.0445 56.1982C94.7209 55.9111 94.5591 55.5579 94.5591 55.1387C94.5591 54.7103 94.7232 54.3525 95.0513 54.0654C95.3794 53.7783 95.8557 53.5596 96.48 53.4092C97.1044 53.2588 97.8632 53.1882 98.7564 53.1973ZM98.7564 54.0039C98.091 54.0039 97.5259 54.0472 97.0611 54.1338C96.5962 54.2204 96.243 54.348 96.0015 54.5166C95.76 54.6852 95.6392 54.8926 95.6392 55.1387C95.6392 55.3848 95.7577 55.5898 95.9947 55.7539C96.2317 55.918 96.5848 56.041 97.0542 56.123C97.5236 56.2051 98.091 56.2461 98.7564 56.2461C99.4218 56.2461 99.9846 56.2051 100.445 56.123C100.905 56.041 101.256 55.918 101.498 55.7539C101.739 55.5898 101.86 55.3848 101.86 55.1387C101.86 54.8926 101.739 54.6852 101.498 54.5166C101.256 54.348 100.903 54.2204 100.438 54.1338C99.9732 54.0472 99.4126 54.0039 98.7564 54.0039ZM111.347 47.9336H105.25V47.0586H111.347V47.9336ZM108.298 48.7539C108.809 48.7539 109.262 48.8701 109.659 49.1025C110.055 49.335 110.367 49.6608 110.595 50.0801C110.823 50.4993 110.937 50.9779 110.937 51.5156C110.937 52.0534 110.823 52.5319 110.595 52.9512C110.367 53.3704 110.055 53.7008 109.659 53.9424C109.262 54.1839 108.809 54.3047 108.298 54.3047C107.797 54.3047 107.348 54.1839 106.952 53.9424C106.555 53.7008 106.245 53.3682 106.022 52.9443C105.799 52.5205 105.687 52.0443 105.687 51.5156C105.687 50.987 105.799 50.5107 106.022 50.0869C106.245 49.6631 106.555 49.335 106.952 49.1025C107.348 48.8701 107.797 48.7539 108.298 48.7539ZM108.298 49.6562C107.988 49.6562 107.706 49.7383 107.451 49.9023C107.196 50.0664 106.997 50.2874 106.856 50.5654C106.715 50.8434 106.644 51.1602 106.644 51.5156C106.644 51.8711 106.717 52.1901 106.863 52.4727C107.009 52.7552 107.207 52.974 107.458 53.1289C107.708 53.2839 107.988 53.3613 108.298 53.3613C108.617 53.3613 108.904 53.2839 109.16 53.1289C109.415 52.974 109.615 52.7552 109.761 52.4727C109.907 52.1901 109.98 51.8711 109.98 51.5156C109.98 51.1602 109.907 50.8434 109.761 50.5654C109.615 50.2874 109.415 50.0664 109.16 49.9023C108.904 49.7383 108.617 49.6562 108.298 49.6562ZM115.627 57.1074H114.601V44.9531H115.627V57.1074ZM114.943 50.9688H112.619V50.0801H114.943V50.9688ZM112.988 56.5059H111.976V45.2539H112.988V56.5059ZM108.845 47.5918H107.779V45.3223H108.845V47.5918ZM131.88 52.1445H120.806V51.2559H131.88V52.1445ZM126.863 51.6523H125.81V49.7383H126.863V51.6523ZM126.863 46.6211H125.81V44.9258H126.863V46.6211ZM126.699 46.9082C126.699 47.5462 126.478 48.1068 126.036 48.5898C125.594 49.0729 125.003 49.4603 124.265 49.752C123.527 50.0436 122.702 50.2396 121.791 50.3398L121.449 49.5059C122.242 49.4329 122.966 49.278 123.623 49.041C124.279 48.804 124.798 48.5033 125.181 48.1387C125.564 47.7741 125.755 47.3639 125.755 46.9082V46.7031H126.699V46.9082ZM126.931 46.9082C126.931 47.3639 127.123 47.7741 127.505 48.1387C127.888 48.5033 128.405 48.804 129.057 49.041C129.709 49.278 130.431 49.4329 131.224 49.5059L130.896 50.3398C129.994 50.2396 129.171 50.0436 128.428 49.752C127.685 49.4603 127.093 49.0729 126.651 48.5898C126.209 48.1068 125.988 47.5462 125.988 46.9082V46.7031H126.931V46.9082ZM130.759 47.0176H121.955V46.1426H130.759V47.0176ZM126.343 53.0605C127.227 53.0605 127.979 53.138 128.599 53.293C129.219 53.4479 129.695 53.6758 130.028 53.9766C130.361 54.2773 130.527 54.6419 130.527 55.0703C130.527 55.4987 130.363 55.8633 130.035 56.1641C129.707 56.4648 129.23 56.6927 128.606 56.8477C127.982 57.0026 127.227 57.0801 126.343 57.0801C125.468 57.0801 124.716 57.0026 124.087 56.8477C123.459 56.6927 122.978 56.4648 122.645 56.1641C122.312 55.8633 122.146 55.4987 122.146 55.0703C122.146 54.6419 122.312 54.2773 122.645 53.9766C122.978 53.6758 123.459 53.4479 124.087 53.293C124.716 53.138 125.468 53.0605 126.343 53.0605ZM126.343 53.8672C125.696 53.8672 125.138 53.9128 124.668 54.0039C124.199 54.0951 123.844 54.2318 123.602 54.4141C123.361 54.5964 123.24 54.8151 123.24 55.0703C123.24 55.3255 123.361 55.5397 123.602 55.7129C123.844 55.8861 124.197 56.0182 124.662 56.1094C125.126 56.2005 125.687 56.2461 126.343 56.2461C126.99 56.2461 127.546 56.2005 128.011 56.1094C128.476 56.0182 128.832 55.8861 129.078 55.7129C129.324 55.5397 129.447 55.3255 129.447 55.0703C129.447 54.8151 129.324 54.5964 129.078 54.4141C128.832 54.2318 128.476 54.0951 128.011 54.0039C127.546 53.9128 126.99 53.8672 126.343 53.8672ZM142.161 48.9043H139.399V48.002H142.161V48.9043ZM142.94 52.0762H141.86V44.9531H142.94V52.0762ZM142.94 56.9434H134.997V52.6777H142.94V56.9434ZM136.063 56.0684H141.887V53.5391H136.063V56.0684ZM136.897 47.1133C136.897 47.8424 136.751 48.5283 136.459 49.1709C136.168 49.8135 135.765 50.3763 135.25 50.8594C134.735 51.3424 134.144 51.707 133.479 51.9531L132.918 51.1055C133.511 50.8867 134.042 50.5745 134.511 50.1689C134.981 49.7633 135.348 49.2939 135.612 48.7607C135.876 48.2275 136.008 47.6784 136.008 47.1133V46.1152H136.897V47.1133ZM137.088 47.1133C137.088 47.6328 137.214 48.1387 137.464 48.6309C137.715 49.123 138.068 49.5605 138.524 49.9434C138.98 50.3262 139.499 50.6224 140.083 50.832L139.522 51.6797C138.866 51.4427 138.289 51.0941 137.792 50.6338C137.296 50.1735 136.908 49.638 136.63 49.0273C136.352 48.4167 136.213 47.7786 136.213 47.1133V46.1152H137.088V47.1133ZM139.809 46.6348H133.26V45.7461H139.809V46.6348ZM151.033 47.1816H145.482V46.3066H151.033V47.1816ZM148.476 53.8945H147.423V49.7793H148.476V53.8945ZM151.662 46.9355C151.653 47.5098 151.643 47.986 151.634 48.3643C151.625 48.7425 151.596 49.2301 151.545 49.8271C151.495 50.4242 151.416 51.069 151.306 51.7617L150.226 51.666C150.381 50.6999 150.479 49.8545 150.52 49.1299C150.561 48.4053 150.582 47.6738 150.582 46.9355V46.3066H151.662V46.9355ZM154.3 57.1074H153.234V44.9531H154.3V57.1074ZM156.269 50.9688H154.013V50.0391H156.269V50.9688ZM144.798 53.5391C146.275 53.5299 147.644 53.5003 148.907 53.4502C150.169 53.4001 151.356 53.3112 152.468 53.1836L152.523 53.9902C151.375 54.1634 150.158 54.2819 148.873 54.3457C147.587 54.4095 146.275 54.4368 144.935 54.4277L144.798 53.5391ZM170.472 51.2695H169.419V44.9531H170.472V51.2695ZM170.486 54.7559H163.664V56.5059H162.611V53.9492H169.419V52.7051H162.583V51.8574H170.486V54.7559ZM170.923 56.9707H162.611V56.1094H170.923V56.9707ZM164.621 46.6758C164.621 47.3776 164.475 48.0361 164.183 48.6514C163.891 49.2666 163.481 49.8021 162.953 50.2578C162.424 50.7135 161.818 51.0553 161.134 51.2832L160.628 50.4355C161.239 50.235 161.779 49.9434 162.249 49.5605C162.718 49.1777 163.085 48.738 163.349 48.2412C163.613 47.7445 163.746 47.2227 163.746 46.6758V46.0195H164.621V46.6758ZM164.826 46.6758C164.826 47.1953 164.958 47.6898 165.222 48.1592C165.486 48.6286 165.856 49.0387 166.33 49.3896C166.804 49.7406 167.346 50.0072 167.957 50.1895L167.423 51.0234C166.749 50.8047 166.15 50.4834 165.625 50.0596C165.101 49.6357 164.694 49.1322 164.402 48.5488C164.11 47.9655 163.964 47.3411 163.964 46.6758V46.0195H164.826V46.6758ZM167.628 46.5391H160.902V45.6504H167.628V46.5391ZM183.624 52.0625H172.495V51.1738H183.624V52.0625ZM178.674 54.5508H177.608V51.7207H178.674V54.5508ZM182.174 49.7793H173.944V45.5547H182.174V49.7793ZM174.997 48.918H181.108V46.4023H174.997V48.918ZM182.379 56.8477H173.916V55.9453H182.379V56.8477ZM174.997 56.2598H173.916V53.3477H174.997V56.2598ZM197.321 47.5371H193.821V46.7031H197.321V47.5371ZM197.321 49.752H193.821V48.9043H197.321V49.752ZM198.1 51.3105H197.034V44.9531H198.1V51.3105ZM198.1 54.7559H191.319V56.6699H190.252V53.9355H197.034V52.7598H190.225V51.8984H198.1V54.7559ZM198.565 56.9434H190.252V56.082H198.565V56.9434ZM189.719 47.2773H193.11V45.5273H194.163V50.8184H188.653V45.5273H189.719V47.2773ZM193.11 49.9434V48.125H189.719V49.9434H193.11ZM212.864 48.9043H210.102V48.002H212.864V48.9043ZM213.643 52.0762H212.563V44.9531H213.643V52.0762ZM213.643 56.9434H205.7V52.6777H213.643V56.9434ZM206.766 56.0684H212.59V53.5391H206.766V56.0684ZM207.6 47.1133C207.6 47.8424 207.454 48.5283 207.163 49.1709C206.871 49.8135 206.468 50.3763 205.953 50.8594C205.438 51.3424 204.847 51.707 204.182 51.9531L203.622 51.1055C204.214 50.8867 204.745 50.5745 205.214 50.1689C205.684 49.7633 206.051 49.2939 206.315 48.7607C206.579 48.2275 206.711 47.6784 206.711 47.1133V46.1152H207.6V47.1133ZM207.791 47.1133C207.791 47.6328 207.917 48.1387 208.167 48.6309C208.418 49.123 208.771 49.5605 209.227 49.9434C209.683 50.3262 210.202 50.6224 210.786 50.832L210.225 51.6797C209.569 51.4427 208.992 51.0941 208.496 50.6338C207.999 50.1735 207.611 49.638 207.333 49.0273C207.055 48.4167 206.916 47.7786 206.916 47.1133V46.1152H207.791V47.1133ZM210.512 46.6348H203.963V45.7461H210.512V46.6348ZM221.558 46.0879C221.558 46.8262 221.328 47.5029 220.868 48.1182C220.407 48.7334 219.799 49.2415 219.042 49.6426C218.286 50.0436 217.484 50.3171 216.636 50.4629L216.199 49.5879C216.937 49.4876 217.646 49.2666 218.325 48.9248C219.004 48.583 219.555 48.1637 219.979 47.667C220.403 47.1702 220.615 46.6439 220.615 46.0879V45.3906H221.558V46.0879ZM221.722 46.0879C221.722 46.6348 221.936 47.1589 222.365 47.6602C222.793 48.1615 223.349 48.583 224.033 48.9248C224.716 49.2666 225.423 49.4876 226.152 49.5879L225.714 50.4629C224.867 50.3171 224.067 50.0413 223.315 49.6357C222.563 49.2301 221.955 48.7197 221.49 48.1045C221.025 47.4893 220.792 46.8171 220.792 46.0879V45.3906H221.722V46.0879ZM221.667 57.1074H220.615V52.4727H221.667V57.1074ZM226.699 52.7051H215.624V51.8027H226.699V52.7051ZM237.088 57.1074H236.022V44.9531H237.088V57.1074ZM239.057 50.8047H236.815V49.9023H239.057V50.8047ZM233.944 46.2656C233.944 47.4505 233.75 48.5671 233.363 49.6152C232.975 50.6634 232.367 51.6296 231.538 52.5137C230.708 53.3978 229.651 54.1589 228.366 54.7969L227.764 53.9492C228.894 53.3841 229.84 52.7233 230.601 51.9668C231.362 51.2103 231.934 50.3695 232.317 49.4443C232.7 48.5192 232.891 47.5189 232.891 46.4434V46.2656H233.944ZM233.438 47.168H228.325V46.2656H233.438V47.168ZM247.135 47.209C247.135 47.9837 246.996 48.7061 246.718 49.376C246.44 50.0459 246.046 50.627 245.536 51.1191C245.025 51.6113 244.433 51.9896 243.758 52.2539L243.17 51.3926C243.781 51.1738 244.319 50.8548 244.784 50.4355C245.248 50.0163 245.608 49.5286 245.864 48.9727C246.119 48.4167 246.247 47.8288 246.247 47.209V45.7051H247.135V47.209ZM247.299 47.25C247.299 47.7969 247.427 48.3255 247.682 48.8359C247.937 49.3464 248.297 49.7975 248.762 50.1895C249.227 50.5814 249.756 50.8822 250.348 51.0918L249.801 51.9531C249.136 51.707 248.55 51.3516 248.044 50.8867C247.538 50.4219 247.144 49.875 246.862 49.2461C246.579 48.6172 246.438 47.9518 246.438 47.25V45.7051H247.299V47.25ZM252.713 53.9355H251.647V44.9531H252.713V53.9355ZM254.545 49.6016H252.372V48.6855H254.545V49.6016ZM253.274 56.8477H245.125V55.9453H253.274V56.8477ZM246.219 56.3828H245.125V53.0742H246.219V56.3828ZM261.326 52.8418H260.273V50.9961H261.326V52.8418ZM266.343 51.2012H255.283V50.3672H266.343V51.2012ZM261.326 46.3613H260.273V44.8848H261.326V46.3613ZM261.162 46.6484C261.162 47.2591 260.938 47.79 260.492 48.2412C260.045 48.6924 259.448 49.0456 258.701 49.3008C257.953 49.556 257.115 49.7246 256.185 49.8066L255.871 48.9863C256.673 48.9316 257.404 48.804 258.065 48.6035C258.726 48.403 259.25 48.1341 259.637 47.7969C260.024 47.4596 260.218 47.0768 260.218 46.6484V46.4707H261.162V46.6484ZM261.394 46.6484C261.394 47.0768 261.588 47.4596 261.975 47.7969C262.362 48.1341 262.886 48.403 263.547 48.6035C264.208 48.804 264.94 48.9316 265.742 48.9863L265.413 49.8066C264.493 49.7246 263.659 49.556 262.912 49.3008C262.164 49.0456 261.567 48.6924 261.121 48.2412C260.674 47.79 260.451 47.2591 260.451 46.6484V46.4707H261.394V46.6484ZM265.222 46.8672H256.417V46.0195H265.222V46.8672ZM264.921 54.9609H257.703V56.4512H256.636V54.1953H263.869V53.1426H256.609V52.3359H264.921V54.9609ZM265.29 56.9707H256.636V56.1504H265.29V56.9707ZM271.934 51.0918H270.854V49.082H271.934V51.0918ZM277.362 51.9531H276.282V44.9668H277.362V51.9531ZM267.368 50.7637C268.881 50.7637 270.289 50.7386 271.592 50.6885C272.896 50.6383 274.121 50.5358 275.27 50.3809L275.338 51.1602C274.518 51.2969 273.654 51.4017 272.747 51.4746C271.841 51.5475 270.975 51.5954 270.15 51.6182C269.325 51.641 268.452 51.6523 267.532 51.6523L267.368 50.7637ZM274.354 49.4102H268.475V48.5488H274.354V49.4102ZM274.245 46.457H269.555V48.877H268.475V45.5684H274.245V46.457ZM270.416 53.7988H276.309V52.5H277.362V56.9434H269.35V52.5H270.416V53.7988ZM276.309 56.0684V54.6328H270.416V56.0684H276.309ZM289.406 57.1074H288.339V44.9531H289.406V57.1074ZM281.23 53.6758H280.177V46.1562H281.23V53.6758ZM281.161 53.0469C282.155 53.0469 283.137 53.0013 284.108 52.9102C285.078 52.819 286.056 52.6686 287.04 52.459L287.191 53.375C286.161 53.5846 285.156 53.7373 284.176 53.833C283.196 53.9287 282.191 53.9766 281.161 53.9766H280.177V53.0469H281.161ZM300.848 57.1348H299.782V44.9531H300.848V57.1348ZM302.885 50.668H300.602V49.7656H302.885V50.668ZM292.932 53.1836C294.108 53.1836 295.126 53.1517 295.988 53.0879C296.849 53.0241 297.722 52.9102 298.606 52.7461L298.743 53.6758C297.849 53.8398 296.97 53.9492 296.104 54.0039C295.238 54.0586 294.181 54.0859 292.932 54.0859H291.975V53.1836H292.932ZM297.649 47.0312H293.041V53.5938H291.975V46.1426H297.649V47.0312ZM304.785 56.082C304.63 56.082 304.484 56.041 304.347 55.959C304.21 55.877 304.103 55.7676 304.026 55.6309C303.948 55.4941 303.91 55.3483 303.91 55.1934C303.91 55.0384 303.948 54.8926 304.026 54.7559C304.103 54.6191 304.21 54.512 304.347 54.4346C304.484 54.3571 304.63 54.3184 304.785 54.3184C304.939 54.3184 305.085 54.3571 305.222 54.4346C305.359 54.512 305.466 54.6191 305.543 54.7559C305.621 54.8926 305.66 55.0384 305.66 55.1934C305.66 55.3483 305.621 55.4941 305.543 55.6309C305.466 55.7676 305.359 55.877 305.222 55.959C305.085 56.041 304.939 56.082 304.785 56.082Z" fill="#666666"/>
<path d="M208.676 7.22168H207.165V0.857422H208.676V7.22168ZM208.689 10.9336H202.004V12.4033H200.52V9.83301H207.172V8.91016H200.493V7.74805H208.689V10.9336ZM209.059 13.1074H200.52V11.9248H209.059V13.1074ZM202.79 2.55957C202.79 3.28874 202.651 3.97233 202.373 4.61035C202.095 5.24382 201.685 5.79753 201.143 6.27148C200.6 6.74544 199.953 7.09408 199.201 7.31738L198.504 6.12109C199.151 5.92513 199.702 5.64486 200.158 5.28027C200.618 4.91113 200.965 4.49186 201.197 4.02246C201.434 3.55306 201.553 3.06543 201.553 2.55957V1.99219H202.79V2.55957ZM203.091 2.55957C203.091 3.03809 203.207 3.49837 203.439 3.94043C203.672 4.38249 204.016 4.77214 204.472 5.10938C204.927 5.44661 205.479 5.7041 206.126 5.88184L205.394 7.06445C204.656 6.8457 204.02 6.5153 203.487 6.07324C202.959 5.63118 202.558 5.1071 202.284 4.50098C202.015 3.89486 201.881 3.24772 201.881 2.55957V1.99219H203.091V2.55957ZM205.695 2.69629H198.893V1.47266H205.695V2.69629ZM221.787 8.26074H210.494V7.03711H221.787V8.26074ZM217.016 10.5166H215.512V7.7959H217.016V10.5166ZM220.338 5.88867H211.923V1.4248H220.338V5.88867ZM213.406 4.69922H218.834V2.60742H213.406V4.69922ZM220.536 12.9844H211.854V11.7402H220.536V12.9844ZM213.379 12.1572H211.854V9.39551H213.379V12.1572ZM235.131 3.64648H231.897V2.50488H235.131V3.64648ZM235.131 5.89551H231.897V4.7334H235.131V5.89551ZM236.279 7.24902H234.768V0.857422H236.279V7.24902ZM236.279 10.9199H229.676V12.6357H228.151V9.79883H234.768V8.9375H228.131V7.75488H236.279V10.9199ZM236.683 13.0596H228.151V11.8633H236.683V13.0596ZM228.021 2.96289H230.783V1.4043H232.28V6.85254H226.497V1.4043H228.021V2.96289ZM230.783 5.64258V4.11816H228.021V5.64258H230.783ZM247.743 9.21777H246.246V7.03711H247.743V9.21777ZM252.631 7.74805H241.379V6.52441H252.631V7.74805ZM246.991 8.78027C247.884 8.78027 248.65 8.86686 249.288 9.04004C249.931 9.20866 250.42 9.45931 250.758 9.79199C251.1 10.1247 251.27 10.5257 251.27 10.9951C251.27 11.46 251.1 11.8564 250.758 12.1846C250.42 12.5127 249.931 12.7633 249.288 12.9365C248.65 13.1097 247.884 13.1963 246.991 13.1963C246.093 13.1963 245.323 13.1097 244.681 12.9365C244.038 12.7633 243.544 12.5127 243.197 12.1846C242.855 11.8564 242.684 11.46 242.684 10.9951C242.684 10.5257 242.855 10.1247 243.197 9.79199C243.539 9.45931 244.031 9.20866 244.674 9.04004C245.321 8.86686 246.093 8.78027 246.991 8.78027ZM246.991 9.93555C246.39 9.93555 245.884 9.97656 245.474 10.0586C245.068 10.1406 244.76 10.2591 244.551 10.4141C244.341 10.569 244.236 10.7627 244.236 10.9951C244.236 11.2139 244.341 11.403 244.551 11.5625C244.76 11.7174 245.07 11.8382 245.48 11.9248C245.891 12.0068 246.394 12.0479 246.991 12.0479C247.579 12.0479 248.08 12.0068 248.495 11.9248C248.91 11.8382 249.222 11.7174 249.432 11.5625C249.641 11.403 249.746 11.2139 249.746 10.9951C249.746 10.7627 249.641 10.569 249.432 10.4141C249.222 10.2591 248.912 10.1406 248.502 10.0586C248.092 9.97656 247.588 9.93555 246.991 9.93555ZM247.312 2.30664C247.312 2.93555 247.112 3.50977 246.711 4.0293C246.314 4.54427 245.747 4.97038 245.009 5.30762C244.275 5.64486 243.416 5.86361 242.432 5.96387L241.919 4.76758C242.735 4.68555 243.448 4.52376 244.059 4.28223C244.674 4.04069 245.145 3.74674 245.474 3.40039C245.802 3.04948 245.966 2.6849 245.966 2.30664V1.96484H247.312V2.30664ZM248.023 2.30664C248.023 2.6849 248.185 3.04948 248.509 3.40039C248.837 3.74674 249.311 4.04069 249.931 4.28223C250.55 4.52376 251.275 4.68555 252.104 4.76758L251.564 5.96387C250.594 5.86361 249.737 5.64486 248.994 5.30762C248.251 4.97038 247.677 4.54427 247.271 4.0293C246.866 3.50977 246.663 2.93555 246.663 2.30664V1.96484H248.023V2.30664ZM251.619 2.61426H242.397V1.4043H251.619V2.61426ZM257.587 10.7148H256.09V7.17383H257.587V10.7148ZM262.16 10.7148H260.629V7.17383H262.16V10.7148ZM264.771 11.7197H253.478V10.4688H264.771V11.7197ZM259.104 1.52051C259.989 1.52051 260.777 1.65723 261.47 1.93066C262.167 2.19954 262.714 2.58236 263.11 3.0791C263.507 3.57585 263.705 4.14551 263.705 4.78809C263.705 5.43522 263.507 6.00488 263.11 6.49707C262.718 6.98926 262.174 7.36979 261.477 7.63867C260.784 7.90755 259.993 8.04427 259.104 8.04883C258.216 8.04427 257.423 7.90755 256.726 7.63867C256.033 7.36979 255.488 6.98926 255.092 6.49707C254.7 6.00488 254.504 5.43522 254.504 4.78809C254.504 4.14551 254.7 3.57585 255.092 3.0791C255.488 2.58236 256.035 2.19954 256.732 1.93066C257.43 1.65723 258.22 1.52051 259.104 1.52051ZM259.104 2.7373C258.489 2.73275 257.947 2.8125 257.477 2.97656C257.013 3.14062 256.648 3.3776 256.384 3.6875C256.124 3.9974 255.994 4.36426 255.994 4.78809C255.994 5.20736 256.124 5.57422 256.384 5.88867C256.648 6.19857 257.013 6.4401 257.477 6.61328C257.947 6.7819 258.489 6.86621 259.104 6.86621C259.711 6.86621 260.248 6.7819 260.718 6.61328C261.187 6.4401 261.552 6.19857 261.811 5.88867C262.076 5.57422 262.208 5.20736 262.208 4.78809C262.208 4.36426 262.076 3.99967 261.811 3.69434C261.552 3.38444 261.187 3.14746 260.718 2.9834C260.253 2.81478 259.715 2.73275 259.104 2.7373ZM275.606 7.68652H266.938V6.47656H275.606V7.68652ZM276.871 11.7539H265.578V10.5029H276.871V11.7539ZM271.942 10.9336H270.445V7.02344H271.942V10.9336ZM275.504 2.99707H268.463V7.03027H266.938V1.78027H275.504V2.99707ZM282.142 10.0244H280.624V7.10547H282.142V10.0244ZM281.362 1.61621C281.996 1.61621 282.565 1.74382 283.071 1.99902C283.582 2.24967 283.983 2.60286 284.274 3.05859C284.571 3.50977 284.719 4.02474 284.719 4.60352C284.719 5.18229 284.571 5.69727 284.274 6.14844C283.983 6.59505 283.582 6.94596 283.071 7.20117C282.565 7.45638 281.996 7.58398 281.362 7.58398C280.72 7.58398 280.143 7.45638 279.633 7.20117C279.122 6.94596 278.724 6.59505 278.436 6.14844C278.149 5.69727 278.006 5.18229 278.006 4.60352C278.006 4.02474 278.149 3.50977 278.436 3.05859C278.724 2.60286 279.122 2.24967 279.633 1.99902C280.143 1.74382 280.72 1.61621 281.362 1.61621ZM281.362 2.91504C281.002 2.91504 280.681 2.9834 280.398 3.12012C280.116 3.25684 279.893 3.45508 279.728 3.71484C279.569 3.97005 279.489 4.26628 279.489 4.60352C279.489 4.94076 279.569 5.23698 279.728 5.49219C279.893 5.7474 280.116 5.94564 280.398 6.08691C280.685 6.22363 281.007 6.29199 281.362 6.29199C281.718 6.29199 282.034 6.22363 282.312 6.08691C282.595 5.94564 282.816 5.7474 282.976 5.49219C283.14 5.23698 283.222 4.94076 283.222 4.60352C283.222 4.26628 283.14 3.97005 282.976 3.71484C282.816 3.45964 282.597 3.26367 282.319 3.12695C282.041 2.98568 281.722 2.91504 281.362 2.91504ZM287.392 13.2031H285.874V0.857422H287.392V13.2031ZM289.183 7.07812H286.94V5.78613H289.183V7.07812ZM277.527 9.42285C278.644 9.41829 279.567 9.40918 280.296 9.39551C281.03 9.38184 281.834 9.35221 282.709 9.30664C283.584 9.25651 284.404 9.17904 285.17 9.07422L285.272 10.2021C284.475 10.348 283.641 10.4574 282.77 10.5303C281.9 10.5986 281.071 10.6396 280.282 10.6533C279.494 10.6624 278.646 10.667 277.739 10.667L277.527 9.42285ZM302.854 8.30859H301.337V0.857422H302.854V8.30859ZM304.584 5.25977H302.424V3.98828H304.584V5.25977ZM302.854 13.0596H294.877V8.90332H302.854V13.0596ZM296.381 11.8359H301.351V10.0996H296.381V11.8359ZM300.448 3.26367H293.113V2.04688H300.448V3.26367ZM296.784 3.70801C297.381 3.70801 297.905 3.80143 298.356 3.98828C298.812 4.17057 299.168 4.43034 299.423 4.76758C299.678 5.10482 299.806 5.48991 299.806 5.92285C299.806 6.36491 299.678 6.75456 299.423 7.0918C299.168 7.42904 298.812 7.69108 298.356 7.87793C297.905 8.06022 297.381 8.15137 296.784 8.15137C296.187 8.15137 295.658 8.06022 295.198 7.87793C294.742 7.69108 294.387 7.42904 294.132 7.0918C293.881 6.75456 293.756 6.36491 293.756 5.92285C293.756 5.48991 293.881 5.10482 294.132 4.76758C294.387 4.43034 294.742 4.17057 295.198 3.98828C295.658 3.80143 296.187 3.70801 296.784 3.70801ZM296.784 4.86328C296.474 4.86328 296.201 4.90658 295.964 4.99316C295.727 5.0752 295.545 5.19596 295.417 5.35547C295.289 5.51497 295.226 5.7041 295.226 5.92285C295.226 6.15072 295.289 6.34668 295.417 6.51074C295.545 6.6748 295.727 6.80013 295.964 6.88672C296.201 6.96875 296.474 7.01204 296.784 7.0166C297.103 7.01204 297.379 6.96875 297.611 6.88672C297.848 6.80013 298.033 6.6748 298.165 6.51074C298.297 6.34668 298.363 6.15072 298.363 5.92285C298.363 5.7041 298.295 5.51497 298.158 5.35547C298.026 5.19596 297.841 5.0752 297.604 4.99316C297.372 4.90658 297.099 4.86328 296.784 4.86328ZM297.55 2.68945H296.025V0.782227H297.55V2.68945ZM308.255 2.30664C308.255 3.39128 308.2 4.3916 308.091 5.30762C307.981 6.22363 307.783 7.12142 307.496 8.00098C307.209 8.87598 306.801 9.69857 306.272 10.4688L305.09 9.82617C305.596 9.11523 305.983 8.37695 306.252 7.61133C306.521 6.8457 306.705 6.05273 306.806 5.23242C306.91 4.41211 306.963 3.48014 306.963 2.43652V2.30664H308.255ZM307.756 3.53711H305.445V2.30664H307.756V3.53711ZM311.01 2.30664C311.01 3.50977 310.966 4.59212 310.88 5.55371C310.793 6.51074 310.606 7.47461 310.319 8.44531C310.032 9.41602 309.606 10.3184 309.041 11.1523L307.872 10.4961C308.41 9.72135 308.811 8.9056 309.075 8.04883C309.344 7.1875 309.517 6.32845 309.595 5.47168C309.677 4.61035 309.718 3.59863 309.718 2.43652V2.30664H311.01ZM310.559 3.53711H308.624V2.30664H310.559V3.53711ZM315.952 13.2031H314.489V0.857422H315.952V13.2031ZM312.377 6.79785H310.415V5.56738H312.377V6.79785ZM313.553 12.6357H312.117V1.1582H313.553V12.6357ZM32.9532 26.1182H29.6924V24.8809H32.9532V26.1182ZM32.9942 28.7568H29.6924V27.54H32.9942V28.7568ZM30.0274 29.8232H24.2305V23.8896H30.0274V29.8232ZM25.7413 28.6338H28.5372V25.1064H25.7413V28.6338ZM34.0401 31.8672H32.5225V22.8711H34.0401V31.8672ZM34.3067 34.9844H25.8916V33.7402H34.3067V34.9844ZM27.4366 34.3555H25.8916V31.0332H27.4366V34.3555ZM45.0186 26.9521H42.4825V25.7012H45.0186V26.9521ZM46.1329 29.5977H44.6221V22.8574H46.1329V29.5977ZM39.5088 31.4092H44.6221V30.124H46.1329V35.0596H37.9981V30.124H39.5088V31.4092ZM44.6221 33.8359V32.5918H39.5088V33.8359H44.6221ZM40.0284 24.7031C40.0284 25.4733 39.8916 26.2002 39.6182 26.8838C39.3493 27.5628 38.9528 28.1598 38.4288 28.6748C37.9092 29.1852 37.2826 29.5658 36.5489 29.8164L35.7627 28.6201C36.4008 28.3968 36.9476 28.0846 37.4034 27.6836C37.8591 27.278 38.2032 26.82 38.4356 26.3096C38.668 25.7946 38.7842 25.2591 38.7842 24.7031V23.8145H40.0284V24.7031ZM40.3291 24.7168C40.3291 25.2181 40.4408 25.7103 40.6641 26.1934C40.8874 26.6719 41.2178 27.1048 41.6553 27.4922C42.0928 27.875 42.6192 28.1712 43.2344 28.3809L42.4756 29.5498C41.7556 29.2992 41.1426 28.9323 40.6368 28.4492C40.1309 27.9661 39.7458 27.4033 39.4815 26.7607C39.2217 26.1182 39.0918 25.4368 39.0918 24.7168V23.8145H40.3291V24.7168ZM42.8926 24.7236H36.2071V23.4863H42.8926V24.7236ZM60.9737 29.4609H59.4561V22.8574H60.9737V29.4609ZM62.7032 26.8633H60.543V25.6055H62.7032V26.8633ZM52.75 27.8887C54.1537 27.8887 55.2452 27.8636 56.0245 27.8135C56.8083 27.7633 57.5762 27.6585 58.3282 27.499L58.4991 28.7227C57.7198 28.8822 56.92 28.9915 56.0997 29.0508C55.2793 29.1055 54.1628 29.1328 52.75 29.1328H51.7383V27.8887H52.75ZM57.2344 24.8535H53.2559V28.7227H51.7383V23.6299H57.2344V24.8535ZM54.4727 31.3613H59.4561V30.0762H60.9737V35.0391H52.962V30.0762H54.4727V31.3613ZM59.4561 33.8154V32.5576H54.4727V33.8154H59.4561ZM72.6973 26.2412H69.375V24.9971H72.6973V26.2412ZM72.7452 28.873H69.375V27.6494H72.7452V28.873ZM73.6749 31.9902H72.1573V22.8711H73.6749V31.9902ZM73.9415 34.9844H65.5264V33.7402H73.9415V34.9844ZM67.0713 34.417H65.5264V31.0879H67.0713V34.417ZM65.4102 25.6738H68.1719V23.6846H69.669V29.9873H63.8858V23.6846H65.4102V25.6738ZM68.1719 28.7773V26.8428H65.4102V28.7773H68.1719ZM88.4405 26.1523H85.8907V24.9424H88.4405V26.1523ZM88.4405 28.4424H85.8907V27.2188H88.4405V28.4424ZM85.6651 24.9492H79.0957V23.7188H85.6651V24.9492ZM78.7676 28.6338C80.1485 28.6292 81.4314 28.6087 82.6163 28.5723C83.8057 28.5312 84.9086 28.4492 85.9249 28.3262L85.9864 29.4541C84.9473 29.6227 83.8399 29.7367 82.6641 29.7959C81.4883 29.8506 80.2465 29.8779 78.9385 29.8779L78.7676 28.6338ZM81.6456 29.0576H80.1758V24.7236H81.6456V29.0576ZM84.5645 29.0576H83.1084V24.7236H84.5645V29.0576ZM89.1104 30.4316H87.5928V22.8574H89.1104V30.4316ZM84.9336 30.6504C85.8086 30.6504 86.5629 30.7393 87.1963 30.917C87.8298 31.0947 88.3129 31.3545 88.6456 31.6963C88.9828 32.0381 89.1514 32.4482 89.1514 32.9268C89.1514 33.3962 88.9828 33.8018 88.6456 34.1436C88.3083 34.4854 87.823 34.7451 87.1895 34.9229C86.5606 35.1051 85.8086 35.1963 84.9336 35.1963C84.0632 35.1963 83.3112 35.1051 82.6778 34.9229C82.0443 34.7451 81.559 34.4854 81.2217 34.1436C80.889 33.8018 80.7227 33.3962 80.7227 32.9268C80.7227 32.4482 80.8913 32.0381 81.2286 31.6963C81.5704 31.3545 82.0557 31.0947 82.6846 30.917C83.3135 30.7393 84.0632 30.6504 84.9336 30.6504ZM84.9336 31.8125C84.3549 31.8125 83.865 31.8535 83.4639 31.9355C83.0629 32.0176 82.7575 32.1429 82.5479 32.3115C82.3383 32.4801 82.2334 32.6852 82.2334 32.9268C82.2334 33.1637 82.3383 33.3665 82.5479 33.5352C82.7575 33.6992 83.0629 33.8245 83.4639 33.9111C83.865 33.9932 84.3549 34.0342 84.9336 34.0342C85.5124 34.0342 86.0046 33.9932 86.4102 33.9111C86.8158 33.8245 87.1211 33.6992 87.3262 33.5352C87.5313 33.3665 87.6338 33.1637 87.6338 32.9268C87.6338 32.6807 87.529 32.4756 87.3194 32.3115C87.1143 32.1429 86.809 32.0176 86.4034 31.9355C86.0023 31.8535 85.5124 31.8125 84.9336 31.8125ZM100.54 35.1963H99.0225V22.8574H100.54V35.1963ZM102.372 28.9482H100.15V27.6904H102.372V28.9482ZM97.2793 24.1494C97.2793 25.4072 97.0902 26.5785 96.712 27.6631C96.3383 28.7432 95.7344 29.7367 94.9004 30.6436C94.0665 31.5459 92.9864 32.3275 91.6602 32.9883L90.8057 31.8125C91.9222 31.2474 92.8474 30.6025 93.5811 29.8779C94.3194 29.1533 94.8708 28.3398 95.2354 27.4375C95.6 26.5306 95.7823 25.5234 95.7823 24.416V24.1494H97.2793ZM96.5547 25.4004H91.4483V24.1494H96.5547V25.4004ZM115.976 35.1963H114.458V22.8574H115.976V35.1963ZM117.808 28.9482H115.586V27.6904H117.808V28.9482ZM112.715 24.1494C112.715 25.4072 112.526 26.5785 112.148 27.6631C111.774 28.7432 111.17 29.7367 110.336 30.6436C109.502 31.5459 108.422 32.3275 107.096 32.9883L106.241 31.8125C107.358 31.2474 108.283 30.6025 109.017 29.8779C109.755 29.1533 110.306 28.3398 110.671 27.4375C111.036 26.5306 111.218 25.5234 111.218 24.416V24.1494H112.715ZM111.99 25.4004H106.884V24.1494H111.99V25.4004ZM124.767 31.2178H123.27V29.0371H124.767V31.2178ZM129.654 29.748H118.402V28.5244H129.654V29.748ZM124.015 30.7803C124.908 30.7803 125.674 30.8669 126.312 31.04C126.954 31.2087 127.444 31.4593 127.781 31.792C128.123 32.1247 128.294 32.5257 128.294 32.9951C128.294 33.46 128.123 33.8564 127.781 34.1846C127.444 34.5127 126.954 34.7633 126.312 34.9365C125.674 35.1097 124.908 35.1963 124.015 35.1963C123.117 35.1963 122.347 35.1097 121.704 34.9365C121.062 34.7633 120.567 34.5127 120.221 34.1846C119.879 33.8564 119.708 33.46 119.708 32.9951C119.708 32.5257 119.879 32.1247 120.221 31.792C120.563 31.4593 121.055 31.2087 121.697 31.04C122.344 30.8669 123.117 30.7803 124.015 30.7803ZM124.015 31.9355C123.413 31.9355 122.907 31.9766 122.497 32.0586C122.092 32.1406 121.784 32.2591 121.574 32.4141C121.365 32.569 121.26 32.7627 121.26 32.9951C121.26 33.2139 121.365 33.403 121.574 33.5625C121.784 33.7174 122.094 33.8382 122.504 33.9248C122.914 34.0068 123.418 34.0479 124.015 34.0479C124.603 34.0479 125.104 34.0068 125.519 33.9248C125.933 33.8382 126.245 33.7174 126.455 33.5625C126.665 33.403 126.77 33.2139 126.77 32.9951C126.77 32.7627 126.665 32.569 126.455 32.4141C126.245 32.2591 125.936 32.1406 125.525 32.0586C125.115 31.9766 124.612 31.9355 124.015 31.9355ZM124.336 24.3066C124.336 24.9355 124.135 25.5098 123.734 26.0293C123.338 26.5443 122.771 26.9704 122.032 27.3076C121.299 27.6449 120.439 27.8636 119.455 27.9639L118.942 26.7676C119.758 26.6855 120.471 26.5238 121.082 26.2822C121.697 26.0407 122.169 25.7467 122.497 25.4004C122.825 25.0495 122.989 24.6849 122.989 24.3066V23.9648H124.336V24.3066ZM125.047 24.3066C125.047 24.6849 125.209 25.0495 125.532 25.4004C125.86 25.7467 126.334 26.0407 126.954 26.2822C127.574 26.5238 128.299 26.6855 129.128 26.7676L128.588 27.9639C127.617 27.8636 126.76 27.6449 126.018 27.3076C125.275 26.9704 124.701 26.5443 124.295 26.0293C123.889 25.5098 123.687 24.9355 123.687 24.3066V23.9648H125.047V24.3066ZM128.643 24.6143H119.421V23.4043H128.643V24.6143ZM140.77 35.2031H139.238V22.8574H140.77V35.2031ZM134.939 26.7812C134.939 27.6608 134.797 28.5062 134.515 29.3174C134.237 30.1286 133.833 30.8464 133.305 31.4707C132.776 32.0951 132.154 32.5645 131.439 32.8789L130.625 31.7031C131.263 31.4206 131.814 31.0195 132.279 30.5C132.749 29.9759 133.106 29.3926 133.353 28.75C133.599 28.1029 133.722 27.4466 133.722 26.7812V25.9473H134.939V26.7812ZM135.232 26.7812C135.232 27.4193 135.358 28.0505 135.608 28.6748C135.859 29.2946 136.224 29.8529 136.702 30.3496C137.181 30.8464 137.741 31.2314 138.384 31.5049L137.557 32.6738C136.841 32.3685 136.217 31.915 135.684 31.3135C135.155 30.7119 134.747 30.0192 134.46 29.2354C134.173 28.4469 134.029 27.6289 134.029 26.7812V25.9473H135.232V26.7812ZM137.905 26.1387H131.008V24.9219H137.905V26.1387ZM135.226 25.5713H133.708V23.124H135.226V25.5713ZM153.881 29.6045H142.588V28.4629H153.881V29.6045ZM152.514 33.1592H145.425V34.376H143.9V32.1816H151.003V31.4229H143.894V30.3428H152.514V33.1592ZM152.883 35.0801H143.9V34.0273H152.883V35.0801ZM152.486 25.9199H145.527V27.0615H144.017V24.9355H150.955V24.1836H143.982V23.1309H152.486V25.9199ZM152.698 27.7656H144.017V26.7266H152.698V27.7656ZM167.149 25.209H159.199V23.9854H167.149V25.209ZM169.289 33.6172H158.037V32.3799H169.289V33.6172ZM163.69 33.0156H162.193V28.0732H163.69V33.0156ZM168.113 25.1816C168.113 25.9062 168.104 26.5215 168.086 27.0273C168.068 27.5286 168.024 28.1211 167.956 28.8047C167.888 29.4837 167.781 30.222 167.635 31.0195L166.097 30.8555C166.247 30.1081 166.359 29.404 166.432 28.7432C166.505 28.0778 166.548 27.4876 166.562 26.9727C166.575 26.4577 166.582 25.8607 166.582 25.1816V23.9854H168.113V25.1816ZM180.473 35.2373H178.962V22.8574H180.473V35.2373ZM179.263 26.7881H176.761V25.5508H179.263V26.7881ZM171.531 31.1768C172.548 31.1768 173.459 31.1517 174.266 31.1016C175.077 31.0514 175.92 30.9648 176.795 30.8418L176.925 32.0859C176.045 32.2181 175.2 32.3092 174.389 32.3594C173.578 32.4049 172.625 32.4277 171.531 32.4277H170.581V31.1768H171.531ZM176.057 28.5518H172.092V31.4707H170.581V27.3555H174.56V25.1475H170.54V23.9238H176.057V28.5518ZM179.208 30.1582H176.699V28.9072H179.208V30.1582Z" fill="#1A1A1A"/>
</svg>
