<svg width="290" height="124" viewBox="0 0 290 124" fill="none" xmlns="http://www.w3.org/2000/svg">
<path d="M12.8155 5.19141C12.6788 4.76302 12.4783 4.39388 12.214 4.08398C11.9497 3.77409 11.6329 3.53483 11.2638 3.36621C10.8946 3.19759 10.4776 3.11328 10.0128 3.11328C9.42035 3.11328 8.88715 3.26595 8.41319 3.57129C7.93923 3.87663 7.56326 4.32552 7.28526 4.91797C7.00727 5.51042 6.86827 6.22135 6.86827 7.05078C6.86827 7.88021 7.00727 8.59115 7.28526 9.18359C7.56326 9.77604 7.94607 10.2249 8.4337 10.5303C8.92133 10.8356 9.47504 10.9883 10.0948 10.9883C10.6599 10.9883 11.1567 10.8675 11.5851 10.626C12.0135 10.3844 12.3461 10.0404 12.5831 9.59375C12.8201 9.14714 12.9386 8.63216 12.9386 8.04883L13.3077 8.11719H10.3546V7.03711H14.1417V8.10352C14.1417 8.9056 13.9685 9.61198 13.6222 10.2227C13.2758 10.8333 12.7973 11.305 12.1866 11.6377C11.576 11.9704 10.8787 12.1367 10.0948 12.1367C9.21983 12.1367 8.44965 11.9294 7.78429 11.5146C7.11892 11.0999 6.60167 10.5098 6.23253 9.74414C5.86339 8.97852 5.67882 8.08073 5.67882 7.05078C5.67882 6.02083 5.86339 5.12305 6.23253 4.35742C6.60167 3.5918 7.11436 3.00163 7.77061 2.58691C8.42686 2.1722 9.17426 1.96484 10.0128 1.96484C10.7055 1.96484 11.339 2.09928 11.9132 2.36816C12.4874 2.63704 12.9636 3.0153 13.3419 3.50293C13.7202 3.99056 13.9685 4.55339 14.087 5.19141H12.8155ZM24.3126 7.05078C24.3126 8.07161 24.1258 8.96712 23.7521 9.7373C23.3784 10.5075 22.8611 11.0999 22.2003 11.5146C21.5395 11.9294 20.7853 12.1367 19.9376 12.1367C19.0899 12.1367 18.3357 11.9294 17.6749 11.5146C17.0141 11.0999 16.4968 10.5075 16.1231 9.7373C15.7494 8.96712 15.5626 8.07161 15.5626 7.05078C15.5626 6.02083 15.7494 5.12305 16.1231 4.35742C16.4968 3.5918 17.0141 3.00163 17.6749 2.58691C18.3357 2.1722 19.0899 1.96484 19.9376 1.96484C20.7853 1.96484 21.5395 2.1722 22.2003 2.58691C22.8611 3.00163 23.3784 3.5918 23.7521 4.35742C24.1258 5.12305 24.3126 6.02083 24.3126 7.05078ZM23.1231 7.05078C23.1231 6.22135 22.9841 5.51042 22.7062 4.91797C22.4282 4.32552 22.0499 3.87663 21.5714 3.57129C21.0929 3.26595 20.5483 3.11328 19.9376 3.11328C19.336 3.11328 18.7937 3.26595 18.3106 3.57129C17.8276 3.87663 17.447 4.32552 17.169 4.91797C16.891 5.51042 16.7521 6.22135 16.7521 7.05078C16.7521 7.88021 16.891 8.59115 17.169 9.18359C17.447 9.77604 17.8276 10.2249 18.3106 10.5303C18.7937 10.8356 19.336 10.9883 19.9376 10.9883C20.5483 10.9883 21.0929 10.8356 21.5714 10.5303C22.0499 10.2249 22.4282 9.77604 22.7062 9.18359C22.9841 8.59115 23.1231 7.88021 23.1231 7.05078ZM25.1183 2.10156H32.5831V3.19531H29.4796V12H28.2354V3.19531H25.1183V2.10156ZM40.5255 5.21875C40.4343 4.77214 40.2543 4.3916 39.9854 4.07715C39.7166 3.7627 39.3884 3.52344 39.0011 3.35938C38.6137 3.19531 38.2013 3.11328 37.7638 3.11328C37.1622 3.11328 36.6199 3.26595 36.1368 3.57129C35.6537 3.87663 35.2732 4.32552 34.9952 4.91797C34.7172 5.51042 34.5782 6.22135 34.5782 7.05078C34.5782 7.88021 34.7172 8.59115 34.9952 9.18359C35.2732 9.77604 35.6537 10.2249 36.1368 10.5303C36.6199 10.8356 37.1622 10.9883 37.7638 10.9883C38.2013 10.9883 38.6114 10.9062 38.9942 10.7422C39.377 10.5781 39.7052 10.3389 39.9786 10.0244C40.252 9.70996 40.4343 9.33398 40.5255 8.89648H41.7559C41.6375 9.55273 41.3914 10.127 41.0177 10.6191C40.644 11.1113 40.1768 11.4873 39.6163 11.7471C39.0557 12.0068 38.4382 12.1367 37.7638 12.1367C36.9161 12.1367 36.1619 11.9294 35.5011 11.5146C34.8403 11.0999 34.323 10.5075 33.9493 9.7373C33.5756 8.96712 33.3888 8.07161 33.3888 7.05078C33.3888 6.02083 33.5756 5.12305 33.9493 4.35742C34.323 3.5918 34.8403 3.00163 35.5011 2.58691C36.1619 2.1722 36.9161 1.96484 37.7638 1.96484C38.4291 1.96484 39.0444 2.09473 39.6095 2.35449C40.1746 2.61426 40.644 2.98796 41.0177 3.47559C41.3914 3.96322 41.6375 4.54427 41.7559 5.21875H40.5255ZM43.4366 2.10156H44.6671V6.50391H49.9034V2.10156H51.1475V12H49.9034V7.58398H44.6671V12H43.4366V2.10156ZM52.4317 12L56.0548 2.10156H57.3536L60.9766 12H59.6778L56.7383 3.70117H56.6563L53.7169 12H52.4317ZM59.2403 8.13086V9.21094H54.168V8.13086H59.2403ZM74.6876 5.98438H71.2696V5.10938H74.6876V5.98438ZM69.2188 4.2207C69.2188 5.0957 69.0707 5.95475 68.7745 6.79785C68.4782 7.64095 68.0726 8.38835 67.5577 9.04004C67.0427 9.69173 66.4662 10.1908 65.8282 10.5371L65.1309 9.67578C65.7234 9.38411 66.2634 8.95117 66.751 8.37695C67.2387 7.80273 67.6238 7.14876 67.9063 6.41504C68.1889 5.68132 68.3301 4.94987 68.3301 4.2207V2.00586H69.2188V4.2207ZM69.4239 4.2207C69.4239 4.94076 69.5652 5.65169 69.8477 6.35352C70.1303 7.05534 70.5131 7.67741 70.9961 8.21973C71.4792 8.76204 72.0124 9.16992 72.5958 9.44336L71.9532 10.3184C71.306 9.98112 70.725 9.50033 70.21 8.87598C69.695 8.25163 69.2894 7.53385 68.9932 6.72266C68.697 5.91146 68.5489 5.07747 68.5489 4.2207V2.00586H69.4239V4.2207ZM75.2208 13.1348H74.1544V0.953125H75.2208V13.1348ZM87.2237 13.1348H86.1436V0.953125H87.2237V13.1348ZM78.9795 5.20508H82.6026V1.99219H83.6553V10.1953H77.9131V1.99219H78.9795V5.20508ZM82.6026 9.29297V6.06641H78.9795V9.29297H82.6026ZM95.1387 2.74414C95.1387 3.58268 94.9017 4.36654 94.4278 5.0957C93.9538 5.82487 93.3409 6.4401 92.5889 6.94141C91.837 7.44271 91.0463 7.78906 90.2168 7.98047L89.7246 7.07812C90.4447 6.93229 91.1511 6.64746 91.8438 6.22363C92.5365 5.7998 93.1016 5.28027 93.5391 4.66504C93.9766 4.0498 94.1954 3.40951 94.1954 2.74414V1.81445H95.1387V2.74414ZM95.3164 2.74414C95.3164 3.40039 95.5398 4.03841 95.9864 4.6582C96.433 5.27799 97.0049 5.80208 97.7022 6.23047C98.3995 6.65885 99.1036 6.94141 99.8145 7.07812L99.3223 7.98047C98.502 7.78906 97.7159 7.44499 96.9639 6.94824C96.212 6.4515 95.5967 5.83626 95.1182 5.10254C94.6397 4.36882 94.4004 3.58268 94.4004 2.74414V1.81445H95.3164V2.74414ZM100.389 11.4531H89.2598V10.5645H100.389V11.4531ZM115.166 13.1074H114.113V0.953125H115.166V13.1074ZM114.428 6.81836H112.049V5.90234H114.428V6.81836ZM112.363 12.4785H111.352V1.22656H112.363V12.4785ZM106.471 9.44336H105.404V2.44336H106.471V9.44336ZM106.156 9.00586C106.895 9.00586 107.608 8.97624 108.296 8.91699C108.984 8.85775 109.702 8.75521 110.449 8.60938L110.586 9.56641C109.784 9.70312 109.025 9.80339 108.31 9.86719C107.594 9.93099 106.876 9.96289 106.156 9.96289H105.404V9.00586H106.156ZM121.358 9.8125H120.278V7.02344H121.358V9.8125ZM120.825 1.74609C121.463 1.74609 122.028 1.86686 122.521 2.1084C123.013 2.34993 123.398 2.68717 123.676 3.12012C123.954 3.55306 124.093 4.04753 124.093 4.60352C124.093 5.15951 123.954 5.65169 123.676 6.08008C123.398 6.50846 123.013 6.84342 122.521 7.08496C122.028 7.3265 121.463 7.44727 120.825 7.44727C120.196 7.44727 119.631 7.3265 119.13 7.08496C118.629 6.84342 118.239 6.50846 117.961 6.08008C117.683 5.65169 117.544 5.15951 117.544 4.60352C117.544 4.04753 117.683 3.55306 117.961 3.12012C118.239 2.68717 118.629 2.34993 119.13 2.1084C119.631 1.86686 120.196 1.74609 120.825 1.74609ZM120.825 2.68945C120.397 2.68945 120.014 2.76921 119.677 2.92871C119.34 3.08822 119.075 3.3138 118.884 3.60547C118.692 3.89714 118.597 4.22982 118.597 4.60352C118.597 4.97721 118.692 5.3099 118.884 5.60156C119.075 5.89323 119.34 6.11882 119.677 6.27832C120.014 6.43783 120.397 6.51758 120.825 6.51758C121.254 6.51758 121.636 6.43783 121.974 6.27832C122.311 6.11882 122.573 5.89323 122.76 5.60156C122.947 5.3099 123.04 4.97721 123.04 4.60352C123.04 4.22982 122.947 3.89714 122.76 3.60547C122.573 3.3138 122.311 3.08822 121.974 2.92871C121.636 2.76921 121.254 2.68945 120.825 2.68945ZM126.813 13.1348H125.747V0.953125H126.813V13.1348ZM116.915 9.56641C117.927 9.56641 118.845 9.55729 119.67 9.53906C120.495 9.52083 121.372 9.4821 122.302 9.42285C123.231 9.36361 124.111 9.27018 124.94 9.14258L125.022 9.93555C124.166 10.0905 123.277 10.2067 122.356 10.2842C121.436 10.3617 120.572 10.4118 119.766 10.4346C118.959 10.4574 118.059 10.4688 117.065 10.4688L116.915 9.56641ZM136.219 6.58594H133.881V5.69727H136.219V6.58594ZM139.322 13.1074H138.283V0.953125H139.322V13.1074ZM136.875 12.4922H135.85V1.21289H136.875V12.4922ZM131.666 1.97852C132.195 1.97852 132.655 2.14941 133.047 2.49121C133.439 2.83301 133.744 3.32292 133.963 3.96094C134.182 4.59896 134.291 5.34635 134.291 6.20312C134.291 7.05078 134.182 7.79362 133.963 8.43164C133.744 9.06966 133.439 9.56185 133.047 9.9082C132.655 10.2546 132.195 10.4277 131.666 10.4277C131.146 10.4277 130.688 10.2546 130.292 9.9082C129.896 9.56185 129.59 9.06966 129.376 8.43164C129.162 7.79362 129.055 7.05078 129.055 6.20312C129.055 5.34635 129.162 4.59896 129.376 3.96094C129.59 3.32292 129.896 2.83301 130.292 2.49121C130.688 2.14941 131.146 1.97852 131.666 1.97852ZM131.666 2.99023C131.338 2.99023 131.053 3.12012 130.812 3.37988C130.57 3.63965 130.385 4.01107 130.258 4.49414C130.13 4.97721 130.066 5.54688 130.066 6.20312C130.066 6.85026 130.13 7.41536 130.258 7.89844C130.385 8.38151 130.572 8.75293 130.818 9.0127C131.064 9.27246 131.347 9.40234 131.666 9.40234C131.994 9.40234 132.279 9.27246 132.521 9.0127C132.762 8.75293 132.949 8.38151 133.081 7.89844C133.213 7.41536 133.279 6.85026 133.279 6.20312C133.279 5.54688 133.213 4.97721 133.081 4.49414C132.949 4.01107 132.762 3.63965 132.521 3.37988C132.279 3.12012 131.994 2.99023 131.666 2.99023ZM150.505 5.98438H147.087V5.10938H150.505V5.98438ZM145.036 4.2207C145.036 5.0957 144.888 5.95475 144.592 6.79785C144.296 7.64095 143.89 8.38835 143.375 9.04004C142.86 9.69173 142.284 10.1908 141.646 10.5371L140.948 9.67578C141.541 9.38411 142.081 8.95117 142.568 8.37695C143.056 7.80273 143.441 7.14876 143.724 6.41504C144.006 5.68132 144.147 4.94987 144.147 4.2207V2.00586H145.036V4.2207ZM145.241 4.2207C145.241 4.94076 145.382 5.65169 145.665 6.35352C145.948 7.05534 146.33 7.67741 146.813 8.21973C147.297 8.76204 147.83 9.16992 148.413 9.44336L147.771 10.3184C147.123 9.98112 146.542 9.50033 146.027 8.87598C145.512 8.25163 145.107 7.53385 144.811 6.72266C144.514 5.91146 144.366 5.07747 144.366 4.2207V2.00586H145.241V4.2207ZM151.038 13.1348H149.972V0.953125H151.038V13.1348ZM162.548 9.60742H161.495V7.69336H162.548V9.60742ZM167.565 7.95312H156.491V7.07812H167.565V7.95312ZM166.198 13.0664H165.118V10.2227H157.722V9.34766H166.198V13.0664ZM162.548 2.59375H161.495V0.898438H162.548V2.59375ZM162.384 2.92188C162.384 3.56901 162.165 4.13639 161.728 4.62402C161.29 5.11165 160.702 5.50358 159.964 5.7998C159.226 6.09603 158.405 6.29427 157.503 6.39453L157.147 5.57422C157.94 5.49219 158.663 5.33268 159.314 5.0957C159.966 4.85872 160.483 4.55339 160.866 4.17969C161.249 3.80599 161.44 3.38672 161.44 2.92188V2.70312H162.384V2.92188ZM162.616 2.92188C162.616 3.38672 162.805 3.80599 163.184 4.17969C163.562 4.55339 164.079 4.85872 164.735 5.0957C165.392 5.33268 166.116 5.49219 166.909 5.57422L166.554 6.39453C165.651 6.29427 164.831 6.09603 164.093 5.7998C163.354 5.50358 162.767 5.11165 162.329 4.62402C161.892 4.13639 161.673 3.56901 161.673 2.92188V2.70312H162.616V2.92188ZM166.444 3.01758H157.64V2.15625H166.444V3.01758ZM172.582 3.20898C172.582 3.92904 172.436 4.61263 172.145 5.25977C171.853 5.9069 171.45 6.46973 170.935 6.94824C170.42 7.42676 169.829 7.78906 169.164 8.03516L168.603 7.1875C169.196 6.96875 169.727 6.65658 170.196 6.25098C170.666 5.84538 171.033 5.37598 171.297 4.84277C171.561 4.30957 171.693 3.76497 171.693 3.20898V2.19727H172.582V3.20898ZM172.773 3.19531C172.773 3.71484 172.899 4.2207 173.149 4.71289C173.4 5.20508 173.753 5.6403 174.209 6.01855C174.665 6.39681 175.184 6.69076 175.768 6.90039L175.207 7.74805C174.551 7.51107 173.974 7.16471 173.478 6.70898C172.981 6.25326 172.593 5.72005 172.315 5.10938C172.037 4.4987 171.898 3.86068 171.898 3.19531V2.19727H172.773V3.19531ZM177.859 5.04102H175.111V4.13867H177.859V5.04102ZM175.494 2.67578H168.945V1.80078H175.494V2.67578ZM178.625 13.1074H177.545V9.77148H170.449V8.88281H178.625V13.1074ZM178.625 8.24023H177.545V0.953125H178.625V8.24023ZM187.675 5.82031H181.769V4.94531H187.675V5.82031ZM185.214 7.89844H184.147V5.47852H185.214V7.89844ZM187.579 2.63477H182.849V5.3418H181.769V1.74609H187.579V2.63477ZM190.628 10.0586H189.548V0.966797H190.628V10.0586ZM191.024 12.8477H182.739V11.9453H191.024V12.8477ZM183.806 12.3418H182.739V9.42969H183.806V12.3418ZM180.661 7.625C182.147 7.61589 183.548 7.58626 184.865 7.53613C186.182 7.486 187.406 7.39714 188.536 7.26953L188.618 8.0625C187.424 8.22656 186.164 8.34049 184.838 8.4043C183.512 8.4681 182.174 8.5 180.825 8.5L180.661 7.625ZM206.54 13.1074H205.501V0.953125H206.54V13.1074ZM203.491 6.50391H200.374V5.60156H203.491V6.50391ZM204.052 12.4785H203.026V1.25391H204.052V12.4785ZM197.38 9.2793C198.382 9.2793 199.207 9.25423 199.854 9.2041C200.502 9.15397 201.158 9.05599 201.823 8.91016L201.933 9.82617C201.267 9.96289 200.606 10.054 199.95 10.0996C199.294 10.1452 198.437 10.1725 197.38 10.1816H196.614V9.2793H197.38ZM201.194 3.3457H197.653V9.62109H196.614V2.45703H201.194V3.3457ZM218.215 13.1348H217.135V0.953125H218.215V13.1348ZM211.748 1.89648C212.35 1.89648 212.885 2.07194 213.354 2.42285C213.824 2.77376 214.191 3.26823 214.455 3.90625C214.719 4.54427 214.852 5.28711 214.852 6.13477C214.852 6.98242 214.719 7.72526 214.455 8.36328C214.191 9.0013 213.824 9.49349 213.354 9.83984C212.885 10.1862 212.35 10.3594 211.748 10.3594C211.146 10.3594 210.611 10.1862 210.142 9.83984C209.672 9.49349 209.305 9.0013 209.041 8.36328C208.777 7.72526 208.644 6.98242 208.644 6.13477C208.644 5.28711 208.777 4.54427 209.041 3.90625C209.305 3.26823 209.672 2.77376 210.142 2.42285C210.611 2.07194 211.146 1.89648 211.748 1.89648ZM211.748 2.85352C211.347 2.85352 210.989 2.99023 210.675 3.26367C210.36 3.53711 210.116 3.91992 209.943 4.41211C209.77 4.9043 209.684 5.47852 209.684 6.13477C209.684 6.7819 209.77 7.35384 209.943 7.85059C210.116 8.34733 210.36 8.73014 210.675 8.99902C210.989 9.2679 211.347 9.40234 211.748 9.40234C212.149 9.40234 212.507 9.2679 212.821 8.99902C213.136 8.73014 213.379 8.34733 213.553 7.85059C213.726 7.35384 213.812 6.7819 213.812 6.13477C213.812 5.47852 213.726 4.9043 213.553 4.41211C213.379 3.91992 213.138 3.53711 212.828 3.26367C212.518 2.99023 212.158 2.85352 211.748 2.85352ZM230.327 13.1348H229.261V0.953125H230.327V13.1348ZM229.438 6.43555H226.69V5.54688H229.438V6.43555ZM221.741 9.30664C222.963 9.30664 223.977 9.28158 224.783 9.23145C225.59 9.18132 226.403 9.08333 227.224 8.9375L227.347 9.82617C226.49 9.96289 225.644 10.0586 224.81 10.1133C223.977 10.168 222.953 10.1953 221.741 10.1953H220.811V9.30664H221.741ZM226.485 2.96289H221.892V9.60742H220.811V2.07422H226.485V2.96289ZM225.952 6.36719H221.604V5.49219H225.952V6.36719ZM245.829 13.1074H244.749V0.953125H245.829V13.1074ZM242.233 2.2793C242.233 3.48242 242.035 4.60807 241.639 5.65625C241.242 6.70443 240.62 7.66829 239.772 8.54785C238.925 9.42741 237.84 10.1862 236.518 10.8242L235.931 9.94922C237.106 9.39323 238.082 8.73926 238.856 7.9873C239.631 7.23535 240.21 6.39453 240.593 5.46484C240.976 4.53516 241.167 3.52799 241.167 2.44336V2.2793H242.233ZM241.604 3.1543H236.491V2.2793H241.604V3.1543ZM257.34 9.89453H256.273V0.966797H257.34V9.89453ZM259.172 5.54688H256.998V4.64453H259.172V5.54688ZM257.9 12.8477H249.738V11.9453H257.9V12.8477ZM250.791 12.1504H249.738V9.01953H250.791V12.1504ZM249.41 3.89258H252.951V1.8418H254.017V7.84375H248.357V1.8418H249.41V3.89258ZM252.951 6.96875V4.74023H249.41V6.96875H252.951ZM265.433 1.74609C266.28 1.74609 267.041 1.88509 267.716 2.16309C268.39 2.44108 268.919 2.83301 269.302 3.33887C269.684 3.84473 269.876 4.42578 269.876 5.08203C269.876 5.73828 269.684 6.32161 269.302 6.83203C268.919 7.34245 268.39 7.73438 267.716 8.00781C267.041 8.28125 266.28 8.41797 265.433 8.41797C264.594 8.41797 263.837 8.28125 263.163 8.00781C262.489 7.73438 261.958 7.34245 261.57 6.83203C261.183 6.32161 260.989 5.73828 260.989 5.08203C260.989 4.42578 261.183 3.84473 261.57 3.33887C261.958 2.83301 262.489 2.44108 263.163 2.16309C263.837 1.88509 264.594 1.74609 265.433 1.74609ZM265.433 2.62109C264.785 2.61198 264.202 2.71224 263.683 2.92188C263.163 3.13151 262.755 3.42546 262.459 3.80371C262.163 4.18197 262.015 4.60807 262.015 5.08203C262.015 5.5651 262.163 5.99349 262.459 6.36719C262.755 6.74089 263.163 7.03027 263.683 7.23535C264.202 7.44043 264.785 7.54297 265.433 7.54297C266.08 7.54297 266.661 7.44043 267.176 7.23535C267.691 7.03027 268.096 6.74089 268.392 6.36719C268.689 5.99349 268.837 5.5651 268.837 5.08203C268.837 4.60807 268.689 4.18197 268.392 3.80371C268.096 3.42546 267.691 3.13151 267.176 2.92188C266.661 2.71224 266.08 2.61198 265.433 2.62109ZM271.024 11.4941H259.895V10.5918H271.024V11.4941ZM283.082 11.6035H271.953V10.7012H283.082V11.6035ZM278.01 11.0977H276.957V8.08984H278.01V11.0977ZM281.674 5.5332H274.414V7.99414H273.348V4.6582H280.621V2.74414H273.32V1.85547H281.674V5.5332ZM281.961 8.4043H273.348V7.51562H281.961V8.4043ZM192.418 23.1719C193.32 23.1719 194.093 23.2516 194.735 23.4111C195.378 23.5706 195.868 23.8076 196.205 24.1221C196.542 24.4365 196.711 24.8171 196.711 25.2637C196.711 25.7194 196.542 26.1045 196.205 26.4189C195.868 26.7334 195.378 26.9727 194.735 27.1367C194.093 27.3008 193.32 27.3874 192.418 27.3965C191.516 27.3874 190.743 27.3008 190.101 27.1367C189.458 26.9727 188.966 26.7334 188.624 26.4189C188.282 26.1045 188.111 25.7194 188.111 25.2637C188.111 24.8171 188.282 24.4365 188.624 24.1221C188.966 23.8076 189.458 23.5706 190.101 23.4111C190.743 23.2516 191.516 23.1719 192.418 23.1719ZM192.418 23.9785C191.753 23.9785 191.181 24.0286 190.702 24.1289C190.224 24.2292 189.859 24.3773 189.608 24.5732C189.358 24.7692 189.232 24.9993 189.232 25.2637C189.232 25.5462 189.355 25.7855 189.602 25.9814C189.848 26.1774 190.21 26.3255 190.688 26.4258C191.167 26.526 191.744 26.5762 192.418 26.5762C193.092 26.5762 193.669 26.526 194.147 26.4258C194.626 26.3255 194.991 26.1751 195.241 25.9746C195.492 25.7741 195.617 25.5371 195.617 25.2637C195.617 24.9993 195.49 24.7715 195.234 24.5801C194.979 24.3887 194.612 24.2406 194.134 24.1357C193.655 24.0309 193.083 23.9785 192.418 23.9785ZM197.955 29.0918H186.881V28.2168H197.955V29.0918ZM196.533 32.8652H189.314V34.3418H188.248V32.0723H195.48V30.9648H188.221V30.1445H196.533V32.8652ZM196.902 34.9707H188.248V34.123H196.902V34.9707ZM213.484 30.2812H202.396V29.4062H213.484V30.2812ZM208.467 29.7754H207.4V27.8066H208.467V29.7754ZM212.172 28.2031H203.873V27.3418H212.172V28.2031ZM212.104 24.1836H204.953V27.793H203.873V23.3086H212.104V24.1836ZM211.775 26.1387H204.625V25.3184H211.775V26.1387ZM207.947 31.1973C208.84 31.1882 209.597 31.2588 210.217 31.4092C210.837 31.5596 211.311 31.7806 211.639 32.0723C211.967 32.3639 212.131 32.7194 212.131 33.1387C212.131 33.5579 211.967 33.9111 211.639 34.1982C211.311 34.4854 210.837 34.7041 210.217 34.8545C209.597 35.0049 208.84 35.0801 207.947 35.0801C207.054 35.0801 206.293 35.0049 205.664 34.8545C205.035 34.7041 204.559 34.4854 204.235 34.1982C203.912 33.9111 203.75 33.5579 203.75 33.1387C203.75 32.7103 203.914 32.3525 204.242 32.0654C204.57 31.7783 205.047 31.5596 205.671 31.4092C206.295 31.2588 207.054 31.1882 207.947 31.1973ZM207.947 32.0039C207.282 32.0039 206.717 32.0472 206.252 32.1338C205.787 32.2204 205.434 32.348 205.192 32.5166C204.951 32.6852 204.83 32.8926 204.83 33.1387C204.83 33.3848 204.949 33.5898 205.186 33.7539C205.423 33.918 205.776 34.041 206.245 34.123C206.715 34.2051 207.282 34.2461 207.947 34.2461C208.613 34.2461 209.175 34.2051 209.636 34.123C210.096 34.041 210.447 33.918 210.688 33.7539C210.93 33.5898 211.051 33.3848 211.051 33.1387C211.051 32.8926 210.93 32.6852 210.688 32.5166C210.447 32.348 210.094 32.2204 209.629 32.1338C209.164 32.0472 208.604 32.0039 207.947 32.0039ZM220.538 25.9336H214.44V25.0586H220.538V25.9336ZM217.489 26.7539C218 26.7539 218.453 26.8701 218.85 27.1025C219.246 27.335 219.558 27.6608 219.786 28.0801C220.014 28.4993 220.128 28.9779 220.128 29.5156C220.128 30.0534 220.014 30.5319 219.786 30.9512C219.558 31.3704 219.246 31.7008 218.85 31.9424C218.453 32.1839 218 32.3047 217.489 32.3047C216.988 32.3047 216.539 32.1839 216.143 31.9424C215.746 31.7008 215.436 31.3682 215.213 30.9443C214.99 30.5205 214.878 30.0443 214.878 29.5156C214.878 28.987 214.99 28.5107 215.213 28.0869C215.436 27.6631 215.746 27.335 216.143 27.1025C216.539 26.8701 216.988 26.7539 217.489 26.7539ZM217.489 27.6562C217.179 27.6562 216.897 27.7383 216.642 27.9023C216.386 28.0664 216.188 28.2874 216.047 28.5654C215.906 28.8434 215.835 29.1602 215.835 29.5156C215.835 29.8711 215.908 30.1901 216.054 30.4727C216.2 30.7552 216.398 30.974 216.648 31.1289C216.899 31.2839 217.179 31.3613 217.489 31.3613C217.808 31.3613 218.095 31.2839 218.351 31.1289C218.606 30.974 218.806 30.7552 218.952 30.4727C219.098 30.1901 219.171 29.8711 219.171 29.5156C219.171 29.1602 219.098 28.8434 218.952 28.5654C218.806 28.2874 218.606 28.0664 218.351 27.9023C218.095 27.7383 217.808 27.6562 217.489 27.6562ZM224.817 35.1074H223.792V22.9531H224.817V35.1074ZM224.134 28.9688H221.81V28.0801H224.134V28.9688ZM222.179 34.5059H221.167V23.2539H222.179V34.5059ZM218.036 25.5918H216.97V23.3223H218.036V25.5918ZM41.1344 48.002H37.6891V47.0996H41.1344V48.002ZM41.1617 50.5996H37.6891V49.7109H41.1617V50.5996ZM37.9625 51.6934H32.3844V46.0195H37.9625V51.6934ZM33.4508 50.832H36.9098V46.9082H33.4508V50.832ZM41.8863 53.8398H40.8062V44.9668H41.8863V53.8398ZM42.1598 56.8477H34.025V55.9453H42.1598V56.8477ZM35.1051 56.3418H34.025V53.0469H35.1051V56.3418ZM53.1646 48.8086H50.4029V47.9062H53.1646V48.8086ZM53.9303 51.5566H52.8639V44.9531H53.9303V51.5566ZM47.19 53.6621H52.8639V52.1445H53.9303V56.9434H46.1099V52.1445H47.19V53.6621ZM52.8639 56.0684V54.5234H47.19V56.0684H52.8639ZM47.901 46.9355C47.901 47.6556 47.7551 48.3369 47.4635 48.9795C47.1718 49.6221 46.7685 50.1849 46.2535 50.668C45.7385 51.151 45.1484 51.5156 44.483 51.7617L43.9224 50.9141C44.5149 50.6953 45.0458 50.3831 45.5152 49.9775C45.9846 49.5719 46.3515 49.1048 46.6158 48.5762C46.8801 48.0475 47.0123 47.5007 47.0123 46.9355V45.9102H47.901V46.9355ZM48.0924 46.9355C48.0924 47.446 48.22 47.9473 48.4752 48.4395C48.7304 48.9316 49.0836 49.3714 49.5348 49.7588C49.9859 50.1462 50.5032 50.4401 51.0865 50.6406L50.526 51.4746C49.8697 51.2285 49.2932 50.8776 48.7965 50.4219C48.2997 49.9661 47.9124 49.4375 47.6344 48.8359C47.3564 48.2344 47.2174 47.6009 47.2174 46.9355V45.9102H48.0924V46.9355ZM50.8131 46.5801H44.2642V45.6914H50.8131V46.5801ZM69.4185 51.2695H68.3658V44.9531H69.4185V51.2695ZM69.4322 54.7559H62.6099V56.5059H61.5572V53.9492H68.3658V52.7051H61.5299V51.8574H69.4322V54.7559ZM69.8697 56.9707H61.5572V56.1094H69.8697V56.9707ZM63.567 46.6758C63.567 47.3776 63.4211 48.0361 63.1295 48.6514C62.8378 49.2666 62.4276 49.8021 61.899 50.2578C61.3703 50.7135 60.7642 51.0553 60.0806 51.2832L59.5748 50.4355C60.1855 50.235 60.7255 49.9434 61.1949 49.5605C61.6643 49.1777 62.0312 48.738 62.2955 48.2412C62.5598 47.7445 62.692 47.2227 62.692 46.6758V46.0195H63.567V46.6758ZM63.772 46.6758C63.772 47.1953 63.9042 47.6898 64.1685 48.1592C64.4328 48.6286 64.802 49.0387 65.2759 49.3896C65.7499 49.7406 66.2922 50.0072 66.9029 50.1895L66.3697 51.0234C65.6952 50.8047 65.0959 50.4834 64.5718 50.0596C64.0478 49.6357 63.6399 49.1322 63.3482 48.5488C63.0565 47.9655 62.9107 47.3411 62.9107 46.6758V46.0195H63.772V46.6758ZM66.5748 46.5391H59.8482V45.6504H66.5748V46.5391ZM82.5699 52.0625H71.441V51.1738H82.5699V52.0625ZM77.6207 54.5508H76.5543V51.7207H77.6207V54.5508ZM81.1207 49.7793H72.8902V45.5547H81.1207V49.7793ZM73.9429 48.918H80.0543V46.4023H73.9429V48.918ZM81.3257 56.8477H72.8629V55.9453H81.3257V56.8477ZM73.9429 56.2598H72.8629V53.3477H73.9429V56.2598ZM96.0484 46.6348H88.3785V45.7461H96.0484V46.6348ZM98.0582 51.8574H86.9839V50.9688H98.0582V51.8574ZM93.0406 57.1348H91.9605V51.5566H93.0406V57.1348ZM96.5953 46.8125C96.5953 47.3867 96.5884 47.8835 96.5748 48.3027C96.5611 48.722 96.5201 49.2051 96.4517 49.752C96.3833 50.2988 96.2763 50.8913 96.1304 51.5293L95.064 51.3926C95.2098 50.7819 95.3169 50.21 95.3853 49.6768C95.4537 49.1436 95.4947 48.6719 95.5083 48.2617C95.522 47.8516 95.5289 47.3685 95.5289 46.8125V45.7461H96.5953V46.8125ZM103.034 46.9082C103.034 47.6829 102.892 48.403 102.61 49.0684C102.327 49.7337 101.929 50.3125 101.414 50.8047C100.899 51.2969 100.299 51.6751 99.6158 51.9395L99.0279 51.0645C99.6477 50.8457 100.195 50.529 100.668 50.1143C101.142 49.6995 101.509 49.2165 101.769 48.665C102.029 48.1136 102.159 47.528 102.159 46.9082V45.6504H103.034V46.9082ZM103.225 46.8672C103.225 47.4323 103.35 47.9746 103.601 48.4941C103.852 49.0137 104.205 49.4671 104.661 49.8545C105.116 50.2419 105.641 50.5358 106.233 50.7363L105.631 51.5703C104.975 51.3242 104.401 50.971 103.909 50.5107C103.417 50.0505 103.031 49.5081 102.753 48.8838C102.475 48.2594 102.336 47.5872 102.336 46.8672V45.6504H103.225V46.8672ZM109.118 52.1582H108.038V44.9531H109.118V52.1582ZM105.085 52.5137C105.932 52.5137 106.661 52.6025 107.272 52.7803C107.883 52.958 108.35 53.2201 108.673 53.5664C108.997 53.9128 109.159 54.3275 109.159 54.8105C109.159 55.2845 108.997 55.6924 108.673 56.0342C108.35 56.376 107.883 56.6357 107.272 56.8135C106.661 56.9912 105.932 57.0801 105.085 57.0801C104.246 57.0801 103.521 56.9912 102.911 56.8135C102.3 56.6357 101.831 56.376 101.502 56.0342C101.174 55.6924 101.01 55.2845 101.01 54.8105C101.01 54.3275 101.174 53.9128 101.502 53.5664C101.831 53.2201 102.3 52.958 102.911 52.7803C103.521 52.6025 104.246 52.5137 105.085 52.5137ZM105.085 53.3613C104.474 53.3613 103.941 53.4183 103.485 53.5322C103.029 53.6462 102.681 53.8125 102.439 54.0312C102.197 54.25 102.077 54.5098 102.077 54.8105C102.077 55.0931 102.197 55.3415 102.439 55.5557C102.681 55.7699 103.029 55.9339 103.485 56.0479C103.941 56.1618 104.474 56.2188 105.085 56.2188C105.704 56.2188 106.24 56.1618 106.691 56.0479C107.142 55.9339 107.488 55.7699 107.73 55.5557C107.972 55.3415 108.092 55.0931 108.092 54.8105C108.092 54.5098 107.972 54.25 107.73 54.0312C107.488 53.8125 107.142 53.6462 106.691 53.5322C106.24 53.4183 105.704 53.3613 105.085 53.3613ZM108.27 48.4531H105.331V47.5645H108.27V48.4531ZM118.414 50.5859H116.076V49.6973H118.414V50.5859ZM121.517 57.1074H120.478V44.9531H121.517V57.1074ZM119.07 56.4922H118.044V45.2129H119.07V56.4922ZM113.861 45.9785C114.39 45.9785 114.85 46.1494 115.242 46.4912C115.634 46.833 115.939 47.3229 116.158 47.9609C116.376 48.599 116.486 49.3464 116.486 50.2031C116.486 51.0508 116.376 51.7936 116.158 52.4316C115.939 53.0697 115.634 53.5618 115.242 53.9082C114.85 54.2546 114.39 54.4277 113.861 54.4277C113.341 54.4277 112.883 54.2546 112.487 53.9082C112.09 53.5618 111.785 53.0697 111.571 52.4316C111.357 51.7936 111.25 51.0508 111.25 50.2031C111.25 49.3464 111.357 48.599 111.571 47.9609C111.785 47.3229 112.09 46.833 112.487 46.4912C112.883 46.1494 113.341 45.9785 113.861 45.9785ZM113.861 46.9902C113.533 46.9902 113.248 47.1201 113.006 47.3799C112.765 47.6396 112.58 48.0111 112.453 48.4941C112.325 48.9772 112.261 49.5469 112.261 50.2031C112.261 50.8503 112.325 51.4154 112.453 51.8984C112.58 52.3815 112.767 52.7529 113.013 53.0127C113.259 53.2725 113.542 53.4023 113.861 53.4023C114.189 53.4023 114.474 53.2725 114.715 53.0127C114.957 52.7529 115.144 52.3815 115.276 51.8984C115.408 51.4154 115.474 50.8503 115.474 50.2031C115.474 49.5469 115.408 48.9772 115.276 48.4941C115.144 48.0111 114.957 47.6396 114.715 47.3799C114.474 47.1201 114.189 46.9902 113.861 46.9902ZM136.445 51.5293H128.05V50.6543H136.445V51.5293ZM137.757 55.5762H126.628V54.6738H137.757V55.5762ZM132.685 55.043H131.632V51.0371H132.685V55.043ZM136.322 46.8262H129.13V51.0645H128.05V45.9512H136.322V46.8262ZM144.743 53.2656H143.69V51.1465H144.743V53.2656ZM144.223 45.1855C145.098 45.1855 145.859 45.2767 146.506 45.459C147.153 45.6413 147.65 45.9033 147.997 46.2451C148.343 46.5869 148.516 46.9993 148.516 47.4824C148.516 47.9473 148.343 48.3506 147.997 48.6924C147.65 49.0342 147.153 49.2939 146.506 49.4717C145.859 49.6494 145.098 49.7383 144.223 49.7383C143.348 49.7383 142.587 49.6494 141.94 49.4717C141.293 49.2939 140.794 49.0342 140.443 48.6924C140.092 48.3506 139.917 47.9473 139.917 47.4824C139.917 46.9993 140.092 46.5869 140.443 46.2451C140.794 45.9033 141.293 45.6413 141.94 45.459C142.587 45.2767 143.348 45.1855 144.223 45.1855ZM144.223 46.0332C143.567 46.0332 143 46.0902 142.521 46.2041C142.042 46.318 141.673 46.4844 141.414 46.7031C141.154 46.9219 141.024 47.1816 141.024 47.4824C141.024 47.7741 141.154 48.0247 141.414 48.2344C141.673 48.444 142.042 48.6058 142.521 48.7197C143 48.8337 143.567 48.8906 144.223 48.8906C144.87 48.8906 145.435 48.8337 145.918 48.7197C146.402 48.6058 146.773 48.444 147.033 48.2344C147.292 48.0247 147.422 47.7741 147.422 47.4824C147.422 47.1816 147.292 46.9219 147.033 46.7031C146.773 46.4844 146.402 46.318 145.918 46.2041C145.435 46.0902 144.87 46.0332 144.223 46.0332ZM148.407 56.9434H140.04V52.9512H148.407V56.9434ZM141.106 56.0684H147.354V53.8125H141.106V56.0684ZM149.76 51.5566H138.686V50.668H149.76V51.5566ZM156.281 45.1719C157.183 45.1719 157.956 45.2516 158.598 45.4111C159.241 45.5706 159.731 45.8076 160.068 46.1221C160.405 46.4365 160.574 46.8171 160.574 47.2637C160.574 47.7194 160.405 48.1045 160.068 48.4189C159.731 48.7334 159.241 48.9727 158.598 49.1367C157.956 49.3008 157.183 49.3874 156.281 49.3965C155.378 49.3874 154.606 49.3008 153.963 49.1367C153.321 48.9727 152.829 48.7334 152.487 48.4189C152.145 48.1045 151.974 47.7194 151.974 47.2637C151.974 46.8171 152.145 46.4365 152.487 46.1221C152.829 45.8076 153.321 45.5706 153.963 45.4111C154.606 45.2516 155.378 45.1719 156.281 45.1719ZM156.281 45.9785C155.615 45.9785 155.043 46.0286 154.565 46.1289C154.086 46.2292 153.722 46.3773 153.471 46.5732C153.221 46.7692 153.095 46.9993 153.095 47.2637C153.095 47.5462 153.218 47.7855 153.464 47.9814C153.71 48.1774 154.073 48.3255 154.551 48.4258C155.03 48.526 155.606 48.5762 156.281 48.5762C156.955 48.5762 157.532 48.526 158.01 48.4258C158.489 48.3255 158.853 48.1751 159.104 47.9746C159.355 47.7741 159.48 47.5371 159.48 47.2637C159.48 46.9993 159.352 46.7715 159.097 46.5801C158.842 46.3887 158.475 46.2406 157.997 46.1357C157.518 46.0309 156.946 45.9785 156.281 45.9785ZM161.818 51.0918H150.744V50.2168H161.818V51.0918ZM160.396 54.8652H153.177V56.3418H152.111V54.0723H159.343V52.9648H152.083V52.1445H160.396V54.8652ZM160.765 56.9707H152.111V56.123H160.765V56.9707ZM175.775 52.0625H174.708V44.9531H175.775V52.0625ZM177.607 48.7949H175.474V47.8926H177.607V48.7949ZM167.845 47.5098H171.386V45.6504H172.453V51.2969H166.792V45.6504H167.845V47.5098ZM171.386 50.4355V48.3711H167.845V50.4355H171.386ZM175.871 53.6074H169.212V56.6836H168.146V52.7461H175.871V53.6074ZM176.103 56.9434H168.146V56.0684H176.103V56.9434ZM183.868 45.1719C184.77 45.1719 185.542 45.2516 186.185 45.4111C186.828 45.5706 187.318 45.8076 187.655 46.1221C187.992 46.4365 188.161 46.8171 188.161 47.2637C188.161 47.7194 187.992 48.1045 187.655 48.4189C187.318 48.7334 186.828 48.9727 186.185 49.1367C185.542 49.3008 184.77 49.3874 183.868 49.3965C182.965 49.3874 182.193 49.3008 181.55 49.1367C180.908 48.9727 180.415 48.7334 180.074 48.4189C179.732 48.1045 179.561 47.7194 179.561 47.2637C179.561 46.8171 179.732 46.4365 180.074 46.1221C180.415 45.8076 180.908 45.5706 181.55 45.4111C182.193 45.2516 182.965 45.1719 183.868 45.1719ZM183.868 45.9785C183.202 45.9785 182.63 46.0286 182.152 46.1289C181.673 46.2292 181.309 46.3773 181.058 46.5732C180.807 46.7692 180.682 46.9993 180.682 47.2637C180.682 47.5462 180.805 47.7855 181.051 47.9814C181.297 48.1774 181.66 48.3255 182.138 48.4258C182.617 48.526 183.193 48.5762 183.868 48.5762C184.542 48.5762 185.119 48.526 185.597 48.4258C186.076 48.3255 186.44 48.1751 186.691 47.9746C186.942 47.7741 187.067 47.5371 187.067 47.2637C187.067 46.9993 186.939 46.7715 186.684 46.5801C186.429 46.3887 186.062 46.2406 185.583 46.1357C185.105 46.0309 184.533 45.9785 183.868 45.9785ZM189.405 51.0918H178.331V50.2168H189.405V51.0918ZM187.983 54.8652H180.764V56.3418H179.698V54.0723H186.93V52.9648H179.67V52.1445H187.983V54.8652ZM188.352 56.9707H179.698V56.123H188.352V56.9707ZM199.793 46.0879C199.793 46.8262 199.563 47.5029 199.103 48.1182C198.643 48.7334 198.034 49.2415 197.278 49.6426C196.521 50.0436 195.719 50.3171 194.872 50.4629L194.434 49.5879C195.172 49.4876 195.881 49.2666 196.56 48.9248C197.239 48.583 197.79 48.1637 198.214 47.667C198.638 47.1702 198.85 46.6439 198.85 46.0879V45.3906H199.793V46.0879ZM199.957 46.0879C199.957 46.6348 200.172 47.1589 200.6 47.6602C201.028 48.1615 201.584 48.583 202.268 48.9248C202.952 49.2666 203.658 49.4876 204.387 49.5879L203.95 50.4629C203.102 50.3171 202.302 50.0413 201.55 49.6357C200.798 49.2301 200.19 48.7197 199.725 48.1045C199.26 47.4893 199.028 46.8171 199.028 46.0879V45.3906H199.957V46.0879ZM199.903 57.1074H198.85V52.4727H199.903V57.1074ZM204.934 52.7051H193.86V51.8027H204.934V52.7051ZM213.313 53.1152C213.313 53.6439 213.201 54.1611 212.978 54.667C212.755 55.1729 212.436 55.624 212.021 56.0205C211.606 56.417 211.112 56.7246 210.538 56.9434L209.991 56.1504C210.492 55.959 210.927 55.7015 211.296 55.3779C211.665 55.0544 211.953 54.6943 212.158 54.2979C212.363 53.9014 212.465 53.5072 212.465 53.1152V52.4453H213.313V53.1152ZM213.504 53.1152C213.504 53.5254 213.589 53.9333 213.757 54.3389C213.926 54.7445 214.177 55.1113 214.509 55.4395C214.842 55.7676 215.245 56.0273 215.719 56.2188L215.268 57.0391C214.703 56.8203 214.229 56.5059 213.846 56.0957C213.463 55.6855 213.178 55.223 212.992 54.708C212.805 54.193 212.711 53.6621 212.711 53.1152V52.4453H213.504V53.1152ZM217.811 53.1152C217.811 53.6074 217.715 54.111 217.524 54.626C217.332 55.141 217.045 55.6126 216.663 56.041C216.28 56.4694 215.815 56.8021 215.268 57.0391L214.803 56.2188C215.268 56.0091 215.667 55.7288 215.999 55.3779C216.332 55.027 216.583 54.651 216.751 54.25C216.92 53.849 217.004 53.4707 217.004 53.1152V52.4453H217.811V53.1152ZM218.057 53.1152C218.057 53.5345 218.157 53.9424 218.358 54.3389C218.558 54.7354 218.845 55.0931 219.219 55.4121C219.593 55.7311 220.03 55.9772 220.532 56.1504L219.998 56.9434C219.415 56.7337 218.914 56.4352 218.495 56.0479C218.075 55.6605 217.756 55.2139 217.538 54.708C217.319 54.2021 217.209 53.6712 217.209 53.1152V52.4453H218.057V53.1152ZM219.424 51.9121H218.358V44.9668H219.424V51.9121ZM212.862 45.6777C213.472 45.6777 214.019 45.7962 214.502 46.0332C214.985 46.2702 215.364 46.6051 215.637 47.0381C215.911 47.471 216.047 47.9655 216.047 48.5215C216.047 49.0684 215.911 49.556 215.637 49.9844C215.364 50.4128 214.985 50.7454 214.502 50.9824C214.019 51.2194 213.472 51.3379 212.862 51.3379C212.251 51.3379 211.704 51.2194 211.221 50.9824C210.738 50.7454 210.36 50.4128 210.086 49.9844C209.813 49.556 209.676 49.0684 209.676 48.5215C209.676 47.9655 209.813 47.471 210.086 47.0381C210.36 46.6051 210.738 46.2702 211.221 46.0332C211.704 45.7962 212.251 45.6777 212.862 45.6777ZM212.862 46.5938C212.452 46.5846 212.085 46.6621 211.761 46.8262C211.438 46.9902 211.185 47.2204 211.002 47.5166C210.82 47.8128 210.729 48.1478 210.729 48.5215C210.729 48.8861 210.82 49.2142 211.002 49.5059C211.185 49.7975 211.438 50.0254 211.761 50.1895C212.085 50.3535 212.452 50.4401 212.862 50.4492C213.272 50.4401 213.639 50.3535 213.962 50.1895C214.286 50.0254 214.539 49.7975 214.721 49.5059C214.903 49.2142 214.995 48.8861 214.995 48.5215C214.995 48.1478 214.903 47.8128 214.721 47.5166C214.539 47.2204 214.286 46.9902 213.962 46.8262C213.639 46.6621 213.272 46.5846 212.862 46.5938ZM223.921 53.6758H229.992V52.2539H231.072V56.9434H222.855V52.2539H223.921V53.6758ZM229.992 56.082V54.5234H223.921V56.082H229.992ZM232.521 51.3926H221.447V50.5039H232.521V51.3926ZM227.367 45.6641C227.367 46.3294 227.136 46.9424 226.676 47.5029C226.216 48.0635 225.612 48.5283 224.865 48.8975C224.117 49.2666 223.324 49.515 222.486 49.6426L222.076 48.7812C222.805 48.681 223.507 48.4805 224.181 48.1797C224.856 47.8789 225.4 47.5075 225.815 47.0654C226.23 46.6234 226.437 46.1562 226.437 45.6641V45.0898H227.367V45.6641ZM227.544 45.6641C227.544 46.1471 227.754 46.6097 228.173 47.0518C228.593 47.4938 229.139 47.8698 229.814 48.1797C230.488 48.4896 231.181 48.6901 231.892 48.7812L231.496 49.6426C230.657 49.515 229.864 49.2643 229.117 48.8906C228.369 48.5169 227.765 48.0498 227.305 47.4893C226.845 46.9287 226.615 46.3203 226.615 45.6641V45.0898H227.544V45.6641ZM243.526 57.1074H242.459V44.9531H243.526V57.1074ZM235.35 53.6758H234.297V46.1562H235.35V53.6758ZM235.282 53.0469C236.275 53.0469 237.257 53.0013 238.228 52.9102C239.199 52.819 240.176 52.6686 241.161 52.459L241.311 53.375C240.281 53.5846 239.276 53.7373 238.296 53.833C237.316 53.9287 236.312 53.9766 235.282 53.9766H234.297V53.0469H235.282ZM254.968 57.1348H253.902V44.9531H254.968V57.1348ZM257.005 50.668H254.722V49.7656H257.005V50.668ZM247.052 53.1836C248.228 53.1836 249.247 53.1517 250.108 53.0879C250.969 53.0241 251.842 52.9102 252.726 52.7461L252.863 53.6758C251.97 53.8398 251.09 53.9492 250.224 54.0039C249.358 54.0586 248.301 54.0859 247.052 54.0859H246.095V53.1836H247.052ZM251.769 47.0312H247.162V53.5938H246.095V46.1426H251.769V47.0312ZM258.905 56.082C258.75 56.082 258.604 56.041 258.467 55.959C258.33 55.877 258.223 55.7676 258.146 55.6309C258.068 55.4941 258.03 55.3483 258.03 55.1934C258.03 55.0384 258.068 54.8926 258.146 54.7559C258.223 54.6191 258.33 54.512 258.467 54.4346C258.604 54.3571 258.75 54.3184 258.905 54.3184C259.06 54.3184 259.205 54.3571 259.342 54.4346C259.479 54.512 259.586 54.6191 259.663 54.7559C259.741 54.8926 259.78 55.0384 259.78 55.1934C259.78 55.3483 259.741 55.4941 259.663 55.6309C259.586 55.7676 259.479 55.877 259.342 55.959C259.205 56.041 259.06 56.082 258.905 56.082ZM0.976181 97.2109C2.18842 97.2109 3.19786 97.1836 4.0045 97.1289C4.81114 97.0742 5.62462 96.9694 6.44493 96.8145L6.58165 97.7031C5.72488 97.8672 4.88406 97.9788 4.05919 98.0381C3.23432 98.0973 2.20665 98.127 0.976181 98.127H0.0464935V97.2109H0.976181ZM5.62462 91.0176H1.12657V97.5391H0.0464935V90.1152H5.62462V91.0176ZM9.5211 101.135H8.44102V88.9531H9.5211V101.135ZM8.8922 94.2715H4.90001V93.3828H8.8922V94.2715ZM17.5455 96.6641H16.4791V94.7773H17.5455V96.6641ZM14.0318 90.3203H20.0475V89.1582H21.1139V93.1504H12.9654V89.1582H14.0318V90.3203ZM20.0475 92.3164V91.1406H14.0318V92.3164H20.0475ZM22.5631 95.0508H11.4889V94.1621H22.5631V95.0508ZM21.1412 98.9336H13.9225V100.451H12.8561V98.1406H20.0885V97.0605H12.8287V96.2402H21.1412V98.9336ZM21.5104 100.971H12.8561V100.123H21.5104V100.971ZM26.8141 89.8965C27.4065 89.8965 27.9306 90.0719 28.3863 90.4229C28.8421 90.7738 29.1998 91.2682 29.4596 91.9062C29.7193 92.5443 29.8492 93.2871 29.8492 94.1348C29.8492 94.9824 29.7193 95.7253 29.4596 96.3633C29.1998 97.0013 28.8421 97.4935 28.3863 97.8398C27.9306 98.1862 27.4065 98.3594 26.8141 98.3594C26.2216 98.3594 25.6952 98.1862 25.235 97.8398C24.7747 97.4935 24.4146 97.0013 24.1549 96.3633C23.8951 95.7253 23.7652 94.9824 23.7652 94.1348C23.7652 93.2871 23.8951 92.5443 24.1549 91.9062C24.4146 91.2682 24.7747 90.7738 25.235 90.4229C25.6952 90.0719 26.2216 89.8965 26.8141 89.8965ZM26.8141 90.8535C26.4221 90.8535 26.0712 90.9902 25.7613 91.2637C25.4514 91.5371 25.2122 91.9199 25.0435 92.4121C24.8749 92.9043 24.7906 93.4785 24.7906 94.1348C24.7906 94.7819 24.8749 95.3538 25.0435 95.8506C25.2122 96.3473 25.4514 96.7301 25.7613 96.999C26.0712 97.2679 26.4221 97.4023 26.8141 97.4023C27.206 97.4023 27.5569 97.2679 27.8668 96.999C28.1767 96.7301 28.4159 96.3473 28.5846 95.8506C28.7532 95.3538 28.8375 94.7819 28.8375 94.1348C28.8375 93.4785 28.7532 92.9043 28.5846 92.4121C28.4159 91.9199 28.179 91.5371 27.8736 91.2637C27.5683 90.9902 27.2151 90.8535 26.8141 90.8535ZM33.6227 101.135H32.5562V88.9531H33.6227V101.135ZM33.0348 94.4902H29.4937V93.6016H33.0348V94.4902ZM46.4312 93.1914C46.2945 92.763 46.094 92.3939 45.8297 92.084C45.5653 91.7741 45.2486 91.5348 44.8795 91.3662C44.5103 91.1976 44.0933 91.1133 43.6285 91.1133C43.036 91.1133 42.5028 91.266 42.0289 91.5713C41.5549 91.8766 41.1789 92.3255 40.901 92.918C40.623 93.5104 40.484 94.2214 40.484 95.0508C40.484 95.8802 40.623 96.5911 40.901 97.1836C41.1789 97.776 41.5618 98.2249 42.0494 98.5303C42.537 98.8356 43.0907 98.9883 43.7105 98.9883C44.2756 98.9883 44.7724 98.8675 45.2008 98.626C45.6291 98.3844 45.9618 98.0404 46.1988 97.5938C46.4358 97.1471 46.5543 96.6322 46.5543 96.0488L46.9234 96.1172H43.9703V95.0371H47.7574V96.1035C47.7574 96.9056 47.5842 97.612 47.2379 98.2227C46.8915 98.8333 46.413 99.305 45.8023 99.6377C45.1916 99.9704 44.4944 100.137 43.7105 100.137C42.8355 100.137 42.0653 99.9294 41.4 99.5146C40.7346 99.0999 40.2174 98.5098 39.8482 97.7441C39.4791 96.9785 39.2945 96.0807 39.2945 95.0508C39.2945 94.0208 39.4791 93.123 39.8482 92.3574C40.2174 91.5918 40.7301 91.0016 41.3863 90.5869C42.0426 90.1722 42.79 89.9648 43.6285 89.9648C44.3212 89.9648 44.9547 90.0993 45.5289 90.3682C46.1031 90.637 46.5793 91.0153 46.9576 91.5029C47.3359 91.9906 47.5842 92.5534 47.7027 93.1914H46.4312ZM57.9283 95.0508C57.9283 96.0716 57.7414 96.9671 57.3677 97.7373C56.994 98.5075 56.4768 99.0999 55.816 99.5146C55.1552 99.9294 54.4009 100.137 53.5533 100.137C52.7056 100.137 51.9514 99.9294 51.2906 99.5146C50.6298 99.0999 50.1125 98.5075 49.7388 97.7373C49.3651 96.9671 49.1783 96.0716 49.1783 95.0508C49.1783 94.0208 49.3651 93.123 49.7388 92.3574C50.1125 91.5918 50.6298 91.0016 51.2906 90.5869C51.9514 90.1722 52.7056 89.9648 53.5533 89.9648C54.4009 89.9648 55.1552 90.1722 55.816 90.5869C56.4768 91.0016 56.994 91.5918 57.3677 92.3574C57.7414 93.123 57.9283 94.0208 57.9283 95.0508ZM56.7388 95.0508C56.7388 94.2214 56.5998 93.5104 56.3218 92.918C56.0439 92.3255 55.6656 91.8766 55.1871 91.5713C54.7086 91.266 54.164 91.1133 53.5533 91.1133C52.9517 91.1133 52.4094 91.266 51.9263 91.5713C51.4433 91.8766 51.0627 92.3255 50.7847 92.918C50.5067 93.5104 50.3677 94.2214 50.3677 95.0508C50.3677 95.8802 50.5067 96.5911 50.7847 97.1836C51.0627 97.776 51.4433 98.2249 51.9263 98.5303C52.4094 98.8356 52.9517 98.9883 53.5533 98.9883C54.164 98.9883 54.7086 98.8356 55.1871 98.5303C55.6656 98.2249 56.0439 97.776 56.3218 97.1836C56.5998 96.5911 56.7388 95.8802 56.7388 95.0508ZM58.7339 90.1016H66.1988V91.1953H63.0953V100H61.8511V91.1953H58.7339V90.1016ZM74.1412 93.2188C74.05 92.7721 73.87 92.3916 73.6011 92.0771C73.3322 91.7627 73.0041 91.5234 72.6168 91.3594C72.2294 91.1953 71.8169 91.1133 71.3794 91.1133C70.7779 91.1133 70.2356 91.266 69.7525 91.5713C69.2694 91.8766 68.8889 92.3255 68.6109 92.918C68.3329 93.5104 68.1939 94.2214 68.1939 95.0508C68.1939 95.8802 68.3329 96.5911 68.6109 97.1836C68.8889 97.776 69.2694 98.2249 69.7525 98.5303C70.2356 98.8356 70.7779 98.9883 71.3794 98.9883C71.8169 98.9883 72.2271 98.9062 72.6099 98.7422C72.9927 98.5781 73.3209 98.3389 73.5943 98.0244C73.8677 97.71 74.05 97.334 74.1412 96.8965H75.3716C75.2531 97.5527 75.0071 98.127 74.6334 98.6191C74.2597 99.1113 73.7925 99.4873 73.232 99.7471C72.6714 100.007 72.0539 100.137 71.3794 100.137C70.5318 100.137 69.7776 99.9294 69.1168 99.5146C68.4559 99.0999 67.9387 98.5075 67.565 97.7373C67.1913 96.9671 67.0044 96.0716 67.0044 95.0508C67.0044 94.0208 67.1913 93.123 67.565 92.3574C67.9387 91.5918 68.4559 91.0016 69.1168 90.5869C69.7776 90.1722 70.5318 89.9648 71.3794 89.9648C72.0448 89.9648 72.66 90.0947 73.2252 90.3545C73.7903 90.6143 74.2597 90.988 74.6334 91.4756C75.0071 91.9632 75.2531 92.5443 75.3716 93.2188H74.1412ZM77.0523 90.1016H78.2828V94.5039H83.5191V90.1016H84.7632V100H83.5191V95.584H78.2828V100H77.0523V90.1016ZM86.0474 100L89.6704 90.1016H90.9693L94.5923 100H93.2935L90.354 91.7012H90.272L87.3326 100H86.0474ZM92.856 96.1309V97.2109H87.7837V96.1309H92.856ZM102.725 101.107H101.659V95.9258H102.725V101.107ZM106.909 101.107H105.842V95.9258H106.909V101.107ZM99.9634 93.5195L99.8267 92.5762L107.661 92.3027V93.123L99.9634 93.5195ZM107.825 90.5801H100.168V89.7051H107.825V90.5801ZM109.834 96.3223H98.7603V95.4336H109.834V96.3223ZM108.413 90.7988C108.413 91.4095 108.406 91.9359 108.392 92.3779C108.378 92.82 108.335 93.3258 108.262 93.8955C108.189 94.4652 108.075 95.0827 107.92 95.748L106.868 95.625C107.032 94.9961 107.153 94.4036 107.23 93.8477C107.307 93.2917 107.355 92.8018 107.374 92.3779C107.392 91.9541 107.401 91.4277 107.401 90.7988V89.7051H108.413V90.7988ZM112.035 97.2109C112.91 97.2109 113.696 97.1882 114.393 97.1426C115.09 97.097 115.831 97.0059 116.615 96.8691L116.697 97.7578C115.913 97.8945 115.179 97.9857 114.496 98.0312C113.812 98.0768 112.992 98.1042 112.035 98.1133H111.228V97.2109H112.035ZM115.562 94.5039H112.267V97.5938H111.228V93.6152H114.537V91.1953H111.201V90.3066H115.562V94.5039ZM121.209 101.107H120.183V88.9531H121.209V101.107ZM118.173 94.2168H116.15V93.3418H118.173V94.2168ZM118.72 100.465H117.709V89.2539H118.72V100.465ZM132.897 101.135H131.817V88.9531H132.897V101.135ZM126.43 89.8965C127.032 89.8965 127.567 90.0719 128.037 90.4229C128.506 90.7738 128.873 91.2682 129.137 91.9062C129.402 92.5443 129.534 93.2871 129.534 94.1348C129.534 94.9824 129.402 95.7253 129.137 96.3633C128.873 97.0013 128.506 97.4935 128.037 97.8398C127.567 98.1862 127.032 98.3594 126.43 98.3594C125.829 98.3594 125.293 98.1862 124.824 97.8398C124.354 97.4935 123.987 97.0013 123.723 96.3633C123.459 95.7253 123.327 94.9824 123.327 94.1348C123.327 93.2871 123.459 92.5443 123.723 91.9062C123.987 91.2682 124.354 90.7738 124.824 90.4229C125.293 90.0719 125.829 89.8965 126.43 89.8965ZM126.43 90.8535C126.029 90.8535 125.671 90.9902 125.357 91.2637C125.042 91.5371 124.799 91.9199 124.625 92.4121C124.452 92.9043 124.366 93.4785 124.366 94.1348C124.366 94.7819 124.452 95.3538 124.625 95.8506C124.799 96.3473 125.042 96.7301 125.357 96.999C125.671 97.2679 126.029 97.4023 126.43 97.4023C126.831 97.4023 127.189 97.2679 127.503 96.999C127.818 96.7301 128.062 96.3473 128.235 95.8506C128.408 95.3538 128.495 94.7819 128.495 94.1348C128.495 93.4785 128.408 92.9043 128.235 92.4121C128.062 91.9199 127.82 91.5371 127.51 91.2637C127.2 90.9902 126.84 90.8535 126.43 90.8535ZM144.216 91.6602H141.427V90.7715H144.216V91.6602ZM144.216 94.1484H141.427V93.2734H144.216V94.1484ZM138.898 91.209C138.898 91.9837 138.759 92.7174 138.481 93.4102C138.203 94.1029 137.811 94.709 137.305 95.2285C136.799 95.748 136.214 96.1445 135.548 96.418L134.96 95.5566C135.562 95.3197 136.095 94.9801 136.56 94.5381C137.025 94.096 137.387 93.5856 137.647 93.0068C137.907 92.4281 138.037 91.8288 138.037 91.209V89.6504H138.898V91.209ZM139.089 91.209C139.089 91.7923 139.215 92.3597 139.465 92.9111C139.716 93.4626 140.067 93.9502 140.518 94.374C140.969 94.7979 141.486 95.1283 142.07 95.3652L141.468 96.1992C140.83 95.9349 140.267 95.5521 139.78 95.0508C139.292 94.5495 138.912 93.9684 138.638 93.3076C138.365 92.6468 138.228 91.9473 138.228 91.209V89.6504H139.089V91.209ZM145.009 98.0449H143.929V88.9668H145.009V98.0449ZM145.283 100.848H137.148V99.9453H145.283V100.848ZM138.228 100.41H137.148V97.1016H138.228V100.41ZM154.305 94.5859H151.967V93.6973H154.305V94.5859ZM157.409 101.107H156.37V88.9531H157.409V101.107ZM154.961 100.492H153.936V89.2129H154.961V100.492ZM149.752 89.9785C150.281 89.9785 150.741 90.1494 151.133 90.4912C151.525 90.833 151.831 91.3229 152.049 91.9609C152.268 92.599 152.377 93.3464 152.377 94.2031C152.377 95.0508 152.268 95.7936 152.049 96.4316C151.831 97.0697 151.525 97.5618 151.133 97.9082C150.741 98.2546 150.281 98.4277 149.752 98.4277C149.233 98.4277 148.775 98.2546 148.378 97.9082C147.982 97.5618 147.677 97.0697 147.462 96.4316C147.248 95.7936 147.141 95.0508 147.141 94.2031C147.141 93.3464 147.248 92.599 147.462 91.9609C147.677 91.3229 147.982 90.833 148.378 90.4912C148.775 90.1494 149.233 89.9785 149.752 89.9785ZM149.752 90.9902C149.424 90.9902 149.139 91.1201 148.898 91.3799C148.656 91.6396 148.472 92.0111 148.344 92.4941C148.217 92.9772 148.153 93.5469 148.153 94.2031C148.153 94.8503 148.217 95.4154 148.344 95.8984C148.472 96.3815 148.659 96.7529 148.905 97.0127C149.151 97.2725 149.433 97.4023 149.752 97.4023C150.081 97.4023 150.365 97.2725 150.607 97.0127C150.848 96.7529 151.035 96.3815 151.167 95.8984C151.3 95.4154 151.366 94.8503 151.366 94.2031C151.366 93.5469 151.3 92.9772 151.167 92.4941C151.035 92.0111 150.848 91.6396 150.607 91.3799C150.365 91.1201 150.081 90.9902 149.752 90.9902ZM168.591 93.9844H165.173V93.1094H168.591V93.9844ZM163.123 92.2207C163.123 93.0957 162.974 93.9548 162.678 94.7979C162.382 95.641 161.976 96.3883 161.461 97.04C160.946 97.6917 160.37 98.1908 159.732 98.5371L159.035 97.6758C159.627 97.3841 160.167 96.9512 160.655 96.377C161.142 95.8027 161.527 95.1488 161.81 94.415C162.093 93.6813 162.234 92.9499 162.234 92.2207V90.0059H163.123V92.2207ZM163.328 92.2207C163.328 92.9408 163.469 93.6517 163.751 94.3535C164.034 95.0553 164.417 95.6774 164.9 96.2197C165.383 96.762 165.916 97.1699 166.499 97.4434L165.857 98.3184C165.21 97.9811 164.629 97.5003 164.114 96.876C163.599 96.2516 163.193 95.5339 162.897 94.7227C162.601 93.9115 162.453 93.0775 162.453 92.2207V90.0059H163.328V92.2207ZM169.124 101.135H168.058V88.9531H169.124V101.135ZM184.968 101.107H183.943V88.9531H184.968V101.107ZM181.824 94.2168H179.445V93.3418H181.824V94.2168ZM182.507 100.479H181.496V89.2539H182.507V100.479ZM177.955 92.4258C177.955 93.3008 177.838 94.1462 177.606 94.9619C177.374 95.7777 177.045 96.5091 176.622 97.1562C176.198 97.8034 175.694 98.3092 175.111 98.6738L174.427 97.8672C174.983 97.5391 175.464 97.0902 175.87 96.5205C176.275 95.9508 176.583 95.3105 176.792 94.5996C177.002 93.8887 177.107 93.1641 177.107 92.4258V90.8398H177.955V92.4258ZM178.146 92.4258C178.146 93.1276 178.249 93.8158 178.454 94.4902C178.659 95.1647 178.959 95.7708 179.356 96.3086C179.752 96.8464 180.224 97.2747 180.771 97.5938L180.115 98.3867C179.531 98.0312 179.032 97.5482 178.618 96.9375C178.203 96.3268 177.886 95.6318 177.667 94.8525C177.449 94.0732 177.339 93.2643 177.339 92.4258V90.8398H178.146V92.4258ZM180.374 91.2773H174.769V90.3887H180.374V91.2773ZM192.131 96.6367C193.006 96.6367 193.763 96.7233 194.401 96.8965C195.039 97.0697 195.531 97.3249 195.877 97.6621C196.224 97.9993 196.397 98.4004 196.397 98.8652C196.397 99.321 196.224 99.7152 195.877 100.048C195.531 100.381 195.037 100.636 194.394 100.813C193.751 100.991 192.997 101.08 192.131 101.08C191.265 101.08 190.513 100.991 189.875 100.813C189.237 100.636 188.745 100.381 188.399 100.048C188.053 99.7152 187.879 99.321 187.879 98.8652C187.879 98.4004 188.053 97.9993 188.399 97.6621C188.745 97.3249 189.237 97.0697 189.875 96.8965C190.513 96.7233 191.265 96.6367 192.131 96.6367ZM192.131 97.457C191.493 97.457 190.933 97.514 190.45 97.6279C189.967 97.7419 189.595 97.9059 189.335 98.1201C189.076 98.3343 188.946 98.5827 188.946 98.8652C188.946 99.1387 189.076 99.3802 189.335 99.5898C189.595 99.7995 189.967 99.959 190.45 100.068C190.933 100.178 191.493 100.232 192.131 100.232C192.778 100.232 193.341 100.178 193.82 100.068C194.298 99.959 194.67 99.7995 194.934 99.5898C195.198 99.3802 195.331 99.1387 195.331 98.8652C195.331 98.5827 195.198 98.3343 194.934 98.1201C194.67 97.9059 194.298 97.7419 193.82 97.6279C193.341 97.514 192.778 97.457 192.131 97.457ZM195.85 90.457H187.961V89.582H195.85V90.457ZM197.709 95.502H186.649V94.627H197.709V95.502ZM192.282 94.9004H191.229V92.2754H192.282V94.9004ZM196.301 90.6074C196.301 91.2637 196.283 91.8242 196.247 92.2891C196.21 92.7539 196.114 93.2689 195.959 93.834L194.907 93.7109C195.053 93.1458 195.144 92.6423 195.18 92.2002C195.217 91.7581 195.235 91.2272 195.235 90.6074V89.582H196.301V90.6074ZM208.195 96.0625H207.128V88.9531H208.195V96.0625ZM210.027 92.7949H207.894V91.8926H210.027V92.7949ZM200.265 91.5098H203.806V89.6504H204.873V95.2969H199.212V89.6504H200.265V91.5098ZM203.806 94.4355V92.3711H200.265V94.4355H203.806ZM208.29 97.6074H201.632V100.684H200.566V96.7461H208.29V97.6074ZM208.523 100.943H200.566V100.068H208.523V100.943ZM221.825 96.2402H210.75V95.3652H221.825V96.2402ZM220.594 100.848H212.186V99.9453H220.594V100.848ZM213.266 100.219H212.186V97.3066H213.266V100.219ZM216.288 89.3906C217.153 89.3815 217.91 89.4727 218.557 89.6641C219.204 89.8555 219.703 90.1335 220.054 90.498C220.405 90.8626 220.581 91.2956 220.581 91.7969C220.581 92.2982 220.405 92.7288 220.054 93.0889C219.703 93.4489 219.204 93.7269 218.557 93.9229C217.91 94.1188 217.153 94.2168 216.288 94.2168C215.413 94.2168 214.651 94.1188 214.004 93.9229C213.357 93.7269 212.858 93.4489 212.507 93.0889C212.156 92.7288 211.981 92.2982 211.981 91.7969C211.981 91.2956 212.156 90.8626 212.507 90.498C212.858 90.1335 213.357 89.8555 214.004 89.6641C214.651 89.4727 215.413 89.3815 216.288 89.3906ZM216.288 90.252C215.64 90.252 215.075 90.3135 214.592 90.4365C214.109 90.5596 213.738 90.7373 213.478 90.9697C213.218 91.2021 213.088 91.4779 213.088 91.7969C213.088 92.1068 213.218 92.3779 213.478 92.6104C213.738 92.8428 214.109 93.0228 214.592 93.1504C215.075 93.278 215.64 93.3418 216.288 93.3418C216.935 93.3418 217.5 93.278 217.983 93.1504C218.466 93.0228 218.837 92.8428 219.097 92.6104C219.357 92.3779 219.487 92.1068 219.487 91.7969C219.487 91.4779 219.357 91.2021 219.097 90.9697C218.837 90.7373 218.466 90.5596 217.983 90.4365C217.5 90.3135 216.935 90.252 216.288 90.252ZM236.301 95.2695H235.248V88.9531H236.301V95.2695ZM236.315 98.7559H229.493V100.506H228.44V97.9492H235.248V96.7051H228.413V95.8574H236.315V98.7559ZM236.752 100.971H228.44V100.109H236.752V100.971ZM230.45 90.6758C230.45 91.3776 230.304 92.0361 230.012 92.6514C229.72 93.2666 229.31 93.8021 228.782 94.2578C228.253 94.7135 227.647 95.0553 226.963 95.2832L226.457 94.4355C227.068 94.235 227.608 93.9434 228.078 93.5605C228.547 93.1777 228.914 92.738 229.178 92.2412C229.442 91.7445 229.575 91.2227 229.575 90.6758V90.0195H230.45V90.6758ZM230.655 90.6758C230.655 91.1953 230.787 91.6898 231.051 92.1592C231.316 92.6286 231.685 93.0387 232.159 93.3896C232.633 93.7406 233.175 94.0072 233.786 94.1895L233.252 95.0234C232.578 94.8047 231.979 94.4834 231.455 94.0596C230.93 93.6357 230.523 93.1322 230.231 92.5488C229.939 91.9655 229.793 91.3411 229.793 90.6758V90.0195H230.655V90.6758ZM233.457 90.5391H226.731V89.6504H233.457V90.5391ZM249.453 96.0625H238.324V95.1738H249.453V96.0625ZM244.503 98.5508H243.437V95.7207H244.503V98.5508ZM248.003 93.7793H239.773V89.5547H248.003V93.7793ZM240.826 92.918H246.937V90.4023H240.826V92.918ZM248.208 100.848H239.746V99.9453H248.208V100.848ZM240.826 100.26H239.746V97.3477H240.826V100.26ZM261.469 96.2402H250.395V95.3652H261.469V96.2402ZM260.239 100.848H251.83V99.9453H260.239V100.848ZM252.911 100.219H251.83V97.3066H252.911V100.219ZM255.932 89.3906C256.798 89.3815 257.554 89.4727 258.202 89.6641C258.849 89.8555 259.348 90.1335 259.699 90.498C260.05 90.8626 260.225 91.2956 260.225 91.7969C260.225 92.2982 260.05 92.7288 259.699 93.0889C259.348 93.4489 258.849 93.7269 258.202 93.9229C257.554 94.1188 256.798 94.2168 255.932 94.2168C255.057 94.2168 254.296 94.1188 253.649 93.9229C253.002 93.7269 252.503 93.4489 252.152 93.0889C251.801 92.7288 251.625 92.2982 251.625 91.7969C251.625 91.2956 251.801 90.8626 252.152 90.498C252.503 90.1335 253.002 89.8555 253.649 89.6641C254.296 89.4727 255.057 89.3815 255.932 89.3906ZM255.932 90.252C255.285 90.252 254.72 90.3135 254.237 90.4365C253.754 90.5596 253.382 90.7373 253.122 90.9697C252.863 91.2021 252.733 91.4779 252.733 91.7969C252.733 92.1068 252.863 92.3779 253.122 92.6104C253.382 92.8428 253.754 93.0228 254.237 93.1504C254.72 93.278 255.285 93.3418 255.932 93.3418C256.579 93.3418 257.144 93.278 257.627 93.1504C258.11 93.0228 258.482 92.8428 258.742 92.6104C259.001 92.3779 259.131 92.1068 259.131 91.7969C259.131 91.4779 259.001 91.2021 258.742 90.9697C258.482 90.7373 258.11 90.5596 257.627 90.4365C257.144 90.3135 256.579 90.252 255.932 90.252ZM275.33 101.107H274.264V88.9531H275.33V101.107ZM277.368 94.668H275.084V93.7383H277.368V94.668ZM267.496 93.2051H271.051V89.9922H272.118V98.1953H266.43V89.9922H267.496V93.2051ZM271.051 97.293V94.0664H267.496V97.293H271.051ZM289.111 99.6035H277.982V98.7012H289.111V99.6035ZM284.038 99.0977H282.986V96.0898H284.038V99.0977ZM287.703 93.5332H280.443V95.9941H279.376V92.6582H286.65V90.7441H279.349V89.8555H287.703V93.5332ZM287.99 96.4043H279.376V95.5156H287.99V96.4043ZM34.7491 118.637C35.6241 118.637 36.3806 118.723 37.0186 118.896C37.6567 119.07 38.1488 119.325 38.4952 119.662C38.8416 119.999 39.0147 120.4 39.0147 120.865C39.0147 121.321 38.8416 121.715 38.4952 122.048C38.1488 122.381 37.6544 122.636 37.0118 122.813C36.3692 122.991 35.615 123.08 34.7491 123.08C33.8832 123.08 33.1313 122.991 32.4932 122.813C31.8552 122.636 31.363 122.381 31.0167 122.048C30.6703 121.715 30.4972 121.321 30.4972 120.865C30.4972 120.4 30.6703 119.999 31.0167 119.662C31.363 119.325 31.8552 119.07 32.4932 118.896C33.1313 118.723 33.8832 118.637 34.7491 118.637ZM34.7491 119.457C34.1111 119.457 33.5505 119.514 33.0675 119.628C32.5844 119.742 32.213 119.906 31.9532 120.12C31.6934 120.334 31.5636 120.583 31.5636 120.865C31.5636 121.139 31.6934 121.38 31.9532 121.59C32.213 121.799 32.5844 121.959 33.0675 122.068C33.5505 122.178 34.1111 122.232 34.7491 122.232C35.3962 122.232 35.9591 122.178 36.4376 122.068C36.9161 121.959 37.2875 121.799 37.5518 121.59C37.8162 121.38 37.9483 121.139 37.9483 120.865C37.9483 120.583 37.8162 120.334 37.5518 120.12C37.2875 119.906 36.9161 119.742 36.4376 119.628C35.9591 119.514 35.3962 119.457 34.7491 119.457ZM38.4679 112.457H30.5792V111.582H38.4679V112.457ZM40.3272 117.502H29.2667V116.627H40.3272V117.502ZM34.8995 116.9H33.8468V114.275H34.8995V116.9ZM38.919 112.607C38.919 113.264 38.9008 113.824 38.8643 114.289C38.8279 114.754 38.7322 115.269 38.5772 115.834L37.5245 115.711C37.6703 115.146 37.7615 114.642 37.7979 114.2C37.8344 113.758 37.8526 113.227 37.8526 112.607V111.582H38.919V112.607ZM52.3848 118.281H41.297V117.406H52.3848V118.281ZM47.3673 117.775H46.3009V115.807H47.3673V117.775ZM51.0723 116.203H42.7735V115.342H51.0723V116.203ZM51.004 112.184H43.8536V115.793H42.7735V111.309H51.004V112.184ZM50.6759 114.139H43.5255V113.318H50.6759V114.139ZM46.8477 119.197C47.741 119.188 48.4975 119.259 49.1173 119.409C49.7371 119.56 50.211 119.781 50.5391 120.072C50.8673 120.364 51.0313 120.719 51.0313 121.139C51.0313 121.558 50.8673 121.911 50.5391 122.198C50.211 122.485 49.7371 122.704 49.1173 122.854C48.4975 123.005 47.741 123.08 46.8477 123.08C45.9545 123.08 45.1934 123.005 44.5645 122.854C43.9356 122.704 43.4594 122.485 43.1358 122.198C42.8123 121.911 42.6505 121.558 42.6505 121.139C42.6505 120.71 42.8145 120.353 43.1427 120.065C43.4708 119.778 43.947 119.56 44.5714 119.409C45.1957 119.259 45.9545 119.188 46.8477 119.197ZM46.8477 120.004C46.1824 120.004 45.6173 120.047 45.1524 120.134C44.6876 120.22 44.3344 120.348 44.0928 120.517C43.8513 120.685 43.7305 120.893 43.7305 121.139C43.7305 121.385 43.849 121.59 44.086 121.754C44.323 121.918 44.6762 122.041 45.1456 122.123C45.615 122.205 46.1824 122.246 46.8477 122.246C47.5131 122.246 48.0759 122.205 48.5362 122.123C48.9965 122.041 49.3474 121.918 49.5889 121.754C49.8305 121.59 49.9512 121.385 49.9512 121.139C49.9512 120.893 49.8305 120.685 49.5889 120.517C49.3474 120.348 48.9942 120.22 48.5294 120.134C48.0645 120.047 47.504 120.004 46.8477 120.004ZM62.6925 114.002H59.2471V113.1H62.6925V114.002ZM62.7198 116.6H59.2471V115.711H62.7198V116.6ZM59.5206 117.693H53.9425V112.02H59.5206V117.693ZM55.0089 116.832H58.4678V112.908H55.0089V116.832ZM63.4444 119.84H62.3643V110.967H63.4444V119.84ZM63.7178 122.848H55.5831V121.945H63.7178V122.848ZM56.6632 122.342H55.5831V119.047H56.6632V122.342ZM74.7227 114.809H71.961V113.906H74.7227V114.809ZM75.4883 117.557H74.4219V110.953H75.4883V117.557ZM68.7481 119.662H74.4219V118.145H75.4883V122.943H67.668V118.145H68.7481V119.662ZM74.4219 122.068V120.523H68.7481V122.068H74.4219ZM69.459 112.936C69.459 113.656 69.3132 114.337 69.0215 114.979C68.7299 115.622 68.3266 116.185 67.8116 116.668C67.2966 117.151 66.7064 117.516 66.0411 117.762L65.4805 116.914C66.073 116.695 66.6039 116.383 67.0733 115.978C67.5427 115.572 67.9096 115.105 68.1739 114.576C68.4382 114.048 68.5704 113.501 68.5704 112.936V111.91H69.459V112.936ZM69.6505 112.936C69.6505 113.446 69.7781 113.947 70.0333 114.439C70.2885 114.932 70.6417 115.371 71.0928 115.759C71.544 116.146 72.0613 116.44 72.6446 116.641L72.084 117.475C71.4278 117.229 70.8513 116.878 70.3546 116.422C69.8578 115.966 69.4704 115.438 69.1924 114.836C68.9144 114.234 68.7755 113.601 68.7755 112.936V111.91H69.6505V112.936ZM72.3712 112.58H65.8223V111.691H72.3712V112.58ZM90.9766 117.27H89.9239V110.953H90.9766V117.27ZM90.9903 120.756H84.168V122.506H83.1153V119.949H89.9239V118.705H83.0879V117.857H90.9903V120.756ZM91.4278 122.971H83.1153V122.109H91.4278V122.971ZM85.125 112.676C85.125 113.378 84.9792 114.036 84.6875 114.651C84.3959 115.267 83.9857 115.802 83.4571 116.258C82.9284 116.714 82.3223 117.055 81.6387 117.283L81.1329 116.436C81.7435 116.235 82.2836 115.943 82.753 115.561C83.2224 115.178 83.5892 114.738 83.8536 114.241C84.1179 113.744 84.25 113.223 84.25 112.676V112.02H85.125V112.676ZM85.3301 112.676C85.3301 113.195 85.4623 113.69 85.7266 114.159C85.9909 114.629 86.3601 115.039 86.834 115.39C87.308 115.741 87.8503 116.007 88.461 116.189L87.9278 117.023C87.2533 116.805 86.654 116.483 86.1299 116.06C85.6058 115.636 85.198 115.132 84.9063 114.549C84.6146 113.965 84.4688 113.341 84.4688 112.676V112.02H85.3301V112.676ZM88.1329 112.539H81.4063V111.65H88.1329V112.539ZM104.128 118.062H92.9991V117.174H104.128V118.062ZM99.1787 120.551H98.1123V117.721H99.1787V120.551ZM102.679 115.779H94.4483V111.555H102.679V115.779ZM95.501 114.918H101.612V112.402H95.501V114.918ZM102.884 122.848H94.4209V121.945H102.884V122.848ZM95.501 122.26H94.4209V119.348H95.501V122.26ZM110.607 111.746C111.455 111.746 112.216 111.885 112.891 112.163C113.565 112.441 114.094 112.833 114.477 113.339C114.859 113.845 115.051 114.426 115.051 115.082C115.051 115.738 114.859 116.322 114.477 116.832C114.094 117.342 113.565 117.734 112.891 118.008C112.216 118.281 111.455 118.418 110.607 118.418C109.769 118.418 109.012 118.281 108.338 118.008C107.663 117.734 107.133 117.342 106.745 116.832C106.358 116.322 106.164 115.738 106.164 115.082C106.164 114.426 106.358 113.845 106.745 113.339C107.133 112.833 107.663 112.441 108.338 112.163C109.012 111.885 109.769 111.746 110.607 111.746ZM110.607 112.621C109.96 112.612 109.377 112.712 108.857 112.922C108.338 113.132 107.93 113.425 107.634 113.804C107.338 114.182 107.189 114.608 107.189 115.082C107.189 115.565 107.338 115.993 107.634 116.367C107.93 116.741 108.338 117.03 108.857 117.235C109.377 117.44 109.96 117.543 110.607 117.543C111.255 117.543 111.836 117.44 112.351 117.235C112.866 117.03 113.271 116.741 113.567 116.367C113.864 115.993 114.012 115.565 114.012 115.082C114.012 114.608 113.864 114.182 113.567 113.804C113.271 113.425 112.866 113.132 112.351 112.922C111.836 112.712 111.255 112.612 110.607 112.621ZM116.199 121.494H105.07V120.592H116.199V121.494ZM128.257 121.604H117.128V120.701H128.257V121.604ZM123.185 121.098H122.132V118.09H123.185V121.098ZM126.849 115.533H119.589V117.994H118.522V114.658H125.796V112.744H118.495V111.855H126.849V115.533ZM127.136 118.404H118.522V117.516H127.136V118.404ZM138.714 123.135H137.661V118.664H138.714V123.135ZM143.731 119.211H132.657V118.309H143.731V119.211ZM138.604 113.359C138.604 114.034 138.379 114.651 137.928 115.212C137.477 115.772 136.882 116.237 136.144 116.606C135.405 116.976 134.608 117.229 133.751 117.365L133.354 116.504C134.084 116.404 134.779 116.199 135.439 115.889C136.1 115.579 136.636 115.203 137.046 114.761C137.456 114.319 137.661 113.852 137.661 113.359V113.031H138.604V113.359ZM138.728 113.359C138.728 113.842 138.93 114.307 139.336 114.754C139.742 115.201 140.275 115.579 140.936 115.889C141.596 116.199 142.291 116.404 143.021 116.504L142.624 117.365C141.776 117.238 140.983 116.985 140.245 116.606C139.507 116.228 138.914 115.759 138.468 115.198C138.021 114.638 137.798 114.025 137.798 113.359V113.031H138.728V113.359ZM142.665 113.346H133.737V112.471H142.665V113.346ZM138.714 112.771H137.661V110.953H138.714V112.771ZM154.121 123.107H153.055V110.953H154.121V123.107ZM156.09 116.805H153.848V115.902H156.09V116.805ZM150.977 112.266C150.977 113.451 150.783 114.567 150.396 115.615C150.008 116.663 149.4 117.63 148.57 118.514C147.741 119.398 146.684 120.159 145.398 120.797L144.797 119.949C145.927 119.384 146.873 118.723 147.634 117.967C148.395 117.21 148.967 116.369 149.35 115.444C149.732 114.519 149.924 113.519 149.924 112.443V112.266H150.977ZM150.471 113.168H145.357V112.266H150.471V113.168ZM166.179 123.107H165.112V110.953H166.179V123.107ZM168.216 116.859H165.933V115.971H168.216V116.859ZM163.937 113.797H156.704V112.908H163.937V113.797ZM160.382 114.809C160.956 114.809 161.469 114.927 161.92 115.164C162.371 115.401 162.724 115.731 162.979 116.155C163.235 116.579 163.362 117.06 163.362 117.598C163.362 118.135 163.235 118.616 162.979 119.04C162.724 119.464 162.371 119.794 161.92 120.031C161.469 120.268 160.956 120.387 160.382 120.387C159.808 120.387 159.295 120.268 158.844 120.031C158.393 119.794 158.039 119.464 157.784 119.04C157.529 118.616 157.401 118.135 157.401 117.598C157.401 117.06 157.529 116.579 157.784 116.155C158.039 115.731 158.393 115.401 158.844 115.164C159.295 114.927 159.808 114.809 160.382 114.809ZM160.382 115.711C160.008 115.711 159.673 115.791 159.377 115.95C159.081 116.11 158.848 116.333 158.68 116.62C158.511 116.907 158.427 117.233 158.427 117.598C158.427 117.962 158.511 118.286 158.68 118.568C158.848 118.851 159.081 119.072 159.377 119.231C159.673 119.391 160.008 119.471 160.382 119.471C160.756 119.471 161.09 119.391 161.387 119.231C161.683 119.072 161.915 118.851 162.084 118.568C162.253 118.286 162.337 117.962 162.337 117.598C162.337 117.233 162.253 116.907 162.084 116.62C161.915 116.333 161.683 116.11 161.387 115.95C161.09 115.791 160.756 115.711 160.382 115.711ZM160.901 113.318H159.835V111.104H160.901V113.318ZM178.852 117.256H177.799V110.953H178.852V117.256ZM178.865 120.783H172.043V122.479H170.99V119.949H177.799V118.732H170.963V117.871H178.865V120.783ZM179.303 122.971H170.99V122.096H179.303V122.971ZM172.945 112.238C172.945 112.977 172.797 113.674 172.501 114.33C172.205 114.986 171.795 115.556 171.27 116.039C170.746 116.522 170.147 116.887 169.473 117.133L168.912 116.285C169.523 116.066 170.065 115.754 170.539 115.349C171.013 114.943 171.382 114.469 171.646 113.927C171.911 113.384 172.043 112.822 172.043 112.238V111.309H172.945V112.238ZM173.137 112.238C173.137 112.803 173.269 113.341 173.533 113.852C173.797 114.362 174.164 114.809 174.634 115.191C175.103 115.574 175.639 115.866 176.24 116.066L175.707 116.9C175.033 116.663 174.433 116.317 173.909 115.861C173.385 115.406 172.975 114.866 172.679 114.241C172.382 113.617 172.234 112.949 172.234 112.238V111.309H173.137V112.238ZM190.293 112.088C190.293 112.826 190.063 113.503 189.603 114.118C189.142 114.733 188.534 115.242 187.777 115.643C187.021 116.044 186.219 116.317 185.371 116.463L184.934 115.588C185.672 115.488 186.381 115.267 187.06 114.925C187.739 114.583 188.29 114.164 188.714 113.667C189.138 113.17 189.35 112.644 189.35 112.088V111.391H190.293V112.088ZM190.457 112.088C190.457 112.635 190.671 113.159 191.1 113.66C191.528 114.161 192.084 114.583 192.768 114.925C193.451 115.267 194.158 115.488 194.887 115.588L194.449 116.463C193.602 116.317 192.802 116.041 192.05 115.636C191.298 115.23 190.689 114.72 190.225 114.104C189.76 113.489 189.527 112.817 189.527 112.088V111.391H190.457V112.088ZM190.402 123.107H189.35V118.473H190.402V123.107ZM195.434 118.705H184.359V117.803H195.434V118.705ZM206.233 117.529H197.839V116.654H206.233V117.529ZM207.546 121.576H196.417V120.674H207.546V121.576ZM202.474 121.043H201.421V117.037H202.474V121.043ZM206.11 112.826H198.919V117.064H197.839V111.951H206.11V112.826ZM215.87 119.115C215.87 119.644 215.758 120.161 215.535 120.667C215.312 121.173 214.993 121.624 214.578 122.021C214.163 122.417 213.669 122.725 213.095 122.943L212.548 122.15C213.049 121.959 213.484 121.701 213.853 121.378C214.223 121.054 214.51 120.694 214.715 120.298C214.92 119.901 215.022 119.507 215.022 119.115V118.445H215.87V119.115ZM216.061 119.115C216.061 119.525 216.146 119.933 216.314 120.339C216.483 120.744 216.734 121.111 217.066 121.439C217.399 121.768 217.802 122.027 218.276 122.219L217.825 123.039C217.26 122.82 216.786 122.506 216.403 122.096C216.02 121.686 215.736 121.223 215.549 120.708C215.362 120.193 215.268 119.662 215.268 119.115V118.445H216.061V119.115ZM220.368 119.115C220.368 119.607 220.272 120.111 220.081 120.626C219.89 121.141 219.602 121.613 219.22 122.041C218.837 122.469 218.372 122.802 217.825 123.039L217.36 122.219C217.825 122.009 218.224 121.729 218.557 121.378C218.889 121.027 219.14 120.651 219.309 120.25C219.477 119.849 219.561 119.471 219.561 119.115V118.445H220.368V119.115ZM220.614 119.115C220.614 119.535 220.714 119.942 220.915 120.339C221.115 120.735 221.403 121.093 221.776 121.412C222.15 121.731 222.588 121.977 223.089 122.15L222.556 122.943C221.972 122.734 221.471 122.435 221.052 122.048C220.632 121.66 220.313 121.214 220.095 120.708C219.876 120.202 219.767 119.671 219.767 119.115V118.445H220.614V119.115ZM221.981 117.912H220.915V110.967H221.981V117.912ZM215.419 111.678C216.03 111.678 216.576 111.796 217.06 112.033C217.543 112.27 217.921 112.605 218.194 113.038C218.468 113.471 218.604 113.965 218.604 114.521C218.604 115.068 218.468 115.556 218.194 115.984C217.921 116.413 217.543 116.745 217.06 116.982C216.576 117.219 216.03 117.338 215.419 117.338C214.808 117.338 214.261 117.219 213.778 116.982C213.295 116.745 212.917 116.413 212.643 115.984C212.37 115.556 212.233 115.068 212.233 114.521C212.233 113.965 212.37 113.471 212.643 113.038C212.917 112.605 213.295 112.27 213.778 112.033C214.261 111.796 214.808 111.678 215.419 111.678ZM215.419 112.594C215.009 112.585 214.642 112.662 214.318 112.826C213.995 112.99 213.742 113.22 213.56 113.517C213.377 113.813 213.286 114.148 213.286 114.521C213.286 114.886 213.377 115.214 213.56 115.506C213.742 115.798 213.995 116.025 214.318 116.189C214.642 116.354 215.009 116.44 215.419 116.449C215.829 116.44 216.196 116.354 216.519 116.189C216.843 116.025 217.096 115.798 217.278 115.506C217.461 115.214 217.552 114.886 217.552 114.521C217.552 114.148 217.461 113.813 217.278 113.517C217.096 113.22 216.843 112.99 216.519 112.826C216.196 112.662 215.829 112.585 215.419 112.594ZM226.478 119.676H232.549V118.254H233.629V122.943H225.412V118.254H226.478V119.676ZM232.549 122.082V120.523H226.478V122.082H232.549ZM235.078 117.393H224.004V116.504H235.078V117.393ZM229.924 111.664C229.924 112.329 229.694 112.942 229.233 113.503C228.773 114.063 228.169 114.528 227.422 114.897C226.674 115.267 225.881 115.515 225.043 115.643L224.633 114.781C225.362 114.681 226.064 114.48 226.738 114.18C227.413 113.879 227.957 113.507 228.372 113.065C228.787 112.623 228.994 112.156 228.994 111.664V111.09H229.924V111.664ZM230.102 111.664C230.102 112.147 230.311 112.61 230.73 113.052C231.15 113.494 231.697 113.87 232.371 114.18C233.046 114.49 233.738 114.69 234.449 114.781L234.053 115.643C233.214 115.515 232.421 115.264 231.674 114.891C230.926 114.517 230.323 114.05 229.862 113.489C229.402 112.929 229.172 112.32 229.172 111.664V111.09H230.102V111.664ZM246.083 123.107H245.017V110.953H246.083V123.107ZM237.907 119.676H236.854V112.156H237.907V119.676ZM237.839 119.047C238.832 119.047 239.814 119.001 240.785 118.91C241.756 118.819 242.733 118.669 243.718 118.459L243.868 119.375C242.838 119.585 241.833 119.737 240.853 119.833C239.874 119.929 238.869 119.977 237.839 119.977H236.854V119.047H237.839ZM257.525 123.135H256.459V110.953H257.525V123.135ZM259.562 116.668H257.279V115.766H259.562V116.668ZM249.609 119.184C250.785 119.184 251.804 119.152 252.665 119.088C253.526 119.024 254.399 118.91 255.283 118.746L255.42 119.676C254.527 119.84 253.647 119.949 252.781 120.004C251.915 120.059 250.858 120.086 249.609 120.086H248.652V119.184H249.609ZM254.326 113.031H249.719V119.594H248.652V112.143H254.326V113.031ZM261.462 122.082C261.307 122.082 261.161 122.041 261.024 121.959C260.888 121.877 260.781 121.768 260.703 121.631C260.626 121.494 260.587 121.348 260.587 121.193C260.587 121.038 260.626 120.893 260.703 120.756C260.781 120.619 260.888 120.512 261.024 120.435C261.161 120.357 261.307 120.318 261.462 120.318C261.617 120.318 261.763 120.357 261.899 120.435C262.036 120.512 262.143 120.619 262.221 120.756C262.298 120.893 262.337 121.038 262.337 121.193C262.337 121.348 262.298 121.494 262.221 121.631C262.143 121.768 262.036 121.877 261.899 121.959C261.763 122.041 261.617 122.082 261.462 122.082Z" fill="#666666"/>
<path d="M67.0264 25.0312C67.0264 25.847 66.8919 26.6058 66.6231 27.3076C66.3587 28.0049 65.9645 28.6133 65.4404 29.1328C64.9209 29.6523 64.292 30.0443 63.5537 30.3086L62.7129 29.1055C63.3737 28.8867 63.932 28.57 64.3877 28.1553C64.848 27.7406 65.1921 27.2643 65.4199 26.7266C65.6478 26.1888 65.7617 25.6237 65.7617 25.0312V23.623H67.0264V25.0312ZM67.2861 25.0518C67.2861 25.5986 67.3978 26.1227 67.6211 26.624C67.8444 27.1208 68.1794 27.5651 68.626 27.957C69.0772 28.3444 69.6172 28.6429 70.2461 28.8525L69.4531 30.0488C68.7331 29.7982 68.1179 29.4268 67.6074 28.9346C67.1016 28.4424 66.7165 27.8636 66.4522 27.1982C66.1924 26.5329 66.0625 25.8174 66.0625 25.0518V23.623H67.2861V25.0518ZM72.6113 31.9355H71.0938V22.8643H72.6113V31.9355ZM74.3408 27.793H72.1602V26.5078H74.3408V27.793ZM73.1035 34.9844H64.7022V33.7402H73.1035V34.9844ZM66.2471 34.3828H64.7022V31.0469H66.2471V34.3828ZM84.4444 26.8975H81.2451V25.6738H84.4444V26.8975ZM78.3945 23.4043C79.0052 23.3997 79.5544 23.5205 80.042 23.7666C80.5342 24.0127 80.9216 24.359 81.2041 24.8057C81.4912 25.2477 81.6348 25.7467 81.6348 26.3027C81.6348 26.8633 81.4912 27.3669 81.2041 27.8135C80.9216 28.2601 80.5342 28.6087 80.042 28.8594C79.5544 29.1055 79.0052 29.2285 78.3945 29.2285C77.7702 29.2285 77.2097 29.1055 76.7129 28.8594C76.2162 28.6087 75.8288 28.2601 75.5508 27.8135C75.2728 27.3669 75.1338 26.8633 75.1338 26.3027C75.1338 25.7467 75.2728 25.2477 75.5508 24.8057C75.8288 24.359 76.2162 24.0127 76.7129 23.7666C77.2142 23.5205 77.7748 23.3997 78.3945 23.4043ZM78.3945 24.6826C78.0436 24.6735 77.7292 24.735 77.4512 24.8672C77.1777 24.9993 76.9636 25.1885 76.8086 25.4346C76.6537 25.6807 76.5762 25.9701 76.5762 26.3027C76.5762 26.6263 76.6537 26.9134 76.8086 27.1641C76.9636 27.4147 77.1777 27.6107 77.4512 27.752C77.7292 27.8887 78.0436 27.957 78.3945 27.957C78.7409 27.957 79.0485 27.8887 79.3174 27.752C79.5908 27.6107 79.8027 27.4147 79.9531 27.1641C80.1035 26.9134 80.1787 26.6263 80.1787 26.3027C80.1787 25.9746 80.1035 25.6875 79.9531 25.4414C79.8027 25.1908 79.5908 24.9993 79.3174 24.8672C79.0485 24.735 78.7409 24.6735 78.3945 24.6826ZM85.3125 29.4951H83.7949V22.8574H85.3125V29.4951ZM78.6748 31.375H83.7949V30.0625H85.3125V35.0596H77.1709V30.0625H78.6748V31.375ZM83.7949 33.8291V32.5576H78.6748V33.8291H83.7949ZM88.3272 35.4902H86.8096L89.9951 23.6367H91.5264L88.3272 35.4902ZM96.5098 25.0107C96.5098 25.7718 96.3708 26.4919 96.0928 27.1709C95.8148 27.8454 95.4092 28.4355 94.876 28.9414C94.3473 29.4427 93.7139 29.8187 92.9756 30.0693L92.1895 28.9004C92.832 28.6816 93.3835 28.3717 93.8438 27.9707C94.3086 27.5651 94.6572 27.1071 94.8897 26.5967C95.1266 26.0863 95.2451 25.5576 95.2451 25.0107V24.1289H96.5098V25.0107ZM96.7832 25.0107C96.7832 25.5303 96.8994 26.0316 97.1319 26.5146C97.3643 26.9932 97.7083 27.4215 98.1641 27.7998C98.6198 28.1781 99.1667 28.4674 99.8047 28.668L99.0254 29.8438C98.2962 29.6113 97.6696 29.2536 97.1455 28.7705C96.626 28.2874 96.2272 27.7223 95.9492 27.0752C95.6758 26.4281 95.5391 25.7399 95.5391 25.0107V24.1289H96.7832V25.0107ZM102.382 30.3154H100.857V22.8574H102.382V30.3154ZM102.382 35.2031H100.857V32.1133H93.96V30.8896H102.382V35.2031ZM99.3877 24.8535H92.586V23.6367H99.3877V24.8535ZM115.48 31.0879H104.187V29.8574H115.48V31.0879ZM110.544 35.2031H109.047V30.6299H110.544V35.2031ZM114.092 28.415H105.554V23.4932H114.092V28.415ZM107.044 27.2188H112.574V24.71H107.044V27.2188ZM128.823 25.6465H125.59V24.5049H128.823V25.6465ZM128.823 27.8955H125.59V26.7334H128.823V27.8955ZM129.972 29.249H128.461V22.8574H129.972V29.249ZM129.972 32.9199H123.368V34.6357H121.844V31.7988H128.461V30.9375H121.823V29.7549H129.972V32.9199ZM130.375 35.0596H121.844V33.8633H130.375V35.0596ZM121.714 24.9629H124.476V23.4043H125.973V28.8525H120.189V23.4043H121.714V24.9629ZM124.476 27.6426V26.1182H121.714V27.6426H124.476ZM145.339 29.2217H143.828V22.8574H145.339V29.2217ZM145.353 32.9336H138.667V34.4033H137.184V31.833H143.835V30.9102H137.156V29.748H145.353V32.9336ZM145.722 35.1074H137.184V33.9248H145.722V35.1074ZM139.453 24.5596C139.453 25.2887 139.314 25.9723 139.036 26.6104C138.758 27.2438 138.348 27.7975 137.806 28.2715C137.263 28.7454 136.616 29.0941 135.864 29.3174L135.167 28.1211C135.814 27.9251 136.366 27.6449 136.821 27.2803C137.282 26.9111 137.628 26.4919 137.86 26.0225C138.097 25.5531 138.216 25.0654 138.216 24.5596V23.9922H139.453V24.5596ZM139.754 24.5596C139.754 25.0381 139.87 25.4984 140.103 25.9404C140.335 26.3825 140.679 26.7721 141.135 27.1094C141.591 27.4466 142.142 27.7041 142.789 27.8818L142.058 29.0645C141.319 28.8457 140.684 28.5153 140.15 28.0732C139.622 27.6312 139.221 27.1071 138.947 26.501C138.678 25.8949 138.544 25.2477 138.544 24.5596V23.9922H139.754V24.5596ZM142.358 24.6963H135.557V23.4727H142.358V24.6963ZM158.45 30.2607H147.157V29.0371H158.45V30.2607ZM153.679 32.5166H152.175V29.7959H153.679V32.5166ZM157.001 27.8887H148.586V23.4248H157.001V27.8887ZM150.069 26.6992H155.497V24.6074H150.069V26.6992ZM157.199 34.9844H148.518V33.7402H157.199V34.9844ZM150.042 34.1572H148.518V31.3955H150.042V34.1572ZM168.964 35.2305H167.467V30.7256H168.964V35.2305ZM173.858 31.5322H162.606V30.2744H173.858V31.5322ZM168.8 25.3457C168.8 26.043 168.588 26.6855 168.164 27.2734C167.745 27.8568 167.155 28.3444 166.394 28.7363C165.637 29.1283 164.762 29.3903 163.769 29.5225L163.215 28.3262C164.053 28.2259 164.794 28.0208 165.437 27.7109C166.079 27.401 166.578 27.0387 166.934 26.624C167.289 26.2093 167.467 25.7832 167.467 25.3457V25.0312H168.8V25.3457ZM168.984 25.3457C168.984 25.7741 169.158 26.1979 169.504 26.6172C169.855 27.0365 170.352 27.401 170.994 27.7109C171.641 28.0208 172.382 28.2259 173.216 28.3262L172.662 29.5225C171.678 29.3949 170.805 29.1305 170.044 28.7295C169.283 28.3285 168.693 27.8363 168.273 27.2529C167.854 26.665 167.645 26.0293 167.645 25.3457V25.0312H168.984V25.3457ZM172.806 25.5234H163.646V24.3203H172.806V25.5234ZM168.964 24.7373H167.467V22.8711H168.964V24.7373ZM178.876 25.79C178.876 26.542 178.739 27.2438 178.466 27.8955C178.192 28.5472 177.796 29.1146 177.276 29.5977C176.761 30.0762 176.135 30.4339 175.396 30.6709L174.658 29.4883C175.287 29.2878 175.825 28.9984 176.271 28.6201C176.723 28.2419 177.062 27.8089 177.29 27.3213C177.518 26.8291 177.632 26.3187 177.632 25.79V25.2363H178.876V25.79ZM179.136 25.79C179.136 26.2868 179.252 26.763 179.484 27.2188C179.717 27.6745 180.056 28.0824 180.503 28.4424C180.95 28.8024 181.49 29.0827 182.123 29.2832L181.385 30.4727C180.656 30.2493 180.029 29.9076 179.505 29.4473C178.981 28.9824 178.582 28.4355 178.309 27.8066C178.035 27.1777 177.898 26.5055 177.898 25.79V25.2363H179.136V25.79ZM181.727 25.5918H175.041V24.3887H181.727V25.5918ZM179.156 24.8535H177.632V22.9395H179.156V24.8535ZM184.297 27.7725H181.31V26.542H184.297V27.7725ZM185.049 32.0518H183.531V22.8711H185.049V32.0518ZM185.363 34.9844H176.941V33.7402H185.363V34.9844ZM178.466 34.5059H176.941V31.252H178.466V34.5059Z" fill="#1A1A1A"/>
</svg>
